<svg width="218" height="49" viewBox="0 0 218 49" fill="none" xmlns="http://www.w3.org/2000/svg">
<path fill-rule="evenodd" clip-rule="evenodd" d="M12.3475 0H48.409V36.2576C48.409 43.0489 42.8522 48.605 36.0615 48.605H0V12.3475C0 5.55614 5.55614 0 12.3475 0ZM2.59295 46.0115H36.0615C41.4216 46.0115 45.8154 41.6171 45.8154 36.2576V2.59295H12.3475C6.98736 2.59295 2.59295 6.98797 2.59295 12.3475V46.0115ZM2.59295 12.3475V46.0115H36.0615C41.4216 46.0115 45.8154 41.6171 45.8154 36.2576V2.59295H12.3475C6.98736 2.59295 2.59295 6.98797 2.59295 12.3475Z" fill="white"/>
<path d="M77.6906 29.8445H67.3741L65.3401 34.6201H61.3906L70.6753 13.9863H74.4482L83.7627 34.6201H79.7537L77.69 29.8445H77.6906ZM76.4233 26.8376L72.532 17.8181L68.6705 26.8376H76.4227H76.4233Z" fill="#81898A"/>
<path d="M94.8163 34.9145C91.9569 34.9145 89.7463 34.1188 88.1549 32.4976C86.5634 30.9056 85.7671 28.6064 85.7671 25.6292V13.9858H89.5989V25.4817C89.5989 29.5198 91.3378 31.5538 94.846 31.5538C98.3246 31.5538 100.064 29.5198 100.064 25.4817V13.9858H103.836V25.6292C103.836 28.6064 103.041 30.9056 101.478 32.4976C99.8869 34.1188 97.6757 34.9145 94.8169 34.9145H94.8163Z" fill="#81898A"/>
<path d="M113.004 17.2287H106.165V13.9863H123.674V17.2287H116.835V34.6194H113.004V17.2287Z" fill="#81898A"/>
<path d="M135.907 34.9145C133.814 34.9145 131.898 34.4429 130.218 33.5294C128.538 32.6159 127.211 31.348 126.239 29.7268C125.266 28.1056 124.794 26.3078 124.794 24.303C124.794 22.2988 125.266 20.4712 126.239 18.85C127.211 17.2288 128.538 15.9615 130.218 15.0474C131.898 14.1333 133.814 13.6914 135.907 13.6914C138 13.6914 139.916 14.1333 141.596 15.0474C143.276 15.9608 144.603 17.2288 145.575 18.85C146.548 20.4712 147.02 22.269 147.02 24.303C147.02 26.3369 146.548 28.1347 145.575 29.7559C144.602 31.3771 143.276 32.6153 141.596 33.5288C139.916 34.4423 138 34.9139 135.907 34.9139V34.9145ZM135.907 31.5543C137.292 31.5543 138.53 31.2302 139.621 30.6111C140.712 29.992 141.596 29.1374 142.215 28.017C142.834 26.9262 143.158 25.688 143.158 24.303C143.158 22.9179 142.834 21.6797 142.215 20.5598C141.596 19.4691 140.712 18.5847 139.621 17.9656C138.53 17.3465 137.292 17.0522 135.907 17.0522C134.522 17.0522 133.284 17.3471 132.193 17.9656C131.102 18.5847 130.218 19.4691 129.599 20.5598C128.98 21.6797 128.655 22.9179 128.655 24.303C128.655 25.688 128.98 26.9262 129.599 28.017C130.218 29.1374 131.102 29.992 132.193 30.6111C133.284 31.2302 134.522 31.5543 135.907 31.5543ZM151.088 13.9864H160.108C162.318 13.9864 164.264 14.3991 165.973 15.2537C167.683 16.1083 169.009 17.3168 169.953 18.8791C170.896 20.4415 171.367 22.269 171.367 24.303C171.367 26.3369 170.896 28.1347 169.953 29.697C169.009 31.2594 167.683 32.4678 165.973 33.3224C164.264 34.1776 162.318 34.6195 160.108 34.6195H151.088V13.9858V13.9864ZM159.93 31.3777C161.434 31.3777 162.79 31.0827 163.939 30.4934C165.089 29.9331 165.973 29.1083 166.592 28.0176C167.212 26.9566 167.506 25.7184 167.506 24.3036C167.506 22.8887 167.211 21.6511 166.592 20.5604C165.973 19.4994 165.089 18.674 163.939 18.084C162.79 17.5238 161.434 17.2294 159.93 17.2294H154.919V31.3783H159.93V31.3777ZM185.074 34.9151C182.981 34.9151 181.065 34.4435 179.385 33.53C177.705 32.6165 176.378 31.3486 175.406 29.7274C174.433 28.1062 173.961 26.3084 173.961 24.3036C173.961 22.2994 174.433 20.4718 175.406 18.8506C176.379 17.2294 177.705 15.9621 179.385 15.048C181.065 14.1339 182.981 13.692 185.074 13.692C187.167 13.692 189.083 14.1339 190.763 15.048C192.443 15.9615 193.77 17.2294 194.742 18.8506C195.715 20.4718 196.187 22.2696 196.187 24.3036C196.187 26.3375 195.715 28.1353 194.742 29.7565C193.769 31.3777 192.443 32.6159 190.763 33.5294C189.083 34.4429 187.167 34.9145 185.074 34.9145V34.9151ZM185.074 31.5549C186.459 31.5549 187.697 31.2308 188.788 30.6117C189.879 29.9926 190.763 29.138 191.382 28.0176C192.001 26.9269 192.325 25.6886 192.325 24.3036C192.325 22.9185 192.001 21.6803 191.382 20.5604C190.763 19.4697 189.879 18.5854 188.788 17.9663C187.697 17.3471 186.459 17.0528 185.074 17.0528C183.689 17.0528 182.451 17.3478 181.36 17.9663C180.269 18.5854 179.385 19.4697 178.766 20.5604C178.147 21.6803 177.823 22.9185 177.823 24.3036C177.823 25.6886 178.147 26.9269 178.766 28.0176C179.385 29.138 180.269 29.9926 181.36 30.6117C182.451 31.2308 183.689 31.5549 185.074 31.5549ZM209.805 34.9151C207.712 34.9151 205.855 34.4435 204.175 33.53C202.495 32.6165 201.168 31.3783 200.225 29.7571C199.252 28.1359 198.78 26.3381 198.78 24.3042C198.78 22.2702 199.252 20.4724 200.225 18.8512C201.198 17.23 202.524 15.9627 204.204 15.0486C205.884 14.1345 207.742 13.6926 209.834 13.6926C211.514 13.6926 213.077 13.9876 214.462 14.577C215.848 15.1663 217.027 16.0215 218 17.1414L215.524 19.4703C214.021 17.8491 212.193 17.0534 210.012 17.0534C208.597 17.0534 207.329 17.3484 206.209 17.9669C205.089 18.586 204.204 19.4703 203.586 20.561C202.967 21.6517 202.642 22.9191 202.642 24.3042C202.642 25.6893 202.967 26.9572 203.586 28.0479C204.205 29.1386 205.089 29.9932 206.209 30.6123C207.329 31.2314 208.596 31.5556 210.012 31.5556C212.193 31.5556 214.021 30.7301 215.524 29.1089L218 31.4669C217.027 32.5874 215.848 33.442 214.462 34.0314C213.048 34.6207 211.485 34.9157 209.805 34.9157L209.805 34.9151Z" fill="#81898A"/>
<path fill-rule="evenodd" clip-rule="evenodd" d="M36.8383 10.2637L32.4038 11.3198V32.4901L36.8383 30.6388V10.2637Z" fill="#FEFEFE" fill-opacity="0.431373"/>
<path fill-rule="evenodd" clip-rule="evenodd" d="M32.4041 9.47021L27.9702 10.5257V31.6966L32.4041 29.8448V9.47021Z" fill="#FEFEFE" fill-opacity="0.701961"/>
<path fill-rule="evenodd" clip-rule="evenodd" d="M27.97 8.67725L23.5361 9.73276V30.9036L27.97 29.0518V8.67725Z" fill="#FEFEFE" fill-opacity="0.788235"/>
<path d="M36.838 37.3793C34.9528 38.7097 32.8078 39.6948 30.4934 40.2441L22.3789 37.9911V20.0608L36.8386 10.2632V37.3787L36.838 37.3793Z" fill="#2F8A3D"/>
<path d="M32.4046 39.6812C30.4702 40.3695 28.3896 40.747 26.2191 40.747C25.7408 40.747 25.268 40.7234 24.7994 40.6876L17.9377 38.7829C17.6967 38.6615 17.4576 38.5353 17.2227 38.4036V19.7576L32.4052 9.47021V39.6812H32.4046Z" fill="#4EA33B"/>
<path d="M12.0645 19.454L27.9699 8.67676V40.6625C27.3933 40.7171 26.8094 40.7475 26.2182 40.7475C20.5316 40.7475 15.4483 38.1728 12.0645 34.1273V19.454Z" fill="#76B334"/>
<path d="M23.5364 40.5512C14.6207 39.2523 7.77295 31.5779 7.77295 22.3022C7.77295 20.6143 8.0042 18.9816 8.42847 17.4283L23.5364 7.19189V40.5518V40.5512Z" fill="#A3C426"/>
<path d="M10.3434 12.9033C10.3434 12.9033 10.2214 13.0866 9.99322 13.4302C9.77774 13.7828 9.45363 14.2981 9.11191 14.9955C8.76897 15.6905 8.39326 16.5609 8.07885 17.603C7.75716 18.6416 7.49071 19.8518 7.37113 21.195C7.33775 21.5307 7.31833 21.8742 7.30255 22.2251L7.29951 22.2912L7.2983 22.3677L7.29709 22.497C7.29648 22.5838 7.29526 22.6706 7.29466 22.758C7.29344 22.9328 7.29162 23.1088 7.29102 23.2866C7.30801 23.6539 7.31711 24.0344 7.35293 24.4107C7.3942 24.7852 7.4203 25.1688 7.48767 25.5518C7.51681 25.7442 7.54715 25.9379 7.5769 26.1327C7.61635 26.3257 7.65641 26.5205 7.69647 26.7166C7.76809 27.1105 7.88402 27.499 7.98235 27.8965C8.21056 28.6832 8.48431 29.4783 8.83634 30.2552C8.9978 30.6503 9.20356 31.0291 9.39111 31.42C9.60537 31.7969 9.80324 32.1872 10.043 32.5562C10.4958 33.3106 11.0238 34.0317 11.5998 34.7206C12.7494 36.1027 14.1285 37.3306 15.6513 38.3412C16.4106 38.851 17.2197 39.2826 18.0391 39.6771C18.861 40.0698 19.7174 40.3745 20.575 40.6434C22.2994 41.1538 24.0657 41.4112 25.7718 41.4142C27.4574 41.427 29.129 41.1975 30.6251 40.8C31.0026 40.7059 31.3656 40.5802 31.7274 40.4734C32.0867 40.3581 32.432 40.2191 32.7732 40.0904C33.1131 39.9563 33.4348 39.7967 33.7564 39.6552C34.0769 39.5114 34.3755 39.3372 34.676 39.1842C35.862 38.5402 36.8623 37.8107 37.6938 37.1114C37.8971 36.9312 38.0944 36.757 38.2838 36.5882C38.4756 36.4231 38.6401 36.2398 38.8064 36.0754C39.1432 35.7488 39.4206 35.4186 39.6768 35.1285C39.7411 35.0557 39.803 34.9846 39.8631 34.9161C39.9195 34.8438 39.9748 34.774 40.0276 34.706C40.1326 34.5695 40.2309 34.4414 40.3226 34.3225C40.5101 34.0882 40.6497 33.8739 40.7657 33.7027C40.9957 33.3598 41.1183 33.1771 41.1183 33.1771C41.1183 33.1771 40.9714 33.341 40.6971 33.6487C40.5611 33.8029 40.3972 33.9953 40.1824 34.2029C40.078 34.3085 39.9657 34.422 39.8455 34.5428C39.786 34.6035 39.7253 34.666 39.6622 34.7309C39.5954 34.7922 39.5268 34.8548 39.4564 34.9191C39.1742 35.1758 38.8701 35.4678 38.5078 35.7494C38.3275 35.8908 38.1515 36.0511 37.9518 36.1961C37.7533 36.3424 37.5475 36.4942 37.3357 36.6508C36.4696 37.2517 35.4493 37.8617 34.2827 38.4018C33.1137 38.9372 31.7923 39.3876 30.3623 39.6916C28.9238 39.9933 27.4082 40.1183 25.8028 40.0607C25.0095 40.0364 24.2083 39.9393 23.4053 39.81C23.0053 39.7323 22.6023 39.6619 22.2047 39.5557C21.8029 39.4689 21.409 39.3426 21.0108 39.2279C20.2236 38.9688 19.4418 38.6701 18.6849 38.3084C17.9323 37.9412 17.19 37.54 16.4926 37.0684C15.0856 36.1439 13.8128 35.018 12.7276 33.7634C12.1898 33.1328 11.6818 32.4809 11.2399 31.7969C11.0062 31.4624 10.8138 31.1055 10.6032 30.7626C10.4193 30.4057 10.2154 30.0604 10.0551 29.6974C9.70187 28.986 9.43724 28.2504 9.17989 27.5305C9.07003 27.1645 8.94196 26.8064 8.85698 26.4416C8.81024 26.2602 8.76351 26.0799 8.71738 25.9002C8.68035 25.7194 8.64333 25.5391 8.6063 25.36C8.52436 25.0031 8.48309 24.6444 8.42543 24.293C8.37323 23.9416 8.35138 23.5998 8.30707 23.2605C8.29615 23.0839 8.28522 22.9079 8.2743 22.7343C8.26883 22.6475 8.26398 22.5607 8.25852 22.4739L8.25123 22.3446L8.2482 22.2924L8.24698 22.2299C8.23849 21.8961 8.23424 21.5677 8.24334 21.2466C8.25912 20.6033 8.30343 19.9866 8.37445 19.4027C8.44243 18.8182 8.53165 18.2646 8.64333 17.7493C8.86426 16.7193 9.12829 15.8313 9.39172 15.1151C9.65635 14.3995 9.89914 13.8478 10.0709 13.4745C10.25 13.103 10.3453 12.9045 10.3453 12.9045L10.3434 12.9033Z" fill="black"/>
</svg>
