<?xml version="1.0" encoding="UTF-8"?>
<!DOCTYPE svg PUBLIC "-//W3C//DTD SVG 1.1//EN" "http://www.w3.org/Graphics/SVG/1.1/DTD/svg11.dtd">
<!-- Creator: CorelDRAW -->
<svg xmlns="http://www.w3.org/2000/svg" xml:space="preserve" width="134.147mm" height="150mm" version="1.1" style="shape-rendering:geometricPrecision; text-rendering:geometricPrecision; image-rendering:optimizeQuality; fill-rule:evenodd; clip-rule:evenodd"
viewBox="0 0 13398.6 14981.97"
 xmlns:xlink="http://www.w3.org/1999/xlink"
 xmlns:xodm="http://www.corel.com/coreldraw/odm/2003">
 <defs>
  <style type="text/css">
   <![CDATA[
    .fil3 {fill:#3A3735}
    .fil0 {fill:#A16F29}
    .fil11 {fill:#A2ADD8}
    .fil1 {fill:#A9A6A5}
    .fil33 {fill:url(#id0)}
    .fil37 {fill:url(#id1)}
    .fil36 {fill:url(#id2)}
    .fil23 {fill:url(#id3)}
    .fil53 {fill:url(#id4)}
    .fil40 {fill:url(#id5)}
    .fil22 {fill:url(#id6)}
    .fil52 {fill:url(#id7)}
    .fil51 {fill:url(#id8)}
    .fil55 {fill:url(#id9)}
    .fil42 {fill:url(#id10)}
    .fil35 {fill:url(#id11)}
    .fil20 {fill:url(#id12)}
    .fil32 {fill:url(#id13)}
    .fil18 {fill:url(#id14)}
    .fil38 {fill:url(#id15)}
    .fil54 {fill:url(#id16)}
    .fil50 {fill:url(#id17)}
    .fil26 {fill:url(#id18)}
    .fil39 {fill:url(#id19)}
    .fil19 {fill:url(#id20)}
    .fil45 {fill:url(#id21)}
    .fil47 {fill:url(#id22)}
    .fil28 {fill:url(#id23)}
    .fil27 {fill:url(#id24)}
    .fil44 {fill:url(#id25)}
    .fil34 {fill:url(#id26)}
    .fil43 {fill:url(#id27)}
    .fil48 {fill:url(#id28)}
    .fil31 {fill:url(#id29)}
    .fil24 {fill:url(#id30)}
    .fil49 {fill:url(#id31)}
    .fil21 {fill:url(#id32)}
    .fil30 {fill:url(#id33)}
    .fil29 {fill:url(#id34)}
    .fil25 {fill:url(#id35)}
    .fil41 {fill:url(#id36)}
    .fil46 {fill:url(#id37)}
    .fil4 {fill:url(#id38)}
    .fil13 {fill:url(#id39)}
    .fil7 {fill:url(#id40)}
    .fil8 {fill:url(#id41)}
    .fil58 {fill:url(#id42)}
    .fil5 {fill:url(#id43)}
    .fil57 {fill:url(#id44)}
    .fil15 {fill:url(#id45)}
    .fil10 {fill:url(#id46)}
    .fil12 {fill:url(#id47)}
    .fil14 {fill:url(#id48)}
    .fil16 {fill:url(#id49)}
    .fil6 {fill:url(#id50)}
    .fil2 {fill:url(#id51)}
    .fil56 {fill:url(#id52)}
    .fil9 {fill:url(#id53)}
    .fil17 {fill:url(#id54)}
   ]]>
  </style>
  <linearGradient id="id0" gradientUnits="userSpaceOnUse" x1="891.27" y1="5123.95" x2="2108.95" y2="4542.18">
   <stop offset="0" style="stop-opacity:1; stop-color:#FCD63D"/>
   <stop offset="0.168627" style="stop-opacity:1; stop-color:#FCD63D"/>
   <stop offset="0.380392" style="stop-opacity:1; stop-color:#FBF295"/>
   <stop offset="0.509804" style="stop-opacity:1; stop-color:#FCD63D"/>
   <stop offset="0.639216" style="stop-opacity:1; stop-color:#F0C535"/>
   <stop offset="0.909804" style="stop-opacity:1; stop-color:#DFB52B"/>
   <stop offset="1" style="stop-opacity:1; stop-color:#FCD63D"/>
  </linearGradient>
  <linearGradient id="id1" gradientUnits="userSpaceOnUse" xlink:href="#id0" x1="12360.22" y1="11388.78" x2="10867.94" y2="10722.54">
  </linearGradient>
  <linearGradient id="id2" gradientUnits="userSpaceOnUse" xlink:href="#id0" x1="1641.75" y1="2482.34" x2="2811.55" y2="2041.1">
  </linearGradient>
  <linearGradient id="id3" gradientUnits="userSpaceOnUse" xlink:href="#id0" x1="260.79" y1="5730.21" x2="804.89" y2="5627.39">
  </linearGradient>
  <linearGradient id="id4" gradientUnits="userSpaceOnUse" xlink:href="#id0" x1="12241.95" y1="4331.6" x2="11142.47" y2="3598.36">
  </linearGradient>
  <linearGradient id="id5" gradientUnits="userSpaceOnUse" xlink:href="#id0" x1="13199.53" y1="7886.8" x2="12365.17" y2="7623.54">
  </linearGradient>
  <linearGradient id="id6" gradientUnits="userSpaceOnUse" xlink:href="#id0" x1="136.1" y1="6800.29" x2="808.6" y2="6611.54">
  </linearGradient>
  <linearGradient id="id7" gradientUnits="userSpaceOnUse" xlink:href="#id0" x1="12507.33" y1="5123.95" x2="11289.65" y2="4542.34">
  </linearGradient>
  <linearGradient id="id8" gradientUnits="userSpaceOnUse" xlink:href="#id0" x1="12650.15" y1="5964.12" x2="11330.19" y2="5542.54">
  </linearGradient>
  <linearGradient id="id9" gradientUnits="userSpaceOnUse" xlink:href="#id0" x1="11756.84" y1="2482.34" x2="10587.05" y2="2041.1">
  </linearGradient>
  <linearGradient id="id10" gradientUnits="userSpaceOnUse" xlink:href="#id0" x1="13137.64" y1="5730.21" x2="12593.71" y2="5627.39">
  </linearGradient>
  <linearGradient id="id11" gradientUnits="userSpaceOnUse" xlink:href="#id0" x1="1549.56" y1="3537.51" x2="2482.59" y2="2702.61">
  </linearGradient>
  <linearGradient id="id12" gradientUnits="userSpaceOnUse" xlink:href="#id0" x1="347.22" y1="9026.06" x2="1340.18" y2="8587.66">
  </linearGradient>
  <linearGradient id="id13" gradientUnits="userSpaceOnUse" xlink:href="#id0" x1="748.45" y1="5964.12" x2="2068.41" y2="5542.54">
  </linearGradient>
  <linearGradient id="id14" gradientUnits="userSpaceOnUse" xlink:href="#id0" x1="1038.38" y1="11388.78" x2="2530.66" y2="10722.54">
  </linearGradient>
  <linearGradient id="id15" gradientUnits="userSpaceOnUse" xlink:href="#id0" x1="12735.98" y1="10266.83" x2="11546.49" y2="9629.92">
  </linearGradient>
  <linearGradient id="id16" gradientUnits="userSpaceOnUse" xlink:href="#id0" x1="11849.36" y1="3537.35" x2="10915.68" y2="2702.88">
  </linearGradient>
  <linearGradient id="id17" gradientUnits="userSpaceOnUse" xlink:href="#id0" x1="12521.11" y1="6772.36" x2="11297.87" y2="6511.17">
  </linearGradient>
  <linearGradient id="id18" gradientUnits="userSpaceOnUse" xlink:href="#id0" x1="1139.13" y1="2875.8" x2="1639.2" y2="2812.28">
  </linearGradient>
  <linearGradient id="id19" gradientUnits="userSpaceOnUse" xlink:href="#id0" x1="13051.38" y1="9026.06" x2="12058.42" y2="8587.66">
  </linearGradient>
  <linearGradient id="id20" gradientUnits="userSpaceOnUse" xlink:href="#id0" x1="662.62" y1="10266.83" x2="1852.11" y2="9629.92">
  </linearGradient>
  <linearGradient id="id21" gradientUnits="userSpaceOnUse" xlink:href="#id0" x1="12259.36" y1="2875.8" x2="11759.4" y2="2812.28">
  </linearGradient>
  <linearGradient id="id22" gradientUnits="userSpaceOnUse" xlink:href="#id0" x1="11382.65" y1="9594.33" x2="10751.14" y2="9537.78">
  </linearGradient>
  <linearGradient id="id23" gradientUnits="userSpaceOnUse" xlink:href="#id0" x1="2015.93" y1="9594.33" x2="2647.45" y2="9537.78">
  </linearGradient>
  <linearGradient id="id24" gradientUnits="userSpaceOnUse" xlink:href="#id0" x1="2584.43" y1="10611.4" x2="3149.81" y2="10577.65">
  </linearGradient>
  <linearGradient id="id25" gradientUnits="userSpaceOnUse" xlink:href="#id0" x1="12630.22" y1="3779.71" x2="12181.91" y2="3722.62">
  </linearGradient>
  <linearGradient id="id26" gradientUnits="userSpaceOnUse" xlink:href="#id0" x1="1156.76" y1="4331.77" x2="2255.86" y2="3598.2">
  </linearGradient>
  <linearGradient id="id27" gradientUnits="userSpaceOnUse" xlink:href="#id0" x1="12944" y1="4724.07" x2="12450.35" y2="4648.8">
  </linearGradient>
  <linearGradient id="id28" gradientUnits="userSpaceOnUse" xlink:href="#id0" x1="11872.94" y1="8590.64" x2="11087.83" y2="8499.26">
  </linearGradient>
  <linearGradient id="id29" gradientUnits="userSpaceOnUse" xlink:href="#id0" x1="877.33" y1="6772.36" x2="2100.57" y2="6511.17">
  </linearGradient>
  <linearGradient id="id30" gradientUnits="userSpaceOnUse" xlink:href="#id0" x1="454.65" y1="4724.07" x2="948.25" y2="4648.8">
  </linearGradient>
  <linearGradient id="id31" gradientUnits="userSpaceOnUse" xlink:href="#id0" x1="12257.67" y1="7629.09" x2="11187.38" y2="7463.91">
  </linearGradient>
  <linearGradient id="id32" gradientUnits="userSpaceOnUse" xlink:href="#id0" x1="199.07" y1="7886.8" x2="1033.43" y2="7623.54">
  </linearGradient>
  <linearGradient id="id33" gradientUnits="userSpaceOnUse" xlink:href="#id0" x1="1140.87" y1="7629.09" x2="2211.22" y2="7463.91">
  </linearGradient>
  <linearGradient id="id34" gradientUnits="userSpaceOnUse" xlink:href="#id0" x1="1525.5" y1="8590.64" x2="2310.77" y2="8499.26">
  </linearGradient>
  <linearGradient id="id35" gradientUnits="userSpaceOnUse" xlink:href="#id0" x1="768.27" y1="3779.71" x2="1216.58" y2="3722.62">
  </linearGradient>
  <linearGradient id="id36" gradientUnits="userSpaceOnUse" xlink:href="#id0" x1="13262.28" y1="6800.29" x2="12590" y2="6611.54">
  </linearGradient>
  <linearGradient id="id37" gradientUnits="userSpaceOnUse" xlink:href="#id0" x1="10814.12" y1="10611.45" x2="10248.68" y2="10577.65">
  </linearGradient>
  <radialGradient id="id38" gradientUnits="userSpaceOnUse" gradientTransform="matrix(36.3118 -0 -0 -36.5875 -236591 291727)" cx="6700.06" cy="7761.29" r="1008.45" fx="6700.06" fy="7761.29">
   <stop offset="0" style="stop-opacity:1; stop-color:#FCF4A7"/>
   <stop offset="1" style="stop-opacity:1; stop-color:#DFC75C"/>
  </radialGradient>
  <radialGradient id="id39" gradientUnits="userSpaceOnUse" gradientTransform="matrix(19.3549 -0 -0 -19.3647 -122982 132737)" xlink:href="#id38" cx="6700.23" cy="6517.98" r="619.43" fx="6700.23" fy="6517.98">
  </radialGradient>
  <radialGradient id="id40" gradientUnits="userSpaceOnUse" gradientTransform="matrix(75.2994 -0 -0 -75.3385 -636710 664223)" xlink:href="#id38" cx="8569.51" cy="8701.02" r="539.59" fx="8569.51" fy="8701.02">
  </radialGradient>
  <radialGradient id="id41" gradientUnits="userSpaceOnUse" gradientTransform="matrix(75.3014 -0 -0 -75.3375 -358938 664198)" xlink:href="#id38" cx="4830.83" cy="8700.81" r="539.59" fx="4830.83" fy="8700.81">
  </radialGradient>
  <radialGradient id="id42" gradientUnits="userSpaceOnUse" gradientTransform="matrix(12.965 -0 -0 -12.9728 -81950 183180)" cx="6849.19" cy="13109.75" r="429.14" fx="6849.19" fy="13109.75">
   <stop offset="0" style="stop-opacity:1; stop-color:#F4CB51"/>
   <stop offset="1" style="stop-opacity:1; stop-color:#AE985D"/>
  </radialGradient>
  <radialGradient id="id43" gradientUnits="userSpaceOnUse" gradientTransform="matrix(353.786 -0 -0 -376.229 -823290 3.79954E+06)" cx="2333.68" cy="10072.25" r="1166.42" fx="2333.68" fy="10072.25">
   <stop offset="0" style="stop-opacity:1; stop-color:#FBEB1B"/>
   <stop offset="1" style="stop-opacity:1; stop-color:#AB7919"/>
  </radialGradient>
  <radialGradient id="id44" gradientUnits="userSpaceOnUse" gradientTransform="matrix(9.37127 -0 -0 -9.37695 -57253 135948)" xlink:href="#id42" cx="6839.28" cy="13100.99" r="521.78" fx="6839.28" fy="13100.99">
  </radialGradient>
  <radialGradient id="id45" gradientUnits="userSpaceOnUse" gradientTransform="matrix(184.626 -0 -0 -101.389 -712367 1.40134E+06)" xlink:href="#id43" cx="3879.45" cy="13686.39" r="159.43" fx="3879.45" fy="13686.39">
  </radialGradient>
  <radialGradient id="id46" gradientUnits="userSpaceOnUse" gradientTransform="matrix(5.39893 -0 -0 -5.40174 -29292 12351)" cx="6658.81" cy="1929.32" r="633.18" fx="6658.81" fy="1929.32">
   <stop offset="0" style="stop-opacity:1; stop-color:#FCF5D4"/>
   <stop offset="0.988235" style="stop-opacity:1; stop-color:#FEE99C"/>
   <stop offset="1" style="stop-opacity:1; stop-color:#FFDE65"/>
  </radialGradient>
  <radialGradient id="id47" gradientUnits="userSpaceOnUse" gradientTransform="matrix(6.06604 -0 -0 -6.06886 -21643 32912)" cx="4272.09" cy="4655.93" r="696.18" fx="4272.09" fy="4655.93">
   <stop offset="0" style="stop-opacity:1; stop-color:#FBF3CA"/>
   <stop offset="1" style="stop-opacity:1; stop-color:#D4BC77"/>
  </radialGradient>
  <radialGradient id="id48" gradientUnits="userSpaceOnUse" gradientTransform="matrix(122.272 -0 -0 -219.408 -539656 2.86119E+06)" xlink:href="#id43" cx="4449.96" cy="12981.35" r="120.45" fx="4449.96" fy="12981.35">
  </radialGradient>
  <radialGradient id="id49" gradientUnits="userSpaceOnUse" gradientTransform="matrix(-122.272 -1.56324E-13 1.17979E-14 219.408 1.00095E+06 -2.8381E+06)" xlink:href="#id43" cx="8119.83" cy="12994.48" r="120.45" fx="8119.83" fy="12994.48">
  </radialGradient>
  <radialGradient id="id50" gradientUnits="userSpaceOnUse" gradientTransform="matrix(-353.78 -4.80725E-14 -5.11225E-14 376.227 1.90248E+06 -3.77952E+06)" xlink:href="#id43" cx="5362.42" cy="10072.63" r="1166.42" fx="5362.42" fy="10072.63">
  </radialGradient>
  <radialGradient id="id51" gradientUnits="userSpaceOnUse" gradientTransform="matrix(36.8634 -0 -0 -36.8817 -231806 283773)" cx="6463.57" cy="7491.02" r="1284.02" fx="6463.57" fy="7491.02">
   <stop offset="0" style="stop-opacity:1; stop-color:#FCF4A7"/>
   <stop offset="1" style="stop-opacity:1; stop-color:#CFAD14"/>
  </radialGradient>
  <radialGradient id="id52" gradientUnits="userSpaceOnUse" gradientTransform="matrix(7.48968 -0 -0 -6.27432 -42306 92970)" xlink:href="#id51" cx="6519.04" cy="12780.63" r="831.65" fx="6519.04" fy="12780.63">
  </radialGradient>
  <radialGradient id="id53" gradientUnits="userSpaceOnUse" gradientTransform="matrix(5.3557 -0 -0 -5.36038 -28890 7821)" xlink:href="#id46" cx="6632.68" cy="1229.66" r="707.25" fx="6632.68" fy="1229.66">
  </radialGradient>
  <radialGradient id="id54" gradientUnits="userSpaceOnUse" gradientTransform="matrix(-184.626 -5.88113E-14 -5.4808E-14 101.386 1.7056E+06 -1.37327E+06)" xlink:href="#id43" cx="9188.39" cy="13679.87" r="159.44" fx="9188.39" fy="13679.87">
  </radialGradient>
 </defs>
 <g id="Слой_x0020_1">
  <metadata id="CorelCorpID_0Corel-Layer"/>
  <g id="_1626556399360">
   <path class="fil0" d="M6699.9 14981.97l0 -0.39c3671.89,-925.74 5722.69,-3990.56 6223.25,-9076.46 98.24,-998.18 136.61,-2074.14 116.04,-3227.23 -873.5,-602.12 -1511.48,-1413.57 -1894,-2338.71 -1255.73,-226.09 -2851.14,-339.19 -4446.27,-339.19 -1595.19,0 -3190.38,113.1 -4445.73,339.19 -382.46,925.14 -1020.45,1736.59 -1893.94,2338.71 -18.4,1026.44 10.07,1992.01 85.89,2895.89 443.14,5284.17 2502.43,8462.03 6253.35,9407.59l0 0.38c0.44,0 0.6,-0.17 1.04,-0.17 0.38,0 0.6,0.17 0.98,0.17l-0.6 0.22z"/>
   <path class="fil1" d="M2402.97 515.37c1401.7,-228.38 2849.34,-342.4 4296.93,-342.4 1447.59,0 2895.45,114.02 4297.15,342.4 422.89,976.68 1129.62,1669.42 1876.57,2321.68 8.06,1191.51 -45.29,2305.35 -163.17,3337.06 -538.71,4709.76 -2427.59,7705.78 -6009.52,8553.86 0,0.16 0,0.38 0,0.38 -0.43,-0.22 -0.6,-0.22 -1.03,-0.22 -0.38,0 -0.6,0.22 -0.98,0.22 0,-0.22 0,-0.38 0,-0.38 -3581.77,-848.08 -5470.86,-3844.09 -6009.58,-8553.86 -118.05,-1031.71 -171.22,-2145.55 -163.11,-3337.01 747.11,-652.31 1453.63,-1345.26 1876.52,-2321.73l0.22 0z"/>
   <path class="fil2" d="M2645.17 819.77c1298.62,-217.05 2676.65,-325.63 4054.95,-325.63 1378.24,0 2756.32,108.58 4054.95,325.63 517.1,903.48 1124.18,1606.73 1856.33,2241.01 -7.46,1079.01 -63.24,2113.56 -180.1,3090.46 -494.84,4138.76 -2084.59,7245.21 -5730.37,8336.04 0,0.16 0,0.38 0,0.6 -0.43,-0.22 -0.6,-0.22 -1.03,-0.22 -0.38,0.22 -0.6,0.22 -0.98,0.22 0,-0.22 0,-0.44 0,-0.6 -3661.39,-1095.45 -5249.07,-4223.95 -5736.68,-8389.22 -112.61,-961.34 -166.39,-1977.7 -173.62,-3037.29 732.36,-634.29 1339.22,-1337.53 1856.33,-2241.01l0.22 0z"/>
   <path class="fil3" d="M2826.9 1001.99c1260.41,-204.26 2567.08,-306.64 3873.6,-306.64 1306.51,0 2613.03,102.16 3873.05,306.64 633.91,1012.88 1256.17,1685.81 1836.14,2160.3 5,1046.9 -48.76,2048.25 -164.8,2991.78 -515.64,4193.19 -2261.43,7250.5 -5543.79,8131.94 0,0.22 0,0.39 0,0.6 -0.17,0 -0.6,-0.21 -0.98,-0.21 -0.44,0.21 -0.6,0.21 -1.04,0.21 0,-0.21 0,-0.38 0,-0.6 -3235.61,-868.91 -4978.19,-3852.21 -5521.15,-7953.74 -131.77,-995.52 -192.84,-2056.95 -187.39,-3169.98 580.19,-474.49 1202.18,-1147.42 1836.14,-2160.3l0.22 0z"/>
   <path class="fil4" d="M6701.1 13256.54c0,-0.22 0,-0.44 0,-0.6 2455.57,-894.17 4008.25,-2729.07 4495.64,-5803.19 149.18,-941.1 198.55,-1998.28 143.52,-3180.26 -672.54,-422.29 -1103.11,-991.05 -1452.8,-1736.15 -676.86,-180.42 -1932.8,-270.44 -3188.53,-270.22 -1255.79,0.21 -2510.92,90.18 -3186.14,270.22 -349.69,745.31 -780.32,1313.86 -1452.87,1736.15 -55.18,1181.99 -5.87,2239.17 143.37,3180.26 487.33,3074.12 2040.29,4909.01 4495.64,5803.19 0,0.16 0,0.38 0,0.6 0.38,-0.22 0.6,-0.22 0.98,-0.44 0.43,0.22 0.6,0.22 1.03,0.44l0.17 0z"/>
   <path class="fil1" d="M6701.1 13069.85c-0.17,-0.22 -0.6,-0.22 -0.98,-0.44 -0.44,0.22 -0.6,0.22 -1.04,0.44 0,-0.22 0,-0.44 0,-0.82 -2294.63,-884.49 -3850.14,-2631.58 -4316.53,-5650.03 -136.67,-884.27 -179.93,-1877.55 -120.66,-2990.2 633.91,-504.58 1081.08,-1069.91 1392.18,-1736.15 866.26,-161 1957.02,-240.46 3047.45,-239.86 1090.39,0.38 2180.18,80.88 3044.58,239.86 311.11,666.24 758.49,1231.57 1392.23,1736.15 59.05,1112.65 15.94,2105.94 -120.66,2990.2 -466.38,3018.45 -2021.95,4765.77 -4316.58,5650.03 0,0.22 0,0.6 0,0.82l0 0z"/>
   <path class="fil5" d="M1501.17 8871.82c-506.6,-1415.42 -1145.19,-4125.65 753.42,-6808.18 -1478.71,1964.32 -1808.26,4153.35 -826.42,6927.91 1095.28,3095.14 3190.77,5461.12 7569.99,5784.14 4.03,-90.62 8.05,-181.46 12.51,-272.02 -4267.43,-266.42 -6140.52,-2102.07 -7509.3,-5631.85l-0.22 0z"/>
   <path class="fil6" d="M11894.82 8872.2c506.54,-1415.37 1145.13,-4125.6 -753.43,-6808.17 1478.72,1964.37 1808.21,4153.34 826.36,6927.9 -1095.22,3095.14 -3190.76,5461.12 -7569.93,5784.14 -4.03,-90.62 -8.1,-181.4 -12.51,-272.02 4267.38,-266.36 6140.52,-2102.07 7509.31,-5631.85l0.22 0z"/>
   <path class="fil7" d="M10384.91 9647.07c-352.52,791.42 -818.09,1450.95 -1383.09,1994.24 -359.44,-347.89 -555.75,-1022.24 -588.9,-2023.2 -164.14,-2256.37 -896.13,-2783.44 -1659.03,-3857.44 1774.48,525.49 2673.66,1572.55 3270.61,3236.54 81.47,244.71 208.83,482.55 360.63,649.86l-0.22 0z"/>
   <path class="fil8" d="M4398.41 11641.09c-565,-543.23 -1030.78,-1202.82 -1383.15,-1994.24 151.86,-167.26 278.99,-405.1 360.69,-649.86 596.74,-1663.99 1495.92,-2711.04 3270.4,-3236.54 -762.95,1074.22 -1494.94,1601.07 -1659.09,3857.49 -33.14,1000.97 -229.4,1675.25 -588.84,2023.15l0 0z"/>
   <path class="fil9" d="M2860.04 1406.71c-6.85,-57.63 -5.44,-106.18 4.84,-146.02 10.13,-39.62 25.91,-70.59 47.51,-92.63 21.44,-22.04 48.93,-36.04 82.68,-41.48 48.93,-7.89 91.38,7.08 127.36,45.51 35.98,38.26 58.84,97.47 68.53,177.6 9.69,80.87 1.19,146.84 -25.86,197.62 -23.67,44.9 -60.03,71.4 -109.18,79.46 -49.31,8.11 -90.78,-5.44 -124.09,-40.66 -38.04,-40.22 -61.89,-100.09 -71.57,-179.39l-0.22 0zm70.55 -14.96c6.69,55.62 20.84,95.84 42.45,120.77 21.66,24.87 45.71,34.94 72.6,30.69 27.05,-4.4 47.89,-21.82 62.27,-52.36 14.53,-30.53 18.18,-74.46 11.32,-131.49 -6.91,-56.01 -20.46,-96.06 -41.03,-120.13 -20.63,-24.05 -44.91,-33.8 -72.82,-29.11 -27.87,4.62 -49.09,21.82 -63.46,51.76 -14.31,29.93 -17.96,73.2 -11.11,130.08l-0.21 -0.22zm404.11 -102.16l-65.69 9.31 -7.08 -66.73c-4.03,-37.61 -2.83,-67.33 3.44,-88.99 6.25,-21.65 19.81,-39.62 40.22,-53.83l16.98 36.85c-12.14,7.89 -20.42,17.58 -25.09,29.12 -4.63,11.7 -6.26,27.1 -4.63,46.09l31.95 -4.62 9.91 92.8zm94.38 270.01l-8.06 -88.38 151.64 -337.12 -159.91 19.6 -7.51 -82.13 250.86 -30.69 6.91 76.2 -157.9 350.56 195.07 -23.89 7.51 81.91 -278.6 33.96zm300.82 -530.27l137.05 -16.82c37.44,-4.62 64.27,-3.82 80.06,2.45 16,6.04 29.93,18.62 42.23,37.4 12.36,18.83 19.65,40.87 21.88,66.34 2.01,23.46 -0.44,45.13 -7.73,65.15 -7.07,20.03 -17.58,35.38 -30.91,46.09 21,5.88 38.2,18.24 51.54,37.24 13.33,18.78 21.22,42.89 23.89,72 3.22,35.38 -1.41,66.13 -13.76,92.2 -12.36,26.29 -28.31,43.49 -47.73,51.6 -13.5,5.66 -45.45,11.54 -96.01,17.8l-116.41 14.14 -43.88 -485.81 -0.21 0.22zm76.2 72.38l10.12 112.28 45.51 -5.71c27.49,-3.22 44.25,-6.04 50.51,-7.84 11.54,-3.65 20.25,-10.56 26.12,-20.84 5.82,-10.13 7.84,-23.29 6.42,-39.46 -1.2,-14.36 -5.06,-25.69 -11.32,-33.96 -6.26,-8.33 -13.33,-13.17 -21.22,-14.37 -7.84,-1.2 -30.1,0.38 -66.51,4.84l-40.01 4.84 0.39 0.22zm17.41 193.16l11.71 129.86 64.11 -7.89c28.09,-3.43 46.04,-7.51 53.78,-11.76 7.67,-4.4 13.71,-11.92 18.18,-22.64 4.62,-10.72 6.04,-23.84 4.62,-39.24 -1.42,-15.78 -5.44,-28.52 -12.14,-38.2 -6.86,-9.53 -15.13,-15.57 -25.04,-18.4 -9.9,-2.67 -29.71,-2.23 -59.21,1.42l-56.01 6.85 0 0zm324.66 179.83l-36.58 -486.63 254.66 -25.91 6.31 82.29 -185.6 18.84 8.11 107.98 172.42 -17.58 6.04 82.13 -172.42 17.58 9.91 132.31 191.85 -19.43 6.26 81.91 -260.98 26.51 0 0zm348.49 -40.28l-29.27 -487.22 69.12 -5.66 12.95 216.4 127.31 -227.72 93.4 -7.68 -118.06 200.24 154.46 286.4 -89.75 7.23 -108.36 -221.02 -51.33 86.16 8.88 147.22 -69.13 5.66 -0.22 0zm371.35 -26.29l-22.04 -487.66 69.35 -4.24 22.04 487.88 -69.35 4.24 0 -0.22zm138.08 -171.33l67.49 -13.55c10.56,61.94 36.8,91.66 79.24,89.04 21.06,-1.25 37.23,-8.71 48.55,-22.26 11.54,-13.55 16.76,-29.71 15.94,-48.54 -0.38,-11.11 -2.99,-20.42 -7.45,-27.93 -4.68,-7.45 -11.33,-13.55 -20.04,-18.01 -8.7,-4.41 -29.93,-11.49 -63.67,-21.23 -29.93,-8.49 -52.15,-18.61 -66.51,-29.93 -14.15,-11.32 -25.85,-26.67 -34.95,-46.09 -9.14,-19.44 -14.14,-40.44 -15.18,-63.3 -1.2,-26.5 2.84,-50.78 12.36,-72.82 9.47,-21.82 23.02,-38.85 40.82,-51 17.8,-11.92 40.22,-18.78 67.11,-20.41 40.44,-2.4 72.55,8.49 96.44,32.55 23.84,24.11 37.55,59.87 41.04,107.21l-69.35 8.5c-4.24,-25.91 -11.76,-43.87 -22.25,-53.62 -10.51,-9.69 -25.26,-14.15 -43.87,-12.95 -18.78,1.26 -32.93,6.48 -42.68,16.22 -9.69,9.69 -14.14,21.44 -13.49,34.78 0.6,13.33 5.66,24.27 15.35,32.77 9.47,8.49 31.13,17.19 64.49,26.07 35.54,9.74 61.23,20.47 77.4,32.6 16.16,11.92 28.9,28.09 37.98,48.11 9.15,20.03 14.37,44.69 15.79,74.02 1.85,42.29 -7.68,78.7 -28.91,108.8 -21,30.15 -55.57,46.75 -103.31,49.8 -84.3,5.06 -133.83,-47.73 -148.36,-158.82l0 0zm450 134.71l-12.14 -405.48 -102.33 4.03 -2.39 -82.51 273.49 -11.16 2.45 82.51 -102.11 4.09 12.14 405.53 -69.34 2.83 0.22 0.17zm217.71 -257.44c-0.82,-58.07 5.87,-106.18 20.03,-144.23 14.15,-37.83 33.15,-66.35 56.77,-85.13 23.45,-18.83 52.36,-28.74 86.32,-29.33 49.31,-1.04 89.75,20.03 121.48,63.08 31.78,43.1 48.11,105.2 49.36,186.08 1.2,81.7 -14.15,145.81 -46.31,192.57 -28.31,41.25 -67.11,62.27 -116.64,63.29 -49.74,1.04 -89.53,-18.18 -118.87,-57.85 -33.53,-45.29 -50.94,-107.99 -52.14,-188.32l0 -0.16zm71.57 -4.84c0.81,56.22 10.72,98.08 29.27,125.78 18.84,27.71 41.64,41.26 68.75,40.88 27.32,-0.6 49.74,-14.97 67.32,-43.33 17.58,-28.31 25.86,-71.19 25.04,-128.99 -0.76,-56.65 -10.07,-98.34 -28.09,-125.02 -17.96,-26.72 -41.04,-39.83 -69.34,-39.23 -28.31,0.6 -51.11,14.74 -68.53,42.45 -17.36,27.76 -25.47,70 -24.65,127.47l0.22 0zm347.89 232.78l0 -488.47 67.71 0 141.13 326.23 0 -326.23 64.87 0 0 488.47 -69.94 0 -138.9 -318.34 0 318.34 -64.65 0 -0.22 0zm614.31 -6.91l0 -488.42 146.57 0c37.4,0 64.27,4.46 80.28,13.17 15.94,8.65 29.27,24.05 39.62,45.67 10.28,21.65 15.34,47.56 15.34,77.88 0,38.21 -7.89,68.97 -23.67,92.26 -15.73,23.24 -38.21,37.98 -67.11,43.87 14.96,12.36 27.11,26.07 37.01,40.87 9.69,14.75 23.02,41.26 39.84,79.46l41.8 95.25 -82.83 0 -50.35 -106.34c-18.23,-38.43 -30.53,-62.48 -37.01,-72.23 -6.48,-9.69 -13.34,-16.38 -20.64,-20.03 -7.23,-3.65 -18.99,-5.44 -34.94,-5.44l-14.37 0 0 203.88 -69.56 0 0 0.16zm69.56 -281.93l51.55 0c31.51,0 51.54,-1.63 60.25,-4.84 8.49,-3.21 15.56,-9.69 20.79,-19.59 5.49,-9.75 8.11,-22.7 8.11,-39.08 0,-15.56 -2.62,-28.09 -8.11,-37.39 -5.44,-9.53 -12.52,-16.01 -21.61,-19.66 -6.47,-2.39 -25.47,-3.65 -56.6,-3.65l-54.37 0 0 123.99 0 0.21zm304.63 282.59l7.29 -488.48 255.69 5.28 -1.2 82.51 -186.19 -3.87 -1.59 108.25 173.03 3.43 -1.2 82.3 -173.08 -3.44 -2.01 132.86 192.67 3.87 -1.2 82.34 -262.01 -5.27 -0.21 0.22zm332.32 -145.64l68.15 -8.11c6.69,62.53 31.35,94.27 73.8,95.3 21,0.38 37.6,-5.65 49.69,-18.23 12.14,-12.52 18.4,-28.31 18.84,-47.13 0.21,-11.11 -1.86,-20.64 -5.88,-28.53 -4.03,-7.89 -10.29,-14.31 -18.78,-19.59 -8.49,-5.06 -29.33,-13.93 -62.27,-26.29 -29.33,-10.95 -50.94,-22.86 -64.49,-35.22 -13.55,-12.51 -24.27,-28.91 -32.17,-48.93 -7.83,-20.03 -11.48,-41.47 -11.32,-64.33 0.44,-26.67 6.09,-50.34 16.82,-71.57 10.67,-21.05 25.47,-37.01 43.87,-47.56 18.56,-10.51 41.2,-15.35 68.09,-14.97 40.44,0.82 72,14.21 94.21,40.28 22.42,25.91 33.75,62.69 34.4,110.21l-69.78 2.84c-2.61,-26.29 -9.09,-44.69 -18.99,-55.41 -9.91,-10.5 -24.44,-16 -43.06,-16.38 -18.61,-0.38 -33.14,3.87 -43.49,12.73 -10.29,8.93 -15.56,20.25 -15.72,33.59 -0.22,13.33 4.24,24.65 13.11,33.96 9.09,9.31 30.09,19.65 62.86,31.18 34.78,12.52 59.87,25.47 75.21,38.59 15.35,13.38 27.11,30.36 34.95,51 7.89,20.84 11.76,45.71 11.32,75.05 -0.6,42.24 -12.3,77.83 -35.16,106.13 -22.86,28.36 -58.24,42.07 -105.91,41.31 -84.53,-1.85 -130.57,-58.45 -138.46,-170.51l0.16 0.6zm357.04 173.51l14.53 -488.21 111.8 4.62c41.64,1.64 68.74,5.06 81.47,10.35 20.2,8.49 36.58,25.25 49.1,50.34 12.56,25.09 18.23,57.04 16.98,96.06 -0.98,35.22 -7.68,64.71 -19.82,88.01 -12.08,23.45 -27.05,39.62 -44.47,48.54 -17.36,8.87 -47.07,12.52 -89.15,10.89l-45.45 -1.8 -5.49 184.02 -69.34 -2.83 -0.17 0zm81.42 -402.66l-4.24 138.52 38.42 1.63c25.91,1.04 43.49,-0.43 52.8,-4.24 9.26,-3.87 17.15,-11.16 23.4,-21.82 6.31,-10.73 9.75,-24.11 10.13,-40.06 0.43,-16.22 -2.24,-29.93 -7.89,-41.47 -5.82,-11.32 -13.11,-19 -22.04,-23.24 -8.87,-4.24 -27.65,-6.91 -56.77,-7.89l-33.8 -1.42 0 0zm287.7 -70.8l69.12 4.24 -11.92 264.13c-1.85,41.09 -2.23,67.76 -1.04,80.33 2.02,21.6 8.5,38.8 19.66,51.16 11.1,12.31 25.85,19.22 44.85,20.42 16,1.03 29.33,-2.4 39.84,-10.13 10.5,-7.67 17.96,-18.78 22.2,-33.36 4.46,-14.53 7.73,-46.1 9.91,-94.65l12.14 -269.8 69.56 4.24 -11.54 256.24c-3,65.53 -8.06,112.66 -15.35,141.4 -7.46,28.9 -22.04,51.54 -43.87,68.36 -21.82,16.77 -50.13,24.27 -84.69,22.04 -35.82,-2.23 -63.51,-11.32 -82.89,-27.71 -19.44,-16.21 -33.15,-38.04 -41.04,-65.96 -7.89,-27.71 -10.12,-78.05 -6.85,-151.09l11.7 -260.11 0.22 0.22zm382.07 21.66l137.43 11.1c37.6,3.06 63.67,9.31 78.65,18.4 14.74,9.31 26.67,24.28 35.98,45.34 9.31,21.01 13.16,44.26 11.54,69.78 -1.42,23.46 -7.29,44.26 -17.42,62.48 -10.07,18.18 -22.58,31.35 -37.39,39.24 19.81,10.12 34.99,25.69 45.28,47.13 10.35,21.22 14.59,46.48 12.73,75.82 -2.01,35.43 -11.32,64.71 -27.48,88 -16.17,23.24 -34.35,37.02 -54.75,41.26 -14.15,2.83 -46.53,2.23 -97.26,-2.02l-116.86 -9.53 29.34 -487.22 0.21 0.22zm64.28 86.76l-6.91 112.66 45.71 3.81c27.49,2.24 44.47,3.05 50.95,2.45 11.92,-1.2 21.6,-6.25 28.68,-15.18 7.3,-8.87 11.33,-21.44 12.36,-37.6 0.82,-14.37 -1.2,-26.29 -6.09,-35.82 -4.84,-9.47 -11.11,-15.56 -18.78,-18.4 -7.67,-2.83 -29.71,-5.66 -66.29,-8.71l-40.06 -3.21 0.44 0zm-11.76 193.76l-7.89 130.24 64.33 5.28c28.08,2.23 46.26,2.01 54.53,-0.6 8.33,-2.84 15.4,-9.15 21.44,-18.84 6.09,-9.52 9.52,-22.26 10.51,-37.6 1.03,-16 -1.2,-29.33 -6.26,-40.06 -5.22,-10.72 -12.51,-18.4 -21.82,-23.07 -9.31,-4.62 -28.91,-8.28 -58.62,-10.51l-56.22 -4.62 0 -0.22zm294.12 240.89l29.12 -483.2 69.18 5.66 -24.06 401.07 172.8 13.99 -4.84 82.07 -241.98 -19.6 -0.22 0zm316.82 34.4l36.58 -486.62 69.13 7.07 -36.58 486.63 -69.13 -7.08zm163.33 14.53l43.87 -485.82 68.91 8.49 -19.38 215.81 159.47 -198.61 93.19 11.33 -146.35 173.35 109.18 313.05 -89.53 -10.88 -73.8 -239.48 -63.46 74.4 -13.17 146.62 -69.12 -8.49 0.21 0.22zm682.24 85.34l-75.22 -9.3 -19.81 -114.08 -136.83 -16.76 -38.21 107 -73.58 -9.09 177.27 -469.44 73.42 8.88 93.18 502.41 -0.22 0.38zm-109.94 -207.69l-30.75 -185.87 -62.64 174.55 93.4 11.32zm168.56 58.24l68.36 0.43c0.98,63.08 22.64,97.48 64.66,103.53 20.84,3.05 37.82,-0.98 51.16,-11.92 13.33,-10.95 20.79,-25.91 22.86,-44.53 1.2,-10.89 0.16,-20.79 -3.27,-29.11 -3.22,-8.28 -9.09,-15.57 -16.98,-21.82 -8.06,-6.1 -27.87,-17.42 -59.44,-33.8 -28.3,-14.53 -48.71,-28.91 -61.07,-42.84 -12.3,-14.2 -21.6,-31.56 -27.49,-52.63 -6.03,-20.79 -7.89,-42.67 -5.44,-65.31 2.84,-26.51 10.51,-49.53 23.02,-69.18 12.57,-19.6 28.53,-33.58 47.95,-41.86 19.38,-8.11 42.46,-10.34 69.13,-6.47 40.22,5.66 70.38,22.85 90.18,51.38 19.82,28.52 27.87,66.51 24.22,113.86l-69.51 -5.66c-0.43,-26.29 -4.89,-45.51 -13.98,-57.42 -8.87,-11.76 -22.8,-19.05 -41.42,-21.66 -18.62,-2.61 -33.36,-0.22 -44.47,7.46 -10.94,7.73 -17.2,18.23 -18.62,31.56 -1.41,13.33 2.02,25.09 10.13,35.38 8.27,10.35 28.09,23.3 59.6,38.64 33.58,16.82 57.25,32.6 71.4,47.57 14.15,15.13 24.22,33.36 30.1,54.97 6.04,21.65 7.45,46.91 4.45,76.09 -4.45,42.07 -19.43,75.81 -44.68,101.29 -25.26,25.52 -61.67,34.83 -109.18,28.14 -83.88,-11.93 -124.53,-74.02 -122.3,-186.31l0.6 0.22zm346.48 215.2l58.45 -483.58 68.75 11.32 -58.46 483.59 -68.74 -11.33 0 0z"/>
   <path class="fil10" d="M3779.2 2309.16l-109.73 15.4 -63.29 -132.47 -199.75 28.08 -21.6 144.46 -107.33 15.12 108.96 -638.09 106.95 -14.97 286.01 582.48 -0.21 0zm-219.95 -215.37l-100.63 -217.05 -35.98 236.05 136.45 -19.21 0.16 0.21zm244.22 -410.21l185.16 -19.38c46.91,-4.9 82.68,-3.49 107.55,4.62 24.87,7.89 48.71,23.24 71.57,45.93 22.63,22.64 41.63,53.4 57.42,91.6 15.56,38.42 26.45,86.98 32.54,145.8 5.66,53.02 4.46,99.71 -3.43,140.21 -7.89,40.43 -19.82,72.98 -35.82,97.85 -15.73,24.88 -36.36,44.53 -61.23,58.68 -24.66,14.36 -57.64,23.67 -98.68,27.92l-190.6 20.03 -64.49 -613.27 0 0zm112.02 93.29l42.61 406.13 76.04 -7.9c32.76,-3.48 55.78,-8.92 69.94,-16.6 14.15,-7.67 25.09,-18.23 32.98,-31.56 8.06,-13.11 13.71,-33.75 17.15,-61.07 3.27,-27.54 2.67,-63.13 -2.02,-106.78 -4.84,-45.35 -11.7,-80.93 -20.78,-106.62 -9.15,-25.48 -21.06,-45.07 -35.82,-58.84 -14.75,-13.55 -31.95,-21.82 -51.33,-24.66 -14.58,-2.23 -42.29,-1.03 -82.89,3.22l-46.09 4.84 0.22 -0.16zm496.04 452.83l-42.62 -610.24 101.45 -7.07 35.38 506.49 253.31 -17.63 7.29 103.58 -354.8 24.87 0 0zm464.58 -33.96l-43.05 -615.3 101.45 -7.07 43.05 615.29 -101.45 7.08zm371.35 -23.46l-13.55 -259.13 -203.39 -347.07 119.3 -6.26 131.6 237.46 103.9 -249.82 117.02 -6.04 -166.98 367.28 13.54 258.31 -101.45 5.43 0 -0.16zm768.18 -34.02l-111.03 3.87 -48.87 -138.56 -201.55 7.07 -36.8 141.4 -108.58 3.87 175.09 -623.19 107.93 -3.81 223.59 609.2 0.21 0.16zm-196.31 -237.24l-77.23 -226.31 -60.42 231.15 137.64 -4.84zm746.35 229.19l-180.31 -616.71 110.54 0 128.02 456.47 123.49 -456.47 108.53 0 -180.91 616.71 -109.13 0 -0.22 0zm784.95 0l-110.98 0 -44.09 -139.99 -201.71 0 -41.69 139.99 -108.53 0 196.7 -616.71 107.93 0 202.14 616.71 0.22 0zm-187.77 -243.95l-69.34 -228.96 -68.53 228.96 137.86 0zm237.08 252.82l4.08 -112.22 279.37 -390.57 -235.72 -8.32 3.65 -104.34 369.72 12.95 -3.43 96.66 -290.91 406.13 287.48 10.13 -3.65 103.74 -410.6 -14.37 0 0.22zm511.44 18.62l21.66 -616.28 101.67 3.65 -21.44 616.28 -101.67 -3.65 -0.22 0zm238.77 10.5l43.05 -615.07 214.49 14.96c54.75,3.87 93.57,12.15 116.2,24.93 22.64,12.73 40.88,33.15 54,61.45 13.11,28.36 18.4,61.51 15.78,99.55 -3.43,48.11 -17.58,86.16 -42.67,113.86 -25.09,27.7 -59.22,43.87 -102.27,48.54 20.79,17.2 37.55,35.6 50.51,55.19 12.95,19.65 30.15,54.42 51.38,104.17l52.74 124.2 -121.31 -8.49 -64.44 -138.95c-23.24,-50.4 -39.24,-81.91 -47.73,-94.71 -8.71,-12.73 -18.18,-21.82 -28.52,-27.27 -10.29,-5.49 -27.06,-8.93 -50.73,-10.51l-21 -1.41 -18.02 256.84 -101.45 -7.08 0 -0.22zm126.32 -347.89l75.44 5.28c46.04,3.27 75.6,3.27 88.33,0.21 12.89,-3.27 23.62,-10.72 32.33,-22.47 8.71,-11.71 13.71,-27.87 15.13,-48.33 1.41,-19.6 -1.58,-35.6 -8.49,-47.95 -7.08,-12.51 -16.99,-21.38 -30.1,-26.89 -9.31,-3.65 -36.79,-7.29 -82.29,-10.5l-79.62 -5.66 -10.95 156.15 0.22 0.16zm424.91 391.17l42.67 -609.97 101.51 7.08 -35.38 506.44 253.25 17.79 -7.23 103.75 -354.81 -24.88 0 -0.21zm464.59 44.3l64.44 -613.22 101.29 10.72 -64.5 613.23 -101.23 -10.73zm490.98 -169.27l12.73 -103.14 218.15 26.89 -29.93 243.72c-25.26,23.08 -59,41.48 -101.67,55.19 -42.68,13.77 -84.31,18.23 -124.91,13.17 -49.53,-6.1 -91.6,-23.68 -126.55,-52.58 -34.78,-29.12 -60.25,-69.18 -76.42,-120.55 -16.21,-51.17 -20.25,-109.84 -12.14,-175.37 8.28,-67.32 26.46,-123.6 54.75,-168.67 28.14,-45.12 61.67,-77.51 100.31,-96.71 38.59,-19.38 82.84,-25.85 132.58,-19.6 59.82,7.29 105.92,28.31 138.3,63.3 32.33,34.78 49.91,82.34 52.96,142.6l-102.93 10.72c-3.65,-32.38 -14.52,-58.07 -32.54,-77.29 -17.96,-19 -40.82,-30.31 -68.75,-33.74 -43.05,-5.28 -80,7.29 -110.76,37.39 -30.74,30.37 -50.34,79.68 -58.83,148.48 -9.09,73.8 -1.64,131.65 22.64,173.73 20.84,36.03 52.14,56.82 94.59,61.88 19.82,2.46 40.88,0.44 63.3,-6.25 22.42,-6.86 43.05,-17.2 61.67,-31.35l9.47 -77.67 -116.04 -14.15 0 0zm324.28 275.07l96.44 -608.98 100.47 15.95 -96.44 608.98 -100.47 -15.95z"/>
   <path class="fil11" d="M9830.19 10653.69c-206.55,307.24 -435.64,588.35 -685.29,845.24 -376.2,-342.45 -557.33,-859.4 -588.62,-2072.13 -194.69,-1838.32 -645.28,-2494.65 -1336.83,-3296.19 1002.05,894.56 1665.08,1568.09 1933.56,3069.23 63.89,784.35 323.24,1218.61 677.18,1453.63l0 0.22z"/>
   <path class="fil11" d="M10307.68 9814.54c-121.86,255.64 -256.13,496.91 -402.05,724.26 -448.21,-339.41 -533.28,-748.37 -633.37,-1410.52 -100.47,-692.53 -361.02,-1719.61 -1694.84,-2842.32 735.47,251.39 1487.64,1074.38 1933.61,1874.93 336.95,739.23 424.31,1322.95 796.64,1653.43l0 0.22z"/>
   <path class="fil12" d="M3139.41 3743.8c33.96,-41.86 67.11,-84.15 99.44,-127.04l2444.85 -1029.26c334.34,-16 675.98,-24.05 1017.62,-23.89 341.41,0.22 682.89,8.49 1017.02,24.71l2442.83 1028.44c32.33,42.67 65.47,85.18 99.43,127.04l-2791.48 -1138.72 3024.54 1769.96c-12.09,21 -24.22,42.07 -36.36,63.07l-3044.2 -1735.72 2767.87 2149.74c-14.8,19.22 -29.55,38.64 -44.52,57.86l-2791.71 -2118.61 2463.63 2492.79c-17.15,17.2 -34.35,34.4 -51.55,51.6l-2491.48 -2465.14 2117.52 2793.18c-19.43,14.74 -38.59,29.54 -57.8,44.52l-2148.71 -2769.34 1734.9 3045.83c-21.05,12.14 -42.07,24.27 -63.07,36.42l-1768.81 -3026.18 1322.68 3246.38c-22.48,9.31 -44.91,18.62 -67.33,27.92l-1359.08 -3231.25 887.86 3391.27c-23.46,6.26 -46.92,12.52 -70.38,18.78l-925.86 -3381.09 437.86 3478.2c-24.05,3.27 -48.11,6.25 -72.17,9.52l-476.83 -3473.18 -19.65 3505.73c-24.22,0 -48.5,0 -72.77,0l-19.6 -3505.73 -476.89 3473.18c-24.05,-3.27 -48.11,-6.25 -72.16,-9.52l437.86 -3478.41 -925.86 3381.31c-23.46,-6.25 -46.91,-12.51 -70.32,-18.78l887.8 -3391.43 -1359.03 3231.41c-22.42,-9.3 -44.9,-18.61 -67.32,-27.92l1322.68 -3246.38 -1768.81 3026.18c-21.01,-12.15 -42.08,-24.28 -63.08,-36.42l1734.85 -3045.99 -2148.66 2769.28c-19.21,-14.75 -38.58,-29.55 -57.8,-44.3l2117.31 -2793.34 -2491.49 2465.08c-17.2,-17.2 -34.4,-34.4 -51.54,-51.6l2463.62 -2492.79 -2791.7 2118.61c-14.8,-19.21 -29.55,-38.58 -44.53,-57.8l2767.87 -2149.79 -3044.19 1735.77c-12.14,-21.06 -24.28,-42.07 -36.36,-63.13l3024.54 -1769.96 -2791.49 1138.72 0 0.22zm431.17 -634.89c19.21,-34.4 38.04,-68.97 56.44,-103.95l1350.97 -370.32c180.31,-15.56 364.44,-28.74 551.24,-39.07l-1958.65 513.35 0 0zm4304.44 -512.32c187.39,10.51 371.95,23.89 552.65,39.46l1345.54 368.69c18.4,35 37.17,69.61 56.38,103.95l-1954.57 -512.32 0 0.22z"/>
   <path class="fil11" d="M4255.27 11499.09c-249.82,-256.83 -478.68,-538 -685.29,-845.18 353.99,-235.08 613.33,-669.28 677.23,-1453.63 268.44,-1501.14 931.74,-2174.67 1933.56,-3069.28 -691.54,801.54 -1142.15,1457.87 -1336.82,3296.18 -31.35,1212.73 -212.48,1729.73 -588.68,2072.13l0 -0.22z"/>
   <path class="fil11" d="M3494.61 10539.01c-145.97,-227.56 -280.19,-468.83 -402.11,-724.31 372.38,-330.47 459.53,-914.37 796.48,-1653.64 445.97,-800.51 1198.15,-1623.5 1933.61,-1874.89 -1333.84,1122.72 -1594.59,2149.8 -1694.85,2842.33 -100.09,662.15 -185.21,1071.11 -633.14,1410.51z"/>
   <path class="fil13" d="M6700.12 3625.25c73.58,0 133.61,60.09 133.61,133.73 0,57.42 -36.79,106.78 -87.94,125.56l16 48.55c0,131.06 0,262.11 0,393.18 52.52,25.91 80.82,81.75 92.74,158.38 0,99.33 0,198.44 0,297.72 -4.84,58.89 -19.16,111.68 -54.53,150.1 0,30.1 0,60.26 0,90.19 49.09,18.02 91.98,48.93 124.69,88.6 152.67,-82.51 282.04,-127.25 391,-124.2 331.73,3.05 483.31,228.97 783.1,303 201.38,56 390.34,65.09 527.82,34.78 -22.42,-39.46 -35.16,-85.18 -35.16,-133.51 0,-149.84 122.07,-272.24 272.08,-272.24 149.78,0 272.07,122.18 272.07,272.24 0,149.51 -74.56,244.16 -184.94,302.18l790 1945.92 334.95 0c-213.63,304.62 -522.94,547.09 -1173.28,567.12 -553.68,1.42 -960.41,-185.05 -1219.97,-559.45l304.62 0 764.75 -1890.08c-225.38,39.02 -492.46,3.65 -630.91,-29.11 -198.12,-27.49 -487.56,-131.06 -731.39,-196.59 -141.51,-21.44 -279.53,15.35 -415.38,63.68 -29.34,80.93 -93.4,145.27 -173.9,174.76 0,361.83 0,723.88 0,1085.7 224.62,24.11 172.04,328.3 0,360.47 81.48,56.61 131.61,145 150,264.73l0 586.94c-5.65,352.36 -47.29,659.76 -109.12,941.91l0 215.8 1528.24 0 0 139.38 278.34 0 0 98.3 330.32 0 0 147.65 -2276.18 0 -2.67 0 -2276.23 0 0 -147.65 330.31 0 0 -98.3 278.4 0 0 -139.38 1528.03 0 0 -215.8c-61.84,-282.15 -103.47,-589.55 -109.13,-941.91l0 -586.94c18.62,-119.96 68.53,-208.12 150.17,-264.73 -171.99,-32.16 -224.57,-336.36 0,-360.47 0,-361.82 0,-723.87 0,-1085.7 -80.66,-29.49 -144.73,-93.83 -174.01,-174.76 -136.07,-48.33 -273.93,-85.34 -415.43,-63.68 -243.79,65.53 -533.28,169.11 -731.39,196.59 -138.46,32.76 -405.53,68.14 -630.91,29.11l764.75 1890.08 304.62 0c-259.56,374.4 -666.29,560.87 -1219.97,559.45 -650.51,-20.03 -959.82,-262.49 -1173.5,-567.12l334.95 0 790 -1945.92c-110.38,-58.02 -184.94,-152.67 -184.94,-302.18 0,-149.84 122.29,-272.24 272.07,-272.24 149.78,0 272.13,122.18 272.13,272.24 0,48.55 -12.73,94.05 -35.21,133.51 137.47,30.53 326.5,21.22 527.82,-34.78 299.78,-74.24 451.64,-299.95 783.15,-303 108.96,-3.05 238.33,41.69 390.95,124.2 32.76,-39.67 75.81,-70.59 124.91,-88.6 0,-30.15 0,-60.25 0,-90.19 -35.38,-38.63 -49.7,-91.21 -54.54,-150.1 0,-99.28 0,-198.39 0,-297.72 11.93,-76.47 40.22,-132.47 92.75,-158.38 0,-131.06 0,-262.11 0,-393.18l16 -48.55c-51.16,-18.61 -87.95,-67.92 -87.95,-125.56 0,-73.64 60.03,-133.73 133.62,-133.73l-0.38 0zm2891.96 3814.17l-669.72 -1690.44 0 1690.44 669.72 0zm-1449.61 0l669.72 -1690.44 0 1690.44 -669.72 0zm-4334.32 0l669.71 -1690.44 0 1690.44 -669.71 0zm1449.6 0l-669.72 -1690.44 0 1690.44 669.72 0z"/>
   <path class="fil14" d="M5141.71 13558.88c252.11,-720.82 -608.87,-1293.39 -590.47,-1312.23 20.41,-18.61 -527.02,691.93 590.47,1312.23z"/>
   <path class="fil15" d="M4904.58 13557.08c-740.04,474.11 -1766.79,-443.74 -1736.86,-460.72 19.43,-15.19 731.98,-276.33 1736.86,460.72z"/>
   <path class="fil16" d="M8256.45 13558.88c-252.05,-720.82 608.93,-1293.39 590.53,-1312.23 -20.47,-18.61 526.96,691.93 -590.53,1312.23z"/>
   <path class="fil17" d="M8493.36 13557.08c740.1,474.11 1766.85,-443.74 1736.92,-460.72 -19.43,-15.19 -731.98,-276.33 -1736.92,460.72l0 0z"/>
   <path class="fil18" d="M859.16 10614.83c444.71,907.13 1362.3,1197.61 1842.39,845.03 -0.22,-2.02 -0.22,-4.04 -0.38,-6.04 -0.65,12.95 -823.8,-278.93 -985.28,-409.18 -1.04,11.92 795.66,303.21 985.28,409.18 0,-0.6 0,-1.04 0,-1.64 -561.41,-661.99 -1302.86,-1127.99 -1842.01,-837.35l0 0z"/>
   <path class="fil19" d="M418.47 9489.5c348.92,884.66 1185.79,1211.1 1670.57,901.85 0,-1.8 0,-3.87 0.22,-5.66 -1.42,11.76 -753.43,-312.08 -895.76,-443.96 -1.63,10.72 726.33,331.51 895.76,443.96 0,-0.6 0,-1.04 0,-1.64 -472.43,-665.2 -1139.16,-1146.38 -1670.79,-894.55l0 0z"/>
   <path class="fil20" d="M120.26 8297.62c216.35,872.51 954.81,1266.95 1449.28,1023.82 0.38,-1.85 0.6,-3.65 0.76,-5.49 -2.61,10.56 -664.66,-374.13 -781.29,-513.08 -2.84,9.69 637.6,387.68 781.29,513.08 0.22,-0.6 0.22,-0.98 0.22,-1.58 -355.35,-682.84 -921.39,-1205.88 -1450.41,-1016.75l0.16 0z"/>
   <path class="fil21" d="M36.39 7191.67c81.86,850.69 712.77,1307.17 1207.84,1134.47 0.44,-1.85 1.25,-3.48 1.64,-5.06 -4.04,9.31 -566.81,-431.6 -656.17,-576.27 -4.03,8.55 540.13,440.15 656.17,576.27 0.21,-0.43 0.21,-1.03 0.43,-1.41 -235.12,-690.51 -691.6,-1250.79 -1209.9,-1127.99l0 0z"/>
   <path class="fil22" d="M0.03 6120.5c-4.09,818.36 538.5,1296.06 1016.58,1166.86 0.6,-1.64 1.26,-3.27 1.86,-4.68 -4.46,8.27 -486.41,-452.67 -555.75,-596.62 -4.41,7.67 460.72,457.67 555.75,596.62 0.16,-0.38 0.38,-0.82 0.6,-1.2 -152.24,-678.04 -524.9,-1245.93 -1019.03,-1160.81l0 -0.16z"/>
   <path class="fil23" d="M142.52 5060.48c-128.34,778.9 297.17,1298.68 757.08,1237.23 0.81,-1.42 1.58,-2.84 2.61,-4.3 -5.44,7.13 -377.83,-492.29 -419.84,-637.88 -5.06,6.48 353.93,493.27 419.84,637.88 0.22,-0.38 0.38,-0.76 0.6,-0.98 -35.38,-666.02 -291.89,-1254.59 -760.29,-1231.73l0 -0.22z"/>
   <path class="fil24" d="M427.17 4046.57c-222,736.82 99.06,1274.62 529.63,1262.26 0.98,-1.2 2.01,-2.4 2.83,-3.82 -5.66,6.04 -280.78,-510.52 -299.78,-654.09 -5.66,5.65 258.96,508.45 299.78,654.09 0.22,-0.43 0.6,-0.6 0.82,-1.03 57.58,-643.98 -99.06,-1237.01 -533.49,-1257.42l0.21 0z"/>
   <path class="fil25" d="M839.94 3103.85c-312.73,688.88 -99.87,1238.2 294.73,1274.24 1.03,-1.26 2.01,-2.24 3.27,-3.44 -6.1,5.23 -179.33,-522.44 -175.26,-663.02 -5.87,4.84 160.29,517.98 175.26,663.02 0.38,-0.21 0.6,-0.65 0.81,-0.81 150.17,-615.08 96.01,-1207.08 -298.8,-1269.99l0 0z"/>
   <path class="fil26" d="M1355.04 2204.61c-389.75,637.93 -280.19,1188.46 72.98,1265.31 1.2,-0.98 2.4,-2.01 3.43,-2.83 -6.25,4.24 -82.29,-524.84 -57.2,-660.75 -5.87,3.82 66.08,518.59 57.2,660.75 0.38,-0.16 0.6,-0.6 0.98,-0.82 232.3,-580.68 274.15,-1163.59 -77.39,-1261.66z"/>
   <path class="fil27" d="M3036.12 9727.13c293.14,670.7 206,1399.04 -310.89,1717.76 -2.07,-0.76 -4.09,-1.58 -5.88,-2.4 -12.95,-5.05 75.82,-783.53 89.53,-945.98 -10.89,-5.83 -158.05,734.21 -89.53,945.98 -0.6,-0.43 -1.03,-0.43 -1.63,-0.6 -491.42,-751.8 -276.33,-1565.47 318.4,-1714.55l0 -0.22z"/>
   <path class="fil28" d="M2545.89 8746.8c228.44,661.99 83.71,1356.15 -432.58,1631.23 -1.85,-0.82 -3.43,-1.86 -5.27,-2.67 -11.11,-5.01 138.45,-745.7 163.54,-901.04 -9.3,-5.88 -209.05,695.13 -163.54,901.04 -0.39,-0.17 -0.99,-0.39 -1.64,-0.77 -398.02,-745.31 -134.6,-1513.71 439.28,-1627.79l0.21 0z"/>
   <path class="fil29" d="M2206.27 7795.42c133.62,659.55 -91.54,1307.98 -611.09,1515.68 -1.58,-0.98 -3,-2.02 -4.63,-3.22 -9.3,-5.66 226.2,-695.95 268.44,-842.64 -7.67,-6.03 -283.78,642.41 -268.44,842.64 -0.43,-0.22 -0.81,-0.6 -1.19,-0.82 -275.13,-749.78 64.87,-1457.87 616.92,-1511.64z"/>
   <path class="fil30" d="M2043.97 6871.69c27.87,650.45 -278.55,1240.44 -793.06,1372.31 -1.2,-1.19 -2.61,-2.45 -3.87,-3.65 -7.45,-6.25 314.75,-633.85 375.6,-769.37 -6.03,-6.47 -359,577.85 -375.6,769.37 -0.38,-0.38 -0.76,-0.6 -0.98,-1.03 -142.71,-745.32 276.77,-1381.41 797.9,-1367.85l0 0.22z"/>
   <path class="fil31" d="M1899.41 6008.05c-28.53,632.65 -364.88,1180.35 -856.3,1274.24 -1.2,-1.26 -2.23,-2.45 -3.27,-3.65 -6.25,-5.88 348.11,-588.19 416.04,-715.61 -5.06,-5.87 -384.09,533.99 -416.04,715.61 -0.16,-0.44 -0.6,-0.6 -0.98,-1.04 -68.52,-721.26 375.38,-1310.81 860.54,-1269.55l0 0z"/>
   <path class="fil32" d="M1910.51 5180c-124.09,608.01 -518.09,1089.35 -984.85,1115.64 -0.82,-1.41 -1.64,-2.61 -2.45,-3.81 -4.84,-5.87 410.98,-517.38 493.27,-632.06 -3.65,-5.65 -435.85,463.99 -493.27,632.06 -0.17,-0.44 -0.39,-0.82 -0.6,-1.04 47.73,-694.91 547.04,-1208.05 987.89,-1110.79l0 0z"/>
   <path class="fil33" d="M2039.51 4324.85c-197.89,581.93 -624.66,1006.68 -1057.02,985.01 -0.66,-1.2 -1.26,-2.61 -1.85,-4.03 -3.66,-5.49 447.54,-457.35 538.71,-561.3 -2.62,-5.22 -463.33,405.97 -538.71,561.3 -0.22,-0.44 -0.39,-0.65 -0.39,-1.03 137.43,-662.21 666.46,-1114.23 1059.26,-979.74l0 -0.22z"/>
   <path class="fil34" d="M2275.82 3535.67c-271.25,549.93 -725.51,914.58 -1116.67,846.06 -0.44,-1.25 -0.6,-2.67 -1.04,-4.09 -2.83,-5.06 477.92,-393.78 577.37,-485.81 -1.86,-4.84 -485.38,345.06 -577.37,485.81 0,-0.38 -0.21,-0.82 -0.38,-1.2 225.17,-622.75 778.46,-1010.48 1118.08,-841l0 0.22z"/>
   <path class="fil35" d="M2602.12 2761.83c-335.6,515.15 -806.23,822.17 -1151.29,714.78 -0.16,-1.19 -0.16,-2.61 -0.16,-4.03 -1.85,-4.67 496.26,-332.93 601.8,-413.86 -1.25,-4.4 -496.48,287.65 -601.8,413.86 0,-0.43 0,-0.65 -0.22,-1.03 301.2,-579.26 867.24,-906.7 1151.67,-709.51l0 -0.22z"/>
   <path class="fil36" d="M2669.22 1723.04c-152.23,590.21 -501.16,1028.06 -865.6,1036.56 -0.65,-1.2 -1.03,-2.4 -1.63,-3.66 -3.27,-3.81 365.09,-470.24 439.27,-579.64 -2.61,-3.65 -379.84,427.8 -439.27,579.64 0,-0.38 -0.22,-0.59 -0.44,-0.98 98.29,-639.56 531.69,-1126.79 867.67,-1031.93l0 0z"/>
   <path class="fil37" d="M12539.44 10614.83c-444.72,907.13 -1362.3,1197.61 -1842.39,845.03 0.21,-2.02 0.21,-4.04 0.38,-6.04 0.6,12.95 823.8,-278.93 985.28,-409.18 1.03,11.92 -795.66,303.21 -985.28,409.18 0,-0.6 0,-1.04 0,-1.64 561.4,-661.99 1302.86,-1127.99 1842.01,-837.35l0 0z"/>
   <path class="fil38" d="M12980.13 9489.5c-348.93,884.66 -1185.79,1211.1 -1670.57,901.85 0,-1.8 0,-3.87 -0.22,-5.66 1.42,11.76 753.43,-312.08 895.75,-443.96 1.64,10.72 -726.32,331.51 -895.75,443.96 0,-0.6 0,-1.04 0,-1.64 472.42,-665.2 1139.15,-1146.38 1670.79,-894.55l0 0z"/>
   <path class="fil39" d="M13278.28 8297.62c-216.29,872.51 -954.75,1266.95 -1449.22,1023.82 -0.38,-1.85 -0.6,-3.65 -0.76,-5.49 2.61,10.56 664.65,-374.13 781.29,-513.08 2.83,9.69 -637.61,387.68 -781.29,513.08 -0.22,-0.6 -0.22,-0.98 -0.22,-1.58 355.35,-682.84 921.39,-1205.88 1450.41,-1016.75l-0.22 0z"/>
   <path class="fil40" d="M13362.21 7191.67c-81.86,850.69 -712.77,1307.17 -1207.84,1134.47 -0.44,-1.85 -1.26,-3.48 -1.64,-5.06 4.04,9.31 566.8,-431.6 656.17,-576.27 4.03,8.55 -540.13,440.15 -656.17,576.27 -0.21,-0.43 -0.21,-1.03 -0.43,-1.41 235.12,-690.51 691.6,-1250.79 1209.9,-1127.99l0 0z"/>
   <path class="fil41" d="M13398.57 6120.5c4.09,818.36 -538.5,1296.06 -1016.59,1166.86 -0.6,-1.64 -1.25,-3.27 -1.85,-4.68 4.46,8.27 486.41,-452.67 555.75,-596.62 4.4,7.67 -460.73,457.67 -555.75,596.62 -0.16,-0.38 -0.38,-0.82 -0.6,-1.2 152.24,-678.04 524.89,-1245.93 1019.03,-1160.81l0 -0.16z"/>
   <path class="fil42" d="M13256.08 5060.48c128.34,778.9 -297.17,1298.68 -757.08,1237.23 -0.81,-1.42 -1.58,-2.84 -2.61,-4.3 5.44,7.13 377.83,-492.29 419.84,-637.88 5.06,6.48 -353.93,493.27 -419.84,637.88 -0.22,-0.38 -0.38,-0.76 -0.6,-0.98 35.38,-666.02 291.89,-1254.59 760.29,-1231.73l0 -0.22z"/>
   <path class="fil43" d="M12971.42 4046.57c221.95,736.82 -99.05,1274.62 -529.62,1262.26 -0.98,-1.2 -2.02,-2.4 -2.83,-3.82 5.65,6.04 280.78,-510.52 299.78,-654.09 5.66,5.65 -258.96,508.45 -299.78,654.09 -0.22,-0.43 -0.6,-0.6 -0.82,-1.03 -57.58,-643.98 99.06,-1237.01 533.49,-1257.42l-0.22 0z"/>
   <path class="fil44" d="M12558.66 3103.85c312.73,688.88 99.87,1238.2 -294.73,1274.24 -1.03,-1.26 -2.07,-2.24 -3.27,-3.44 6.09,5.23 179.33,-522.44 175.26,-663.02 5.87,4.84 -160.29,517.98 -175.26,663.02 -0.38,-0.21 -0.6,-0.65 -0.82,-0.81 -150.16,-615.08 -96,-1207.08 298.81,-1269.99l0 0z"/>
   <path class="fil45" d="M12043.56 2204.61c389.75,637.93 280.19,1188.46 -72.98,1265.31 -1.2,-0.98 -2.4,-2.01 -3.43,-2.83 6.25,4.24 82.29,-524.84 57.2,-660.75 5.87,3.82 -66.08,518.59 -57.2,660.75 -0.39,-0.16 -0.6,-0.6 -0.99,-0.82 -232.29,-580.68 -274.14,-1163.59 77.4,-1261.66l0 0z"/>
   <path class="fil46" d="M10362.27 9727.13c-293.09,670.7 -206.01,1399.04 310.94,1717.76 2.02,-0.76 4.03,-1.58 5.82,-2.4 12.95,-5.05 -75.76,-783.53 -89.53,-945.98 10.89,-5.83 158.06,734.21 89.53,945.98 0.6,-0.43 1.03,-0.43 1.63,-0.6 491.42,-751.8 276.33,-1565.47 -318.39,-1714.55l0 -0.22z"/>
   <path class="fil47" d="M10852.7 8746.8c-228.43,661.99 -83.7,1356.15 432.59,1631.23 1.85,-0.82 3.43,-1.86 5.27,-2.67 11.11,-5.01 -138.45,-745.7 -163.55,-901.04 9.31,-5.88 209,695.13 163.55,901.04 0.38,-0.17 0.98,-0.39 1.64,-0.77 398.02,-745.31 134.6,-1513.71 -439.28,-1627.79l-0.22 0z"/>
   <path class="fil48" d="M11192.32 7795.42c-133.61,659.55 91.55,1307.98 611.1,1515.68 1.58,-0.98 3,-2.02 4.62,-3.22 9.31,-5.66 -226.19,-695.95 -268.43,-842.64 7.67,-6.03 283.78,642.41 268.43,842.64 0.44,-0.22 0.82,-0.6 1.2,-0.82 275.13,-749.78 -64.87,-1457.87 -616.93,-1511.64l0 0z"/>
   <path class="fil49" d="M11354.41 6871.69c-27.87,650.45 278.61,1240.44 793.06,1372.31 1.25,-1.19 2.67,-2.45 3.87,-3.65 7.45,-6.25 -314.75,-633.85 -375.6,-769.37 6.03,-6.47 359,577.85 375.6,769.37 0.38,-0.38 0.81,-0.6 0.98,-1.03 142.76,-745.32 -276.71,-1381.41 -797.9,-1367.85l0 0.22z"/>
   <path class="fil50" d="M11499.18 6008.05c28.53,632.65 364.88,1180.35 856.3,1274.24 1.2,-1.26 2.23,-2.45 3.27,-3.65 6.25,-5.88 -348.12,-588.19 -416.04,-715.61 5.06,-5.87 384.09,533.99 416.04,715.61 0.16,-0.44 0.6,-0.6 0.98,-1.04 68.52,-721.26 -375.39,-1310.81 -860.54,-1269.55l0 0z"/>
   <path class="fil51" d="M11488.09 5180c124.09,608.01 518.09,1089.35 984.85,1115.64 0.82,-1.41 1.64,-2.61 2.45,-3.81 4.84,-5.87 -410.98,-517.38 -493.27,-632.06 3.65,-5.65 435.85,463.99 493.27,632.06 0.17,-0.44 0.38,-0.82 0.6,-1.04 -47.73,-694.91 -547.04,-1208.05 -987.89,-1110.79l0 0z"/>
   <path class="fil52" d="M11359.09 4324.85c197.89,581.93 624.66,1006.68 1057.02,985.01 0.65,-1.2 1.25,-2.61 1.85,-4.03 3.65,-5.49 -447.55,-457.35 -538.71,-561.3 2.62,-5.22 463.28,405.97 538.71,561.3 0.22,-0.44 0.39,-0.65 0.39,-1.03 -137.43,-662.21 -666.46,-1114.23 -1059.26,-979.74l0 -0.22z"/>
   <path class="fil53" d="M11122.77 3535.67c271.26,549.93 725.51,914.58 1116.68,846.06 0.44,-1.25 0.6,-2.67 1.03,-4.09 2.84,-5.06 -477.91,-393.78 -577.36,-485.81 1.8,-4.84 485.38,345.06 577.36,485.81 0,-0.38 0.17,-0.82 0.39,-1.2 -225.17,-622.75 -778.47,-1010.48 -1118.09,-841l0 0.22z"/>
   <path class="fil54" d="M10796.48 2761.83c335.6,515.15 806.23,822.17 1151.29,714.78 0.16,-1.19 0.16,-2.61 0.16,-4.03 1.85,-4.67 -496.26,-332.93 -601.8,-413.86 1.2,-4.4 496.48,287.65 601.8,413.86 0,-0.43 0,-0.65 0.22,-1.03 -301.2,-579.26 -867.24,-906.7 -1151.67,-709.51l0 -0.22z"/>
   <path class="fil55" d="M10729.37 1723.04c152.24,590.21 501.17,1028.06 865.61,1036.56 0.65,-1.2 1.03,-2.4 1.63,-3.66 3.27,-3.81 -365.09,-470.24 -439.27,-579.64 2.61,-3.65 379.84,427.8 439.27,579.64 0,-0.38 0.22,-0.59 0.44,-0.98 -98.29,-639.56 -531.7,-1126.79 -867.68,-1031.93l0 0z"/>
   <path class="fil56" d="M3248.97 11912.96c-696.38,-29.55 -989.91,-85.78 -1080.47,-246.76 133.61,1226.06 393.99,2033.48 839.69,2228.88 2547.12,-226.75 4837.12,-226.75 7384.23,0 445.54,-195.39 706.08,-1002.59 839.7,-2228.88 -90.57,160.99 -384.09,217.21 -1080.48,246.76 -2291.58,-239.69 -4610.86,-239.69 -6902.45,0l-0.22 0z"/>
   <path class="fil57" d="M3838.63 13125.26c-3.21,2.02 -8.05,2.83 -14.53,2.83 -5.06,0 -10.94,-0.38 -17.36,-1.63 -6.47,-1.2 -12.95,-2.02 -19.43,-3.22l-84.53 0 -26.24 1.8 -25.3 2.84c-6.48,0 -11.49,-2.02 -15.57,-5.82 -3.81,-3.87 -5.82,-8.11 -5.82,-12.74 0,-4.45 1.58,-8.32 4.84,-11.16 3.22,-2.83 6.47,-5.65 9.69,-8.27 2.62,-3.27 3.87,-9.31 3.87,-18.4 0,-46.75 -3.05,-108.03 -9.31,-184.07 -6.26,-76.04 -13.55,-129.64 -21.82,-160.62 -3.27,-11.7 -7.07,-20.78 -11.54,-27.1 -7.08,-9.09 -16.17,-13.55 -27.11,-13.55 -16.16,0 -24.22,7.89 -24.22,23.45 0,4.46 0.38,8.71 1.42,12.57 0.98,3.82 1.8,7.08 2.18,9.69 0.43,2.67 0.81,7.67 1.03,15.18 0.38,7.46 0.6,14.15 1.2,19.82l0 300.38c0,11.11 1.04,17.96 2.83,20.63 4.68,2.62 8.11,4.84 10.73,6.86 5.88,4.46 8.71,10.29 8.71,17.58 0,10.35 -6.86,15.57 -21.01,15.57 -10.12,0 -18.23,-0.77 -24.05,-2.4 -5.88,-1.64 -10.73,-2.45 -15.4,-2.45l-92.8 0c-8.87,0 -17.36,0.81 -25.47,2.45 -7.84,1.63 -12.9,2.4 -14.91,2.4 -12.15,0 -18.24,-5.82 -18.24,-17.37 0,-6.47 2.02,-11.32 6.09,-14.58 4.04,-3.22 8.49,-6.86 12.9,-10.73 2.45,-3.81 4.09,-9.47 4.89,-16.98 0.77,-7.45 1.2,-17.36 1.2,-29.71 0,-10.34 0,-46.09 0,-107.22 0,-61.07 0,-115.49 0,-162.57l0 -119.36 0 -52.36c0,-18.23 0,-36.03 0,-53.45 0,-17.36 0,-34.56 0,-51.33 0,-12.95 -3.05,-22.04 -9.31,-27.1 -6.04,-5.06 -9.3,-8.71 -9.3,-10.73 0,-8.49 6.85,-12.73 21,-12.73 3.27,0 7.07,0.16 11.98,0.38 4.84,0.38 10.29,0.82 16.76,1.42l93.62 0 19 -2.02 18.18 -2.01c5.65,0 10.5,0.59 14.36,2.01 3.82,1.2 5.66,4.84 5.66,10.73 0,5.05 -3.43,10.29 -10.13,15.56 -3.05,2.62 -5.27,5.88 -6.47,9.69 -1.2,3.87 -1.8,8.11 -1.8,12.57 0,9.69 0,17.2 0,22.42l0 85.34c0,4.46 0,9.75 0,15.62 0,5.82 0,11.71 0,17.37 0,2.61 0.6,6.09 2.02,10.72 1.2,4.46 4.24,8.49 8.71,11.54 4.4,3.22 9.9,4.84 16.32,4.84 5.06,0 10.13,-0.98 14.97,-2.83 4.84,-2.02 9.91,-4.46 14.96,-7.67 18.62,-11.77 33.15,-27.11 43.49,-46.54 8.49,-15.56 15.73,-37.82 22.21,-66.5 6.47,-28.75 14.58,-50.57 24.27,-65.53 16.54,-25.91 39.62,-38.86 68.52,-38.86 15.57,0 28.69,4.68 39.63,14.15 10.94,9.31 16.6,24.05 16.6,44.09 0,16.21 -5.06,28.74 -14.97,37.82 -10.13,9.09 -21.66,13.55 -34.4,13.55 -5.06,0 -11.7,-2.02 -19.38,-5.88 -7.67,-3.81 -13.17,-5.82 -16.6,-5.82 -7.07,0 -14.15,4.03 -21.22,12.14 -7.07,8.06 -10.73,19.38 -10.73,33.58 0,10.29 1.42,20.42 4.25,30.1 2.83,9.91 8.32,22.47 16,38.04 26.45,50.56 43.27,86.76 50.5,107.98 18.24,54 27.11,118.33 27.11,192.95 0,27.92 0.22,51.21 1.04,69.83 0.6,18.4 2.83,39.18 6.85,62.69 1.8,9.09 4.46,14.75 7.68,16.98 3.21,2.24 6.85,4.41 11.1,6.26 4.24,2.02 6.26,6.26 6.26,12.73 0,6.48 -2.18,10.95 -6.86,13.55l1.2 0.6zm403.73 -661.17c-5.87,6.47 -11.54,12.95 -17.41,19.43 -7.08,10.89 -10.73,24.66 -10.73,40.82l0 376.86c0,84.09 -6.85,140.53 -20.41,168.89 -21.22,44.68 -68.91,66.94 -142.71,66.94 -66.13,0 -112.02,-20.47 -137.86,-61.12 -17.36,-27.93 -26.29,-66.73 -26.29,-116.48l0 -453.48c0,-5.87 0,-11.7 0,-17.36 -1.2,-7.07 -4.24,-12.95 -8.71,-17.42 -2.01,-1.19 -3.81,-2.83 -5.82,-4.84 -4.67,-3.86 -6.91,-8.49 -6.91,-13.54 0,-9.09 7.08,-13.55 21.44,-13.55 7.08,0 13.17,0.81 18.02,2.45 4.84,1.58 13.11,2.4 24.65,2.4l70.92 0c3.87,0 9.9,-0.82 18.39,-2.4 8.5,-1.64 14.59,-2.45 18.4,-2.45l20.47 0c12.9,0 19.38,3.87 19.38,11.76 0,5.82 -2.02,10.89 -6.26,14.91 -4.24,4.29 -8.27,8.33 -12.36,12.14 -2.99,3.87 -4.62,9.31 -4.62,16.6 0,3.87 0,11.16 0,21.88 0,10.67 0,18.18 0,22.8l0 290.25c0,42.68 -0.81,72.61 -2.45,89.81 -1.58,17.2 -2.4,26.29 -2.4,27.7 0,31.13 2.24,53.4 6.86,66.95 7.89,23.29 23.84,35 48.11,35 26.67,0 44.09,-17.2 51.98,-51.38 3.81,-17.58 5.82,-52.58 5.82,-105.15l0 -319.98c0,-9.09 0,-17.58 0,-25.69 0,-8.11 0,-16 0,-23.89 0,-9.69 -0.6,-17.58 -2.02,-23.84 -1.19,-6.26 -4.4,-12.51 -9.3,-19 -2.62,-3.27 -6.86,-7.29 -13.12,-12.14 -6.25,-4.9 -9.3,-10.13 -9.3,-16 0,-8.49 5.05,-12.73 15.34,-12.73 3.27,0 8.49,0.81 15.57,2.45 6.91,1.58 11.98,2.4 14.36,2.4l30.75 0c14.15,-1.2 24.44,-2.02 30.91,-2.02 10.95,0 16.39,2.62 16.39,7.67 0,2.67 -2.84,7.51 -8.71,14.59l-0.39 -0.22zm389.1 92.25c0,18.78 -2.62,31.95 -7.67,39.24 -5.06,7.46 -11.33,11.11 -18.4,11.11 -13.55,0 -22.64,-6.86 -27.06,-20.41 -3.86,-20.04 -7.72,-36.26 -11.54,-48.55 -8.49,-27.93 -19,-48.55 -31.51,-62.11 -12.57,-13.55 -24.71,-20.47 -36.41,-20.47 -5.88,0 -10.95,1.86 -15.19,5.5 -4.24,3.43 -6.85,7.29 -8.27,11.1 -1.2,3.87 -1.2,10.35 0,19.44 2.02,13.55 2.83,22.42 2.83,26.67 0,4.29 0,9.52 0,16l0 312.08 0 131.65 0 48.55 0 23.29c0,17.97 2.46,31.13 7.3,39.62 4.84,8.49 16.38,12.52 34.34,12.52 10.94,0 19.82,-4.63 26.29,-14.15 6.47,-9.31 9.69,-20.63 9.69,-33.58 0,-2.62 -0.6,-6.86 -2.02,-12.73 -1.2,-5.88 -2.01,-10.13 -2.01,-12.52 0,-10.94 3.43,-21.06 10.12,-30.15 6.86,-9.09 16.55,-13.54 29.72,-13.54 10.88,0 19.21,3.86 24.65,11.54 5.44,7.67 8.27,17.36 8.27,29.11 0,22.04 -12.73,44.91 -37.76,68.36 -25.31,23.68 -54,35.38 -86.33,35.38 -55.02,0 -101.51,-30.53 -139.71,-91.22 -43.27,-69.12 -65.09,-163 -65.09,-281.33 0,-103.95 18.83,-188.09 56.38,-251.99 33.58,-56.82 72.82,-85.35 117.46,-85.35 12.35,0 23.89,2.24 34.99,6.86 10.95,4.46 18.62,7.67 22.86,9.31 4.24,1.63 8.87,2.45 14.15,2.45 7.67,0 13.93,-3.65 18.4,-11.16 4.62,-7.46 9.69,-11.11 15.56,-11.11 16.76,0 26.45,2.62 29.07,7.67 2.07,11.76 4.24,23.08 6.91,33.97 5.82,21.44 9.91,37.23 12.51,47.56 5.06,19.38 7.68,36.2 7.68,50.57l-0.22 0.81zm471.66 555.37c0,10.35 -6.26,15.57 -19,15.57 -3.87,0 -10.56,-0.6 -20.03,-2.02 -9.69,-1.2 -16.98,-1.8 -22.04,-1.8l-76.42 0c-5.06,0 -11.54,0.38 -19.21,0.98 -7.68,0.6 -15.57,1.64 -23.84,2.84 -10.13,0 -15.35,-4.24 -15.35,-12.52 0,-5.87 3,-12.73 9.09,-20.47 3.65,-3.81 5.44,-9.09 5.44,-15.56 0,-5.22 0,-9.09 0,-11.71l0 -241.71c0,-28.52 -2.83,-47.94 -8.49,-58.23 -5.88,-10.35 -15.78,-15.57 -29.71,-15.57 -13.55,0 -22.21,4.24 -26.29,12.52 -4.04,8.49 -6.26,16.76 -6.26,25.31l0 21.38 0 31.18 0 226.31c0,10.95 2.02,18.24 5.88,21.82 3.81,3.66 6.03,5.66 6.85,6.32 3.87,3.81 5.88,9.3 5.88,16.54 0,9.75 -6.1,14.58 -18.18,14.58 -3.87,0 -10.13,-0.59 -19.22,-2.01 -8.93,-1.25 -16,-1.85 -21.06,-1.85l-75 0c-6.42,0 -13.71,0.43 -22.2,1.03 -8.27,0.6 -17.42,1.64 -26.89,2.83 -10.94,0 -16.38,-4.24 -16.38,-12.51 0,-9.14 3.05,-15.18 9.31,-18.45 6.25,-3.22 9.3,-13.33 9.3,-30.31 0,-42.08 -0.81,-88.61 -2.45,-139.99 -1.63,-51.16 -2.4,-81.91 -2.4,-92.41 0,-33.59 0.39,-84.97 1.42,-154.14 0.98,-68.96 2.02,-131.22 3.43,-187.27 1.2,-11.71 -0.6,-19.82 -5.87,-24.28 -3.87,-2.01 -6.86,-3.81 -9.31,-5.82 -2.23,-2.07 -3.43,-5.27 -3.43,-9.74 0,-7.68 5.27,-11.71 15.56,-11.71 11.11,2.02 19,2.84 23.46,2.84l90.78 0c16.77,0 28.31,-0.44 34.13,-1.04 5.87,-0.6 11.76,-1.2 17.58,-2.02 11.76,0 17.63,3.66 17.63,10.73 0,3.87 -1.41,7.29 -4.45,10.12 -3.06,2.84 -5.88,5.66 -8.28,8.28 -2.45,2.61 -3.87,5.65 -4.67,9.31 -0.6,3.43 -0.98,12.14 -0.98,25.69l0 131.05c0,21.44 0.76,37.24 2.39,47.51 1.42,10.35 3.66,18.4 6.26,24.28 2.45,5.87 6.26,9.91 11.76,12.14 5.44,2.23 11.11,3.43 17.36,3.43 11.93,0 20.42,-3.21 25.48,-9.69 5.05,-6.47 7.67,-15.78 7.67,-28.14l0 -39.84 0 -140.74c0,-12.95 -0.38,-21.66 -0.82,-26.29 -0.6,-4.68 -1.41,-7.68 -2.61,-9.69 -2.84,-2.67 -4.84,-4.68 -6.04,-5.88 -3.43,-3.27 -5.06,-7.07 -5.06,-11.76 0,-7.07 4.84,-10.72 14.37,-10.72 4.4,0 9.25,0.43 14.74,1.03 5.44,0.6 10.89,1.2 16.77,2.02l105.09 0c4.68,0 10.13,-0.38 17.42,-1.42 7.07,-1.03 10.89,-1.42 11.49,-1.42 10.94,0 16.22,3.66 16.22,10.73 0,7.07 -3.49,12.36 -10.13,15.56 -6.86,3.22 -10.13,9.69 -10.13,19.44 0,10.89 0.82,51.38 2.46,120.55 1.58,69.34 2.39,134.27 2.39,194.58 0,88.76 -0.6,149.45 -2.01,182.43 -1.2,32.77 -2.24,60.04 -2.84,82.08 0,13.17 3.44,22.04 10.13,26.94 6.86,4.84 10.13,11.11 10.13,19l-0.82 -0.22zm1745.73 0c0,4.46 -2.01,8.71 -5.82,12.73 -3.87,3.87 -9.9,5.88 -18.61,5.88 -5.28,0 -9.69,-0.6 -13.55,-1.8 -3.82,-1.25 -8.06,-2.23 -12.51,-3.49 -4.68,-1.2 -9.91,-1.58 -16.17,-1.58 -6.26,0 -10.94,0 -14.15,0l-18.61 0 -53.56 0 -35 2.84c-4.62,0.6 -8.87,1.41 -13.11,2.39 -4.25,1.04 -9.53,1.42 -16.01,1.42 -14.91,0 -22.42,-4.84 -22.42,-14.53 0,-9.74 4.68,-16.82 13.93,-20.84 9.31,-4.24 14.97,-7.29 16.99,-9.31 4.67,-4.62 6.91,-11.76 6.91,-21.44l0 -20.41c-2.67,-23.89 -15.19,-41.09 -37.83,-51.38 -14.36,-6.48 -29.71,-9.75 -46.69,-9.75 -27.11,0 -46.48,8.55 -58.24,25.53 -7.67,11.92 -11.7,26.29 -11.7,44.09 0,14.15 3.21,25.09 9.52,32.16 3.82,4.63 9.69,8.49 17.97,12.31 8.27,3.49 12.36,8.93 12.36,16 0,5.87 0,9.91 0,11.92 0,3.87 -5.28,5.88 -15.57,5.88l-27.11 -3.43 -31.13 -3.44 -41.63 2.84c-3.22,0 -6.04,-0.44 -8.71,-1.04 -9.09,-2.61 -13.55,-7.45 -13.55,-14.53 0,-9.14 5.06,-15.18 14.97,-18.45 10.12,-3.22 16.98,-7.67 20.84,-13.11 3.81,-5.5 7.29,-18.24 10.12,-38.43 2.84,-20.03 5.44,-38.42 7.24,-55.24 10.94,-82.29 23.07,-154.29 35.98,-216.61 9.09,-45.29 19,-86.98 30.15,-125.19 13.55,-48.54 20.63,-74.02 21.22,-76.63 3.81,-18.83 5.82,-32.98 5.82,-42.73 0,-12.3 -2.02,-20.63 -6.26,-25.25 -4.24,-4.46 -11.32,-9.31 -21.22,-14.15 -10.07,-4.84 -14.96,-12.73 -14.96,-23.89 0,-6.48 2.67,-11.33 7.72,-14.53 5.01,-3.27 11.33,-4.84 18.4,-4.84 5.01,0 14.75,0.6 28.47,2.02 13.99,1.19 21.66,1.79 22.86,1.79l23.24 -1.79c2.61,-0.6 13.76,-2.02 33.58,-4.46 19.81,-2.45 33.74,-3.44 42.23,-3.44 10.95,0 19,1.42 23.84,4.24 4.84,2.84 9.53,10.13 14.15,21.83 11.54,28.52 26.07,94.87 43.27,199.03 17.2,104.17 32.17,215.21 45.07,333.1 3.87,36.85 5.88,55.62 5.88,56.22 3.86,20.03 10.72,33.41 20.41,39.89 3.87,2.61 8.11,4.84 12.73,6.85 5.88,3.82 8.71,8.71 8.71,14.53l-0.44 0.22zm-218.3 -204.86c0,-14.96 -0.6,-27.1 -2.02,-37.01 -1.2,-9.75 -6.48,-38.86 -15.57,-87.41 -2.61,-13.54 -4.84,-26.28 -6.85,-38.2 -2.02,-11.92 -2.83,-22.86 -2.83,-32.55l0 -19.43c0,-7.67 -1.04,-13.55 -2.84,-17.42 -3.87,-7.67 -10.34,-11.7 -19.43,-11.7 -19.38,0 -35.98,35.6 -49.53,106.78 -10.29,55.02 -15.56,99.11 -15.56,132.04 0,22.69 6.47,37.82 19.43,45.71 7.07,4.46 17.8,6.91 31.95,6.91l20.41 0c18.18,0 30.53,-5.87 36.96,-17.41 3.87,-7.08 5.88,-17.2 5.88,-30.15l0 -0.17zm696.82 -139.38c0,55.02 -3.43,99.55 -10.73,133.89 -11.54,56.22 -33.96,105.37 -66.89,147.44 -25.91,32.16 -52.79,54.64 -80.49,66.94 -22.64,9.75 -51.55,14.59 -86.27,14.59l-37.82 -2.62c-8.49,-1.25 -15.79,-2.07 -21.82,-2.83 -6.26,-0.82 -11.11,-1.25 -15.19,-1.25l-60.25 0c-10.89,0 -20.42,1.25 -28.09,3.43 -7.89,2.23 -13.55,3.49 -17.36,3.49 -6.48,0 -12.14,-1.86 -16.98,-5.5 -4.84,-3.43 -7.3,-7.67 -7.3,-12.14 0,-3.81 2.02,-7.67 5.88,-11.7 0.6,-0.6 3.81,-3.06 9.69,-7.3 5.87,-4.24 9.91,-8.49 12.14,-13.16 2.24,-4.63 3.82,-9.26 4.46,-14.15 0.6,-4.84 0.98,-11.11 0.98,-18.78 0,-9.15 -0.38,-23.29 -1.42,-42.67 -0.98,-19.44 -1.41,-31.19 -1.41,-35l0 -461.16c0,-13.55 0,-22.26 0,-26.29 0,-7.08 -3.82,-12.57 -11.11,-16.6 -7.51,-3.82 -11.11,-8.71 -11.11,-14.53 0,-5.88 2.02,-9.31 6.26,-10.73 4.24,-1.25 9.47,-2.07 15.95,-2.07 12.36,0 21.44,0.82 27.1,2.45 5.88,1.64 11.55,2.46 17.37,2.46l74.83 0c11.71,0 21.01,-0.44 28.09,-1.04 29.12,-2.62 45.29,-3.87 48.49,-3.87 14.97,0 29.12,1.42 42.68,4.46 13.54,2.83 28.52,8.93 44.68,18.02 55.57,29.71 94.22,77.88 115.44,144.39 13.5,43.33 20.42,97.32 20.42,161.82l-0.22 0zm-182.55 115.71l0 -238.06c0,-48.33 -0.6,-81.31 -1.8,-98.29 -1.25,-16.98 -3.65,-31.95 -7.07,-44.53 -3.27,-12.51 -8.49,-21.6 -15.78,-27.1 -7.08,-5.44 -14.97,-8.28 -23.68,-8.28 -7.67,0 -14.91,2.84 -21,8.28 -6.26,5.49 -9.31,14.8 -9.31,27.54 0,9.09 0.82,15.78 2.24,20.41 1.41,4.46 2.01,7.68 2.01,9.69 2.83,12.36 4.46,26.13 4.46,41.69l0 335.93 -2.83 99.76c0,14.75 -1.04,26.68 -2.84,35.77 -2.01,9.14 -2.83,15.78 -2.83,20.46 0,14.15 3.87,24.06 11.54,29.94 5.22,3.81 11.71,5.82 19.38,5.82 14.97,0 25.91,-9.69 32.98,-28.91 3.22,-8.27 6.04,-19.81 8.28,-34.4 2.23,-14.53 3.81,-31.56 4.84,-51.38 1.03,-19.6 1.41,-41.42 1.41,-65.31l0 -38.64 0 -0.38zm673.59 -105.59c0,79.08 -6.1,141.41 -18.4,187.28 -16.17,60.31 -44.69,104.99 -85.35,133.89 -32.32,22.64 -65.85,34.02 -100.85,34.02 -31.73,0 -61.45,-7.73 -89.37,-23.29 -40,-22.64 -71.73,-57.86 -94.97,-105.75 -29.12,-60.91 -43.71,-140.37 -43.71,-238.88 0,-100.9 19.05,-181.62 57.2,-241.71 38.2,-60.25 88.55,-90.4 151.42,-90.4 28.52,0 54.8,5.06 79.07,14.97 24.22,10.12 46.1,25.69 65.48,47.13 32.93,36.2 55.56,85.78 67.92,148.47 7.68,38.21 11.71,82.89 11.71,134.06l-0.16 0.21zm-164.97 300.99c0,-7.08 -1.42,-15.19 -4.24,-24.28 -2.83,-9.14 -4.84,-16.22 -6.04,-21.44 -3.49,-12.36 -5.06,-35.21 -5.06,-68.96l0 -44.74 0 -142.76 0 -229.19c0,-32.93 -4.08,-55.62 -12.14,-67.93 -8.11,-12.36 -19.81,-18.39 -35.38,-18.39 -11.76,0 -20.63,2.99 -26.67,9.3 -6.31,6.04 -9.31,13.12 -9.31,20.79 3.82,9.74 6.64,17.2 8.28,22.47 1.63,5.06 2.61,10.89 3.43,17.37 0.6,6.47 1.03,21.66 1.03,45.5 0,29.17 0,58.08 0,86.98 0,28.96 0,57.86 0,86.98l0 271.86c0,24.05 4.84,43.71 14.75,59.27 9.91,15.56 23.24,23.24 40.22,23.24 10.51,0 18.18,-2.84 23.46,-8.71 5.22,-5.88 7.89,-11.71 7.89,-17.36l-0.22 0zm552.27 -87.41c0,4.46 -0.38,10.35 -1.41,17.42 -0.98,7.07 -2.84,16.6 -5.88,28.74 -2.83,11.93 -5.44,25.47 -7.24,40.82 -2.01,15.18 -2.83,31.57 -2.83,48.93 0,5.27 -0.44,9.31 -1.42,12.78 -1.03,3.22 -6.09,4.84 -14.96,4.84 -9.09,0 -16.6,-1.85 -22.26,-5.27 -5.82,-3.65 -11.92,-7.08 -18.4,-10.73 -6.47,-3.65 -21.6,-5.22 -45.67,-5.22l-160.12 0 -21.22 2.84 -17.37 0.98c-12.95,0 -19.43,-4.84 -19.43,-14.53 0,-5.06 2.01,-9.31 6.26,-12.73 4.24,-3.27 8.7,-6.91 13.16,-10.73 3.82,-5.87 5.88,-19.87 5.88,-41.69l0 -123.38 0 -287.59c0,-23.89 0,-47.35 0,-70.38 0,-23.07 0,-45.71 0,-68.36 0,-13.55 -2.07,-22.26 -6.31,-25.69 -4.24,-3.65 -7.24,-6.31 -9.26,-8.33 -4.46,-3.81 -6.91,-8.27 -6.91,-12.73 0,-8.49 4.46,-12.73 13.55,-12.73 3.27,0 9.53,1.04 19.22,2.62 9.69,1.85 15.78,2.67 18.39,2.67l90.79 0c15.94,0 26.67,-0.82 31.94,-2.67 5.01,-1.58 10.68,-2.62 16.55,-2.62 12.14,0 18.18,5.06 18.18,14.75 0,5.87 -3.21,10.72 -9.69,14.58 -3.81,2.02 -6.85,3.43 -8.71,4.46 -2.01,0.98 -3.21,3.43 -3.81,7.24l0 42.67 0 48.76c0,27.93 0,55.62 0,83.11 0,27.55 0,55.02 0,82.35l0 215.8c0,21.66 -0.22,39.24 -0.6,53.02 -0.44,13.93 -0.82,27.7 -1.25,41.25 0,16.98 3.26,29.33 9.74,37.02 6.47,7.67 13.55,11.7 21.38,11.7 10.95,0 21.06,-4.24 30.15,-12.73 12.9,-11.54 22.42,-30.15 28.09,-55.18 3.22,-14.97 7.67,-26.73 13.11,-35.44 5.5,-8.65 14.81,-13.11 27.71,-13.11 14.37,0 21.44,4.24 21.44,12.51l-0.82 0zm473.68 120.34c0,4.46 -2.07,8.71 -5.88,12.74 -3.87,3.86 -9.9,5.87 -18.61,5.87 -5.22,0 -9.69,-0.6 -13.55,-1.8 -3.82,-1.25 -8.06,-2.23 -12.52,-3.43 -4.62,-1.25 -9.9,-1.64 -16.16,-1.64 -6.26,0 -10.94,0 -14.15,0l-18.61 0 -53.56 0 -35.17 2.84c-4.67,0.6 -8.92,1.41 -13.16,2.45 -4.24,0.98 -9.47,1.42 -15.95,1.42 -14.96,0 -22.47,-4.9 -22.47,-14.59 0,-9.69 4.67,-16.76 13.98,-20.84 9.31,-4.24 14.97,-7.29 16.98,-9.31 4.62,-4.62 6.86,-11.7 6.86,-21.44l0 -20.41c-2.62,-23.84 -15.19,-41.04 -37.82,-51.38 -14.32,-6.48 -29.72,-9.69 -46.64,-9.69 -27.11,0 -46.53,8.49 -58.24,25.47 -7.67,11.93 -11.76,26.29 -11.76,44.09 0,14.15 3.27,25.09 9.53,32.17 3.86,4.62 9.68,8.49 18.01,12.36 8.27,3.43 12.31,8.87 12.31,15.94 0,5.88 0,9.91 0,11.93 0,3.86 -5.22,5.87 -15.57,5.87l-27.1 -3.43 -31.13 -3.44 -41.64 2.84c-3.22,0 -6.04,-0.44 -8.65,-1.04 -9.15,-2.61 -13.55,-7.45 -13.55,-14.53 0,-9.09 5.05,-15.18 14.96,-18.4 10.07,-3.26 16.98,-7.72 20.79,-13.16 3.87,-5.44 7.29,-18.18 10.12,-38.42 2.84,-20.04 5.44,-38.43 7.3,-55.19 10.88,-82.35 23.02,-154.35 35.97,-216.62 9.09,-45.34 19,-86.98 30.1,-125.23 13.55,-48.55 20.63,-74.02 21.22,-76.64 3.87,-18.83 5.88,-32.98 5.88,-42.67 0,-12.36 -2.02,-20.63 -6.26,-25.31 -4.24,-4.46 -11.32,-9.31 -21.22,-14.15 -10.13,-4.84 -14.97,-12.73 -14.97,-23.83 0,-6.48 2.62,-11.38 7.68,-14.59 5.05,-3.21 11.32,-4.84 18.39,-4.84 5.06,0 14.75,0.6 28.53,2.02 13.93,1.2 21.6,1.8 22.8,1.8l23.24 -1.8c2.67,-0.6 13.76,-2.02 33.58,-4.46 19.81,-2.4 33.74,-3.43 42.24,-3.43 10.94,0 18.99,1.41 23.89,4.24 4.84,2.83 9.47,10.12 14.15,21.82 11.48,28.52 26.07,94.87 43.21,199.04 17.2,104.16 32.17,215.2 45.13,333.14 3.81,36.8 5.82,55.62 5.82,56.22 3.87,20.04 10.72,33.37 20.47,39.84 3.81,2.62 8.05,4.84 12.73,6.86 5.82,3.87 8.65,8.71 8.65,14.58l-0.16 0.16zm-218.36 -204.85c0,-14.97 -0.6,-27.11 -1.8,-37.02 -1.26,-9.74 -6.48,-38.86 -15.57,-87.4 -2.67,-13.5 -4.84,-26.29 -6.85,-38.21 -2.07,-11.92 -2.89,-22.85 -2.89,-32.54l0 -19.44c0,-7.67 -0.98,-13.55 -2.84,-17.36 -3.81,-7.73 -10.28,-11.76 -19.37,-11.76 -19.44,0 -35.98,35.6 -49.53,106.78 -10.29,55.03 -15.57,99.11 -15.57,132.1 0,22.63 6.48,37.82 19.44,45.71 7.07,4.4 17.74,6.86 32.11,6.86l20.41 0c18.18,0 30.53,-5.88 37.02,-17.42 3.81,-7.08 5.87,-17.2 5.87,-30.1l-0.43 -0.21zm595.96 -361.24c0,7.08 -0.81,12.36 -2.23,15.57 -1.63,3.27 -6.86,4.84 -15.56,4.84 -12.52,0 -22.26,-3.65 -28.75,-10.73 -6.63,-7.07 -9.9,-16.16 -9.9,-27.11l0 -16.54 0 -14.59c-0.6,-8.49 -3.6,-15.18 -8.66,-20.41 -5.06,-5.28 -10.72,-7.73 -16.6,-7.73 -7.07,0 -12.51,1.42 -16.54,4.3 -3.87,2.83 -5.88,8.49 -5.88,16.98 0,3.81 0.38,7.67 0.82,11.1 0.6,3.66 1.58,8.71 3,15.57 1.41,6.91 2.45,15.18 3.05,25.31 0.43,10.12 0.81,23.84 0.81,41.25l0 85.57 0 143.58 0 96.05 0 70 0 66.95c0,12.95 0.6,22.63 1.8,29.11 1.26,6.47 5.88,12.57 13.55,18.02 7.89,5.44 11.93,11.54 11.93,18.01 0,11.71 -7.68,17.37 -23.03,17.37 -6.47,0 -15.78,-0.77 -27.92,-2.4 -12.09,-1.64 -19,-2.45 -21,-2.45l-90.95 0c-6.91,0 -14.58,0.81 -22.48,2.45 -7.83,1.63 -13.93,2.4 -17.58,2.4 -11.48,0 -17.36,-4.41 -17.36,-13.55 0,-7.08 3.43,-13.33 9.91,-18.4 3.05,-2.02 6.04,-4.24 9.09,-6.86 3.05,-2.61 5.44,-6.69 7.29,-12.14 1.8,-5.66 2.62,-13.93 2.62,-24.87l0 -66.95 0 -172.15 0 -132.25c0,-34.4 0.21,-67.76 0.38,-100.09 0.43,-32.38 2.07,-57.48 4.89,-74.84 0.38,-2.67 0.6,-6.47 0.6,-11.76 0,-8.49 -2.01,-14.37 -6.26,-18.02 -4.24,-3.65 -9.3,-5.22 -14.96,-5.22 -7.07,0 -13.17,2.4 -18.02,7.24 -4.84,4.89 -7.23,13.77 -7.23,26.73l0 17.41 0 17.37c-3.87,17.41 -15.79,26.29 -36.2,26.29 -8.33,0 -13.99,-1.8 -16.6,-5.44 -2.84,-3.44 -4.24,-9.31 -4.24,-16.98 0,-9.15 3.05,-23.68 9.09,-43.71 6.09,-20.04 9.91,-35.6 11.32,-46.53 0,-7.89 1.26,-13.71 3.87,-17.97 2.62,-4.24 8.27,-6.31 17.36,-6.31 6.86,0 12.36,0.44 15.79,1.42 3.65,1.04 10.12,3.49 19.81,7.29 9.47,3.87 17.36,5.88 23.02,5.88l146.19 0c8.87,0 15.73,-0.38 20.63,-1.42 4.84,-1.03 13.33,-3.43 25.47,-7.29 5.01,-1.2 10.07,-2.62 15.35,-3.82 5.06,-1.25 10.29,-1.85 15.35,-1.85 14.74,0 22.25,7.68 22.25,23.24l5.82 48.55c1.86,9.14 3.49,17.2 4.9,24.27 1.2,7.07 2.01,13.98 2.01,20.47l0 -0.22z"/>
   <path class="fil58" d="M9536.29 12767.46c0,55.02 -3.43,99.55 -10.72,133.89 -11.54,56.22 -33.97,105.37 -66.89,147.44 -25.91,32.16 -52.8,54.64 -80.5,66.94 -22.58,9.75 -51.32,14.59 -86.27,14.59l-37.82 -2.62c-8.49,-1.25 -15.78,-2.07 -21.82,-2.83 -6.26,-0.82 -11.11,-1.25 -15.18,-1.25l-60.26 0c-10.89,0 -20.41,1.25 -28.08,3.43 -7.9,2.23 -13.55,3.49 -17.37,3.49 -6.47,0 -12.14,-1.86 -16.98,-5.5 -4.84,-3.43 -7.29,-7.67 -7.29,-12.14 0,-3.81 2.01,-7.67 5.87,-11.7 0.6,-0.6 3.82,-3.06 9.69,-7.3 5.88,-4.24 9.91,-8.49 12.15,-13.16 2.23,-4.63 3.81,-9.26 4.45,-14.15 0.6,-4.84 0.98,-11.11 0.98,-18.78 0,-9.15 -0.38,-23.29 -1.41,-42.67 -0.98,-19.44 -1.42,-31.19 -1.42,-35l0 -461.16c0,-13.55 0,-22.26 0,-26.29 0,-7.08 -3.81,-12.57 -11.11,-16.6 -7.51,-3.82 -11.1,-8.71 -11.1,-14.53 0,-5.88 2.01,-9.31 6.25,-10.73 4.25,-1.25 9.48,-2.07 15.95,-2.07 12.36,0 21.44,0.82 27.11,2.45 5.87,1.64 11.54,2.46 17.36,2.46l74.84 0c11.7,0 21,-0.44 28.09,-1.04 29.11,-2.62 45.28,-3.87 48.49,-3.87 14.96,0 29.11,1.42 42.67,4.46 13.55,2.83 28.52,8.93 44.69,18.02 55.56,29.71 94.21,77.88 115.44,144.39 13.49,43.33 20.41,97.32 20.41,161.82l-0.22 0zm-182.54 115.71l0 -238.06c0,-48.33 -0.6,-81.31 -1.8,-98.29 -1.26,-16.98 -3.65,-31.95 -7.08,-44.53 -3.27,-12.51 -8.49,-21.6 -15.78,-27.1 -7.07,-5.44 -14.96,-8.28 -23.67,-8.28 -7.68,0 -14.91,2.84 -21.01,8.28 -6.25,5.49 -9.31,14.8 -9.31,27.54 0,9.09 0.82,15.78 2.24,20.41 1.42,4.46 2.02,7.68 2.02,9.69 2.83,12.36 4.45,26.13 4.45,41.69l0 335.93 -2.83 99.76c0,14.75 -1.04,26.68 -2.83,35.77 -1.8,9.14 -2.84,15.78 -2.84,20.46 0,14.15 3.87,24.06 11.54,29.94 5.23,3.81 11.71,5.82 19.38,5.82 14.97,0 25.91,-9.69 32.99,-28.91 3.21,-8.27 6.03,-19.81 8.27,-34.4 2.23,-14.53 3.81,-31.56 4.84,-51.38 1.03,-19.6 1.42,-41.42 1.42,-65.31l0 -38.64 0 -0.38zm675.38 228.54c0,4.46 -2.02,8.71 -5.88,12.73 -3.81,3.87 -9.9,5.88 -18.56,5.88 -5.27,0 -9.74,-0.6 -13.55,-1.85 -3.87,-1.2 -8.11,-2.18 -12.51,-3.44 -4.68,-1.2 -9.91,-1.58 -16.16,-1.58 -6.1,0 -10.73,0 -14.15,0l-18.62 0 -53.56 0 -35 2.84c-4.62,0.6 -8.87,1.41 -13.11,2.39 -4.24,1.04 -9.53,1.42 -16,1.42 -14.97,0 -22.42,-4.84 -22.42,-14.53 0,-9.74 4.62,-16.82 13.93,-20.84 9.31,-4.24 14.96,-7.29 16.98,-9.31 4.68,-4.67 6.86,-11.76 6.86,-21.44l0 -20.41c-2.62,-23.89 -15.13,-41.09 -37.77,-51.38 -14.37,-6.48 -29.71,-9.75 -46.7,-9.75 -27.1,0 -46.47,8.55 -58.23,25.53 -7.68,11.92 -11.71,26.29 -11.71,44.09 0,14.15 3.22,25.09 9.47,32.16 3.87,4.63 9.75,8.49 18.02,12.31 8.27,3.49 12.31,8.93 12.31,16 0,5.87 0,9.91 0,11.92 0,3.87 -5.23,5.88 -15.57,5.88l-27.05 -3.43 -31.13 -3.44 -41.64 2.84c-3.27,0 -6.09,-0.44 -8.71,-1.04 -9.09,-2.61 -13.54,-7.45 -13.54,-14.53 0,-9.14 5.05,-15.18 14.96,-18.45 10.13,-3.22 16.98,-7.67 20.84,-13.11 3.82,-5.5 7.24,-18.24 10.07,-38.43 2.84,-20.03 5.5,-38.42 7.29,-55.24 10.95,-82.29 23.02,-154.29 35.98,-216.61 9.09,-45.29 19,-86.98 30.1,-125.19 13.55,-48.54 20.63,-74.02 21.22,-76.63 3.87,-18.83 5.87,-32.98 5.87,-42.73 0,-12.3 -2.01,-20.63 -6.25,-25.25 -4.24,-4.46 -11.33,-9.31 -21.22,-14.15 -10.13,-4.84 -15.19,-12.73 -15.19,-23.89 0,-6.48 2.67,-11.33 7.89,-14.53 5.06,-3.27 11.33,-4.84 18.4,-4.84 5.06,0 14.75,0.6 28.53,2.02 13.93,1.19 21.6,1.79 22.85,1.79l23.24 -1.79c2.62,-0.6 13.71,-2.02 33.53,-4.46 19.81,-2.45 33.8,-3.44 42.29,-3.44 10.89,0 19,1.42 23.84,4.24 4.84,2.84 9.52,10.13 14.14,21.83 11.71,28.52 26.08,94.87 43.28,199.03 17.2,104.17 32.11,215.21 45.07,333.1 3.86,36.85 5.87,55.62 5.87,56.22 3.81,20.03 10.73,33.41 20.41,39.83 3.87,2.67 8.11,4.9 12.74,6.91 5.87,3.82 8.7,8.71 8.7,14.53l-0.43 0.22zm-218.31 -204.86c0,-14.96 -0.6,-27.1 -2.02,-37.01 -1.25,-9.75 -6.47,-38.86 -15.56,-87.41 -2.67,-13.54 -4.84,-26.28 -6.91,-38.2 -2.02,-11.92 -2.83,-22.86 -2.83,-32.55l0 -19.43c0,-7.67 -0.99,-13.55 -2.84,-17.42 -3.81,-7.67 -10.29,-11.7 -19.38,-11.7 -19.43,0 -35.98,35.6 -49.52,106.78 -10.35,55.02 -15.57,99.11 -15.57,132.04 0,22.69 6.47,37.82 19.38,45.71 7.07,4.46 17.8,6.91 31.95,6.91l20.41 0c18.24,0 30.53,-5.87 37.02,-17.41 3.86,-7.08 5.87,-17.2 5.87,-30.15l0 -0.17zm-3651.87 -210.79l-806.38 0 0 -45.51 806.38 0 0 45.51 0 0z"/>
  </g>
 </g>
</svg>
