<?xml version="1.0" encoding="UTF-8"?>
<!DOCTYPE svg PUBLIC "-//W3C//DTD SVG 1.1//EN" "http://www.w3.org/Graphics/SVG/1.1/DTD/svg11.dtd">
<!-- Creator: CorelDRAW -->
<svg xmlns="http://www.w3.org/2000/svg" xml:space="preserve" width="140mm" height="140mm" version="1.1" style="shape-rendering:geometricPrecision; text-rendering:geometricPrecision; image-rendering:optimizeQuality; fill-rule:evenodd; clip-rule:evenodd"
viewBox="0 0 13997.06 13997.06"
 xmlns:xlink="http://www.w3.org/1999/xlink"
 xmlns:xodm="http://www.corel.com/coreldraw/odm/2003">
 <defs>
  <style type="text/css">
   <![CDATA[
    .fil2 {fill:#003B34;fill-rule:nonzero}
    .fil3 {fill:#06ABE2;fill-rule:nonzero}
    .fil4 {fill:#EE2326;fill-rule:nonzero}
    .fil1 {fill:#FECA20;fill-rule:nonzero}
    .fil0 {fill:url(#id0)}
   ]]>
  </style>
  <radialGradient id="id0" gradientUnits="userSpaceOnUse" gradientTransform="matrix(1.41421 -0 -0 1.41421 -2899 -2899)" cx="6998.53" cy="6998.53" r="21531.9" fx="6998.53" fy="6998.53">
   <stop offset="0" style="stop-opacity:1; stop-color:#004C3F"/>
   <stop offset="1" style="stop-opacity:1; stop-color:#003B34"/>
  </radialGradient>
 </defs>
 <g id="Слой_x0020_1">
  <metadata id="CorelCorpID_0Corel-Layer"/>
  <g id="YHXBB_x0020_Davlat_x0020_Yo_x0027_l_x0020_Harakati_x0020_Xavfsizligi_x0020_xizmati_x0020__x0028_2_x0029_.cdr">
   <path class="fil0" d="M-0 6998.53c0,3854.8 3143.73,6998.53 6998.53,6998.53l0 0c3854.81,0 6998.53,-3143.73 6998.53,-6998.53 0,-3854.8 -3143.4,-6998.53 -6998.53,-6998.53l0 0c-3855.13,0 -6998.53,3143.73 -6998.53,6998.53l0 0z"/>
   <g>
    <path class="fil1" d="M13323.53 6998.53l403.08 0 0 0 -8.78 345.26 -26.06 340.94 -42.91 336.13 -59.35 330.87 -75.35 325.15 -90.92 319.01 -106.05 312.41 -120.76 305.4 -135.05 297.94 -148.88 290.05 -162.31 281.73 -175.28 272.99 -187.84 263.82 -199.97 254.24 -211.67 244.24 -222.94 233.8 -233.8 222.94 -244.24 211.67 -254.24 199.97 -263.82 187.83 -272.99 175.28 -281.73 162.3 -290.05 148.88 -297.94 135.05 -305.4 120.75 -312.41 106.06 -319 90.92 -325.16 75.34 -330.86 59.35 -336.12 42.91 -340.94 26.06 -345.25 8.78 0 -403.08 324.81 -8.26 320.52 -24.5 315.88 -40.33 310.88 -55.77 305.49 -70.79 299.71 -85.42 293.54 -99.66 286.96 -113.48 280 -126.91 272.65 -139.96 264.87 -152.58 256.7 -164.83 248.11 -176.65 239.14 -188.07 229.74 -199.11 219.92 -209.73 209.73 -219.92 199.11 -229.74 188.09 -239.14 176.64 -248.11 164.83 -256.7 152.59 -264.87 139.96 -272.65 126.91 -280 113.49 -286.96 99.65 -293.54 85.42 -299.72 70.8 -305.5 55.77 -310.87 40.33 -315.89 24.5 -320.52 8.26 -324.82 0 0zm-6325 -6325l0 -403.08 0 0 345.26 8.78 340.94 26.06 336.13 42.91 330.86 59.35 325.16 75.34 319.01 90.92 312.41 106.06 305.4 120.75 297.94 135.05 290.05 148.88 281.73 162.3 272.99 175.28 263.82 187.83 254.24 199.97 244.24 211.67 233.8 222.94 222.94 233.8 211.67 244.24 199.97 254.24 187.83 263.82 175.28 272.99 162.3 281.73 148.88 290.05 135.05 297.94 120.75 305.4 106.06 312.41 90.92 319.01 75.34 325.16 59.35 330.86 42.91 336.13 26.06 340.94 8.78 345.26 -403.08 0 -8.26 -324.82 -24.5 -320.52 -40.33 -315.89 -55.77 -310.88 -70.79 -305.49 -85.42 -299.72 -99.66 -293.54 -113.48 -286.96 -126.91 -280 -139.96 -272.65 -152.58 -264.87 -164.83 -256.7 -176.65 -248.11 -188.07 -239.14 -199.11 -229.74 -209.73 -219.92 -219.92 -209.73 -229.74 -199.11 -239.14 -188.07 -248.11 -176.65 -256.7 -164.83 -264.87 -152.58 -272.65 -139.96 -280 -126.91 -286.96 -113.48 -293.54 -99.66 -299.72 -85.42 -305.49 -70.79 -310.88 -55.77 -315.89 -40.33 -320.52 -24.5 -324.82 -8.26 0 0zm-6325 6325l-403.08 0 0 0 8.78 -345.26 26.06 -340.94 42.91 -336.13 59.35 -330.86 75.34 -325.16 90.92 -319.01 106.06 -312.41 120.75 -305.4 135.05 -297.94 148.88 -290.05 162.3 -281.73 175.28 -272.99 187.83 -263.82 199.97 -254.24 211.67 -244.24 222.94 -233.8 233.8 -222.94 244.24 -211.67 254.24 -199.97 263.82 -187.83 272.99 -175.28 281.73 -162.3 290.05 -148.88 297.94 -135.05 305.4 -120.75 312.41 -106.06 319.01 -90.92 325.16 -75.34 330.86 -59.35 336.13 -42.91 340.94 -26.06 345.26 -8.78 0 403.08 -324.82 8.26 -320.52 24.5 -315.89 40.33 -310.88 55.77 -305.49 70.79 -299.72 85.42 -293.54 99.66 -286.96 113.48 -280 126.91 -272.65 139.96 -264.87 152.58 -256.7 164.83 -248.11 176.65 -239.14 188.07 -229.74 199.11 -219.92 209.73 -209.73 219.92 -199.11 229.74 -188.07 239.14 -176.65 248.11 -164.83 256.7 -152.58 264.87 -139.96 272.65 -126.91 280 -113.48 286.96 -99.66 293.54 -85.42 299.72 -70.79 305.49 -55.77 310.88 -40.33 315.89 -24.5 320.52 -8.26 324.82 0 0zm6325 6325l0 403.08 0 0 -345.26 -8.78 -340.94 -26.06 -336.13 -42.91 -330.86 -59.35 -325.16 -75.34 -319.01 -90.92 -312.41 -106.06 -305.4 -120.75 -297.94 -135.05 -290.05 -148.88 -281.73 -162.3 -272.99 -175.28 -263.82 -187.83 -254.24 -199.97 -244.24 -211.67 -233.8 -222.94 -222.94 -233.8 -211.67 -244.24 -199.97 -254.24 -187.83 -263.82 -175.28 -272.99 -162.3 -281.73 -148.88 -290.05 -135.05 -297.94 -120.75 -305.4 -106.06 -312.41 -90.92 -319.01 -75.34 -325.16 -59.35 -330.86 -42.91 -336.13 -26.06 -340.94 -8.78 -345.26 403.08 0 8.26 324.82 24.5 320.52 40.33 315.89 55.77 310.88 70.79 305.49 85.42 299.72 99.66 293.54 113.48 286.96 126.91 280 139.96 272.65 152.58 264.87 164.83 256.7 176.65 248.11 188.07 239.14 199.11 229.74 209.73 219.92 219.92 209.73 229.74 199.11 239.14 188.07 248.11 176.65 256.7 164.83 264.87 152.58 272.65 139.96 280 126.91 286.96 113.48 293.54 99.66 299.72 85.42 305.49 70.79 310.88 55.77 315.89 40.33 320.52 24.5 324.82 8.26 0 0z"/>
   </g>
   <g>
    <path class="fil1" d="M11658.21 6998.53l209.56 0 0 0 -6.35 249.91 -18.87 246.77 -31.05 243.27 -42.94 239.45 -54.52 235.31 -65.79 230.86 -76.74 226.1 -87.39 221 -97.72 215.61 -107.74 209.92 -117.46 203.9 -126.85 197.58 -135.94 190.94 -144.72 184.01 -153.2 176.76 -161.35 169.21 -169.22 161.36 -176.76 153.2 -184.01 144.72 -190.94 135.94 -197.58 126.84 -203.9 117.46 -209.92 107.75 -215.61 97.72 -221.01 87.38 -226.09 76.74 -230.86 65.8 -235.32 54.51 -239.45 42.94 -243.26 31.05 -246.77 18.87 -249.91 6.35 0 -209.56 239.29 -6.09 236.15 -18.05 232.74 -29.71 229.07 -41.08 225.08 -52.15 220.82 -62.94 216.27 -73.4 211.44 -83.6 206.3 -93.5 200.86 -103.09 195.14 -112.42 189.1 -121.4 182.78 -130.12 176.15 -138.54 169.22 -146.66 162.01 -154.5 154.49 -162 146.66 -169.22 138.54 -176.15 130.12 -182.78 121.41 -189.1 112.4 -195.14 103.1 -200.86 93.5 -206.3 83.61 -211.43 73.4 -216.28 62.93 -220.82 52.16 -225.09 41.08 -229.05 29.71 -232.75 18.05 -236.15 6.09 -239.29 0 0zm-4659.68 -4659.68l0 -209.56 0 0 249.92 6.35 246.77 18.88 243.26 31.07 239.46 42.97 235.31 54.56 230.86 65.83 226.09 76.78 221.01 87.43 215.62 97.77 209.91 107.79 203.91 117.51 197.57 126.89 190.95 135.99 184 144.77 176.76 153.23 169.21 161.4 161.36 169.25 153.2 176.78 144.72 184.03 135.93 190.97 126.85 197.58 117.45 203.89 107.75 209.91 97.72 215.59 87.39 220.97 76.74 226.05 65.79 230.79 54.52 235.25 42.94 239.36 31.05 243.17 18.87 246.64 6.35 249.79 -209.56 0 -6.09 -239.15 -18.05 -236.02 -29.71 -232.65 -41.08 -228.98 -52.16 -225.01 -62.93 -220.77 -73.4 -216.23 -83.61 -211.4 -93.5 -206.28 -103.09 -200.85 -112.41 -195.13 -121.41 -189.12 -130.13 -182.79 -138.54 -176.17 -146.66 -169.26 -154.48 -162.04 -162.02 -154.52 -169.22 -146.71 -176.16 -138.59 -182.77 -130.17 -189.11 -121.45 -195.13 -112.45 -200.87 -103.15 -206.29 -93.55 -211.44 -83.63 -216.27 -73.46 -220.82 -62.97 -225.09 -52.18 -229.06 -41.11 -232.74 -29.73 -236.15 -18.06 -239.28 -6.09 0 0zm-4659.68 4659.68l-209.56 0 0 0 6.35 -249.79 18.88 -246.64 31.07 -243.18 42.97 -239.37 54.56 -235.24 65.83 -230.8 76.79 -226.05 87.42 -220.97 97.77 -215.59 107.8 -209.9 117.5 -203.9 126.89 -197.58 135.99 -190.96 144.76 -184.03 153.24 -176.78 161.39 -169.25 169.25 -161.39 176.78 -153.24 184.03 -144.76 190.96 -135.99 197.57 -126.89 203.91 -117.51 209.9 -107.79 215.59 -97.77 220.97 -87.42 226.05 -76.79 230.8 -65.83 235.24 -54.56 239.37 -42.97 243.17 -31.07 246.65 -18.88 249.79 -6.35 0 209.56 -239.15 6.09 -236.03 18.06 -232.63 29.73 -228.97 41.11 -225.02 52.18 -220.76 62.97 -216.23 73.45 -211.4 83.64 -206.28 93.55 -200.86 103.15 -195.13 112.45 -189.11 121.45 -182.8 130.17 -176.17 138.6 -169.26 146.7 -162.04 154.53 -154.53 162.04 -146.7 169.26 -138.6 176.17 -130.17 182.8 -121.45 189.12 -112.46 195.12 -103.14 200.86 -93.55 206.28 -83.64 211.4 -73.45 216.23 -62.97 220.76 -52.18 225.02 -41.11 228.97 -29.73 232.64 -18.06 236.02 -6.09 239.15 0 0zm4659.68 4659.67l0 209.56 0 0 -249.79 -6.35 -246.65 -18.87 -243.16 -31.05 -239.36 -42.94 -235.25 -54.51 -230.79 -65.8 -226.05 -76.74 -220.97 -87.38 -215.59 -97.72 -209.91 -107.75 -203.9 -117.46 -197.57 -126.84 -190.97 -135.93 -184.03 -144.72 -176.78 -153.2 -169.25 -161.37 -161.4 -169.2 -153.23 -176.76 -144.77 -184 -135.99 -190.95 -126.89 -197.57 -117.51 -203.91 -107.79 -209.91 -97.77 -215.62 -87.43 -221 -76.78 -226.1 -65.83 -230.86 -54.56 -235.31 -42.97 -239.45 -31.07 -243.27 -18.88 -246.77 -6.35 -249.92 209.56 0 6.09 239.28 18.06 236.15 29.73 232.75 41.11 229.05 52.18 225.09 62.97 220.82 73.46 216.28 83.63 211.43 93.55 206.29 103.15 200.87 112.45 195.13 121.45 189.11 130.17 182.77 138.59 176.16 146.71 169.22 154.52 162.01 162.04 154.49 169.26 146.66 176.17 138.54 182.79 130.13 189.11 121.4 195.14 112.42 200.85 103.09 206.28 93.5 211.4 83.6 216.23 73.4 220.77 62.94 225.01 52.15 228.98 41.08 232.64 29.71 236.03 18.05 239.15 6.09 0 0zm0 104.78l0 0 0 0 0 0 0 -104.78 0 104.78z"/>
   </g>
   <image x="887.02" y="724.27" width="12239.29" height="12597.36" xlink:href="gai_Images\gai_ImgID1.png"/>
   <path class="fil1" d="M7003.17 3591.64l-9.28 0 -1992.06 0c-129.32,0.04 -234.15,104.87 -234.2,234.21 0,129.34 104.86,234.19 234.2,234.19l1996.7 0 0.01 0 1996.68 0c129.35,0 234.21,-104.85 234.21,-234.19 -0.05,-129.34 -104.88,-234.17 -234.21,-234.21l-1992.05 0z"/>
   <polygon class="fil2" points="7035.63,3675.13 6966.06,3675.13 6590.43,3675.13 6590.43,3967.28 6966.06,3967.28 7035.63,3967.28 7406.63,3967.28 7406.63,3675.13 "/>
   <path class="fil3" d="M8400.93 3665.85l-910.79 0 0 310.7 1516.23 0c85.14,-0.77 153.65,-70.22 153.25,-155.36 0.4,-85.13 -68.11,-154.6 -153.25,-155.35l-605.44 0z"/>
   <path class="fil4" d="M5596.13 3665.85l910.79 0 0 310.7 -1516.48 0c-85.14,-0.77 -153.64,-70.22 -153.24,-155.36 -0.4,-85.13 68.1,-154.6 153.24,-155.35l605.69 0z"/>
   <path class="fil1" d="M4352.44 8602.25c-1.63,-109.46 26.52,-167.15 52.16,-197.02 27.42,-31.9 55.34,-36.13 57.38,-36.37l236 0c23.11,0 37.1,19.28 37.1,27.75 0,27.18 6.6,146.97 10.75,220.44 -90.58,-3.65 -271.16,-10.82 -393.39,-14.81zm4325.08 17.01l-3357.57 0c-33.03,0.1 -64.67,-13.31 -87.56,-37.11l3533.12 0c-23,23.9 -54.8,37.33 -87.98,37.11zm-1683.63 -231.93l9.27 0c203.45,-0.41 1442.36,-13.82 1786.09,-17.59 -20.45,17.38 -46.41,26.88 -73.24,26.86l-3435.21 0c-26.82,0.02 -52.79,-9.49 -73.24,-26.86 343.99,4.09 1583.22,17.18 1786.33,17.59zm1932.97 -58.83l13.35 -62.42 -63.79 0.73c-16.78,0 -1660.94,18.23 -1877.9,18.55 -216.94,0.32 -1861.12,-18.38 -1877.89,-18.55l-63.81 -0.73 13.36 62.42c14.72,67.38 60.71,123.69 123.77,151.6l-133.22 0 58.85 117.68c37.7,76.06 115.46,123.99 200.35,123.52l3357.99 0c84.75,0.32 162.3,-47.58 199.94,-123.52l58.84 -117.68 -133.78 0c63.13,-27.86 109.18,-84.18 123.93,-151.6zm717.76 273.75c-122.06,3.99 -302.81,11.16 -393.47,14.81 4.16,-73.23 10.75,-193.26 10.75,-220.44 0,-8.14 14,-27.75 37.11,-27.75l235.98 0c2.04,0 29.95,4.47 56.98,36.36 26.12,29.87 54.28,87.57 52.65,197.03zm95.77 99.12l3.67 -45.49c11.72,-144.54 -15.21,-253.43 -79.82,-323.48 -44.75,-48.42 -97.25,-65.6 -128.67,-65.6l-236.22 0c-82.04,0 -139.16,68.45 -139.16,129.81 0,29.2 -10.01,205.32 -13.84,270.66l-3.26 56.31 56.31 -2.36c3.34,0 340.08,-13.92 495.69,-18.47l45.31 -1.39zm521.4 667.38c-2.53,30.19 -4.88,57.62 -6.75,81.38 -6.35,78.77 -25.23,132.73 -54.68,155.92 -20.2,15.87 -44.03,15.47 -63.24,15.22l-7.74 0c-261.23,0 -594.06,-4.73 -673.41,-17.9 -86.33,-14.32 -189.28,-48.83 -189.28,-130.21 0,-29.28 0,-72.66 0.48,-127.59 0,-79.83 0.9,-185.63 1.07,-304.77 132.31,0.99 246.73,1.54 333.65,1.54 46.46,0 85.28,0 115,-0.48 197.83,-2.45 354.8,-67.06 466.45,-192.13 45.03,-51.11 81.47,-109.19 107.9,-171.96 10.51,218.33 -15.38,520.33 -29.86,690.98l0.41 0zm-3263.25 -452.62c-170.25,0 -611.73,4.88 -1079,10.09 -662.91,7.41 -1414.27,15.79 -1638.31,13.11 -406.32,-4.89 -519.85,-307.94 -543.45,-561.5 -3.25,-34.36 -7.08,-74.14 -11.39,-118.34 -21.99,-225.09 -58.11,-596.5 -65.51,-897.67 21.04,-7.75 39.66,-20.89 54.03,-38.09 11,-11.8 11.64,-12.54 23.03,-12.54 6.92,0 33.28,0 74.54,1.06 13.76,114.5 56.24,194.26 133.3,253.33 98.62,75.6 256.1,113.94 495.67,121.25 471.99,14.09 2111.21,18.55 2552.42,18.55l9.29 0c441.23,0 2080.19,-4.46 2552.42,-18.55 239.58,-7.07 397.05,-45.65 495.69,-121.25 77.05,-59.07 119.53,-138.83 133.3,-253.33 41.24,-0.74 67.62,-1.06 74.53,-1.06 11.4,0 12.04,0.74 23.03,12.54 14.36,17.21 33,30.34 54.04,38.09 -7.41,301.09 -43.54,672.58 -65.52,897.67 -4.31,44.19 -8.14,83.97 -11.39,118.34 -23.6,253.41 -137.13,556.45 -543.45,561.5 -224.03,2.68 -975.41,-5.7 -1638.31,-13.11 -467.28,-5.21 -908.76,-10.09 -1078.98,-10.09zm-2268.51 428.95c0,54.94 0.5,98.3 0.5,127.59 0,81.87 -102.95,116.22 -189.3,130.21 -79.08,13.18 -412.17,17.89 -673.4,17.89l-7.49 0c-19.21,0 -43.05,0.67 -63.24,-15.21 -29.44,-23.2 -48.33,-77.14 -54.68,-155.91 -1.87,-23.7 -4.24,-51.11 -6.76,-81.38 -14.56,-170.89 -40.68,-472.65 -30.02,-691.72 26.43,62.79 62.87,120.84 107.92,171.95 111.65,125.07 268.53,189.7 466.45,192.14 29.7,0 68.44,0.48 114.99,0.48 87.24,0 201.73,-0.56 333.65,-1.55 0.49,119.88 0.98,225.67 1.38,305.51zm4303.53 -2114.54c124.48,-29.99 201.09,-155.23 171.09,-279.7 -29.98,-124.48 -155.22,-201.09 -279.69,-171.09 -28.02,6.75 -54.52,18.67 -78.16,35.12 42.72,-65.12 103.03,-125.97 192.54,-160.98 155.44,-60.86 409.66,-137.04 602.77,-137.04 78.6,0 147.05,12.63 194.66,44.02 163.41,107.59 249.5,410.15 250.89,651.02 -251.21,4.24 -724.03,12.71 -1054.1,18.65zm-184.4 -225.34c0,-71.9 58.3,-130.2 130.21,-130.2 71.89,0 130.19,58.3 130.19,130.2 0,71.91 -58.3,130.21 -130.19,130.21 -71.91,0 -130.21,-58.3 -130.21,-130.21zm83.16 227.2l-239.24 4.32c0,-23.36 8.13,-80.48 55.41,-206.05 11.22,99.94 85.38,181.31 183.83,201.73zm-498.04 -348.78c-9.27,23.12 -19.37,46.09 -30.27,68.93 -243.31,0 -1050.99,1.3 -1240.44,1.63l-13.92 -55.66 -302.24 0 -13.83 55.66c-189.45,0 -997.13,-1.46 -1240.46,-1.63 -10.84,-22.78 -20.95,-45.75 -30.27,-68.93l-1.47 -3.83c416.5,-4.31 1106.76,-9.03 1437.24,-9.03 330.47,0 1020.73,4.72 1437.21,9.03l-1.55 3.83zm-91.71 181.14c-2.84,4.57 -5.77,9.05 -8.71,13.6l-1242.89 10.59 -32.54 50.78 -120.04 0 -32.54 -50.78 -1242.88 -10.59c-2.94,-4.55 -5.86,-9.03 -8.72,-13.6l-6.1 -10.17 1224.81 1.63 39.89 0 13.99 -55.75 142.9 0 13.93 55.75 39.94 0 1224.82 -1.63 -5.86 10.17zm-1344.03 244.14l-4.66 0c-140.45,2.36 -280.59,3.74 -420.23,2.36 -142.65,-1.54 -284.82,-5.79 -425.04,-17.74 -34.98,-3.09 -69.73,-6.6 -104.08,-11.07 -34.34,-4.47 -68.44,-9.52 -101.56,-15.87 -32.3,-5.94 -64.23,-13.76 -95.62,-23.45 -7.41,-2.44 -14.48,-5.03 -21.81,-7.48 -7.32,-2.44 -13.52,-5.55 -20.27,-8.14 -11.2,-4.92 -21.9,-10.93 -31.89,-18 -5.25,-3.7 -10.2,-7.81 -14.81,-12.28 -5.38,-5.05 -10.75,-10.18 -16.29,-15.79l-0.57 -0.57 1108.13 9.6 32.54 51.28 232.26 0 32.54 -51.28 1107.81 -9.44 -0.57 0.57c-5.29,5.62 -10.66,10.74 -16.27,15.79 -4.62,4.47 -9.56,8.59 -14.81,12.29 -10.03,7.04 -20.7,13.07 -31.9,17.98 -6.77,2.79 -13.36,5.63 -20.27,8.14 -6.92,2.54 -14.41,5.06 -21.83,7.5 -31.2,9.76 -62.98,17.71 -95.12,23.77 -33.2,6.35 -67.22,11.64 -101.65,15.87 -34.42,4.23 -69.08,8.14 -104.08,11.07 -139.97,11.96 -282.38,16.27 -425.04,17.73 -139.64,1.39 -279.78,0 -420.23,-2.36l-4.71 -0.48zm0 -611.47c286.21,5.13 572.48,12.79 858.04,25.55 143.39,6.59 287.01,14.16 428.71,26.69 35.3,3.25 70.63,6.75 105.05,11.15 17.26,2.28 34.34,4.64 50.79,7.49 8.14,1.38 16.28,2.92 23.92,4.56l2.51 0.56 -0.72 4.47c-411.85,-4.47 -1123.02,-9.35 -1463.67,-9.43l-9.29 0c-340.72,0 -1051.72,4.96 -1463.65,9.43l-0.74 -4.47 2.52 -0.56c7.65,-1.64 15.71,-3.18 23.93,-4.56 16.28,-2.85 33.52,-5.22 50.78,-7.49 34.41,-4.4 69.74,-8.14 105.06,-11.15 141.67,-12.54 285.32,-20.11 428.71,-26.69 285.54,-12.53 571.83,-20.18 858.05,-25.55zm-1980.43 438.06c-71.91,0 -130.2,-58.31 -130.2,-130.21 0,-71.89 58.29,-130.19 130.2,-130.19 71.91,0 130.21,58.3 130.21,130.19 -0.22,71.75 -58.46,129.79 -130.21,129.79l0 0.42zm230.46 -104.42c46.96,125.16 55.1,182.29 55.1,205.65l-239.26 -4.32c98.46,-20.24 172.75,-101.45 184.16,-201.33zm-290.84 -377.18c89.51,35 149.82,96.03 192.55,160.98 -105.11,-73.16 -249.6,-47.26 -322.75,57.83 -73.15,105.09 -47.26,249.58 57.83,322.73 23.65,16.45 50.14,28.36 78.15,35.11 -330.07,-5.94 -802.47,-14.41 -1054.09,-18.65 1.37,-240.87 87.48,-543.44 250.89,-651.01 164.62,-108.48 578.76,7.41 797.42,93.01zm2040.81 949.68c-433.84,0 -2081.33,-4.55 -2554.06,-18.56 -214.12,-6.34 -356.94,-39.14 -436.6,-100.26 -51.18,-39.22 -80.47,-92.28 -92.28,-170.88 412.74,6.99 1395.39,24.89 1407.84,25.13l0.89 0c25.66,0.53 49.87,-11.97 64.29,-33.18 23.69,-34.27 36.3,-99.53 -48.82,-323.57 -2.6,-6.75 -5.29,-14.16 -8.14,-22.06 -8.14,-22.39 -18.07,-48.83 -30.18,-77.22l113.93 -1.63c5.13,17.5 10.82,34.51 16.84,51.35 25.95,71.82 58.15,141.22 96.2,207.44 19.34,33.75 40.6,66.36 63.72,97.65 11.96,16.28 24.4,31.65 38.32,47.12 6.84,7.73 14.17,15.38 21.74,22.96 8.13,8.23 16.78,15.95 25.87,23.11 18.69,14.74 38.91,27.43 60.3,37.84 9.77,4.49 19.54,9.04 29.3,13.18 9.77,4.16 19.29,7.66 28.89,11.07 37.02,13.1 74.78,23.96 113.12,32.55 37.26,8.14 74.29,15.48 111.23,21.41 36.95,5.95 73.24,10.98 110.28,15.55 146.49,17.66 292.32,26.84 437.57,33.44 142.17,6.34 284.01,9.76 425.44,12.29l9.28 0c141.43,-2.53 283.28,-5.95 425.45,-12.29 145.26,-6.6 290.85,-15.79 437.58,-33.44 36.62,-4.57 73.23,-9.45 110.27,-15.55 37.01,-6.11 73.97,-12.95 111.24,-21.41 38.32,-8.59 76.09,-19.46 113.12,-32.55 9.6,-3.41 19.29,-7.32 28.89,-11.07 9.59,-3.74 19.54,-8.69 29.28,-13.18 21.4,-10.41 41.62,-23.11 60.31,-37.84 9.1,-7.16 17.75,-14.88 25.88,-23.11 7.57,-7.58 14.9,-15.23 21.73,-22.96 13.83,-15.47 26.36,-31.17 38.32,-47.12 23.12,-31.29 44.38,-63.9 63.73,-97.65 38.04,-66.22 70.24,-135.61 96.18,-207.44 6.04,-16.84 11.72,-33.85 16.85,-51.35l113.94 1.63c-12.13,28.47 -21.9,54.84 -30.19,77.22 -2.92,8.14 -5.62,15.31 -8.14,22.06 -85.37,224.04 -72.75,289.3 -48.82,323.57 14.43,21.22 38.62,33.71 64.28,33.18l0.9 0c12.29,0 994.93,-18.15 1407.84,-25.13 -11.8,78.44 -40.7,131.51 -92.28,170.88 -79.68,61.12 -222.49,93.92 -436.6,100.26 -473.62,14.01 -2120.87,18.49 -2554.69,18.56zm-3301.93 -684.55c34.98,-79.99 59.73,-129.15 77.79,-164.95 32.54,-65.11 47.45,-94.33 60.38,-181.97 2.52,-16.28 4.89,-35.88 7.57,-58.18 17.17,-140.38 48.84,-401.61 184.07,-518.3 115.08,-99.53 146.49,-138.35 187.19,-187.17 10.49,-12.79 21.55,-26.36 35.14,-42.24 14.95,-2.19 29.39,-6.95 42.72,-14.08 38.82,-21.65 45.42,-58.11 47.94,-92.85 4.47,-6.35 9.11,-13.02 13.67,-20.02 2.39,29.45 11.7,57.92 27.17,83.07 19.97,31.36 54.74,50.14 91.89,49.65l5.78 0c100.49,-4.56 1963.01,-46.31 2520.76,-46.31 557.77,0 2420.27,41.75 2520.77,46.31l5.78 0c37.15,0.49 71.91,-18.29 91.88,-49.65 15.47,-25.15 24.78,-53.62 27.18,-83.07 4.55,7 9.19,13.67 13.67,20.02 2.52,34.74 9.19,71.21 47.93,92.85 13.34,7.13 27.78,11.89 42.72,14.08 13.6,16.28 24.4,29.45 35.16,42.24 40.2,48.82 71.93,88.04 187.16,187.17 134.92,116.7 166.9,377.92 184.09,518.3 2.68,22.29 5.04,41.66 7.56,58.18 12.95,87.64 27.82,117.19 60.39,181.97 18.06,35.79 42.81,84.95 77.79,164.95 25.64,58.52 35.97,173.98 36.95,316.55 -22.09,-17.92 -49.88,-27.23 -78.29,-26.27 -6.75,0 -31.24,0 -69.42,0.98 -1.78,-273.6 -101.88,-606.35 -296.78,-734.7 -33.92,-21.51 -71.37,-36.86 -110.6,-45.41 10.75,-257.56 -34.83,-486.07 -69.01,-578.93l-95.78 35.32c29.78,80.81 71.69,292.98 63.14,529.95 -261.47,-13.44 -597.23,110.51 -678.54,142.32 -124.89,48.83 -203.44,136.47 -255.27,223.23 -30.19,-0.74 -79.91,-1.47 -143.96,-2.37 0.81,-10.84 0.81,-21.71 0,-32.55 -0.6,-8.91 -2.1,-17.75 -4.48,-26.35 -0.65,-2.45 -1.63,-5.38 -2.69,-8.14l-1.55 -4.24c-0.64,-1.54 -1.46,-3.26 -2.19,-4.8 -0.73,-1.55 -1.55,-3.17 -2.44,-4.8 -0.9,-1.63 -2.04,-3.51 -3.09,-5.22 -1.06,-1.7 -2.29,-3.5 -3.51,-5.13 -0.74,-1.14 -1.59,-2.24 -2.52,-3.25 -0.98,-1.22 -2.11,-2.44 -3.17,-3.58 -2.2,-2.4 -4.56,-4.69 -7,-6.85l-3.34 -2.76 -2.29 -1.63c-3,-2.12 -6.18,-4.15 -9.44,-6.02 -3.25,-1.87 -4.55,-2.28 -6.91,-3.41l-3.33 -1.63 -1.71 -0.74 -1.39 -0.49c-3.51,-1.29 -7.41,-2.84 -10.59,-3.82l-9.27 -2.76c-11.56,-3.1 -22.06,-5.3 -32.06,-7.09 -10.01,-1.78 -19.7,-3.25 -29.38,-4.56 -19.13,-2.6 -37.76,-4.55 -56.31,-6.26 -37.11,-3.51 -73.24,-5.87 -110.19,-8.14 -145.67,-8.14 -290.12,-10.43 -434.64,-12.13 -287.36,-2.93 -574.21,-0.74 -861.14,3.99 -286.94,-4.73 -573.81,-6.92 -861.15,-3.99 -144.54,1.7 -288.98,4.31 -434.65,12.13 -36.53,2.11 -73.23,4.47 -110.19,8.14 -18.55,1.71 -37.19,3.66 -56.31,6.26 -9.61,1.31 -19.29,2.78 -29.37,4.56 -10.1,1.79 -20.51,3.99 -32.06,7.09l-9.29 2.76c-3.16,0.98 -7.07,2.53 -10.57,3.82l-1.39 0.49 -1.71 0.74 -3.33 1.63c-2.37,1.13 -4.4,2.03 -6.92,3.41 -2.52,1.39 -6.43,3.9 -9.45,6.02l-2.27 1.63 -3.33 2.76c-2.46,2.16 -4.8,4.45 -7.01,6.85 -1.05,1.14 -2.2,2.36 -3.18,3.58 -0.93,1.01 -1.77,2.11 -2.52,3.25 -1.21,1.63 -2.36,3.43 -3.5,5.13 -1.14,1.71 -2.36,3.75 -3.09,5.22l-2.44 4.8c-0.74,1.54 -1.55,3.26 -2.2,4.8l-1.55 4.24c-1.06,2.84 -2.03,5.78 -2.69,8.14 -2.37,8.61 -3.86,17.45 -4.47,26.35 -0.81,10.85 -0.81,21.72 0,32.55 -64.05,0.9 -113.93,1.63 -143.96,2.37 -51.92,-86.76 -130.19,-174.32 -255.29,-223.23 -81.36,-31.81 -417.05,-155.76 -678.53,-142.32 -8.14,-237.23 33.36,-449.14 63.15,-529.95l-95.62 -35.48c-34.17,92.86 -79.74,321.37 -69.01,578.93 -39.24,8.54 -76.68,23.9 -110.6,45.41 -194.81,128.34 -295,461.09 -296.79,734.68 -38.16,-0.64 -62.66,-0.97 -69.42,-0.97 -28.4,-0.96 -56.22,8.38 -78.28,26.28 0.98,-142.41 11.32,-257.88 36.95,-316.39zm100.66 -1280.98c-24.41,-24.4 -17.75,-82.51 -3.41,-114.82 0.81,-1.79 89.01,-172.11 357.48,-160.81 18.55,21 53.06,77.63 50.54,123.37 -1.58,28.08 19.93,52.14 48.02,53.71 0.96,0.05 1.94,0.08 2.92,0.08l41.98 0c-20.1,35.49 -43.58,68.97 -70.14,99.93 -9.61,10.34 -18.31,19.94 -26.36,28.89 -24.41,1.13 -51.68,1.13 -66.08,1.13 -76.5,0 -155.53,0 -221.19,-5.61 -93.51,-8.14 -111.98,-24.41 -113.77,-25.88zm1201.31 -1117.15c33.93,-21.01 195.3,-73.25 957.9,-104.91 416.57,-17.26 860.73,-21.89 1041.64,-21.97 180.91,-0.09 625.48,4.71 1042.05,21.97 762.76,31.58 924.38,84.22 958.06,104.91 20.44,12.61 84.32,72.74 235.52,357.08 94.64,178.06 187.65,375.65 243.24,493.66 10.09,21.31 18.8,39.94 26.11,55.32 41.99,88.47 50.86,205.08 28.64,238.52 -2.6,3.83 -3.33,4.24 -8.14,4.07 -100.75,-4.63 -1966.83,-46.46 -2525.42,-46.46 -558.56,0 -2424.65,41.83 -2525.4,46.46 -4.64,0 -5.45,0 -8.14,-4.07 -22.22,-33.44 -13.35,-150.05 28.64,-238.52 7.33,-15.38 16.28,-34.01 26.12,-55.32 55.58,-118.01 148.6,-315.59 243.25,-493.66 151.61,-284.33 215.48,-344.47 235.91,-357.08zm525.54 -263.02c164.71,-12.7 328.28,-26.44 492.26,-38.73 327.13,-24.42 654.52,-44.76 982.16,-56.97 327.61,12.21 655,32.54 982.15,56.97 163.97,12.29 327.54,26.03 492.25,38.73 37.89,2.74 75.51,8.19 112.63,16.28 35.39,7.4 69.79,18.98 102.46,34.5 3.92,1.77 7.72,3.79 11.4,6.02l11.15 6.19c3.65,1.94 7.16,4.14 10.5,6.59l10.25 6.93c3.29,2.27 6.45,4.74 9.43,7.39l9.29 7.49c2.85,2.61 5.38,5.46 8.14,8.14l4.06 3.99 2.04 2.04 1.72 2.11c-147.3,-18.64 -372.8,-37.42 -721.18,-51.84 -415.03,-17.17 -856.75,-21.89 -1041.64,-22.05l-9.29 0c-184.87,0 -626.61,4.88 -1041.63,22.05 -348.38,14.42 -573.88,33.2 -721.18,51.84l1.71 -2.11 2.04 -2.04 4.07 -3.99c2.68,-2.68 5.21,-5.53 8.14,-8.14l9.28 -7.49c2.99,-2.65 6.14,-5.12 9.44,-7.39l10.26 -6.93c3.32,-2.45 6.84,-4.65 10.49,-6.59l11.16 -6.19c3.67,-2.23 7.47,-4.25 11.39,-6.02 32.66,-15.53 67.06,-27.1 102.46,-34.5 37.11,-8.09 74.74,-13.54 112.63,-16.28zm4220.11 1281.39c28.13,0.04 50.98,-22.74 51.02,-50.87 0.01,-0.97 -0.03,-1.95 -0.08,-2.94 -2.53,-45.72 31.98,-102.36 50.53,-123.35 268.55,-11.4 356.69,159.02 357.5,160.8 14.32,32.55 21.16,90.25 -3.42,114.83 -1.79,1.79 -20.27,17.83 -113.94,25.79 -65.67,5.62 -144.69,5.62 -221.18,5.62 -14.41,0 -41.9,0 -66.08,-1.14 -8.13,-8.95 -16.77,-18.56 -26.37,-28.88 -26.52,-30.85 -50,-64.18 -70.14,-99.53 15.87,0.16 30.75,0 42.15,0l0 -0.32zm616.68 2848.22c3.18,-34.25 7.09,-73.97 11.32,-117.92 55.57,-570.22 107.66,-1195.04 21.73,-1391.56 -36.13,-82.44 -61.53,-133.05 -80.15,-169.92 -30.76,-61.19 -40.05,-79.58 -50.63,-151.04 -2.27,-15.21 -4.55,-33.93 -7.25,-55.67 -18.79,-153.96 -53.87,-440.57 -218.57,-582.99 -86.1,-74.53 -121.4,-111.33 -151.61,-146.97 197.42,0 331.13,-6.18 386.22,-61.35 69.02,-68.94 46.15,-179.53 24.42,-228.35 -30.19,-67.87 -173.58,-239.67 -471.27,-220.45 -22.38,1.05 -38.74,15.38 -50.7,27.98 -37.8,42.21 -64.24,93.35 -76.81,148.61l-52.17 0.81c-35.15,-66 -71.93,-139.89 -108.15,-212.65 -66.65,-134.1 -135.65,-272.7 -195.79,-363.92 -60.56,-115.8 -117.92,-216.87 -169.28,-292.96 -136.62,-213.13 -273.18,-279.62 -398.75,-365.71 94.57,-42.8 187.9,-105.79 234.53,-164.56l-76.4 -60.3c-51.68,65.11 -196.86,146.49 -298.18,172.27l0 -109.28 -97.65 0 0 94.63c-18.24,-2.03 -36.46,-3.58 -54.61,-4.96 -163.66,-9.77 -328.28,-20.92 -492.76,-30.43 -329.08,-19.21 -658.67,-33.94 -988.57,-40.69l-1.47 50.94 -1.46 -50.94c-329.91,6.67 -659.16,21.41 -988.58,40.69 -164.47,9.52 -329.1,20.67 -492.75,30.43 -18.15,1.38 -36.37,2.93 -54.6,4.96l0 -94.72 -97.65 0 0 109.62c-101.32,-25.79 -246.5,-106.93 -298.18,-172.28l-76.41 60.31c46.63,59.08 139.97,122.07 234.53,164.55 -125.4,86.09 -261.95,152.59 -398.75,365.79 -51.44,76 -108.73,177.08 -169.27,292.97 -60.15,91.22 -129.14,229.81 -195.8,363.91 -36.21,72.75 -73.24,146.49 -108.15,212.65l-52.16 -0.81c-12.51,-55.24 -38.85,-106.37 -76.58,-148.6 -11.96,-12.61 -28.31,-26.94 -50.69,-27.99 -297.69,-19.21 -441.08,152.59 -471.26,220.45 -21.66,48.82 -44.52,159.43 24.4,228.35 55.1,55.17 188.8,61.03 386.22,61.36 -30.18,35.63 -65.51,72.42 -151.6,146.96 -164.64,142.18 -199.72,428.79 -218.42,582.77 -2.68,21.72 -4.97,40.68 -7.25,55.65 -10.58,71.45 -19.86,89.53 -50.61,151.04 -18.64,36.87 -44.03,87.48 -80.16,169.91 -85.94,196.45 -33.85,821.27 21.74,1391.57 4.23,43.95 8.14,83.66 11.31,117.92 1.55,16.29 3.42,32.07 5.53,47.77 -66.24,175.62 -38.74,577.79 -7.73,942.2 2.61,30.03 4.89,56.97 6.76,80.73 20.27,252.26 154.62,265.13 211.58,265.13l9.69 0 5.95 0c134.84,0 583.07,-1.4 690.17,-19.29 238.92,-39.81 274.56,-161.95 274.56,-231.2 0,-29.54 0,-73.24 -0.48,-128.09 0,-79.91 -0.9,-185.79 -1.06,-305.08 319,-2.62 718.16,-7.08 1089.65,-11.24 467.03,-5.21 908.18,-10.11 1077.85,-10.11 169.67,0 610.83,4.9 1077.86,10.11 371.48,4.16 770.64,8.62 1089.65,11.24 0,119.28 -0.66,225.16 -1.06,305.08 0,55.09 -0.49,98.55 -0.49,128.09 0,69.26 35.64,191.39 274.57,231.2 107.1,17.89 555.32,19.29 690.17,19.29l5.95 0 9.68 0c56.96,0 191.24,-12.79 211.59,-265.13 1.87,-23.61 4.15,-50.7 6.74,-80.73 31.01,-364.25 58.53,-766.58 -8.13,-942.2 2.04,-15.79 4.15,-31.66 5.7,-47.85zm-4780.56 -2442.72l327.21 38.89c0,8.14 0.49,16.69 1.07,25.47 2.84,42.39 11.72,101.32 55.91,123.36 42.07,21.09 289.61,125.97 1033.49,125.97 743.88,0 991.84,-104.89 1033.91,-125.97 44.18,-22.05 53.06,-81.37 55.9,-123.36 0.57,-8.79 0.91,-17.42 1.07,-25.47l327.21 -38.89 -60.3 117.27 79.09 53.55 -291.17 55.73 -45.33 7.57 3.99 45.75c0.42,11.3 -3.33,29.53 -8.86,31 -47.61,13.01 -554.35,90.98 -1099.75,90.98 -538.81,0 -1042.86,-77.97 -1090.47,-90.98 -5.54,-1.47 -9.28,-19.71 -8.88,-31l3.91 -44.68 -336.74 -64.37 79.1 -53.55 -60.38 -117.27zm216.21 319.56c8.14,36.87 30.68,76.34 80.08,89.52 51.44,14.08 559.06,94.56 1117.24,94.56 555.08,0 1077.12,-81.38 1126.6,-94.56 49.48,-13.18 71.68,-52.9 79.99,-89.52l496.4 -94.8 -208.48 -141.27 106.69 -207.45 -563.71 66.99 -48.26 5.78 3.34 48.83c2.77,39.62 0,85.61 -6.67,102.45 -47.37,21.09 -291.02,111.9 -981.35,111.9 -690.32,0 -933.88,-91.14 -981.25,-112.22 -6.26,-16.86 -9.44,-62.82 -6.67,-102.46l3.42 -48.83 -612.04 -72.75 106.68 207.43 -208.49 141.28 496.49 95.13zm-959.36 2132.28c0,-61.37 -56.98,-129.81 -139.17,-129.81l-236.56 0c-31.41,0 -83.89,17.18 -128.65,65.6 -64.63,70.06 -91.56,179.03 -79.83,323.48l3.66 45.49 45.65 1.39c155.6,4.55 492.34,18.39 495.68,18.47l56.31 2.36 -3.25 -56.31c-3.82,-65.6 -13.83,-241.46 -13.83,-270.66z"/>
   <g>
    <path class="fil1" d="M12381.49 7344.06l0 161.55 -130.11 0 0 -161.55 65.06 -65.06 65.06 65.06zm-130.11 0l0 -65.06 65.06 0 -65.06 65.06zm226.59 65.06l-161.54 0 0 -130.11 161.54 0 46 111.06 -46 19.06zm46 -19.06l-19.06 19.06 -26.94 0 46 -19.06zm114.18 -114.17l-114.18 114.17 -92 -92 114.18 -114.17 91.98 -0.02 0.02 92.02zm-92 -92l45.98 -45.98 46 45.96 -91.98 0.02zm114.28 206.19l-114.26 -114.17 91.96 -92.04 114.26 114.17 -45.98 111.08 -45.98 -19.04zm45.98 19.04l-26.92 0 -19.06 -19.04 45.98 19.04zm161.47 0l-161.47 0 0 -130.11 161.47 0 65.06 65.06 -65.06 65.06zm0 -130.11l65.06 0 0 65.06 -65.06 -65.06zm-65.06 226.6l0 -161.55 130.11 0 0 161.55 -111.07 46 -19.05 -46zm19.05 46l-19.05 -19.05 0 -26.95 19.05 46zm114.24 114.26l-114.24 -114.26 92.02 -92 114.24 114.26 -0.02 92.01 -92 -0.01zm92.02 -92l46 46.01 -46.02 46 0.02 -92.01zm-206.24 114.17l114.24 -114.18 91.98 92.02 -114.24 114.18 -111.05 -46.01 19.07 -46.01zm-19.07 46.01l0 -26.95 19.07 -19.06 -19.07 46.01zm0 161.54l0 -161.54 130.11 0 0 161.54 -65.06 65.06 -65.06 -65.06zm130.11 0l0 65.06 -65.06 0 65.06 -65.06zm-226.52 -65.06l161.47 0 0 130.11 -161.47 0 -45.98 -111.08 45.98 -19.04zm-45.98 19.04l19.06 -19.04 26.92 0 -45.98 19.04zm-114.26 114.17l114.26 -114.17 91.96 92.04 -114.26 114.17 -91.98 -0.02 0.02 -92.02zm91.96 92.04l-46 45.96 -45.98 -45.98 91.98 0.02zm-114.16 -206.19l114.18 114.17 -92 92 -114.18 -114.17 46 -111.06 46 19.06zm-46 -19.06l26.94 0 19.06 19.06 -46 -19.06zm-161.54 0l161.54 0 0 130.11 -161.54 0 -65.06 -65.06 65.06 -65.06zm0 130.11l-65.06 0 0 -65.06 65.06 65.06zm65.06 -226.59l0 161.54 -130.11 0 0 -161.54 111.05 -46.02 19.07 46.02zm-19.07 -46.02l19.07 19.06 0 26.96 -19.07 -46.02zm-114.26 -114.18l114.26 114.18 -91.98 92.04 -114.26 -114.18 -0.01 -92.02 91.99 -0.02zm-91.98 92.04l-46.03 -46 46.02 -46.02 0.01 92.02zm206.25 -114.28l-114.26 114.26 -92 -92 114.26 -114.26 111.06 46 -19.06 46zm19.06 -46l0 26.94 -19.06 19.06 19.06 -46z"/>
   </g>
   <g>
    <path class="fil1" d="M1745.68 7344.06l0 161.55 -130.11 0 0 -161.55 65.06 -65.06 65.06 65.06zm-65.06 -65.06l65.06 0 0 65.06 -65.06 -65.06zm-161.54 0l161.54 0 0 130.11 -161.54 0 -46 -19.06 46 -111.06zm0 130.11l-26.94 0 -19.06 -19.06 46 19.06zm-68.18 -225.22l114.18 114.17 -92 92 -114.18 -114.17 0.02 -92.02 91.98 0.02zm-91.98 -0.02l46 -45.96 45.98 45.98 -91.98 -0.02zm-114.26 114.17l114.26 -114.17 91.96 92.04 -114.26 114.17 -45.98 19.04 -45.98 -111.08zm91.96 92.04l-19.06 19.04 -26.92 0 45.98 -19.04zm-207.45 -111.08l161.47 0 0 130.11 -161.47 0 -65.06 -65.06 65.06 -65.06zm-65.06 65.06l0 -65.06 65.06 0 -65.06 65.06zm0 161.55l0 -161.55 130.11 0 0 161.55 -19.06 46 -111.06 -46zm130.11 0l0 26.94 -19.06 19.06 19.06 -46zm-225.3 68.26l114.25 -114.26 92 92 -114.25 114.26 -91.99 0.02 -0.01 -92.02zm0.01 92.02l-46.03 -46 46.02 -46.02 0.01 92.02zm114.25 114.18l-114.25 -114.18 91.98 -92.04 114.25 114.18 19.07 46.02 -111.05 46.02zm91.98 -92.04l19.07 19.06 0 26.96 -19.07 -46.02zm-111.05 207.56l0 -161.54 130.11 0 0 161.54 -65.06 65.06 -65.06 -65.06zm65.06 65.06l-65.06 0 0 -65.06 65.06 65.06zm161.47 0l-161.47 0 0 -130.11 161.47 0 45.98 19.04 -45.98 111.08zm0 -130.11l26.92 0 19.06 19.04 -45.98 -19.04zm68.28 225.24l-114.26 -114.17 91.96 -92.04 114.26 114.17 0.02 92.02 -91.98 0.02zm91.98 -0.02l-45.98 45.98 -46 -45.96 91.98 -0.02zm114.18 -114.17l-114.18 114.17 -92 -92 114.18 -114.17 46 -19.06 46 111.06zm-92 -92l19.06 -19.06 26.94 0 -46 19.06zm207.54 111.06l-161.54 0 0 -130.11 161.54 0 65.06 65.06 -65.06 65.06zm65.06 -65.06l0 65.06 -65.06 0 65.06 -65.06zm0 -161.54l0 161.54 -130.11 0 0 -161.54 19.07 -46.02 111.05 46.02zm-130.11 0l0 -26.96 19.07 -19.06 -19.07 46.02zm225.29 -68.16l-114.25 114.18 -91.98 -92.04 114.25 -114.18 91.99 0.02 -0.01 92.02zm0.01 -92.02l46.02 46.02 -46.03 46 0.01 -92.02zm-114.25 -114.26l114.25 114.26 -92 92 -114.25 -114.26 -19.06 -46 111.06 -46zm-92 92l-19.06 -19.06 0 -26.94 19.06 46z"/>
   </g>
   <path class="fil1" d="M2334.58 3217.29l467.92 727.85 -110.67 157.39 -843.24 -193.35 111.25 -158.37 594.07 136.47 -329.83 -512.68 110.51 -157.31zm9160.75 7328.84l-301.1 -94.56 150.06 278.07 151.04 -183.51zm150.31 46.88l-227.12 275.3 64.53 119.7 -122.06 148.43 -410.22 -761.78 122.06 -148.43 825.83 257.97 -123.2 149.41 -129.8 -40.6zm-136.72 -709.95l-131.59 212.07 -131.83 -81.38 354.25 -570.78 131.84 81.78 -131.67 212.08 548.96 340.73 -90.97 146.48 -548.98 -340.97zm128.18 -533.68l75.83 -155.02 719.64 352.37 -75.92 154.62 -719.55 -351.97zm-2708.19 2906.83l409.98 283.11 -192.71 67.23 -266.99 -184.81 -96.36 311.6 -188.3 65.68 145 -473.06 -408.58 -283.45 191.56 -66.81 268.54 184.33 95.21 -311.11 189.46 -66.08 -146.81 473.37zm-1162.01 -111.89l170.25 -28.33 131.41 790.59 -170.23 28.32 -131.43 -790.58zm2294.88 -926.5l130.19 -111.66 483.31 181.48 -107.26 -504.55 130.94 -112.38 522.03 607.89 -131.02 112.39 -325.5 -378.66 107.26 504.55 -483.31 -181.47 325.52 378.73 -130.21 111.65 -521.95 -607.97zm-918.44 518.71l155.84 -74.23 344.39 723.47 -155.84 74.13 -344.39 -723.37zm612.94 453.91l91.62 -659.16 -351.71 214.03 -80.65 -132.48 553.95 -337.16 67.87 111.59 -91.56 659.16 363.6 -221.35 80.64 132.48 -564.84 343.91 -68.93 -111.01zm-4803.93 -409.9l159.59 65.61 -304.69 741.1 -159.66 -65.67 304.76 -741.04zm75.19 759.34l549.63 -375.47 -394.93 -116.38 43.86 -148.76 621.98 183.26 -36.95 125.33 -549.54 375.38 408.28 120.36 -43.87 148.77 -634.76 -187.17 36.29 -125.33zm1584.85 -353.02l172.36 9.93 -45.91 799.95 -172.34 -9.93 45.89 -799.95zm-194.82 639.08l-23.44 153.31 -564.93 -86.26 120.93 -792.05 170.89 26.12 -97.67 638.74 394.21 60.15zm-2477.65 -792.63l142.9 -56.97c36.21,93.27 93.68,168.95 183.18,216.62 76.17,40.7 133.96,26.53 157.56,-17.73 26.85,-50.39 -6.02,-87.8 -100.91,-170.17 -131.1,-113.92 -214.59,-212.24 -141.6,-349.12 69.75,-130.68 224.53,-162.75 378.89,-80.8 115.24,61.53 185.56,145.26 224.61,245.43l-137.37 66.82c-35.89,-83.89 -92.11,-149.56 -159.99,-185.79 -65.1,-34.57 -122.07,-21.48 -144.53,20.69 -27.5,51.51 5.94,90.4 101.81,173.33 134.18,115.23 210.85,214.28 141.19,344.96 -71.94,134.84 -221.59,170 -394.45,77.72 -122.47,-65.51 -209.55,-164.87 -251.3,-284.99zm3368.65 509.59l354.09 -18.81 17.5 329.58c-75.92,88.15 -196.7,144.78 -316.64,151.13 -231.77,12.28 -438.64,-167.06 -450.6,-391.84 -11.97,-224.76 174.88,-423.89 406.88,-436.2 119.95,-6.33 246.01,37.12 330.89,116.79l-118.74 118.41c-54.08,-53.47 -127.93,-82.12 -203.93,-79.09 -136.24,7.25 -245.19,132.16 -237.88,270.74 7.34,138.59 129.07,252.28 265.3,245.2 56.03,-3.58 109.57,-24.37 153.32,-59.59l-6.44 -122.05 -186.35 9.93 -7.41 -134.19zm-4780.16 -1962.53l159.34 -272.86 -304.52 84.48 145.18 188.38zm-79.17 136.07l-217.77 -282.7 -131.1 36.2 -117.43 -152.51 834.04 -230.13 117.43 152.42 -435.54 747.62 -118.16 -153.4 68.53 -117.51zm9985.35 -5847.68l-87.97 -233.55 145.18 -54.69 236.8 628.57 -145.17 54.69 -87.96 -233.56 -604.65 227.86 -60.63 -161.54 604.4 -227.78zm340.08 527.34l43.94 166.9 -774.96 203.45 -43.86 -166.9 774.88 -203.45zm-10646.87 4363.66l-212.16 450.84 -97.65 -179.03 138.33 -293.61 -322.82 -44.19 -95.62 -174.97 490.38 65.6 212.66 -449.87 97.64 178.14 -137.93 294.67 322.5 43.05 96.19 176.01 -491.52 -66.64zm1647.58 1513.96l-101.8 140.86 326.06 236 -90.8 125.64 -326.09 -235.99 -185.87 257.08 -139.88 -101.08 469.39 -649.39 499.99 361.39 -90.82 125.72 -360.17 -260.24zm-103.36 -259.85l-793.43 345.38 -137.77 -134.45 325.92 -801.49 138.33 135.17 -229.8 564.53 558.66 -243.58 138.09 134.44zm6334.49 -8749.54l141.19 95.62c70.56,47.61 143.63,43.54 182.12,-13.51 38.5,-57.05 14.98,-126.38 -55.59,-174.06l-141.19 -95.23 -126.53 187.18zm23.61 519.68l-6.53 -318.27 -105.78 -71.13 -145.51 215.56 -141.44 -95.6 448.24 -664.15 298.66 201.59c144.04,97.65 187.75,261.8 99.03,393.21 -66.57,98.64 -179.02,135.51 -291.08,105.81l6.84 342.27 -162.43 -109.29zm-1085.34 -1465.14l-215.09 771.72 -165.2 -46.07 89.03 -318.99 -351.65 -97.65 -89.03 318.99 -165.12 -45.97 215.24 -771.8 165.14 46.06 -84.56 303.3 351.64 98.06 84.56 -303.3 165.04 45.65zm2911.71 3179.53l200.1 -244.13 -313.94 35.63 113.85 208.5zm-99.53 122.07l-170.89 -313.39 -135.17 15.23 -92.11 -168.94 859.84 -96.68 92.11 168.94 -547.27 670.15 -92.68 -170 86.17 -105.3zm-236.73 -1563.04l105.8 135.01 -289.22 226.47 489.08 28.81 128.74 164.38 -466.21 -31.48 -150.8 543.28 -128.74 -164.39 109.13 -397.94 -146.48 -12.87 -176.34 138.35 -105.79 -135 630.84 -494.63zm-718.65 21.66l112.22 -295.41 -286.45 133.38 174.23 162.03zm-55.74 147.22l-261.32 -243.01 -123.36 56.97 -140.96 -131.01 784.83 -364.41 140.86 131.09 -306.47 809.07 -141.75 -131.84 48.17 -126.85zm-1338.03 -1131.98l16.28 -315.58 -232.18 215.01 215.9 100.57zm-8.14 157.23l-323.4 -151.04 -99.77 92.45 -174.39 -81.38 634.75 -587.8 174.4 81.38 -43.38 864.15 -175.37 -81.87 7.17 -135.89zm-5688.67 385.81l-274.81 -155.92 88.21 303.47 186.6 -147.55zm137.12 77.47l-279.94 221.26 37.84 130.69 -150.96 119.3 -240.72 -831.04 150.96 -119.38 753.08 426.03 -151.93 120.1 -118.34 -66.98zm2532.82 -1281.62c-21.41,-137.12 -152.75,-236.98 -286.37,-216.06 -133.62,20.93 -227.12,155.92 -205.64,292.96 21.48,137.04 152.82,238.2 285.47,217.53 132.65,-20.68 227.86,-156.17 206.46,-294.43l0.08 0zm-667.3 104.33c-34.75,-222.41 129.64,-439.45 356.69,-474.85 229.32,-35.8 449.78,120.93 484.53,343.34 34.74,222.41 -127.11,440.1 -356.45,475.98 -227.04,35.48 -449.94,-122.06 -484.77,-344.47zm1160.61 -489.91c-32.4,30.34 -55.76,69.08 -67.45,111.91 57,-0.52 103.98,44.58 105.79,101.56 2.38,58.5 -42.91,107.95 -101.4,110.68 -65.11,2.18 -112.71,-56.97 -115.56,-142.01 -2.28,-68.77 34.98,-143.55 116.22,-226.72l62.4 44.59zm-2897.06 957.34l-214.84 126.54 -78.6 -133.7 579.17 -340.49 78.61 133.7 -215.15 126.54 327.46 556.95 -148.85 87.48 -327.79 -557.03zm1213.85 -181.63l-459.54 -386.55 190.34 -63.4 300.45 269.93 85.86 -398.75 182.68 -60.8 -134.91 584.54 91.47 274.25 -164.88 54.93 -91.47 -274.16zm2451.44 -142.58l-9.77 154.63 -570.38 -35.81 50.3 -799.71 172.27 10.83 -40.68 644.84 398.26 25.22zm-5473.58 2764.1l-315.02 -25.55 207.94 237.94 107.09 -212.39zm156.91 12.53l-160.65 318.68 89.51 102.46 -86.67 171.86 -568.43 -652.25 86.59 -171.86 862.62 69.09 -87.16 172.85 -135.81 -10.83zm-440.03 968.25c46.47,-145.6 -17.25,-279.78 -153.88,-323.4 -136.64,-43.62 -265.21,29.2 -311.67,174.8l-41.84 131.1 465.56 148.6 41.83 -131.1zm-707.98 98.3l87.23 -273.35c81.87,-256.67 297.85,-388.5 520.82,-317.37 222.97,71.13 324.04,304.2 242.18,560.86l-87.23 273.34 -763 -243.48zm2147.32 -2417.26l112.72 106.61 -392.57 415.02 -582.27 -550.35 118.58 -125.48 469.55 443.92 273.99 -289.71z"/>
  </g>
 </g>
</svg>
