<?xml version="1.0" encoding="UTF-8"?>
<svg id="_Слой_2" data-name="Слой 2" xmlns="http://www.w3.org/2000/svg" viewBox="0 0 800 800">
  <defs>
    <style>
      .cls-1, .cls-2, .cls-3 {
        fill-rule: evenodd;
      }

      .cls-1, .cls-4 {
        fill: #01316b;
      }

      .cls-2 {
        fill: #020926;
      }

      .cls-3 {
        fill: #fff;
      }

      .cls-5 {
        fill: #231f20;
      }

      .cls-6 {
        fill: #ec1c24;
      }
    </style>
  </defs>
  <g id="Layer_1" data-name="Layer 1">
    <g>
      <path class="cls-3" d="M400,5.52c217.83,0,394.48,176.65,394.48,394.48s-176.65,394.48-394.48,394.48S5.52,617.83,5.52,400,182.17,5.52,400,5.52Z"/>
      <path class="cls-4" d="M400,800c-53.99,0-106.37-10.58-155.68-31.44-47.63-20.15-90.41-48.99-127.14-85.73s-65.58-79.51-85.73-127.14C10.58,506.37,0,453.99,0,400s10.58-106.37,31.44-155.68c20.15-47.63,48.99-90.41,85.73-127.14,36.74-36.74,79.51-65.58,127.14-85.73C293.63,10.58,346.01,0,400,0s106.37,10.58,155.69,31.44c47.63,20.15,90.41,48.99,127.14,85.73,36.74,36.74,65.58,79.51,85.73,127.14,20.86,49.32,31.44,101.7,31.44,155.68s-10.58,106.37-31.44,155.69c-20.15,47.63-48.99,90.41-85.73,127.14s-79.51,65.58-127.14,85.73c-49.32,20.86-101.7,31.44-155.69,31.44ZM400,11.04C185.53,11.04,11.04,185.53,11.04,400s174.49,388.96,388.96,388.96,388.96-174.49,388.96-388.96S614.47,11.04,400,11.04Z"/>
    </g>
    <path class="cls-2" d="M600.28,199.72c-51.26-51.26-122.07-82.96-200.28-82.96s-149.02,31.7-200.28,82.96c-51.26,51.26-82.96,122.07-82.96,200.28s31.7,149.02,82.96,200.28c51.26,51.26,122.07,82.96,200.28,82.96s149.02-31.7,200.28-82.96c51.26-51.26,82.96-122.07,82.96-200.28s-31.7-149.02-82.96-200.28Z"/>
    <path class="cls-3" d="M429.83,180.16c-16.74-27.74-46.49,7.98-73.61-21.33,1.51,4.42-1.64,13.79,10.76,21.44,13.05,8.05,44.82-.11,62.85-.11h0ZM427.54,183.58c-28.36,8.82-65.32,23.12-77.55-17.07,19.35,36.2,61.85,13.09,77.55,17.07h0ZM414.54,190.73c-26.28,12.1-51.8,25.38-64.03-14.81,16.51,30.51,40.01,19.7,64.03,14.81h0ZM431.56,181.47c7.68,3.25,10.76,6.39,12.97,7.62,4.61,2.57,14.11-.89,17.96,13.86-21.5-4.31-22.45,5.58-36.66,3.22,14.89-5.03,16.44-10.08,5.73-24.7h0ZM445.02,186.52c1.99-3.66-4.42-15.5-10.23-16.77-2.16,1.8-2.28,6.95-.57,10.06,1.56.55,11.01,6.28,10.81,6.71h0ZM423.26,208.58c-17.39.78-19.6,21.27-20.04,35.51,4.44.09,8.85.36,13.23.8-1.96-7.22-7.42-25.8,6.81-36.31h0ZM416.48,203.55c-9.87.98-24.35,16.61-29.12,40.99,3.75-.29,7.52-.45,11.31-.48,1.41-9.71,4.57-32.89,17.81-40.51h0ZM382.24,207.59c.66,3-8.85,29.66-11.47,39.09,4.24-.77,8.52-1.38,12.83-1.81,2.14-18.07,12.78-32.27,27.37-46.86-5.67,1.72-21.08,9.58-28.73,9.58h0ZM261.23,515.98c-27.49-27.17-48.28-33.51-45.03-74.52,13.33,11.24,27.26,23.91,39.58,37.13,5.23,10.32,11.6,20.12,19.04,29.22l-13.59,8.17h0ZM290.64,528.3c2.78,8.88,3.57,17.84,1.68,26.79-4.56-7.48-9.12-14.02-13.62-19.8,4.03-2.24,8-4.59,11.94-6.98h0ZM538.77,515.98c27.49-27.17,48.28-33.51,45.03-74.52-13.35,11.25-27.29,23.94-39.62,37.17-5.23,10.3-11.58,20.09-19.02,29.18l13.61,8.17h0ZM509.36,528.3c-2.78,8.88-3.57,17.84-1.68,26.79,4.56-7.48,9.12-14.02,13.62-19.8-4.03-2.24-8-4.59-11.94-6.98h0ZM503.16,582.97c-3.97-.94-10.78-19.64-14.88-41.99,4.93-3.22,9.7-6.73,14.29-10.5,3.39,19.01,4.66,45.64.59,52.49h0ZM486.56,598.37c6.85-11.55,4.05-27.62-1.74-55.2-7.71,4.77-15.78,8.86-24.14,12.24,6.7,20.75,19.6,41.48,25.88,42.95h0ZM453.46,619.49c-7.1-2.45-19.32-29.86-24.24-54.93,9.66-1.77,19.1-4.41,28.23-7.88,4.19,29.96,5.14,50.46-3.98,62.8h0ZM410.34,630.34c-9.59-1.97-14.67-36.56-14.45-63.18,1.36.03,2.73.05,4.1.05,8.56,0,17.05-.67,25.39-1.99-1.51,31.59-3.93,60.29-15.04,65.12h0ZM368.39,623.23c7.06-2.44,19.39-30.95,24.42-56.18-9.69-.43-19.25-1.71-28.59-3.83-4.14,28.54-5.42,44.66,4.17,60.01h0ZM336.41,608.5c-6.72-11.34-4.15-27.03,1.43-53.68,7.72,3.22,15.69,5.83,23.84,7.81-6.64,21.26-19.03,44.4-25.26,45.87h0ZM315.87,587.87c4.28-1.01,14.11-18.7,19.44-34.14-5.99-2.62-11.82-5.6-17.47-8.95-4.01,19.36-6.65,35.19-1.96,43.08h0ZM301.65,581.26c-3.72-6.28-2.97-29.17-.21-47.58,4.6,3.55,9.36,6.83,14.27,9.83-4.14,20.43-10.34,36.87-14.06,37.75h0ZM434.36,192.8c1.11,7.19-4.28,9.53-8.18,9.53s-8.22-2.21-7.1-7.47c-.9-.24-6.31-.37-6.31-.38.03-.14,3.1-.56,4.48-1.84,6.12-5.66,14.05-5.7,17.12.16h0ZM431.48,642.01c6.66-6.44,9.46-16.15,11.11-30.78l-13.49-27.34-7.98,33.96c2.78,12.41,6.83,22.24,10.36,24.16h0ZM412.87,652.66c5.62-2.77,7.95-10.71,7.39-29.47-4.53,10.81-12.72,14.66-17.31,6.24-.17,15.03,6.39,22.12,9.92,23.23h0ZM331.67,632.76c-4.02-5.4-2.72-22.09-1.95-29.83,6.93,22.47,21-6.09,29.28-22.81,2.72,11.76-17.57,50.72-27.33,52.64h0ZM388.03,648.47c3.53-1.92,7.58-11.75,10.36-24.16l-7.98-33.96-13.49,27.34c1.65,14.63,4.45,24.35,11.11,30.78h0ZM355.22,643.96c-5.04-3.73-1.1-24.53,2.79-42.89,1.77,12.65,4.33,27.85,12.64,23.88-5.03,14.82-11.76,18.55-15.43,19.01h0ZM313.74,616.79c9.76-1.92,18.68-26.97,17.05-44.53-8.28,16.72-14.27,27.54-19.01,14.7-.77,7.75-2.07,24.44,1.95,29.83h0ZM578.44,244c.16-.52.39-1.01.68-1.48,1.52-2.46,4.09-3.56,6.13-5.41.22-.41.38-1.17.52-1.62l.09-.29c-40.69-44.03-92.86-44.36-116.31-33.2-24.22,11.52-23.6,37.19,4.9,38.94,24.36,1.49,35.02-21.43,7.11-21.23,4.77,2.33,7.46,4.74,8.45,6.89l-1.56-.02c-1.18-.02-2.16.94-2.18,2.12l-.05,3.27c0,.22.03.45.1.69-1.05.34-2.29.57-3.69.67-.12-.22-.26-.42-.42-.57l-2.57-2.45c-.86-.82-2.22-.78-3.04.07l-2.26,2.37c-1.27-.22-2.43-.56-3.47-1,.13-.34.21-.69.2-1l-.12-3.55c-.04-1.18-1.04-2.12-2.22-2.08l-3.27.11c-.29,0-.6.09-.9.22-.29-.75-.49-1.53-.62-2.33.37-.05.73-.16,1-.33l3.02-1.88c1.01-.62,1.32-1.96.69-2.96l-1.73-2.78c-.24-.39-.66-.74-1.12-.96.23-.39.47-.77.73-1.14.28.18.59.31.87.36l3.5.62c1.16.21,2.28-.58,2.49-1.74l.57-3.22c.11-.62-.09-1.43-.47-1.98.26-.13.52-.26.78-.39.2.28.43.52.68.68l3,1.9c1,.63,2.33.33,2.97-.66l1.75-2.76c.27-.43.41-1.06.37-1.62.46-.06.93-.11,1.4-.16.1.38.27.75.49,1.01l2.29,2.72c.76.91,2.12,1.02,3.03.26l2.51-2.11c.5-.42.87-1.21.92-1.88.32.03.64.05.97.09.02.09.05.18.09.27l1.38,3.28c.46,1.09,1.73,1.6,2.82,1.14l3.01-1.27c.78-.33,1.54-1.31,1.54-2.07,1.83.37,3.75.8,5.77,1.3-.07.6.05,1.31.33,1.77l1.86,3.03c.62,1.01,1.95,1.33,2.95.71l2.79-1.71c.44-.27.83-.77,1.05-1.29,1.33.41,2.7.85,4.1,1.31.02.05.03.09.05.14l1.38,3.28c.46,1.09,1.73,1.6,2.82,1.14l3.01-1.27c.25-.11.51-.28.73-.5.68.25,1.36.5,2.05.76,0,.35.06.69.17.97l1.38,3.28c.46,1.09,1.73,1.6,2.82,1.14l3.01-1.27c.3-.13.61-.36.86-.63.36.18.72.36,1.08.55-.65.4-1.02,1.73-.79,2.59l.92,3.44c.3,1.14,1.49,1.83,2.63,1.52l3.16-.84c.9-.24,1.9-1.28,1.82-2.08.75.51,1.48,1.03,2.19,1.56-.86.41-1.44,1.98-1.25,3.07l.76,4.3c.25,1.43,1.63,2.4,3.06,2.14l3.96-.7c.9-.16,1.76-.81,2.12-1.6.63.59,1.25,1.18,1.85,1.76-.48.72-.77,1.7-.71,2.49l.43,5.12c.14,1.7,1.65,2.98,3.35,2.83l4.71-.39c.54-.05,1.08-.24,1.55-.54.85.85,1.67,1.66,2.48,2.41,1.35-.69,2.81-1.11,4.29-1.14l.16-.15h0ZM501.94,231.42c-4.15-1.17,51.5,5.67,38.01,46.17-.37-.03-.73-.09-1.09-.19l-2.93-1.58c-.42-.32-.83-.67-1.22-1-1.62-1.38-3.18-2.83-4.83-4.18-.71-.58-1.43-1.12-2.17-1.64,4.34-15.01-1.61-30.78-25.77-37.58h0ZM573.53,285.13c3.17,16.31,5.6,29.4,16.96,45.97,1.5,2.19,6-38.16-5.95-59.87l-11.01,13.9h0ZM584.19,386.28c-16.11-26.19-9.25-29.76-7.84-57.19,1.09-1.03,1.47-2.62.93-4.07-.24-.63-.48-1.26-.73-1.89,0-.2,0-.4.01-.61,22.27,16.07,11.43,55.73,7.63,63.76h0ZM566.39,392.49l7.65-18.7,5.81,10.34c6.19,32.7-3.4,56.1-10.04,63.48-8.73-33.42-6.15-38.59-3.42-55.12h0ZM593.62,261.9c22.99,11.82,36.91,39.01,56.69,66.97-19.78-10.49-17.16-7.61-28.58-26.89-9.74-16.45-28.13-40.09-28.11-40.08h0ZM574.68,535.6l-.24-.13c-.63-.58-1.31-1.11-1.97-1.56-2.66-1.84-5.54-3.38-8.4-4.88-6.33-3.34-12.76-6.45-19.13-9.71,5.84-6.34,12.13-11.78,18.76-15.82,13.4-8.15,29.53-31.84,32.38-32.08,3.54,34-5.22,48.68-21.41,64.18h0ZM558.9,549.77c-15.37,13.67-35.55,32.66-55.6,63.5-2.31-12.74,8-45.73,26.15-73.68,3.04,1.51,6.13,2.93,9.28,4.19,3.05,1.23,6.21,2.33,9.42,3.17,3.21,1.04,6.67,1.97,10.75,2.82h0ZM617.19,304.95c16.18,45.49,1.15,101.28,39.7,113.8-18.35-49.61,2.47-63.94-39.7-113.8h0ZM632.16,408.44c7.65,64.85-10.62,44.87-22.7,96.37-25.23-31.71,11.09-49.51,22.7-96.37h0ZM621.83,370.74c12.36,64.12-7.54,53.62-27.85,96.24-11.51-43.13,19.69-48.65,27.85-96.24h0ZM590.55,268.17c27.59,32.62,22.28,39.15,25.97,74.46-25.22-8.19-15.39-44.7-25.97-74.46h0ZM587.37,434.68c-5.21-42.41,16.59-54.26,7.9-103.97,45.6,40.03-.45,73.28-7.9,103.97h0ZM479.74,220.62l1.38,3.28c.46,1.09-.05,2.36-1.14,2.82l-3.01,1.27c-1.09.46-2.36-.05-2.82-1.14l-1.38-3.28c-.46-1.09.05-2.36,1.14-2.82l3.01-1.27c1.09-.46,2.36.05,2.82,1.14h0ZM496.58,211.43l1.38,3.28c.46,1.09-.05,2.36-1.14,2.82l-3.01,1.27c-1.09.46-2.36-.05-2.82-1.14l-1.38-3.28c-.46-1.09.05-2.36,1.14-2.82l3.02-1.27c1.09-.46,2.36.05,2.82,1.14h0ZM518.67,225l1.39,3.28c.46,1.09-.06,2.36-1.14,2.82l-3.01,1.27c-1.09.46-2.36-.05-2.82-1.14l-1.38-3.28c-.46-1.09.05-2.36,1.14-2.82l3.01-1.27c1.09-.46,2.36.05,2.82,1.14h0ZM507.95,209.9l1.38,3.28c.46,1.09-.05,2.36-1.14,2.82l-3.01,1.27c-1.09.46-2.36-.05-2.82-1.14l-1.38-3.28c-.46-1.09.05-2.36,1.14-2.82l3.01-1.27c1.09-.46,2.36.05,2.82,1.14h0ZM484.33,211.22l1.39,3.28c.46,1.09-.05,2.36-1.14,2.82l-3.01,1.27c-1.09.46-2.36-.05-2.82-1.14l-1.38-3.28c-.46-1.09.05-2.36,1.14-2.82l3.01-1.27c1.09-.46,2.36.05,2.82,1.14h0ZM506.86,221.06l1.38,3.28c.46,1.09-.05,2.36-1.14,2.82l-3.01,1.27c-1.09.46-2.36-.05-2.82-1.14l-1.38-3.28c-.46-1.09.05-2.36,1.14-2.82l3.01-1.27c1.09-.46,2.36.05,2.82,1.14h0ZM518.89,214.28l1.38,3.28c.46,1.09-.05,2.36-1.14,2.82l-3.01,1.27c-1.09.46-2.36-.05-2.82-1.14l-1.38-3.28c-.46-1.09.05-2.36,1.14-2.82l3.01-1.27c1.09-.46,2.36.05,2.82,1.14h0ZM530.48,218.43l1.38,3.28c.46,1.09-.05,2.36-1.14,2.82l-3.01,1.27c-1.09.46-2.36-.05-2.82-1.14l-1.38-3.28c-.46-1.09.05-2.36,1.14-2.82l3.01-1.27c1.09-.46,2.36.05,2.82,1.14h0ZM528.3,229.15l1.38,3.28c.46,1.09-.05,2.36-1.14,2.82l-3.01,1.27c-1.09.46-2.36-.05-2.82-1.14l-1.38-3.28c-.46-1.09.05-2.36,1.14-2.82l3.01-1.27c1.09-.46,2.36.05,2.82,1.14h0ZM538.8,224.12l1.39,3.28c.46,1.09-.05,2.36-1.14,2.82l-3.01,1.27c-1.09.46-2.36-.05-2.82-1.14l-1.38-3.28c-.46-1.09.05-2.36,1.14-2.82l3.01-1.27c1.09-.46,2.36.05,2.82,1.14h0ZM537.48,235.93l1.39,3.28c.46,1.09-.05,2.36-1.14,2.82l-3.01,1.27c-1.09.46-2.36-.05-2.82-1.14l-1.38-3.28c-.46-1.09.05-2.36,1.14-2.82l3.01-1.27c1.09-.46,2.36.05,2.82,1.14h0ZM547.87,230.79l1.38,3.28c.46,1.09-.05,2.36-1.14,2.82l-3.02,1.27c-1.09.46-2.36-.05-2.82-1.14l-1.38-3.28c-.46-1.09.05-2.36,1.14-2.82l3.01-1.27c1.09-.46,2.36.05,2.82,1.14h0ZM557.24,238.54l1.71,4.05c.57,1.35-.07,2.91-1.41,3.48l-3.72,1.57c-1.35.57-2.91-.07-3.48-1.41l-1.71-4.05c-.57-1.35.07-2.91,1.41-3.48l3.73-1.57c1.35-.57,2.91.07,3.48,1.41h0ZM546.07,241.33l1.71,4.05c.57,1.35-.07,2.91-1.41,3.48l-3.72,1.57c-1.35.57-2.91-.07-3.48-1.41l-1.71-4.05c-.57-1.35.07-2.91,1.41-3.48l3.73-1.57c1.35-.57,2.91.07,3.48,1.41h0ZM549.9,253.25c-.57-1.35-2.13-1.98-3.48-1.41l-3.73,1.57c-1.35.57-1.98,2.13-1.41,3.48l1.71,4.05c.57,1.35,2.13,1.98,3.48,1.41l3.72-1.57c1.35-.57,1.98-2.13,1.41-3.48l-1.71-4.05h0ZM568.2,251.66c.25-.66.57-1.3.96-1.91-.31-1.03-1.73-2.07-2.91-2.21l-4.61-.55c-1.66-.2-3.19,1-3.38,2.67l-.59,5c-.1.81.23,1.88.73,2.64,2.46-2.04,5.34-3.6,8.57-4.53.4-.33.8-.69,1.23-1.12h0ZM481.79,631.41c-7.86-7.79-11.48-9.38-16.86-28.76.84-12,.88-14.9-.1-27.64,2.64,5.97,13.99,24.28,21.89,28.04.25,7.78-1.27,18.93-4.93,28.37h0ZM457.05,642.82c5.62-2.77,7.13-15.25,6.57-34.01-3,13.65-14.04,17.23-18.62,8.81-.17,15.03,8.52,24.09,12.05,25.19h0ZM221.57,244l.16.14c1.48.03,2.95.45,4.29,1.14.81-.75,1.63-1.56,2.48-2.41.47.3,1.01.49,1.55.54l4.71.39c1.7.14,3.21-1.13,3.35-2.83l.43-5.12c.07-.79-.23-1.76-.71-2.49.6-.58,1.22-1.17,1.85-1.76.36.79,1.22,1.44,2.12,1.6l3.96.7c1.43.25,2.81-.71,3.06-2.14l.76-4.3c.19-1.09-.39-2.65-1.25-3.07.71-.52,1.44-1.04,2.19-1.56-.08.8.92,1.84,1.82,2.08l3.16.84c1.14.3,2.33-.38,2.63-1.52l.92-3.44c.23-.86-.14-2.19-.79-2.59.36-.18.72-.37,1.08-.55.26.28.56.51.86.63l3.01,1.27c1.09.46,2.36-.05,2.82-1.14l1.38-3.28c.12-.28.17-.62.17-.97.69-.26,1.38-.51,2.05-.76.23.22.48.39.73.5l3.01,1.27c1.09.46,2.36-.05,2.82-1.14l1.38-3.28s.04-.09.05-.14c1.4-.46,2.77-.9,4.1-1.31.22.52.61,1.02,1.05,1.29l2.79,1.71c1.01.62,2.34.3,2.95-.71l1.86-3.03c.28-.47.4-1.17.33-1.77,2.02-.5,3.94-.94,5.77-1.3,0,.76.76,1.74,1.54,2.07l3.01,1.27c1.09.46,2.36-.05,2.82-1.14l1.38-3.28c.04-.08.07-.17.09-.27.33-.03.65-.06.97-.09.04.67.42,1.46.92,1.88l2.51,2.11c.9.76,2.27.64,3.03-.26l2.29-2.72c.22-.26.39-.63.49-1.01.48.04.94.1,1.4.16-.03.56.1,1.19.37,1.62l1.75,2.76c.63,1,1.97,1.3,2.97.66l3-1.9c.25-.16.49-.4.68-.68.27.13.53.26.78.39-.38.54-.58,1.36-.47,1.98l.57,3.22c.2,1.16,1.32,1.95,2.49,1.74l3.5-.62c.29-.05.59-.18.87-.36.26.38.51.76.73,1.14-.46.23-.89.58-1.12.96l-1.73,2.78c-.62,1-.31,2.34.69,2.96l3.02,1.88c.27.17.63.28,1,.33-.12.8-.33,1.58-.62,2.33-.3-.13-.61-.21-.9-.22l-3.27-.11c-1.18-.04-2.18.9-2.22,2.08l-.12,3.55c0,.31.07.66.2,1-1.04.44-2.2.78-3.47,1l-2.26-2.37c-.81-.86-2.18-.89-3.04-.07l-2.57,2.45c-.16.15-.3.35-.42.57-1.4-.11-2.64-.34-3.69-.67.07-.23.11-.47.1-.69l-.05-3.27c-.02-1.18-1-2.13-2.18-2.12l-1.56.02c.98-2.14,3.68-4.56,8.45-6.89-27.9-.2-17.25,22.72,7.11,21.23,28.5-1.74,29.12-27.42,4.9-38.94-23.45-11.15-75.64-10.82-116.33,33.22.07.24.15.48.22.7.1.3.27.9.43,1.2.65.58,1.4,1.07,2.1,1.58,1.87,1.35,3.94,3.04,4.71,5.3h0ZM298.06,231.42c-24.12,6.78-30.09,22.51-25.79,37.51-.73.56-1.44,1.13-2.15,1.71-1.65,1.35-3.21,2.8-4.83,4.18-.39.33-.8.67-1.22,1l-2.93,1.58c-.36.1-.72.16-1.09.19-13.49-40.5,42.16-47.34,38.01-46.17h0ZM226.47,285.13c-3.17,16.31-5.6,29.4-16.96,45.97-1.5,2.19-6-38.16,5.95-59.87l11.01,13.9h0ZM215.81,386.28c16.11-26.19,9.25-29.76,7.84-57.19-1.09-1.03-1.47-2.62-.93-4.07.24-.63.48-1.26.73-1.89,0-.2,0-.4-.01-.61-22.27,16.07-11.43,55.73-7.63,63.76h0ZM246.31,321.3c-.75.55-1.49,1.11-2.24,1.66-1.07.79-2.16,1.6-3.27,2.4-14.73,22.55-9.72,43.5-4.86,63.33,8.83-19.3,9.83-48.42,10.38-67.39h0ZM233.61,392.49l-7.65-18.7-5.81,10.34c-6.19,32.7,3.4,56.1,10.04,63.48,8.73-33.42,6.15-38.59,3.42-55.12h0ZM206.38,261.9c-22.99,11.82-36.91,39.01-56.69,66.97,19.78-10.49,17.16-7.61,28.58-26.89,9.74-16.45,28.13-40.09,28.11-40.08h0ZM225.29,535.57c.73-.62,1.51-1.17,2.24-1.67,2.66-1.84,5.54-3.38,8.4-4.88,6.33-3.34,12.76-6.45,19.13-9.71-5.84-6.34-12.13-11.78-18.76-15.81-13.4-8.15-29.53-31.84-32.38-32.08-3.54,33.98,5.21,48.67,21.38,64.16h0ZM241.1,549.77c15.37,13.67,35.55,32.66,55.6,63.5,2.31-12.74-8-45.73-26.15-73.68-3.04,1.51-6.13,2.93-9.29,4.19-3.05,1.23-6.21,2.33-9.42,3.17-3.21,1.04-6.66,1.97-10.75,2.82h0ZM182.81,304.95c-16.18,45.49-1.15,101.28-39.7,113.8,18.35-49.61-2.47-63.94,39.7-113.8h0ZM167.84,408.44c-7.65,64.85,10.62,44.87,22.7,96.37,25.23-31.71-11.09-49.51-22.7-96.37h0ZM178.17,370.74c-12.36,64.12,7.54,53.62,27.85,96.24,11.51-43.13-19.69-48.65-27.85-96.24h0ZM209.45,268.17c-27.59,32.62-22.28,39.15-25.97,74.46,25.22-8.19,15.39-44.7,25.97-74.46h0ZM212.63,434.68c5.21-42.41-16.59-54.26-7.9-103.97-45.6,40.03.45,73.28,7.9,103.97h0ZM320.26,220.62c.46-1.09,1.73-1.6,2.82-1.14l3.01,1.27c1.09.46,1.6,1.73,1.14,2.82l-1.38,3.28c-.46,1.09-1.73,1.6-2.82,1.14l-3.01-1.27c-1.09-.46-1.6-1.73-1.14-2.82l1.38-3.28h0ZM303.42,211.43c.46-1.09,1.73-1.6,2.82-1.14l3.02,1.27c1.09.46,1.6,1.73,1.14,2.82l-1.38,3.28c-.46,1.09-1.73,1.6-2.82,1.14l-3.01-1.27c-1.09-.46-1.6-1.73-1.14-2.82l1.38-3.28h0ZM281.33,225c.46-1.09,1.73-1.6,2.82-1.14l3.01,1.27c1.09.46,1.6,1.73,1.14,2.82l-1.38,3.28c-.46,1.09-1.73,1.6-2.82,1.14l-3.01-1.27c-1.09-.46-1.6-1.73-1.14-2.82l1.38-3.28h0ZM292.05,209.9c.46-1.09,1.73-1.6,2.82-1.14l3.01,1.27c1.09.46,1.6,1.73,1.14,2.82l-1.38,3.28c-.46,1.09-1.73,1.6-2.82,1.14l-3.01-1.27c-1.09-.46-1.6-1.73-1.14-2.82l1.38-3.28h0ZM315.67,211.22c.46-1.09,1.73-1.6,2.82-1.14l3.01,1.27c1.09.46,1.6,1.73,1.14,2.82l-1.38,3.28c-.46,1.09-1.73,1.6-2.82,1.14l-3.01-1.27c-1.09-.46-1.6-1.73-1.14-2.82l1.38-3.28h0ZM293.14,221.06c.46-1.09,1.73-1.6,2.82-1.14l3.01,1.27c1.09.46,1.6,1.73,1.14,2.82l-1.38,3.28c-.46,1.09-1.73,1.6-2.82,1.14l-3.01-1.27c-1.09-.46-1.6-1.73-1.14-2.82l1.38-3.28h0ZM281.11,214.28c.46-1.09,1.73-1.6,2.82-1.14l3.01,1.27c1.09.46,1.6,1.73,1.14,2.82l-1.38,3.28c-.46,1.09-1.73,1.6-2.82,1.14l-3.01-1.27c-1.09-.46-1.6-1.73-1.14-2.82l1.38-3.28h0ZM269.52,218.43c.46-1.09,1.73-1.6,2.82-1.14l3.01,1.27c1.09.46,1.6,1.73,1.14,2.82l-1.38,3.28c-.46,1.09-1.73,1.6-2.82,1.14l-3.01-1.27c-1.09-.46-1.6-1.73-1.14-2.82l1.39-3.28h0ZM271.7,229.15c.46-1.09,1.73-1.6,2.82-1.14l3.01,1.27c1.09.46,1.6,1.73,1.14,2.82l-1.38,3.28c-.46,1.09-1.73,1.6-2.82,1.14l-3.01-1.27c-1.09-.46-1.6-1.73-1.14-2.82l1.38-3.28h0ZM261.2,224.12c.46-1.09,1.73-1.6,2.82-1.14l3.01,1.27c1.09.46,1.6,1.73,1.14,2.82l-1.38,3.28c-.46,1.09-1.73,1.6-2.82,1.14l-3.01-1.27c-1.09-.46-1.6-1.73-1.14-2.82l1.39-3.28h0ZM262.52,235.93c.46-1.09,1.73-1.6,2.82-1.14l3.01,1.27c1.09.46,1.6,1.73,1.14,2.82l-1.38,3.28c-.46,1.09-1.73,1.6-2.82,1.14l-3.01-1.27c-1.09-.46-1.6-1.73-1.14-2.82l1.39-3.28h0ZM252.13,230.79c.46-1.09,1.73-1.6,2.82-1.14l3.01,1.27c1.09.46,1.6,1.73,1.14,2.82l-1.38,3.28c-.46,1.09-1.73,1.6-2.82,1.14l-3.02-1.27c-1.09-.46-1.6-1.73-1.14-2.82l1.38-3.28h0ZM242.76,238.54c.57-1.35,2.13-1.98,3.48-1.41l3.73,1.57c1.35.57,1.98,2.13,1.41,3.48l-1.71,4.05c-.57,1.35-2.13,1.98-3.48,1.41l-3.72-1.57c-1.35-.57-1.98-2.13-1.41-3.48l1.71-4.05h0ZM253.93,241.33c.57-1.35,2.13-1.98,3.48-1.41l3.73,1.57c1.35.57,1.98,2.13,1.41,3.48l-1.71,4.05c-.57,1.35-2.13,1.98-3.48,1.41l-3.73-1.57c-1.35-.57-1.98-2.13-1.41-3.48l1.71-4.05h0ZM250.1,253.25l-1.71,4.05c-.57,1.35.07,2.91,1.41,3.48l3.72,1.57c1.35.57,2.91-.07,3.48-1.41l1.71-4.05c.57-1.35-.07-2.91-1.41-3.48l-3.73-1.57c-1.35-.57-2.91.07-3.48,1.41h0ZM231.8,251.66c.43.43.83.79,1.23,1.12,3.23.93,6.12,2.49,8.57,4.53.51-.76.83-1.83.73-2.64l-.59-5c-.2-1.66-1.72-2.86-3.38-2.67l-4.61.55c-1.19.14-2.6,1.18-2.92,2.21.38.61.7,1.25.95,1.91h0ZM553.46,321.13c.7.52,1.4,1.04,2.11,1.56,18.93,24.42,13.54,46.95,8.34,68.2-2.18-4.77-3.89-10.14-5.23-15.82-.38-1.98-.8-3.95-1.25-5.91-3.16-16.79-3.6-35.19-3.97-48.03Z"/>
    <g>
      <path class="cls-2" d="M782.65,400c0-211.29-171.35-382.64-382.65-382.64-105.65,0-201.31,42.84-270.56,112.09C60.19,198.69,17.35,294.35,17.35,400s42.84,201.31,112.09,270.56c69.25,69.25,164.91,112.09,270.56,112.09s201.31-42.84,270.56-112.09c69.25-69.25,112.09-164.91,112.09-270.56h0ZM400.7,105.06c81.44,0,155.18,33.01,208.55,86.39s86.39,127.11,86.39,208.55-33.01,155.18-86.39,208.55-127.11,86.39-208.55,86.39-155.18-33.01-208.55-86.39c-53.37-53.37-86.39-127.11-86.39-208.55s33.01-155.18,86.39-208.55c53.37-53.37,127.11-86.39,208.55-86.39Z"/>
      <path class="cls-5" d="M400,782.72c-25.96,0-51.91-2.62-77.12-7.78-24.57-5.03-48.74-12.53-71.84-22.3-22.68-9.59-44.55-21.47-65.01-35.29-20.27-13.69-39.32-29.42-56.64-46.74-17.32-17.32-33.04-36.38-46.74-56.64-13.82-20.46-25.7-42.33-35.29-65.01-9.77-23.1-17.27-47.27-22.3-71.84-5.16-25.21-7.78-51.16-7.78-77.12s2.62-51.91,7.78-77.12c5.03-24.57,12.53-48.74,22.3-71.83,9.59-22.68,21.47-44.55,35.29-65.01,13.69-20.27,29.42-39.32,46.74-56.64,17.32-17.32,36.38-33.04,56.64-46.74,20.46-13.82,42.33-25.7,65.01-35.29,23.1-9.77,47.27-17.27,71.84-22.3,25.21-5.16,51.16-7.78,77.12-7.78s51.91,2.62,77.12,7.78c24.57,5.03,48.74,12.53,71.84,22.3,22.68,9.59,44.55,21.47,65.01,35.29,20.27,13.69,39.32,29.42,56.64,46.74,17.32,17.32,33.04,36.38,46.74,56.64,13.82,20.46,25.7,42.33,35.29,65.01,9.77,23.1,17.27,47.26,22.3,71.83,5.16,25.21,7.78,51.16,7.78,77.12s-2.62,51.91-7.78,77.12c-5.03,24.57-12.53,48.74-22.3,71.84-9.59,22.68-21.47,44.55-35.29,65.01-13.69,20.27-29.42,39.32-46.74,56.64s-36.38,33.04-56.64,46.74c-20.46,13.82-42.33,25.7-65.01,35.29-23.1,9.77-47.27,17.27-71.84,22.3-25.21,5.16-51.16,7.78-77.12,7.78ZM400,17.42c-102.17,0-198.24,39.8-270.51,112.07C57.22,201.76,17.42,297.83,17.42,400s39.8,198.24,112.07,270.51c72.27,72.27,168.34,112.07,270.51,112.07s198.24-39.8,270.51-112.07,112.07-168.34,112.07-270.51c0-210.95-171.62-382.57-382.58-382.57ZM400.7,695.01c-20.02,0-40.02-2.02-59.45-5.99-18.94-3.88-37.57-9.66-55.38-17.19-17.48-7.39-34.34-16.54-50.11-27.2-15.62-10.55-30.31-22.67-43.66-36.02-13.35-13.35-25.47-28.04-36.02-43.66-10.65-15.77-19.81-32.63-27.2-50.11-7.53-17.8-13.31-36.43-17.19-55.38-3.98-19.44-5.99-39.44-5.99-59.45s2.02-40.02,5.99-59.45c3.88-18.94,9.66-37.57,17.19-55.38,7.39-17.48,16.54-34.34,27.2-50.11,10.55-15.62,22.67-30.31,36.02-43.66,13.35-13.35,28.04-25.47,43.66-36.02,15.77-10.65,32.63-19.81,50.11-27.2,17.8-7.53,36.43-13.31,55.38-17.19,19.43-3.98,39.44-5.99,59.45-5.99s40.02,2.02,59.45,5.99c18.94,3.88,37.57,9.66,55.38,17.19,17.48,7.39,34.34,16.55,50.11,27.2,15.62,10.55,30.31,22.67,43.66,36.02,13.35,13.35,25.47,28.04,36.02,43.66,10.65,15.77,19.81,32.63,27.2,50.11,7.53,17.8,13.31,36.44,17.19,55.38,3.98,19.43,5.99,39.44,5.99,59.45s-2.02,40.02-5.99,59.45c-3.88,18.94-9.66,37.57-17.19,55.38-7.39,17.48-16.54,34.34-27.2,50.11-10.55,15.62-22.67,30.31-36.02,43.66-13.35,13.35-28.04,25.47-43.66,36.02-15.77,10.65-32.63,19.81-50.11,27.2-17.8,7.53-36.44,13.31-55.38,17.19-19.43,3.98-39.44,5.99-59.45,5.99ZM400.7,105.13c-78.76,0-152.81,30.67-208.5,86.36-55.69,55.69-86.36,129.74-86.36,208.5s30.67,152.81,86.36,208.5c55.69,55.69,129.74,86.36,208.5,86.36s152.81-30.67,208.5-86.36c55.69-55.69,86.36-129.74,86.36-208.5s-30.67-152.81-86.36-208.5c-55.69-55.69-129.74-86.37-208.5-86.37Z"/>
    </g>
    <path class="cls-3" d="M301.16,58.41c-3.66,1.03-5.53,3.71-6.26,7.35-.84,4.16.21,9.3,1.34,13.31,1.31,4.67,3.55,10.45,7.51,13.53,2.21,1.72,4.66,2.05,7.33,1.3,1.66-.47,3.2-1.27,4.29-2.64,1.49-1.88,2.04-4.36,2.19-6.7.22-3.52-.58-7.41-1.53-10.79-.98-3.49-2.46-8.09-4.63-11.04-1.24-1.69-2.92-3.49-4.96-4.2-1.74-.61-3.51-.62-5.27-.12h0ZM53.7,321.63c-.86,3.71.59,6.63,3.43,9.03,3.24,2.74,8.25,4.29,12.31,5.24,4.72,1.1,10.87,1.92,15.47-.07,2.57-1.11,4.04-3.09,4.67-5.8.39-1.68.42-3.42-.25-5.03-.93-2.21-2.84-3.89-4.82-5.15-2.98-1.89-6.78-3.06-10.19-3.85-3.53-.82-8.27-1.74-11.9-1.26-2.08.28-4.46.88-6.07,2.32-1.38,1.23-2.23,2.77-2.65,4.56h0ZM109.99,223.37c.94-1.5,2.01-3.47,2.23-5.12.18-1.3.04-2.58-.52-3.78-.61-1.31-1.73-2.32-2.93-3.09-1.19-.77-2.56-1.38-4-1.41-1.3-.02-2.47.37-3.56,1.07-1.38.89-2.76,2.78-3.73,4.26l12.5,8.07h0ZM112.95,225.28l11.75,7.59c.59.38,1.33.71,2.05.56.72-.15,1.25-.72,1.63-1.32.78-1.21,1.25-2.53,1.38-3.97.12-1.39-.18-2.69-.86-3.9-.73-1.29-1.77-2.33-3.01-3.13-1.42-.92-2.98-1.53-4.67-1.68-1.54-.14-2.94.22-4.2,1.12-1.54,1.1-2.99,3.07-4.07,4.73h0ZM609.32,136.06l-8.65,10.99c-.43.55-.83,1.26-.75,1.99.08.73.6,1.31,1.16,1.75,1.14.89,2.4,1.48,3.83,1.74,1.38.25,2.69.08,3.96-.49,1.36-.61,2.48-1.54,3.4-2.7,1.05-1.33,1.8-2.82,2.11-4.49.28-1.52.05-2.95-.73-4.28-.95-1.64-2.78-3.26-4.33-4.49h0ZM611.5,133.29l9.2-11.69c1.38,1.1,3.13,2.65,3.89,4.11.6,1.15.88,2.35.73,3.64-.16,1.43-.9,2.74-1.77,3.85-.88,1.12-1.99,2.14-3.35,2.63-1.25.45-2.52.46-3.81.17-1.63-.38-3.49-1.63-4.89-2.7h0ZM707.9,276.42l9.16-9.13-12.97-.65,3.8,9.78h0ZM542.85,74.86l-6.76,15.07c.27.14.55.28.82.4,1.79.81,3.74,1.14,5.59.33,2.05-.89,3.41-3.11,4.28-5.06.86-1.92,1.61-4.38.89-6.45-.68-1.95-2.42-3.2-4.24-4.01l-.59-.27h0ZM223.55,134.99l1.3,1.81-18.22,13.06-1.3-1.81,1.57-1.13c.69-.49,1.4-1.15,1.76-1.95.23-.47.21-.99.09-1.49v-.02c-.14-.67-1.45-2.5-1.86-3.07l-15.66-21.86c-.45-.63-1.74-2.45-2.38-2.85-.45-.27-1.02-.3-1.53-.26-.81.07-1.62.53-2.26.99l-1.57,1.13-1.3-1.81,18.22-13.06,1.3,1.81-1.57,1.13c-.69.49-1.38,1.14-1.74,1.94-.22.48-.21,1.02-.1,1.52.14.68,1.44,2.49,1.86,3.07l15.66,21.86c.43.61,1.76,2.47,2.39,2.84.45.27,1.03.3,1.54.25.8-.07,1.6-.52,2.25-.98l1.57-1.13h0ZM229.61,83.52l-1.71.99.15.46c.14.43.52,1.64.41,2.09-.07.3-.29.5-.55.65-.57.33-2.05.46-2.69.51-1.24.1-2.56.26-3.76.6-1.3.36-2.54.9-3.7,1.58-3.11,1.81-5.35,4.36-6.35,7.84-.95,3.29-.59,6.48,1.13,9.44.98,1.69,2.29,3.07,3.96,4.08,1.72,1.03,3.62,1.64,5.6,1.93,2.92.43,6.45.22,9.38.02,1.92-.13,4.35-.3,6.26-.04,1.07.15,2.15.43,3.09.98.77.45,1.41,1.04,1.85,1.81.78,1.34.82,2.75.36,4.22-.56,1.78-1.88,3.04-3.46,3.95-2.59,1.5-5.44,1.68-8.34,1.08-3.63-.76-6.63-3.09-9.05-5.81l-.32-.36-1.83,1.07,8.32,14.33,1.75-1.02-.05-.39c-.08-.67-.05-1.38.24-2,.2-.42.48-.86.89-1.09.6-.35,1.45-.52,2.14-.6,1.51-.19,3.12-.45,4.57-.91,1.21-.38,2.37-.91,3.46-1.54,3.43-1.99,6-4.78,7.18-8.6,1.08-3.5.84-6.89-1.01-10.07-1.41-2.43-3.41-4.17-6.02-5.2-3.37-1.32-8.39-1.17-11.94-.93-1.55.11-3.12.2-4.67.25-.85.03-1.79.06-2.64-.02-1.2-.11-2.53-.36-3.59-.94-.66-.36-1.16-.9-1.53-1.54-.68-1.17-.68-2.41-.28-3.68.5-1.59,1.71-2.71,3.11-3.53,2.34-1.36,4.92-1.52,7.54-.96,3.06.66,5.51,2.37,7.5,4.75l.32.38,2.02-1.17-7.71-12.62h0ZM260.21,74.11l12.74,28.17c.31.69,1.24,2.75,1.79,3.26.38.35.95.49,1.45.55.8.09,1.69-.2,2.41-.53l1.75-.79.92,2.03-20.42,9.24-.92-2.03,1.76-.8c.77-.35,1.58-.85,2.08-1.56.31-.42.4-.96.4-1.47,0-.7-.93-2.73-1.22-3.38l-12.74-28.17-2.15.97c-1.67.76-3.66,1.95-4.4,3.73-.97,2.34-.78,4.89-.11,7.28l.14.49-2.07.94-5.03-11.12,34.44-15.58,5.03,11.12-1.91.86-.29-.36c-1.05-1.32-2.57-3.1-4.04-3.97-1.15-.68-2.42-.98-3.74-1.01-1.03-.02-2.69.68-3.61,1.1l-2.27,1.02h0ZM299.98,55.53c5.88-1.88,11.75-1.82,17.23,1.23,5.29,2.94,8.6,7.45,10.24,13.26,1.4,4.98,1.23,9.92-.71,14.73-2.67,6.62-7.84,10.55-14.64,12.46-6.66,1.87-13.19,1.41-18.91-2.65-4.36-3.1-7.14-7.34-8.59-12.48-1.63-5.82-1.1-11.43,1.92-16.68,3.02-5.25,7.58-8.46,13.46-9.87h0ZM366.97,67.47l-1.93-15.71c-.15-1.25-.52-3.57-1.48-4.49-1.18-1.13-3.01-1.16-4.53-.94l-.6.08-.27-2.22,14.55-1.78.26,2.14-.5.13c-.84.22-2.44.65-3.13,1.17-.5.4-.79.98-.96,1.59-.29,1.04-.1,2.85.03,3.91l4.21,34.31-1.88.23-30.48-29.45,2.96,24.16c.17,1.37.6,3.35,1.9,4.12,1.07.63,2.22.85,3.45.7l1.54-.19.27,2.21-15.59,1.91-.27-2.21.58-.08c1.33-.18,3.24-.59,4.11-1.73.86-1.13.8-3,.63-4.33l-3.49-28.43-.83-.81c-.61-.61-1.51-1.44-2.33-1.75-.77-.29-1.83-.27-2.64-.2l-.57.05-.27-2.19,15.22-1.87,22.02,21.66h0ZM170.25,147.28l1.98-14.59c.19-1.51.39-3.03.64-4.53.12-.7.25-1.61.49-2.27.34-.97,1.09-1.92,1.78-2.67l.37-.41-1.51-1.59-12.38,11.73,1.52,1.6.43-.38c.45-.4,1.87-1.65,2.44-1.81.59-.17,1.17-.19,1.61.28.83.87.55,3.65.42,4.71l-2.45,18.07-7.91-8.34c-.49-.52-2.05-2.17-2.27-2.84-.18-.5-.24-1.02-.09-1.52.28-.87,1.06-1.74,1.71-2.35l.43-.41-1.53-1.62-15.56,14.74,1.53,1.62,1.41-1.33c.58-.55,1.32-1.11,2.11-1.29.49-.11,1.07-.16,1.55.05.68.3,2.23,1.94,2.76,2.5l18.5,19.52c.48.51,2.03,2.14,2.26,2.78v.02c.2.48.29.99.13,1.48-.25.85-.86,1.59-1.48,2.17l-1.4,1.33,1.53,1.62,15.78-14.95-1.53-1.62-.43.41c-.64.6-1.65,1.48-2.52,1.71-.5.13-1.07.2-1.56,0-.68-.27-2.29-1.97-2.8-2.51l-7.48-7.9.14-1.07,14.26,2.01c1,.14,4.23.64,4.96,1.41.2.21.24.44.2.72-.08.52-.97,1.56-1.31,1.95l-.36.41,1.5,1.58,16.23-15.38-1.53-1.62-.43.41c-.8.76-1.74,1.24-2.82,1.47-2.14.45-5,.14-7.15-.16l-22.15-3.13h0ZM123.46,178.62l12.13,9.55.14-.17c1.23-1.56,2.05-3.41,1.48-5.41-.64-2.23-2.46-4.34-4.1-5.92l-.39-.37,1.42-1.8,17.71,13.94-1.42,1.8-.45-.29c-1.57-.99-3.38-1.91-5.22-2.26-1.17-.22-2.55-.3-3.66.22-1.03.49-2.01,1.48-2.78,2.4l8.54,6.72c.61.48,2.5,2,3.23,2.22.41.14.83.08,1.24-.07.62-.23,1.28-.99,1.68-1.5l1.51-1.92c1.91-2.43,3.42-5.31,3.47-8.47.05-3.14-1.32-6.02-3.15-8.5l-.27-.36,1.39-1.77,9.87,10.32-22.46,28.54-1.75-1.38,1.2-1.52c.53-.67,1.02-1.49,1.15-2.37.09-.52-.08-1.01-.33-1.45v-.02c-.33-.61-2.1-2-2.65-2.43l-21.13-16.64c-.58-.46-1.17-.91-1.77-1.34-.26-.18-.61-.45-.88-.57-.51-.22-1.03-.28-1.58-.11-.94.25-1.7.98-2.29,1.72l-1.2,1.52-1.75-1.38,21.82-27.72,10.41,8.19-1.39,1.77-.43-.22c-1.75-.9-4.21-1.98-6.22-1.94-1.7.03-3.26.69-4.65,1.64-1.4.95-3.14,3.16-4.18,4.48l-2.26,2.87h0ZM50.61,321.28c1.18-6.06,4.06-11.17,9.37-14.51,5.12-3.22,10.67-3.95,16.55-2.59,5.04,1.17,9.29,3.7,12.57,7.71,4.52,5.52,5.47,11.95,3.87,18.83-1.57,6.77-5.08,12.23-11.43,15.3-4.8,2.32-9.88,2.72-15.07,1.52-5.9-1.37-10.54-4.53-13.7-9.72-3.14-5.16-3.76-10.74-2.17-16.55h0ZM70.53,286.15c0,.08.02.18.03.24.18.84.05,1.7-.22,2.51-.44,1.32-1.35,2.23-2.6,2.82-1.27.59-2.59.68-3.92.23-1.45-.49-2.49-1.46-3.17-2.83-.7-1.41-.79-2.89-.29-4.38.61-1.83,1.86-3.12,3.62-3.9,2.01-.89,4.17-.7,6.21-.02,2.82.95,5.07,2.64,6.72,5.12,1.8,2.71,2.37,5.98,2.29,9.18l-.02.8-2.35-.79-.03-.39c-.18-2.01-.71-4.07-1.98-5.68-1.04-1.31-2.31-2.33-3.9-2.86-.11-.04-.26-.07-.38-.05h0ZM107.01,273.25l-25.34-37.63-13.84,30.83,11.46,6.48.92-2.04-.37-.28c-1.32-1.01-2.6-2.2-3.52-3.59-.77-1.16-1.27-2.44-1.47-3.82-.19-1.35-.11-2.7.21-4.02.12-.51.34-1.06.53-1.55.35-.89.74-1.78,1.13-2.65l2.04-4.55,25.38,37.69,15.93-35.49-13.83-8.16-.95,2.11.39.28c2.25,1.62,4.3,3.66,5.45,6.22,1,2.22,1.38,4.53,1.08,6.94-.27,2.17-1.57,5.15-2.47,7.14l-2.74,6.1h0ZM118,213.51c1.75-1.54,3.84-3.1,5.82-3.74,2.93-.95,5.73-.59,8.31,1.08,2.78,1.79,4.31,4.4,4.66,7.68.51,4.76-1.67,9.54-4.19,13.44l-11.57,17.9-1.87-1.21.32-.5c.49-.75,1.47-2.33,1.54-3.25.05-.55-.01-1.09-.3-1.57-.42-.68-2.43-1.99-3.11-2.43l-22.28-14.4c-.69-.45-2.69-1.74-3.5-1.84-.56-.07-1.08.09-1.56.37-.81.47-1.81,1.97-2.31,2.75l-.32.5-1.87-1.21,10.93-16.92c1.61-2.49,4.12-6.15,6.61-7.83,1.8-1.21,3.77-1.9,5.94-1.95,2.03-.05,3.97.44,5.68,1.54,1.84,1.19,2.97,2.9,3.5,5.01.5,2.02.16,4.41-.41,6.57h0ZM620.58,142.18c1.37,1.88,2.73,4.11,3.18,6.14.68,3,.06,5.76-1.85,8.18-2.05,2.6-4.78,3.88-8.08,3.92-4.79.06-9.34-2.55-12.99-5.42l-16.75-13.18,1.38-1.75.46.37c.7.55,2.18,1.68,3.09,1.84.54.1,1.09.09,1.59-.16.72-.35,2.21-2.23,2.71-2.87l16.41-20.84c.51-.65,1.98-2.52,2.16-3.32.12-.55,0-1.09-.22-1.58-.41-.85-1.79-1.98-2.52-2.56l-.46-.37,1.38-1.75,15.83,12.46c2.33,1.84,5.74,4.67,7.18,7.31,1.04,1.9,1.54,3.94,1.39,6.1-.14,2.03-.8,3.9-2.06,5.51-1.35,1.72-3.16,2.68-5.32,3.01-2.06.31-4.41-.25-6.5-1.02h0ZM750.84,316.6l-14.14,4.32-.63-2.25.45-.21c2.81-1.33,5.08-3.28,6.48-6.08,1.19-2.39,1.68-4.94.95-7.54-.44-1.57-1.22-3.02-2.64-3.89-1.13-.7-2.34-1.01-3.64-.64-.72.2-1.36.55-1.88,1.1-.83.89-1.4,2.11-1.8,3.24-.29.81-.49,1.72-.68,2.55-.34,1.52-.64,3.06-.92,4.59-.65,3.5-1.76,8.4-3.88,11.34-1.64,2.28-3.83,3.78-6.54,4.54-3.54.99-6.89.39-10-1.53-3.41-2.1-5.47-5.27-6.54-9.09-.34-1.22-.56-2.48-.63-3.74-.08-1.52.07-3.14.26-4.65.08-.69.14-1.55-.05-2.22-.13-.46-.48-.84-.84-1.13-.53-.44-1.21-.64-1.87-.73l-.38-.05-.55-1.95,15.95-4.48.57,2.04-.43.22c-3.23,1.67-6.24,4-7.88,7.32-1.31,2.64-1.84,5.47-1.04,8.34.49,1.76,1.38,3.35,2.96,4.34,1.31.81,2.68,1.12,4.18.7.86-.24,1.59-.71,2.22-1.34.76-.77,1.31-1.75,1.72-2.75.73-1.78,1.17-4.18,1.52-6.07.53-2.9,1.21-6.36,2.36-9.08.77-1.84,1.83-3.54,3.26-4.94,1.39-1.37,3.06-2.29,4.94-2.82,3.3-.93,6.48-.48,9.43,1.26,3.12,1.84,5.03,4.64,6.01,8.1.36,1.3.58,2.63.61,3.98.03,1.25-.15,2.56-.36,3.79-.11.64-.35,2.11-.17,2.74.08.29.22.55.49.69.41.21,1.68.15,2.13.12l.48-.03.54,1.91h0ZM520.44,61.17l-4.39,14.12-2.21-.74.08-.49c.47-3.06.14-6.05-1.38-8.77-1.31-2.34-3.13-4.16-5.7-5.03-1.54-.52-3.18-.69-4.7-.01-1.22.54-2.15,1.37-2.58,2.65-.24.71-.31,1.44-.15,2.17.27,1.18.96,2.35,1.67,3.32.5.69,1.15,1.37,1.73,2,1.06,1.14,2.17,2.25,3.27,3.34,2.53,2.51,5.96,6.19,7.19,9.58.96,2.64.97,5.3.07,7.96-1.17,3.49-3.55,5.91-6.89,7.41-3.64,1.63-7.45,1.55-11.2.29-1.2-.4-2.36-.93-3.45-1.58-1.3-.79-2.56-1.83-3.7-2.83-.52-.46-1.2-.98-1.87-1.2-.45-.15-.96-.07-1.41.06-.66.19-1.21.64-1.66,1.14l-.26.29-1.92-.64,5.27-15.71,2.01.67-.06.48c-.44,3.6-.2,7.42,1.62,10.63,1.46,2.58,3.47,4.6,6.31,5.55,1.73.58,3.55.74,5.25-.01,1.41-.62,2.44-1.58,2.93-3.06.28-.84.31-1.72.14-2.59-.21-1.07-.7-2.07-1.3-2.97-1.06-1.61-2.8-3.32-4.17-4.67-2.09-2.07-4.58-4.58-6.18-7.06-1.09-1.67-1.89-3.51-2.25-5.48-.35-1.92-.17-3.82.45-5.67,1.1-3.26,3.23-5.62,6.35-7.09,3.26-1.54,6.68-1.54,10.08-.41,1.28.43,2.5,1,3.63,1.74,1.05.68,2.04,1.56,2.93,2.43.47.45,1.54,1.47,2.16,1.68.28.09.58.13.85-.02.41-.22,1.07-1.3,1.3-1.69l.24-.41,1.88.63h0ZM694.73,225.18l-8.15,20.83c-.79,2.02-1.74,4.74-1.8,6.92-.03,1.09.23,2.14.78,3.08l.3.51-1.93,1.12-11.23-19.34,1.88-1.09.31.44c.29.42,1.11,1.52,1.59,1.72.26.11.5.12.75-.02.91-.53,2.14-3.56,2.51-4.5l5.25-13.41-1.01-.39-9.41,5.46c-.65.38-2.67,1.55-3.09,2.15-.3.43-.37,1.01-.35,1.52.02.9.64,2.09,1.09,2.85l.3.51-1.93,1.12-10.92-18.8,1.93-1.12.97,1.67c.43.74,1.01,1.5,1.78,1.94.45.27.97.3,1.47.23h.02c.68-.08,2.63-1.21,3.23-1.56l23.26-13.5c.66-.38,2.62-1.51,3.07-2.11.31-.41.4-.99.4-1.49,0-.81-.37-1.66-.77-2.35l-.97-1.67,1.93-1.12,10.76,18.53-1.93,1.12-.3-.51c-.45-.77-1.11-1.74-1.9-2.21-.45-.27-.97-.32-1.5-.27-.7.06-2.67,1.2-3.29,1.56l-9.94,5.77,17.02,6.55c1.01.37,3.64,1.28,4.68.68.56-.32.67-.89.64-1.5-.03-.6-.92-2.26-1.2-2.8l-.27-.5,1.91-1.11,8.56,14.75-1.89,1.1-.31-.45c-.57-.84-1.33-1.79-2.19-2.35-.6-.38-1.45-.73-2.1-1-1.4-.59-2.83-1.13-4.26-1.67l-13.74-5.29h0ZM569.68,82.52l-1.21,1.88.51.32c.72.45,2.1,1.36,2.52,2.12.27.48.4.98.32,1.52-.12.81-1.52,2.98-1.98,3.68l-10.84,16.78c-1.51,2.34-2.89,5.13-3.12,7.94-.22,2.69.71,5.24,2.07,7.51,1.42,2.36,3.99,4.34,6.28,5.81,3.02,1.95,6.54,3.48,10.21,3.27,2.65-.15,5.35-.81,7.4-2.57,2.42-2.07,4.81-5.66,6.53-8.33l8.41-13.01c.48-.74,1.34-2.04,2.07-2.56.65-.49,1.36-.77,2.16-.75.89.02,1.72.39,2.46.86l1.2.78,1.21-1.87-12.83-8.29-1.21,1.87.5.32c.94.61,2.07,1.47,2.64,2.46.31.54.32,1.2.25,1.8-.13,1.05-1,2.5-1.56,3.37l-9.02,13.97c-1.35,2.09-3.64,5.46-5.74,6.85-1.47.96-3.06,1.47-4.82,1.46-1.89,0-3.64-.7-5.22-1.71-1.29-.83-2.5-1.92-3.17-3.33-.54-1.15-.81-2.36-.63-3.62.24-1.74,2.21-4.83,3.15-6.29l10.83-16.77c.47-.73,1.83-2.84,2.54-3.32.44-.29.91-.4,1.44-.37.8.05,2.08.84,2.74,1.26l1.38.89,1.21-1.87-18.67-12.07h0ZM705.27,279.03l-4.89-12.58-3.96-.19c-.99-.03-2.23.01-3.16.38-.83.32-1.37.86-1.52,1.76-.13.77.52,2.97.75,3.72l.16.52-2.04.79-5.34-13.73,2-.78.25.44c.64,1.11,1.53,1.96,2.72,2.44,1.74.7,4.99.86,6.87.96l35.96,1.82.49,1.25-26.09,26.08c-1.17,1.17-3.65,3.67-4.26,5.21-.34.87-.22,1.83.04,2.71l.16.52-2.03.79-7.57-19.48,2.08-.81.51,1.31c.3.77.89,2.11,1.61,2.58.32.21.65.18,1,.05.31-.12.59-.28.84-.49h.02s.02-.03.02-.03c.17-.12.36-.32.51-.46.41-.38.81-.77,1.21-1.15l3.66-3.65h0ZM534.66,93.1l-4.4,9.79c-.34.75-1.31,2.92-1.29,3.74.01.57.26,1.06.62,1.49.6.72,2.2,1.48,3.05,1.86l.54.24-.91,2.03-20-8.98.91-2.03.54.24c.82.37,2.53,1.1,3.44,1.03.55-.03,1.08-.18,1.51-.54.61-.52,1.6-2.7,1.93-3.44l10.86-24.2c.34-.75,1.31-2.92,1.29-3.74-.01-.56-.25-1.05-.6-1.48-.59-.73-2.22-1.49-3.06-1.87l-.54-.24.91-2.03,16.77,7.53c3.81,1.71,8.57,4.4,10.51,8.29,1.51,3.02,1.68,6.12.3,9.21-1.11,2.48-2.86,4.36-5.34,5.5-2.57,1.19-5.38,1.29-8.14.78-1.31-.24-2.65-.69-3.89-1.14-1.69-.61-3.35-1.31-5-2.04h0ZM631.17,178c-.18-.47-.25-.96-.04-1.43.34-.76,1.91-2.24,2.52-2.82l18.9-17.91c.51-.48,2.14-2.03,2.79-2.26.49-.17,1.03-.26,1.53-.1.85.25,1.59.86,2.18,1.48l1.63,1.72,1.62-1.53-15.76-16.63-1.62,1.53,1.33,1.4c.55.58,1.11,1.32,1.29,2.11.11.5.16,1.07-.05,1.55-.31.69-1.93,2.21-2.5,2.75l-19.52,18.5c-.51.48-2.14,2.03-2.79,2.26h-.02c-.48.19-.99.28-1.49.12-.85-.25-1.59-.86-2.17-1.48l-1.33-1.4-1.62,1.53,25.62,27.04,12.37-9.43-1.65-1.74-.39.2c-2.16,1.11-4.77,2.32-7.16,2.78-1.63.31-3.3.32-4.88-.21-1.66-.56-3.1-1.72-4.29-2.97l-2.33-2.46c-.53-.56-1.85-1.93-2.18-2.63h0ZM465.69,50.71l3.59.66c1.66.3,4.42.81,5.92,1.61,1.48.79,2.8,1.86,3.62,3.35.97,1.76,1.16,4.44,1.18,6.41v.49s2.22.41,2.22.41l2.39-13.03-34.7-6.36-.4,2.19,1.9.35c.93.17,1.93.51,2.59,1.22.4.41.59.89.64,1.44.01.32-.05.75-.09,1.06-.1.73-.23,1.46-.36,2.19l-4.85,26.46c-.13.69-.53,2.9-.92,3.47v.02c-.29.43-.65.81-1.14.97-.83.3-1.79.24-2.63.09l-1.9-.35-.4,2.19,35.73,6.55,4.52-13.55-2.21-.41-.2.41c-1.34,2.77-3.25,5.33-6.05,6.75-2.81,1.43-6.08,1.44-9.11.89l-2.4-.44c-.63-.12-1.61-.35-2.11-.79-.32-.29-.56-.64-.64-1.07-.14-.75.32-3.11.46-3.88l1.96-10.69c1.17.25,2.51.65,3.42,1.34.98.74,1.55,1.99,1.9,3.13.55,1.79.59,3.82.44,5.67l-.04.53,2.26.41,4.06-22.17-2.26-.41-.15.51c-.63,2.19-1.65,4.78-3.32,6.39-1.49,1.44-3.52,1.57-5.47,1.22l-.21-.04,2.78-15.18h0ZM650.37,199.35h-.02c-.49.15-1.01.19-1.49-.01-.82-.32-1.51-1-2.03-1.67l-1.2-1.52-1.75,1.38,13.87,17.61,1.75-1.38-1.2-1.52c-.49-.62-.97-1.4-1.08-2.2-.07-.51-.06-1.08.19-1.55.34-.64,2.14-2.05,2.73-2.51l21.13-16.64c.56-.44,2.31-1.82,2.98-1.99.5-.13,1.04-.17,1.52.03.81.32,1.49.98,2.01,1.65l1.2,1.52,1.75-1.38-13.87-17.61-1.75,1.38,1.2,1.52c.49.62.99,1.41,1.09,2.22.07.51.06,1.08-.19,1.54-.37.66-2.12,2.03-2.74,2.51l-21.13,16.64c-.55.43-2.32,1.83-2.98,1.99h0ZM411.46,80.1c.22.51.64.86,1.12,1.12.97.52,2.97.54,4.14.57l-.07,2.23-22.04-.65.07-2.23c1.15.03,3.21.13,4.17-.33.49-.24.93-.57,1.19-1.06.37-.7.44-3.07.47-3.87l.79-26.64c.02-.79.09-3.19-.24-3.91-.22-.51-.64-.86-1.12-1.12-.83-.44-2.62-.53-3.55-.56l-.59-.02.07-2.23,19.54.58c3.35.1,7.76.32,10.96,1.38,2.36.78,4.3,2.16,5.78,4.16,1.5,2.02,2.16,4.38,2.09,6.89-.09,3.13-1.3,5.76-3.68,7.8-1.5,1.28-3.41,2.07-5.32,2.56l8.89,13.39c.63.91,1.71,2.56,2.55,3.28.73.58,1.59.89,2.51.97l.56.05-.07,2.26-13.73-.41-12.42-18.69-1.97-.04c-.02.63-.63,13.33-.07,14.54h0ZM412.13,45.34l-.31,10.42-.18,6.23c2.28,0,5.07.15,7.21-.56,1.3-.43,2.3-1.27,3.03-2.42.9-1.41,1.2-3.2,1.25-4.85.07-2.22-.24-4.8-1.82-6.5-1.61-1.73-4.3-2.17-6.54-2.23-.88-.03-1.75-.05-2.63-.08h0ZM715.93,352.69l-.35-1.9c-.14-.78-.21-1.69.07-2.45.18-.48.45-.99.89-1.28.6-.41,2.85-.82,3.59-.95l26.46-4.85c.7-.13,2.89-.53,3.57-.37.5.12,1,.33,1.33.74.57.66.86,1.57,1.01,2.4l.35,1.9,2.19-.4-4.04-22.05-2.19.4.35,1.9c.14.78.21,1.71-.07,2.47-.18.48-.45.98-.89,1.27-.64.41-2.83.8-3.59.94l-26.46,4.85c-.69.13-2.9.53-3.57.37h-.02c-.5-.11-.98-.31-1.31-.72-.57-.67-.86-1.59-1.02-2.42l-.35-1.9-2.19.4,4.04,22.05,2.19-.4Z"/>
    <path class="cls-3" d="M379.66,743.75l-4.27-12.21-6.19,11.41,10.46.8h0ZM416.3,720.6l1.26,16.56,1.12-.08c1.83-.14,4.3-.41,5.99-1.18,1.25-.57,2.15-1.5,2.76-2.72.75-1.5.86-3.31.73-4.96-.17-2.22-.75-4.75-2.5-6.27-1.78-1.55-4.5-1.7-6.74-1.53l-2.62.2h0ZM530.83,718.86l-9.07-9.22-.73,12.96,9.8-3.75h0ZM607.11,646.28l10.92,12.51.84-.74c1.38-1.21,3.2-2.91,4.09-4.53.66-1.21.82-2.49.58-3.84-.3-1.65-1.3-3.17-2.38-4.41-1.46-1.68-3.44-3.36-5.76-3.53-2.35-.18-4.63,1.33-6.32,2.81l-1.98,1.73h0ZM74.51,546.83l-2.08.8-8-20.94,2.08-.8.69,1.81c.3.79.76,1.65,1.44,2.2.4.34.91.45,1.42.46h.02c.68.04,2.78-.77,3.44-1.02l25.12-9.6c.71-.27,2.82-1.07,3.36-1.59.38-.36.55-.91.63-1.41.14-.8-.1-1.7-.39-2.44l-.69-1.81,2.08-.8,8,20.94-2.08.8-.69-1.81c-.3-.79-.75-1.63-1.43-2.17-.4-.34-.93-.46-1.45-.48-.69-.03-2.78.76-3.44,1.02l-25.13,9.6c-.7.27-2.84,1.08-3.35,1.59-.38.37-.55.92-.64,1.43-.14.79.1,1.68.38,2.42l.69,1.81h0ZM129.42,565.6l-1-2.04-.49.16c-.6.2-1.42.39-2.04.18-.47-.16-.81-.44-1.03-.89-.29-.6-.46-2.73-.51-3.42-.27-3.16-.98-6.3-2.39-9.16-1.77-3.6-4.34-6.53-7.64-8.82-3.37-2.33-7.13-3.61-11.22-3.9-4.04-.28-7.95.43-11.58,2.22-3.43,1.69-6.21,4.13-8.38,7.27-2.2,3.2-3.32,6.77-3.4,10.65-.08,4.13,1.01,8.13,2.83,11.81,1.34,2.72,3.09,5.27,5.42,7.25,2.33,1.97,5.13,3.3,8.02,4.21l.23.07,4.79-2.36-1.55-.4c-2.7-.69-5.7-1.73-7.98-3.38-1.93-1.4-3.38-3.22-4.43-5.35-1.15-2.33-1.79-4.89-1.25-7.47.54-2.6,2.12-4.78,4.02-6.57,2.42-2.27,5.24-4.09,8.21-5.55,3.05-1.5,6.29-2.5,9.69-2.72,2.45-.16,4.74.36,6.89,1.55,2.13,1.18,3.74,2.86,4.81,5.04,1.29,2.62,1.57,5.39.9,8.23-.76,3.22-2.79,5.79-5.3,7.86l-.36.3.98,2,13.76-6.78h0ZM121.45,593.91l-9.8,7.08c-.61.44-2.46,1.77-2.83,2.4-.27.46-.3,1.03-.25,1.54.07.8.53,1.6.99,2.24l1.13,1.57-1.81,1.31-13.13-18.17,1.81-1.31,1.13,1.57c.5.69,1.15,1.4,1.96,1.75.47.22.99.2,1.49.08h.02c.67-.15,2.49-1.46,3.06-1.87l21.8-15.76c.63-.46,2.44-1.75,2.84-2.4.27-.45.3-1.02.25-1.53-.07-.81-.53-1.61-1-2.26l-1.13-1.57,1.81-1.31,13.13,18.17-1.81,1.31-1.13-1.57c-.5-.69-1.14-1.38-1.94-1.73-.48-.22-1.02-.2-1.52-.09-.68.15-2.49,1.45-3.06,1.87l-8.9,6.43,7.78,10.76,8.9-6.43c.62-.45,2.45-1.76,2.84-2.4.27-.45.29-1.03.24-1.54-.08-.81-.53-1.61-1-2.26l-1.12-1.55,1.81-1.31,13.13,18.17-1.81,1.31-1.12-1.55c-.49-.67-1.15-1.4-1.93-1.73h-.02c-.48-.24-1.01-.22-1.52-.11-.68.15-2.49,1.45-3.06,1.87l-21.8,15.76c-.62.45-2.45,1.76-2.84,2.4-.27.45-.3,1.02-.24,1.54.07.81.53,1.61,1,2.26l1.12,1.55-1.81,1.31-13.13-18.17,1.81-1.31,1.12,1.55c.49.67,1.15,1.4,1.93,1.73h.02c.48.24,1.02.22,1.52.11.68-.15,2.49-1.45,3.06-1.87l9.8-7.08-7.78-10.76h0ZM155.79,630.71l8.37-7.88c.52-.49,2.18-2.04,2.85-2.26.5-.17,1.02-.24,1.52-.08.87.28,1.74,1.07,2.35,1.72l.41.43,1.62-1.53-14.69-15.61-1.62,1.53,1.33,1.41c.54.58,1.11,1.32,1.28,2.11.11.49.16,1.07-.05,1.54-.3.68-1.95,2.22-2.51,2.75l-19.59,18.43c-.51.48-2.15,2.02-2.79,2.25h-.02c-.48.19-.99.28-1.49.12-.84-.25-1.59-.87-2.17-1.48l-1.33-1.41-1.62,1.53,14.9,15.83,1.62-1.53-.4-.43c-.6-.64-1.47-1.66-1.7-2.53-.13-.5-.2-1.08,0-1.56.27-.68,1.98-2.28,2.53-2.79l7.92-7.45,1.07.15-2.07,14.25c-.15,1-.66,4.23-1.42,4.95-.21.2-.44.24-.73.19-.51-.08-1.56-.98-1.94-1.31l-.4-.36-1.59,1.49,15.32,16.29,1.62-1.53-.41-.43c-.75-.8-1.23-1.75-1.45-2.82-.44-2.14-.12-5,.19-7.15l3.21-22.14,14.59,2.03c1.51.2,3.03.4,4.53.66.7.12,1.61.26,2.27.5.97.34,1.92,1.1,2.66,1.79l.4.37,1.59-1.5-11.68-12.42-1.61,1.51.38.43c.4.45,1.64,1.88,1.8,2.45.17.59.18,1.17-.29,1.61-.87.82-3.65.54-4.71.4l-18.06-2.51h0ZM183.68,685.18l-1.38,1.75-17.6-13.88,1.38-1.75,1.52,1.2c.67.53,1.49,1.03,2.37,1.15.52.09,1.01-.08,1.45-.33h.02c.61-.33,2-2.09,2.43-2.65l16.66-21.12c.47-.6,1.88-2.37,2.08-3.09.14-.5,0-1.06-.18-1.54-.29-.76-.96-1.41-1.58-1.9l-1.52-1.2,1.38-1.75,17.6,13.88-1.38,1.75-1.52-1.2c-.66-.52-1.48-1.01-2.34-1.13-.52-.08-1.03.08-1.49.33-.61.33-1.99,2.08-2.43,2.64l-16.66,21.12c-.46.59-1.88,2.38-2.06,3.08-.13.51,0,1.07.18,1.55.29.75.95,1.4,1.56,1.89l1.52,1.2h0ZM227.51,712.76l-1.67-.97c-.68-.4-1.42-.94-1.82-1.65-.25-.45-.46-.98-.4-1.51.08-.73,1.23-2.7,1.61-3.35l13.49-23.27c.36-.61,1.47-2.55,2.03-2.96.42-.3.9-.54,1.43-.53.87,0,1.75.37,2.48.79l1.67.97,1.12-1.93-19.39-11.24-1.12,1.93,1.67.97c.69.4,1.44.95,1.84,1.66.25.45.45.98.39,1.5-.1.75-1.22,2.67-1.62,3.34l-13.49,23.27c-.35.61-1.48,2.55-2.03,2.95h-.02c-.4.33-.87.56-1.39.55-.88,0-1.77-.37-2.5-.8l-1.67-.97-1.12,1.93,19.4,11.24,1.12-1.93h0ZM273.85,690.07l-5.7,13.65-2.13-.95.12-.48c.76-3.01.72-6-.55-8.87-1.08-2.45-2.72-4.44-5.19-5.54-1.49-.66-3.1-.98-4.68-.46-1.26.42-2.27,1.15-2.82,2.39-.3.68-.45,1.4-.35,2.15.15,1.2.73,2.43,1.35,3.46.44.73,1.01,1.47,1.53,2.15.95,1.23,1.94,2.44,2.94,3.64,2.28,2.73,5.34,6.72,6.25,10.22.7,2.72.46,5.37-.68,7.93-1.5,3.36-4.1,5.55-7.57,6.72-3.79,1.28-7.55.84-11.18-.77-1.16-.51-2.26-1.15-3.28-1.9-1.22-.91-2.37-2.06-3.41-3.17-.47-.5-1.1-1.09-1.74-1.38-.43-.19-.95-.16-1.4-.08-.67.13-1.26.52-1.76.97l-.29.26-1.85-.82,6.74-15.14,1.94.86-.1.47c-.78,3.55-.91,7.35.6,10.74,1.21,2.7,3.02,4.91,5.76,6.12,1.67.74,3.46,1.08,5.23.49,1.46-.49,2.58-1.35,3.21-2.77.36-.81.47-1.68.38-2.56-.11-1.08-.51-2.13-1.01-3.08-.91-1.7-2.47-3.57-3.7-5.05-1.89-2.26-4.12-5-5.49-7.61-.92-1.77-1.55-3.67-1.72-5.66-.16-1.94.19-3.82.98-5.6,1.4-3.15,3.75-5.29,6.99-6.45,3.4-1.23,6.79-.91,10.07.55,1.23.55,2.39,1.23,3.45,2.07.98.78,1.88,1.75,2.69,2.7.42.49,1.4,1.61,2,1.88.27.12.56.18.85.06.43-.18,1.19-1.19,1.45-1.56l.28-.39,1.81.8h0ZM285.86,720.04l12.6,4.19-3.81,11.47c-.22.68-.93,2.79-1.39,3.31-.35.39-.77.71-1.29.81h-.02c-.83.19-1.79,0-2.58-.27l-1.82-.6-.7,2.12,21.27,7.06.7-2.11-1.82-.6c-.76-.25-1.6-.64-2.13-1.25-.35-.39-.67-.86-.71-1.39-.06-.75.66-2.89.9-3.61l8.47-25.53c.22-.68.93-2.79,1.39-3.31.35-.39.77-.71,1.3-.81h.02c.83-.19,1.79,0,2.58.27l1.82.6.7-2.12-21.27-7.06-.7,2.12,1.82.6c.76.25,1.6.64,2.13,1.25.35.39.67.86.71,1.39.06.74-.66,2.89-.9,3.61l-3.46,10.42-12.6-4.19,3.46-10.42c.22-.67.93-2.79,1.39-3.31.35-.38.77-.71,1.29-.81.85-.18,1.78,0,2.59.27l1.84.61.7-2.12-21.28-7.06-.7,2.12,1.84.61c.75.25,1.6.64,2.13,1.25.34.39.64.87.69,1.39.05.75-.66,2.86-.9,3.6l-8.48,25.53c-.22.67-.93,2.8-1.39,3.31v.02c-.35.39-.75.71-1.27.81-.86.18-1.81,0-2.61-.27l-1.84-.61-.7,2.12,21.28,7.06.7-2.11-1.84-.61c-.75-.25-1.58-.63-2.11-1.24-.34-.39-.65-.87-.7-1.4-.07-.73.66-2.89.89-3.6l3.81-11.47h0ZM333.34,749.86c.68.38,2.55.71,3.31.86l3.33.63c1.7.32,3.55.41,5.22-.1,1.59-.49,2.95-1.48,4.08-2.68,1.67-1.78,3.08-4.29,4.18-6.45l.2-.4,2.35.44-4.51,14.88-36.6-6.92.41-2.19,1.9.36c.83.16,1.8.22,2.63-.08.5-.16.86-.53,1.14-.96v-.02c.4-.56.82-2.77.95-3.46l5-26.43c.15-.77.57-2.95.41-3.69-.12-.51-.48-.95-.87-1.28-.61-.54-1.5-.8-2.28-.95l-1.9-.36.41-2.19,22.51,4.25-.41,2.19-2.33-.44c-.84-.16-1.8-.22-2.64.07-.51.17-.89.55-1.19.98-.39.56-.81,2.77-.94,3.46l-4.83,25.58c-.16.83-.56,2.94-.39,3.76.1.5.46.86.87,1.14h0ZM380.88,747.25l-13.46-1.03-1.88,3.49c-.45.88-.95,2.01-1.03,3.01-.07.89.19,1.61.93,2.13.64.45,2.9.81,3.68.93l.54.08-.17,2.18-14.69-1.12.16-2.14.51-.04c1.27-.1,2.43-.54,3.38-1.4,1.39-1.27,2.93-4.13,3.83-5.78l17.18-31.64,1.34.1,12.25,34.79c.55,1.56,1.73,4.87,2.86,6.09.64.68,1.56.99,2.46,1.13l.54.09-.17,2.18-20.84-1.59.17-2.22,1.4.11c.83.06,2.28.11,3.02-.34.33-.2.45-.51.48-.88.02-.33,0-.65-.07-.97v-.02s0-.02,0-.02c-.04-.2-.13-.46-.19-.66-.16-.53-.34-1.07-.51-1.59l-1.7-4.88h0ZM417.82,740.48l.83,10.89c.06.79.25,3.18.65,3.87.27.48.73.79,1.23.99.87.35,2.66.25,3.59.18l.59-.05.17,2.22-21.98,1.68-.17-2.22.59-.04c.9-.07,2.74-.24,3.52-.73.46-.29.87-.67,1.07-1.18.29-.74.12-3.1.05-3.9l-2.03-26.57c-.06-.79-.25-3.18-.65-3.87-.27-.48-.73-.79-1.23-.99-.87-.35-2.66-.25-3.59-.18l-.59.04-.17-2.22,19.49-1.49c3.35-.26,7.75-.5,11.04.21,2.43.53,4.5,1.69,6.18,3.53,1.71,1.87,2.61,4.11,2.8,6.63.24,3.12-.68,5.87-2.84,8.14-1.36,1.43-3.17,2.41-5.02,3.1l10.25,12.37c.72.84,1.97,2.36,2.88,2.99.79.5,1.67.71,2.6.7h.56s.17,2.24.17,2.24l-13.7,1.04-14.54-17.53-1.77.14h0ZM497.01,731.61l2.7-18.19c.22-1.46.51-3.21.54-4.68,0-.57-.01-1.22-.17-1.77-.13-.45-.35-.83-.7-1.12-.39-.32-.84-.47-1.34-.52-1.04-.11-2.22.13-3.22.4l-.57.16-.6-2.15,13.99-3.88.57,2.06-.45.21c-1.35.63-2.27,1.73-2.89,3.07-.37.8-.61,1.88-.8,2.74-.36,1.64-.63,3.31-.88,4.96l-5.18,34.16-1.7.47-22.33-27.87c-1.06-1.32-2.14-2.65-3.26-3.92-.44-.5-1.17-1.35-1.71-1.72-.79-.54-2.15-.43-3.03-.29l-.52.08-.58-2.09,19.88-5.52.6,2.15-1.2.33c-.82.23-2.44.73-3,1.42l-.02.02c-.25.28-.27.58-.17.93.1.36.29.71.5,1.02.76,1.13,1.76,2.31,2.61,3.38l12.94,16.15h0ZM533.43,721.51l-12.61,4.82-.22,3.96c-.03.99,0,2.23.36,3.16.32.84.86,1.38,1.75,1.53.77.14,2.97-.51,3.73-.73l.52-.16.78,2.04-13.76,5.26-.77-2,.44-.25c1.11-.63,1.97-1.52,2.45-2.71.71-1.74.89-4.99,1-6.86l2.02-35.95,1.26-.48,25.93,26.24c1.16,1.18,3.64,3.67,5.19,4.29.87.35,1.83.23,2.71-.03l.52-.15.78,2.04-19.52,7.46-.8-2.08,1.31-.5c.78-.3,2.11-.88,2.59-1.6.21-.32.19-.65.06-1-.12-.31-.28-.59-.48-.85v-.02s-.02-.02-.02-.02c-.12-.17-.31-.37-.45-.52-.38-.41-.76-.82-1.14-1.22l-3.62-3.68h0ZM569.43,713.93l1.15-45.35-29.14,17.11,5.59,11.92,1.93-1.13-.14-.45c-.49-1.58-.84-3.3-.79-4.97.05-1.39.37-2.72,1.02-3.96.63-1.21,1.47-2.26,2.5-3.16.4-.35.89-.67,1.33-.96.8-.52,1.63-1.02,2.46-1.51l4.3-2.53-1.15,45.43,33.55-19.7-6.54-14.66-2,1.17.16.46c.9,2.63,1.38,5.47.84,8.23-.47,2.39-1.49,4.49-3.14,6.28-1.48,1.61-4.27,3.29-6.14,4.39l-5.77,3.39h0ZM613.91,686.76l1.31,1.81-18.17,13.13-1.31-1.81,1.57-1.13c.69-.5,1.4-1.16,1.75-1.96.22-.47.2-.99.08-1.49v-.02c-.15-.67-1.47-2.49-1.88-3.06l-15.76-21.8c-.46-.63-1.76-2.44-2.4-2.84-.45-.27-1.02-.3-1.53-.25-.81.07-1.61.54-2.26,1l-1.57,1.13-1.31-1.81,18.17-13.13,1.31,1.81-1.57,1.13c-.69.5-1.38,1.15-1.73,1.94-.22.48-.2,1.02-.09,1.52.15.68,1.45,2.49,1.87,3.06l15.76,21.8c.44.6,1.77,2.46,2.4,2.83.46.27,1.03.3,1.54.25.8-.07,1.6-.53,2.24-.99l1.57-1.13h0ZM649.63,656.08c.93-.07,1.77-.43,2.5-1l.44-.34,1.49,1.7-10.35,9.04-22.14-5.34-1.34,1.17,7.18,8.22c.52.6,2.1,2.4,2.84,2.71.5.22,1.06.2,1.58.06.91-.24,2.28-1.39,2.98-2l.45-.39,1.47,1.68-16.61,14.5-1.47-1.68.45-.39c.68-.59,2.05-1.83,2.38-2.69.2-.51.29-1.06.15-1.59-.21-.76-1.77-2.55-2.29-3.16l-17.53-20.08c-.52-.6-2.1-2.4-2.84-2.71-.5-.22-1.06-.2-1.58-.06-.91.24-2.28,1.39-2.98,2l-.45.39-1.47-1.68,14.72-12.86c2.53-2.21,5.9-5.04,8.97-6.44,2.26-1.03,4.62-1.34,7.06-.88,2.49.47,4.55,1.73,6.22,3.64,2.04,2.34,2.96,5.13,2.6,8.22-.23,1.96-1.09,3.83-2.16,5.49l15.62,3.78c1.08.24,3,.71,4.1.67h0ZM664.28,639.24c.66-.4,1.88-1.86,2.38-2.45l2.19-2.58c1.12-1.32,2.11-2.88,2.49-4.59.36-1.63.17-3.29-.31-4.87-.72-2.33-2.2-4.79-3.54-6.82l-.24-.37,1.55-1.82,10.71,11.28-24.12,28.39-1.7-1.44,1.25-1.47c.55-.65,1.08-1.45,1.23-2.32.1-.51-.04-1.01-.28-1.46v-.02c-.31-.62-2.02-2.07-2.55-2.53l-20.5-17.41c-.59-.5-2.29-1.95-3-2.19-.5-.15-1.06-.05-1.55.12-.77.26-1.44.91-1.96,1.51l-1.25,1.47-1.7-1.44,14.83-17.46,1.7,1.44-1.54,1.81c-.56.65-1.08,1.46-1.24,2.33-.11.52.03,1.04.26,1.52.29.62,2.01,2.07,2.55,2.53l19.84,16.86c.64.55,2.28,1.94,3.07,2.2.49.16.98.03,1.42-.2h0ZM695.16,602.34l-1.13,1.57c-.46.64-1.07,1.33-1.81,1.65-.47.21-1.02.36-1.54.26-.72-.15-2.57-1.48-3.18-1.92l-21.89-15.64c-.58-.41-2.39-1.71-2.75-2.31-.26-.44-.45-.95-.4-1.47.08-.87.53-1.7,1.02-2.39l1.13-1.58-1.81-1.3-13.03,18.24,1.81,1.3,1.12-1.57c.46-.65,1.08-1.34,1.82-1.67.47-.21,1.02-.36,1.53-.25.74.17,2.54,1.47,3.18,1.93l21.88,15.64c.57.41,2.4,1.71,2.75,2.3v.02c.29.43.47.92.41,1.43-.08.88-.54,1.73-1.03,2.42l-1.12,1.57,1.81,1.3,13.03-18.24-1.81-1.3h0ZM712.94,571.36l-6.94-4.02c-.57-.33-2.02-1.16-2.67-1.23-.48-.05-1.04.22-1.44.45-.66.39-1.16.99-1.55,1.65l-.82,1.42-1.93-1.12,10.53-18.17,1.9,1.1-.24.5c-.35.71-.96,2-.98,2.8-.02.59.22,1.13.57,1.6l.02.02c.27.4,1.7,1.24,2.12,1.48l7.63,4.42-.04.38c-.31,2.88-.92,5.72-1.83,8.47-.93,2.83-2.18,5.55-3.68,8.13-1.64,2.84-3.72,5.69-6.34,7.7-2.17,1.66-4.55,2.99-7.15,3.86-2.43.82-4.96,1.22-7.52,1.09-3.34-.18-6.46-1.24-9.34-2.91-5.4-3.13-8.93-7.69-10.47-13.74-1.59-6.24-.48-12.16,2.74-17.71.94-1.62,1.99-3.18,3.22-4.59.95-1.1,2.28-2.18,3.4-3.1.46-.37,2.3-1.84,2.58-2.3.23-.39.27-.82.18-1.26-.12-.68-.79-1.53-1.23-2.04l-.27-.32,1.03-1.78,13.43,7.78-1.03,1.78-.41-.08c-3.48-.68-7.07-.65-10.39.74-2.9,1.22-5.2,3.13-6.78,5.86-1.34,2.32-2,4.81-1.53,7.48.48,2.73,1.95,5.05,3.87,7.01,2.2,2.24,4.68,4.15,7.4,5.72,2.92,1.69,6.1,3.15,9.41,3.9,2.51.57,5.1.58,7.46-.57,2.27-1.1,3.95-2.88,5.2-5.04.49-.84.88-1.74,1.19-2.66.3-.88.53-1.79.7-2.71h0ZM731.9,534.47l-.79,1.77c-.32.72-.79,1.51-1.44,1.98-.42.3-.93.56-1.46.56-.73,0-2.82-.94-3.5-1.24l-24.57-10.93c-.65-.29-2.69-1.19-3.16-1.71-.35-.38-.63-.84-.68-1.36-.1-.87.18-1.78.52-2.55l.79-1.77-2.04-.91-9.11,20.48,2.04.91.79-1.77c.32-.73.79-1.53,1.45-2,.42-.3.92-.56,1.45-.55.75.02,2.78.93,3.5,1.25l24.58,10.93c.64.29,2.7,1.2,3.15,1.71v.02c.37.37.65.81.69,1.33.1.88-.18,1.8-.53,2.57l-.79,1.77,2.04.91,9.11-20.48-2.04-.91Z"/>
    <polygon class="cls-6" points="72.09 449.78 53.94 408.57 54.07 408.51 72.22 449.73 72.09 449.78"/>
    <rect class="cls-6" x="39.56" y="429.08" width="47.03" height=".14" transform="translate(-151.08 51.94) rotate(-21.22)"/>
    <polygon class="cls-6" points="54.07 449.78 53.94 449.73 72.09 408.51 72.22 408.57 54.07 449.78"/>
    <polygon class="cls-3" points="63.08 395.15 63.08 429.15 54 408.54 63.08 395.15"/>
    <polygon class="cls-3" points="37.51 453.19 63.08 429.15 54 449.75 37.51 453.19"/>
    <polygon class="cls-3" points="37.51 405.11 63.08 429.15 41.35 420.83 37.51 405.11"/>
    <polygon class="cls-3" points="26.92 429.15 63.08 429.15 41.17 437.68 26.92 429.15"/>
    <polygon class="cls-3" points="88.65 405.11 63.08 429.15 72.16 408.54 88.65 405.11"/>
    <polygon class="cls-3" points="63.08 429.15 99.24 429.15 85 420.61 63.08 429.15"/>
    <polygon class="cls-3" points="63.08 429.15 88.65 453.19 85 437.68 63.08 429.15"/>
    <polygon class="cls-3" points="63.08 429.15 72.16 449.75 63.08 463.15 63.08 429.15"/>
    <polygon class="cls-1" points="63.08 395.15 63.08 429.15 72.16 408.54 63.08 395.15"/>
    <polygon class="cls-1" points="85 420.61 63.08 429.15 88.65 405.11 85 420.61"/>
    <polygon class="cls-1" points="54 408.54 63.08 429.15 37.51 405.11 54 408.54"/>
    <polygon class="cls-1" points="41.17 420.61 63.08 429.15 26.92 429.15 41.17 420.61"/>
    <polygon class="cls-1" points="41.17 437.68 63.08 429.15 37.51 453.19 41.17 437.68"/>
    <polygon class="cls-1" points="54 449.76 63.08 429.15 63.08 463.15 54 449.76"/>
    <polygon class="cls-1" points="88.65 453.19 72.16 449.75 63.08 429.15 88.65 453.19"/>
    <polygon class="cls-1" points="85 437.68 63.08 429.15 99.24 429.15 85 437.68"/>
    <polygon class="cls-6" points="747.14 449.78 728.98 408.57 729.11 408.51 747.27 449.73 747.14 449.78"/>
    <rect class="cls-6" x="714.61" y="429.08" width="47.03" height=".14" transform="translate(-105.29 296.32) rotate(-21.22)"/>
    <rect class="cls-6" x="738.06" y="405.63" width=".14" height="47.03" transform="translate(70.35 961.2) rotate(-68.72)"/>
    <polygon class="cls-6" points="729.11 449.78 728.98 449.73 747.14 408.51 747.27 408.57 729.11 449.78"/>
    <polygon class="cls-3" points="738.13 395.15 738.13 429.15 729.05 408.54 738.13 395.15"/>
    <polygon class="cls-3" points="712.56 453.19 738.13 429.15 729.05 449.75 712.56 453.19"/>
    <polygon class="cls-3" points="712.56 405.11 738.13 429.15 716.4 420.83 712.56 405.11"/>
    <polygon class="cls-3" points="701.97 429.15 738.13 429.15 716.21 437.68 701.97 429.15"/>
    <polygon class="cls-3" points="763.7 405.11 738.13 429.15 747.2 408.54 763.7 405.11"/>
    <polygon class="cls-3" points="738.13 429.15 774.29 429.15 760.04 420.61 738.13 429.15"/>
    <polygon class="cls-3" points="738.13 429.15 763.7 453.19 760.04 437.68 738.13 429.15"/>
    <polygon class="cls-3" points="738.13 429.15 747.2 449.75 738.13 463.15 738.13 429.15"/>
    <polygon class="cls-1" points="738.13 395.15 738.13 429.15 747.2 408.54 738.13 395.15"/>
    <polygon class="cls-1" points="760.04 420.61 738.13 429.15 763.7 405.11 760.04 420.61"/>
    <polygon class="cls-1" points="729.05 408.54 738.13 429.15 712.56 405.11 729.05 408.54"/>
    <polygon class="cls-1" points="716.21 420.61 738.13 429.15 701.97 429.15 716.21 420.61"/>
    <polygon class="cls-1" points="716.21 437.68 738.13 429.15 712.56 453.19 716.21 437.68"/>
    <polygon class="cls-1" points="729.05 449.76 738.13 429.15 738.13 463.15 729.05 449.76"/>
    <polygon class="cls-1" points="763.7 453.19 747.2 449.75 738.13 429.15 763.7 453.19"/>
    <polygon class="cls-1" points="760.04 437.68 738.13 429.15 774.29 429.15 760.04 437.68"/>
    <path class="cls-3" d="M384.5,362.61c8.09-5.55,16.92-6.12,26.66-1.23,2.5,14.2-1.24,29.03-8.25,39.58l-3.75-.59c-1.6-12.75-6.7-26.47-14.66-37.76h0ZM420.07,364.64c-2.53,13.58-8.8,26.8-16.81,36.85l2.19,3.1c12.45-2.34,25.68-10.01,34.1-21.71-3.29-10.38-9.87-16.32-19.48-18.24h0ZM444.21,394.13c-11.93,6.96-26.03,10.88-38.87,11.39l-.91,3.69c9.91,7.89,24.37,12.87,38.73,11.59,5.7-9.28,5.89-18.14,1.05-26.67h0ZM439.19,429.35c-2.72,9.42-9.19,15.47-19.81,17.88-10.95-9.38-17.48-23.2-18.77-35.81l3.27-1.92c9.33,8.83,21.99,16.18,35.3,19.85h0ZM412.09,449.96c-8.47,4.94-17.33,4.87-26.68-.72-1.46-14.34,3.35-28.86,11.11-38.87l3.7.87c.67,12.83,4.76,26.88,11.87,38.72h0ZM376.28,445.07c3.68-13.31,11.05-25.96,19.89-35.28l-1.92-3.28c-12.6,1.27-26.43,7.79-35.83,18.73,2.4,10.62,8.44,17.1,17.86,19.83h0ZM355.89,418.62c11.73-7.28,25.73-11.57,38.55-12.42l.81-3.71c-10.12-7.62-24.71-12.21-39.03-10.55-5.45,9.43-5.4,18.29-.33,26.68h0ZM358.81,385.46c13.57,2.58,26.77,8.89,36.79,16.94l3.11-2.18c-2.3-12.46-9.92-25.71-21.59-34.18-10.39,3.26-16.35,9.81-18.3,19.42h0ZM605.77,238.86c6,6.07,10.84,12.94,7.27,16.47-2.79,2.76-10.68,5.46-16.71-2.51-.05-.06-5.85,3.59-8.23,1.36l-6.13-7.68c-.84-2.58,3.62-4.62,5.84-6.65,1.53-1.4,1.14-3.84,2.69-5.38,5.1-5.06,9.28-1.67,15.28,4.39h0ZM579.26,248.02c-3.56-.73-7.55,3.05-7.96,6.38l8.27,9.91c3.63-.95,6.83-3.72,6.92-7.77l-7.23-8.52h0ZM507.97,265.77l31.39,29.64-12.51,12.68-3.05-3.59c10.26-10.94-10.55-25.82-15.83-38.73h0ZM571.63,328.35l-30.3-30.75-12.41,12.78,3.65,2.98c10.72-10.49,26.04,10,39.06,15h0ZM573.65,326.36l-30.41-30.64,13.8-14.61,2.52,2.09c-7.93,24.93,2.17,11.4,14.09,43.16h0ZM510.03,264.24l31.5,29.52,13.64-14.08-2.04-1.91c-23.5,10.53-15.63-4.22-43.1-13.53h0ZM569.19,256.11l8.73,10.59c-2.15,5.04-5.09,11.7-15.48,15.36l-9.2-8.31c1.64-10.16,8.78-16.08,15.95-17.64h0ZM194.07,238.86c-6,6.07-10.84,12.94-7.27,16.47,2.79,2.76,10.68,5.46,16.71-2.51.05-.06,5.85,3.59,8.23,1.36l6.13-7.68c.84-2.58-3.62-4.62-5.84-6.65-1.53-1.4-1.14-3.84-2.69-5.38-5.1-5.06-9.28-1.67-15.28,4.39h0ZM220.58,248.02c3.56-.73,7.55,3.05,7.96,6.38l-8.27,9.91c-3.63-.95-6.83-3.72-6.92-7.77l7.23-8.52h0ZM291.87,265.77l-31.39,29.64,12.51,12.68,3.05-3.59c-10.26-10.94,10.55-25.82,15.83-38.73h0ZM228.21,328.35l30.3-30.75,12.41,12.78-3.65,2.98c-10.72-10.49-26.04,10-39.06,15h0ZM226.19,326.36l30.41-30.64-13.8-14.61-2.52,2.09c7.93,24.93-2.17,11.4-14.09,43.16h0ZM289.81,264.24l-31.5,29.52-13.64-14.08,2.04-1.91c23.5,10.53,15.63-4.22,43.1-13.53h0ZM230.65,256.11l-8.73,10.59c2.15,5.04,5.09,11.7,15.48,15.36l9.2-8.31c-1.64-10.16-8.78-16.08-15.95-17.64h0ZM506.45,299.1c-27.27-27.27-64.94-44.14-106.54-44.14s-79.27,16.87-106.54,44.14c-27.27,27.27-44.14,64.94-44.14,106.53s16.87,79.27,44.14,106.54c27.27,27.27,64.94,44.14,106.54,44.14s79.27-16.87,106.54-44.14c27.27-27.27,44.14-64.94,44.14-106.54s-16.87-79.27-44.14-106.53h0ZM280.48,508.74c-18.63,13.61-53.52,26.54-54.14,31.72,15.68,11.86,41.79-2.7,67.11-18.38,28.07,25.67,65.44,41.34,106.46,41.34s78.4-15.67,106.47-41.35c25.32,15.67,51.44,30.24,67.12,18.38-.63-5.18-35.53-18.11-54.16-31.72,23.9-27.66,38.35-63.7,38.35-103.1,0-43.57-17.67-83.01-46.22-111.57-28.56-28.56-68.01-46.22-111.57-46.22s-83.01,17.67-111.57,46.22c-28.56,28.56-46.22,68-46.22,111.57,0,39.41,14.46,75.45,38.36,103.11h0ZM401.54,271.81c3.06-9.24,14.19-14.57,21.05-8.73,4.53,3.85,6.15,11.56,2.53,16.53-6.07,8.33-23.66,1.32-12.59-10.33-1.64,3.59-1.6,6.34.39,8.12,3.71,3.31,9.32,2.28,9.77-3.5.38-4.81-3.11-10.95-9.49-10.07-7.26,1.01-11.02,10.77-9.13,16.51,6.37,4.27.13,11.63.26,14.74.17,4,13.48,18.88-4.36,18.13h-.05s-.05,0-.05,0c-17.84.75-4.53-14.13-4.36-18.13.13-3.11-6.11-10.46.26-14.74,1.89-5.74-1.87-15.51-9.13-16.51-6.38-.88-9.87,5.26-9.49,10.07.45,5.78,6.06,6.81,9.77,3.5,1.99-1.78,2.04-4.52.39-8.12,11.07,11.65-6.52,18.66-12.59,10.33-3.62-4.97-2-12.67,2.53-16.53,6.86-5.84,17.99-.51,21.05,8.73.26.21.95.29,1.62.29.67,0,1.36-.09,1.62-.29h0ZM399.92,295.7l-.05.05c-.49-.47-.96-.93-1.42-1.4-1.7-1.74-2.01-11.27,1.42-12.11h.05s.05,0,.05,0c3.43.83,3.12,10.37,1.42,12.11-.46.47-.94.94-1.42,1.4l-.05-.05h0ZM428.28,262.72c16.27,1.15,20.9,4.02,21.07,7.49-1.09,6.12-10.52,7.66-6.52,17.52,4.16-.17,5.69-17.05,16.33-15.66h0c10.41,8.37-1.42,21.51,1.23,24.73,10.02-3.6,5.64-11.87,9.47-16.77,2.69-2.19,7.92-.66,19.63,10.7-9.88-3.23-12.37-6.38-14.07-2.22-1.42,9.76-6.13,9.77-9.36,12.02.69.58,4.78,9.18,3,15.11,2.77,3.46,6.78,3.46,12.01,4.17-7.6,5.98-15.83-1.16-17.71,16.04-2-1.8-3.49-4.68-2.96-8.45-4.08-2.51-7.75-4.59-9.01-8.42,11.6-1.53,15.76-5.02,10.08-14.85-2.47,3.86-6.55,4.57-10.33,4.82-.25,6.13-3.75,15.43-9.54,14.27-2.23-2.73-2.2-5.73-1.45-8.5-1.14,2.73-3.5,4.76-7.39,4.03-1.54-1.04-2.84-4.06-1.8-7.58.88-2.98,5.42-5.83,5.5-8.92-1.19-3.81-2.49-7.19-1.76-10.93-11.11,2.33-10.94,7.76-4.34,17.42-3.69,1.61-7.69.27-12.28-1.1-2.46,2.91-5.59,3.73-8.27,3.43,11.56-12.88.75-14.24.14-23.9,4.02,3.42,6.69,6.41,11.12,6.17,3.23-5.28,12.37-7.97,13.26-7.84-.47-3.91-1.35-6.23,4.97-13.8,1.97-4.03-2.04-3.79-11.03-9h0ZM457,278.24c.24.32,4.9,4.42-3.25,11.46-4.49,5.14-6.76,8.42-5.53,15.72-.24,2.56-7.01,6.24-7.53,7.66h0c.04-.19.08-.39.12-.58.65-3.65-.49-7.55,1.1-9.47,6.86-3.58,8.55-8.39,8.73-15.57-.2-10.76,5.85-9.24,6.37-9.23h0ZM446.58,313.58c.9.81.9,2.29-.01,3.31-.91,1.02-2.39,1.19-3.29.38-.91-.81-.9-2.29.01-3.31.91-1.02,2.39-1.19,3.29-.38h0ZM455.53,298.77c1.07.96,1.07,2.72-.01,3.93-1.08,1.21-2.83,1.41-3.9.45-1.07-.96-1.07-2.72.02-3.93,1.08-1.21,2.83-1.41,3.9-.45h0ZM437.62,308.73c1.21.13,2.06,1.35,1.91,2.71-.15,1.36-1.25,2.35-2.46,2.22-1.21-.13-2.06-1.35-1.91-2.71.15-1.36,1.25-2.35,2.46-2.22h0ZM442.68,292.19c1.43.16,2.45,1.6,2.27,3.21-.18,1.61-1.49,2.79-2.92,2.63-1.43-.16-2.45-1.6-2.27-3.21.18-1.61,1.49-2.79,2.92-2.63h0ZM505.86,323.86c-.32-.08-.82-.56-1.23-1.09-.42-.52-.78-1.12-.78-1.45,5.35-8.14,2.62-20.17-6.22-21.93-5.83-1.16-12.88,2.35-14.53,8.27-2.77,9.93,13.65,19.37,15.91,3.46-1.8,3.52-3.98,5.19-6.61,4.73-4.9-.86-7.57-5.89-3.32-9.83,3.54-3.28,10.52-4.36,13.79,1.2,3.72,6.32-1.61,15.32-7.28,17.41-7.3-2.34-9.19,7.12-11.72,8.95-3.24,2.35-23.17,1.15-11.51,14.67l.03.04.03.04c10.48,14.46,13.89-5.22,16.92-7.83,2.36-2.03,12-1.7,11.4-9.35,3.33-5.05,13.32-8.16,18.61-3.09,4.65,4.46,2,11-2,13.69-4.81,3.23-9.1-.53-8.81-5.49.16-2.66,2.28-4.41,6.12-5.35-16-1.46-10.59,16.69-.29,16.28,6.14-.24,11.18-6.3,11.39-12.24.32-9.01-10.76-14.42-19.91-11.09h0ZM486.12,337.41h-.07c.06-.68.13-1.34.22-2,.31-2.41,7.59-8.57,10.38-6.4l.02.05.04.03c1.48,3.21-6.19,8.88-8.61,8.63-.65-.07-1.32-.15-1.98-.25v-.07h0ZM529.58,339.18c9.2,13.47,9.82,18.89,7.2,21.17-5.48,2.95-12.54-3.49-17.79,5.76,2.72,3.16,16.9-6.12,22.41,3.08h0s0,0,0,0c-.1,13.35-17.75,12.23-18.63,16.31,9.03,5.62,12.81-2.95,19.03-2.98,3.39.75,5.43,5.8,3.79,22.03-3.6-9.75-2.68-13.66-6.99-12.41-8.53,4.94-11.46,1.25-15.23.12-.03.89-4.23,9.44-9.98,11.73-.99,4.32,1.5,7.47,4.19,12.01-9.41-2.25-8.91-13.13-23.57-3.93.17-2.68,1.51-5.64,4.79-7.56-.57-4.76-1.21-8.93,1.01-12.29,8.4,8.15,13.71,9.24,17.91-1.31-4.56.46-7.64-2.3-10.19-5.11-4.97,3.61-14.43,6.64-17.11,1.38.76-3.44,3.13-5.28,5.77-6.42-2.85.8-5.91.21-7.74-3.29-.14-1.86,1.42-4.74,4.82-6.12,2.88-1.16,7.93.63,10.41-1.23,2.25-3.3,4.1-6.41,7.48-8.16-8.72-7.26-12.87-3.76-16.35,7.41-3.56-1.89-4.98-5.86-6.76-10.31-3.81-.12-6.39-2.07-7.82-4.35,17.28,1.07,11.64-8.25,18.83-14.72-.19,5.27-.87,9.23,2.06,12.55,6.14-.74,13.92,4.76,14.37,5.53,2.77-2.79,4.05-4.93,13.9-4.66,4.39-.96,1.71-3.95.21-14.24h0ZM535.23,371.34c-.1.39-.43,6.59-11.01,4.56-6.82-.33-10.8-.08-15.76,5.42-2.15,1.4-9.25-1.63-10.68-1.15h0c.18-.08.36-.17.53-.27,3.26-1.76,5.62-5.07,8.1-5.01,7.07,3.16,11.88,1.5,17.63-2.82,8.32-6.83,10.88-1.15,11.19-.73h0ZM501.05,385.09c-.07,1.21-1.24,2.13-2.61,2.05-1.37-.08-2.41-1.13-2.34-2.34.07-1.21,1.24-2.13,2.61-2.05,1.37.08,2.41,1.13,2.34,2.34h0ZM518.21,382.93c-.09,1.44-1.47,2.53-3.09,2.43-1.62-.1-2.87-1.34-2.78-2.78.09-1.44,1.47-2.52,3.09-2.43,1.62.1,2.86,1.34,2.78,2.78h0ZM499.29,375.06c.64,1.03.22,2.45-.94,3.18-1.16.73-2.62.48-3.27-.55-.64-1.03-.22-2.45.94-3.18,1.16-.73,2.62-.48,3.27.55h0ZM515.4,368.76c.76,1.22.26,2.91-1.11,3.77-1.38.86-3.11.57-3.88-.65-.76-1.22-.27-2.91,1.11-3.77,1.38-.86,3.11-.57,3.88.66h0ZM530.91,433.01c8.48,4.79,11.57,16.73,4.52,22.34-4.65,3.7-12.53,3.81-16.71-.7-7.01-7.56,3.27-23.47,12.56-10.37-3.21-2.31-5.92-2.79-8.04-1.18-3.97,3-4.03,8.71,1.55,10.26,4.65,1.29,11.35-.94,11.71-7.38.41-7.32-8.45-12.89-14.44-12.14-5.42,5.43-11.43-2.12-14.51-2.59-3.96-.6-21.13,9.59-16.95-7.77v-.05s.02-.05.02-.05c2.7-17.65,14.73-1.72,18.63-.78,3.03.73,11.45-3.98,14.41,3.09,5.27,2.96,15.58,1.15,17.96-5.78,2.1-6.09-3.26-10.7-8.05-11.26-5.76-.67-7.85,4.63-5.31,8.91,1.36,2.3,4.05,2.87,7.89,1.95-13.56,8.62-17.06-9.99-7.71-14.34,5.57-2.6,12.82.48,15.73,5.67,4.41,7.86-2.97,17.75-12.63,18.98-.25.21-.47.88-.6,1.53-.13.66-.18,1.35-.03,1.65h0ZM507.79,426.82l-.04-.06c.55-.39,1.1-.77,1.65-1.13,2.03-1.33,11.45.2,11.61,3.73l-.02.05v.05c-1.48,3.21-10.77,1.07-12.15-.93-.37-.54-.74-1.1-1.1-1.67l.06-.04h0ZM534.68,460.99c-4.26,15.75-7.97,19.74-11.41,19.23-5.8-2.25-5.49-11.8-15.94-9.77-.64,4.12,15.64,8.87,12.22,19.04h0s0,0,0,0c-10.21,8.6-20.84-5.54-24.5-3.56,1.6,10.52,10.56,7.82,14.63,12.52,1.63,3.06-.88,7.9-14.28,17.2,5.07-9.07,8.64-10.91,4.89-13.37-9.3-3.27-8.4-7.9-9.99-11.5-.7.56-9.93,2.92-15.4.04-3.93,2.06-4.7,5.99-6.41,10.99-4.41-8.61,4.19-15.31-12.33-20.47,2.15-1.62,5.26-2.52,8.86-1.27,3.25-3.52,6-6.72,9.99-7.22-.73,11.68,1.89,16.43,12.63,12.76-3.32-3.17-3.22-7.31-2.74-11.07-5.97-1.43-14.42-6.65-12.17-12.11,3.11-1.66,6.04-1.05,8.62.21-2.46-1.64-4-4.35-2.53-8.02,1.32-1.31,4.53-2,7.78-.31,2.75,1.43,4.67,6.44,7.7,7.11,3.97-.43,7.54-1.05,11.06.38-.15-11.35-5.51-12.23-16.26-7.62-.87-3.93,1.22-7.6,3.44-11.84-2.38-2.97-2.58-6.21-1.78-8.77,10.41,13.83,13.83,3.48,23.42,4.74-4.13,3.28-7.58,5.33-8.2,9.72,4.56,4.19,5.43,13.68,5.14,14.52,3.92.29,6.38-.13,12.58,7.54,3.58,2.71,4.11-1.27,10.96-9.09h0ZM513.92,486.18c-.36.18-5.28,3.96-10.62-5.4-4.18-5.4-6.96-8.26-14.36-8.46-2.46-.73-4.78-8.09-6.07-8.87h0c.18.08.37.16.55.23,3.45,1.34,7.51.97,9.08,2.9,2.19,7.43,6.58,10,13.6,11.56,10.6,1.88,7.94,7.52,7.83,8.03h0ZM481.25,469.15c-.97.73-2.42.44-3.25-.65-.83-1.09-.71-2.57.26-3.3.97-.73,2.42-.44,3.25.65.83,1.09.71,2.57-.26,3.3h0ZM494.05,480.79c-1.15.87-2.87.52-3.85-.77-.98-1.3-.84-3.05.31-3.92,1.15-.87,2.87-.52,3.85.77.98,1.29.84,3.05-.31,3.92h0ZM487.73,461.3c-.36,1.16-1.72,1.76-3.02,1.35-1.31-.41-2.07-1.68-1.7-2.84.36-1.16,1.72-1.76,3.02-1.35,1.31.41,2.07,1.68,1.7,2.84h0ZM502.99,469.44c-.43,1.37-2.04,2.09-3.59,1.6-1.55-.49-2.45-2-2.02-3.37.43-1.37,2.04-2.09,3.59-1.61,1.55.49,2.45,2,2.02,3.37h0ZM460.25,525.08c1.55,9.61-5.86,19.48-14.64,17.47-5.8-1.33-10.79-7.41-9.87-13.49,1.54-10.19,20.38-12.09,15.94,3.35-.2-3.95-1.51-6.36-4.1-7.02-4.82-1.22-9.32,2.28-7.05,7.61,1.89,4.44,7.82,8.28,13.07,4.55,5.98-4.24,4.8-14.64.47-18.86-7.62-.85-5.48-10.25-7.03-12.95-2-3.47-20.68-10.52-4.51-18.09l.04-.03.05-.02c15.48-8.9,10.54,10.44,12.24,14.07,1.32,2.82,10.25,6.46,6.58,13.19.98,5.97,8.82,12.89,15.72,10.43,6.07-2.16,6.33-9.22,3.77-13.31-3.07-4.92-8.52-3.24-10.28,1.41-.94,2.5.28,4.95,3.4,7.38-15.2-5.22-2.83-19.56,6.4-14.97,5.51,2.74,7.63,10.32,5.39,15.83-3.39,8.35-15.72,8.76-22.71,1.97-.32-.06-.98.18-1.57.49-.59.31-1.17.71-1.3,1.01h0ZM450.66,503.15l.02-.07c.65.19,1.28.38,1.91.59,2.31.76,6.99,9.07,4.33,11.4h-.05s-.04.05-.04.05c-3.43.84-7.56-7.76-6.85-10.08.19-.63.4-1.27.61-1.9l.07.02h0ZM440.74,545.49c-14.97,6.49-20.4,6.08-22.14,3.08-1.86-5.94,5.79-11.66-2.31-18.56-3.61,2.07,2.83,17.75-7.25,21.43h0s0,0,0,0c-13.09-2.62-8.67-19.74-12.5-21.37-7.22,7.81.48,13.13-.66,19.25-1.38,3.19-6.72,4.24-22.35-.43,10.25-1.7,13.92-.06,13.5-4.53-3.25-9.31.93-11.49,2.75-14.98-.87-.19-8.48-5.93-9.64-12.01-4.06-1.78-7.61.07-12.58,1.85,3.98-8.82,14.57-6.28,8.3-22.41,2.6.67,5.25,2.54,6.52,6.13,4.78.34,8.99.49,11.88,3.31-9.58,6.71-11.66,11.73-2.09,17.83.41-4.57,3.7-7.07,6.94-9.05-2.61-5.56-3.8-15.42,1.87-17.07,3.24,1.39,4.6,4.07,5.22,6.87-.25-2.95.91-5.84,4.69-6.99,1.85.21,4.39,2.29,5.1,5.89.6,3.05-2.12,7.67-.76,10.45,2.81,2.83,5.53,5.23,6.61,8.88,8.78-7.2,6.12-11.93-4.19-17.46,2.53-3.14,6.7-3.79,11.4-4.69.83-3.72,3.24-5.89,5.75-6.86-4.31,16.76,5.91,12.98,10.91,21.26-5.14-1.18-8.9-2.59-12.71-.34-.43,6.17-7.3,12.78-8.14,13.07,2.22,3.25,4.08,4.91,1.96,14.53.11,4.49,3.56,2.42,13.94,2.89h0ZM408.09,544.99c-.36-.17-6.39-1.66-2.41-11.67,1.61-6.63,2.11-10.59-2.35-16.5-.97-2.38,3.34-8.78,3.14-10.27h0c.05.19.1.38.16.57,1.11,3.53,3.92,6.48,3.4,8.9-4.44,6.34-3.71,11.39-.55,17.84,5.14,9.46-.92,10.9-1.39,11.13h0ZM401.02,508.83c-1.18-.3-1.86-1.62-1.52-2.94.34-1.33,1.57-2.16,2.74-1.86,1.18.3,1.86,1.62,1.52,2.94-.34,1.33-1.57,2.16-2.74,1.86h0ZM399.92,526.09c-1.4-.36-2.2-1.92-1.8-3.49.4-1.57,1.86-2.56,3.25-2.21,1.4.36,2.2,1.92,1.8,3.49-.4,1.57-1.86,2.56-3.25,2.21h0ZM411.2,508.99c-1.13.44-2.45-.24-2.94-1.52-.49-1.28.03-2.67,1.16-3.1,1.13-.44,2.45.24,2.94,1.52.49,1.28-.02,2.67-1.16,3.1h0ZM414.36,526c-1.34.52-2.91-.29-3.49-1.8-.59-1.52.03-3.16,1.37-3.68,1.34-.52,2.91.29,3.49,1.8.59,1.51-.03,3.16-1.37,3.68h0ZM343.4,526.94c-6.59,7.17-18.93,7.45-22.78-.69-2.55-5.38-.85-13.07,4.49-16.11,8.96-5.1,22.11,8.53,7.23,14.59,2.98-2.6,4.06-5.12,2.98-7.56-2.02-4.55-7.56-5.91-10.34-.83-2.32,4.23-1.67,11.26,4.51,13.08,7.03,2.07,14.47-5.29,15.11-11.3-4.05-6.52,4.67-10.65,5.83-13.54,1.49-3.72-4.52-22.76,11.43-14.73l.05.02.05.02c16.57,6.65-1.68,14.74-3.48,18.32-1.4,2.78,1.27,12.05-6.29,13.33-4.08,4.46-4.67,14.9,1.53,18.81,5.46,3.43,11.16-.74,12.79-5.27,1.97-5.45-2.72-8.7-7.47-7.2-2.54.8-3.72,3.29-3.7,7.24-5.31-15.17,13.62-14.33,15.72-4.24,1.26,6.02-3.39,12.38-9.1,14.03-8.66,2.5-16.61-6.93-15.6-16.62-.15-.29-.75-.66-1.36-.93-.61-.28-1.28-.48-1.6-.4h0ZM354.69,505.84l.07-.02c.25.62.5,1.25.72,1.86.83,2.28-2.8,11.1-6.28,10.45l-.04-.03h-.05c-2.78-2.18,1.42-10.74,3.68-11.63.61-.24,1.24-.47,1.87-.69l.03.07h0ZM315.29,524.24c-14.36-7.74-17.4-12.26-16.12-15.49,3.51-5.13,12.74-2.66,13.15-13.29-3.86-1.56-12.2,13.2-21.32,7.56h0s0,0,0,0c-6.05-11.9,10.14-19.02,9.05-23.04-10.61-.84-10.02,8.5-15.53,11.39-3.36.89-7.49-2.66-13.49-17.83,7.68,7.01,8.66,10.9,11.91,7.81,5.3-8.31,9.6-6.38,13.47-7.11-.39-.81-.58-10.33,3.48-15-1.11-4.29-4.76-5.94-9.24-8.74,9.39-2.33,13.95,7.57,22.74-7.34,1.08,2.46,1.25,5.7-.78,8.92,2.69,3.97,5.18,7.37,4.75,11.38-11.2-3.37-16.43-1.9-15.3,9.39,3.84-2.51,7.85-1.47,11.4-.14,2.75-5.48,9.76-12.53,14.56-9.09.91,3.41-.35,6.13-2.17,8.35,2.16-2.02,5.15-2.9,8.39-.64.98,1.59.92,4.86-1.47,7.65-2.02,2.35-7.34,3.08-8.68,5.87-.49,3.96-.69,7.58-2.89,10.68,11.09,2.44,13.16-2.57,11.12-14.09,4.03.05,7.12,2.92,10.74,6.05,3.43-1.64,6.63-1.1,8.95.27-15.84,6.99-6.54,12.67-9.96,21.73-2.26-4.77-3.47-8.59-7.6-10.2-5.12,3.48-14.55,2.17-15.31,1.69-1.18,3.75-1.33,6.24-10.21,10.53-3.46,2.87.3,4.3,6.36,12.74h0ZM295.49,498.28c-.09-.39-2.65-6.05,7.68-9.11,6.21-2.84,9.63-4.89,11.51-12.06,1.27-2.23,8.96-2.81,10.01-3.89h0c-.12.16-.24.32-.35.48-2.09,3.06-2.66,7.09-4.89,8.18-7.73.44-11.24,4.13-14.36,10.61-4.25,9.89-9.13,6.02-9.6,5.79h0ZM319.52,470.35c-.49-1.11.12-2.46,1.37-3.01,1.25-.56,2.66-.11,3.16,1,.49,1.11-.12,2.46-1.37,3.02-1.25.55-2.66.1-3.16-1.01h0ZM305.27,480.16c-.58-1.32.14-2.92,1.63-3.58,1.48-.66,3.16-.13,3.75,1.19.58,1.32-.15,2.92-1.63,3.58-1.48.66-3.16.12-3.75-1.19h0ZM325.69,478.45c-1.04-.62-1.33-2.08-.63-3.25.7-1.18,2.11-1.63,3.16-1.01,1.04.62,1.33,2.08.63,3.25-.7,1.18-2.11,1.63-3.15,1.01h0ZM314.28,491.45c-1.24-.73-1.57-2.46-.74-3.86.83-1.4,2.5-1.93,3.74-1.2,1.24.73,1.57,2.46.75,3.86-.83,1.4-2.5,1.93-3.74,1.2h0ZM269.09,433.86c-9.69-.93-17.37-10.58-13.21-18.58,2.75-5.28,9.9-8.57,15.55-6.15,9.47,4.06,6.56,22.78-7.26,14.58,3.87.8,6.54.14,7.83-2.19,2.4-4.36.15-9.6-5.59-8.75-4.77.71-9.98,5.47-7.7,11.5,2.6,6.86,12.95,8.34,18.13,5.22,2.75-7.16,11.31-2.71,14.31-3.53,3.86-1.06,15.4-17.35,18.65.21v.05s.02.05.02.05c4.71,17.22-12.76,7.56-16.7,8.29-3.06.57-8.84,8.29-14.42,3.03-6.02-.56-14.7,5.28-14.06,12.58.56,6.42,7.33,8.45,11.93,7.01,5.53-1.73,5.29-7.42,1.23-10.3-2.18-1.54-4.87-.98-8,1.42,8.88-13.39,19.64,2.2,12.87,9.97-4.04,4.64-11.91,4.78-16.68,1.22-7.22-5.39-4.5-17.42,3.82-22.47.14-.3.07-.99-.08-1.64-.15-.65-.39-1.31-.65-1.51h0ZM292.74,430.12l.06.04c-.34.58-.69,1.15-1.05,1.7-1.32,2.04-10.54,4.47-12.12,1.31v-.05s-.02-.05-.02-.05c.05-3.53,9.41-5.35,11.48-4.09.56.34,1.12.71,1.68,1.07l-.04.06h0ZM254.27,409.82c-2.51-16.12-.74-21.27,2.61-22.21,6.21-.3,9.82,8.55,18.54,2.45-1.09-4.02-17.89-1.75-18.9-12.43h0s0,0,0,0c5.84-12.01,21.29-3.41,23.83-6.71-5.74-8.96-12.83-2.85-18.46-5.5-2.74-2.14-2.41-7.57,6.06-21.52-.95,10.35-3.46,13.48.97,14.21,9.83-.79,10.89,3.8,13.8,6.44.41-.8,7.88-6.7,14.06-6.29,2.75-3.47,1.86-7.38,1.39-12.64,7.53,6.08,2.39,15.69,19.59,13.69-1.31,2.35-3.78,4.44-7.58,4.76-1.54,4.54-2.75,8.58-6.2,10.66-4.08-10.97-8.4-14.24-16.73-6.52,4.32,1.55,5.91,5.37,7,9,6.03-1.12,15.88.21,16.04,6.12-2.17,2.78-5.09,3.42-7.97,3.31,2.92.5,5.42,2.35,5.58,6.3-.67,1.74-3.32,3.67-6.98,3.45-3.1-.19-6.89-3.99-9.92-3.37-3.45,2.01-6.46,4.03-10.26,4.15,4.75,10.31,10,8.93,17.95.35,2.4,3.24,1.97,7.43,1.66,12.22,3.38,1.74,4.88,4.62,5.19,7.29-15.13-8.4-14.05,2.44-23.33,5.19,2.44-4.68,4.76-7.95,3.54-12.21-5.87-1.98-10.52-10.29-10.6-11.18-3.7,1.33-5.78,2.71-14.56-1.77-4.37-1.02-3.24,2.83-6.31,12.76h0ZM263,378.37c.26-.31,3.22-5.77,11.9.62,6.01,3.23,9.72,4.72,16.56,1.89,2.54-.34,7.65,5.45,9.15,5.63h0c-.2,0-.4,0-.6.01-3.7.18-7.26,2.16-9.47,1.04-5.02-5.89-10.08-6.47-17.13-5.04-10.45,2.59-10.31-3.64-10.41-4.16h0ZM299.77,380.65c.59-1.06,2.03-1.39,3.23-.73,1.2.66,1.69,2.06,1.11,3.12-.59,1.06-2.03,1.39-3.23.73-1.2-.66-1.69-2.06-1.11-3.12h0ZM283.35,375.22c.7-1.26,2.41-1.65,3.83-.86,1.42.79,2.01,2.44,1.31,3.71-.7,1.26-2.41,1.65-3.84.86-1.42-.79-2.01-2.44-1.31-3.7h0ZM297.04,390.46c-.14-1.21.85-2.31,2.21-2.47,1.36-.16,2.57.7,2.71,1.9.14,1.21-.85,2.31-2.21,2.46-1.36.15-2.57-.7-2.71-1.9h0ZM279.79,389.22c-.16-1.43,1.01-2.74,2.63-2.92,1.61-.18,3.05.83,3.22,2.26.16,1.43-1.01,2.74-2.63,2.93-1.61.18-3.05-.83-3.22-2.26h0ZM297.41,319.58c-5.21-8.23-2.28-20.21,6.58-21.82,5.85-1.06,12.84,2.56,14.39,8.52,2.6,9.98-13.97,19.14-15.97,3.2,1.74,3.55,3.9,5.25,6.53,4.84,4.91-.77,7.67-5.77,3.49-9.77-3.48-3.34-10.44-4.53-13.8.97-3.82,6.26,1.35,15.35,6.99,17.53,7.34-2.22,9.07,7.27,11.56,9.14,3.2,2.41,23.15,1.53,11.27,14.86l-.03.04-.03.04c-10.72,14.28-13.8-5.45-16.79-8.12-2.32-2.07-11.97-1.9-11.24-9.54-3.25-5.1-13.18-8.38-18.56-3.4-4.73,4.38-2.18,10.97,1.77,13.72,4.76,3.31,9.11-.37,8.9-5.34-.11-2.67-2.21-4.44-6.03-5.45,16.03-1.19,10.31,16.87.01,16.28-6.14-.35-11.07-6.48-11.18-12.43-.17-9.01,11-14.24,20.1-10.75.32-.07.83-.55,1.25-1.07.43-.52.8-1.11.8-1.44h0ZM314.86,335.97v.07c-.66.08-1.33.16-1.98.21-2.42.21-9.99-5.59-8.46-8.77l.04-.03.02-.05c2.82-2.13,10,4.16,10.27,6.57.07.65.13,1.32.18,1.99h-.07ZM307.32,293.13c11.2-11.86,16.36-13.62,19.14-11.55,4.05,4.72-.74,13,9.43,16.15,2.51-3.33-9.59-15.2-1.77-22.55h0s0,0,0,0c13.06-2.75,15.74,14.73,19.91,14.72,3.56-10.03-5.61-11.88-6.97-17.95.01-3.47,4.51-6.54,20.72-8.41-8.76,5.6-12.77,5.53-10.63,9.48,6.65,7.28,3.67,10.93,3.37,14.85.88-.17,10.13,2.12,13.59,7.25,4.43.04,6.97-3.06,10.84-6.65-.19,9.67-10.93,11.51,1.19,23.87-2.66.41-5.83-.27-8.41-3.07-4.53,1.57-8.46,3.09-12.22,1.64,6.17-9.94,6.1-15.37-5.1-17.21,1.43,4.36-.62,7.96-2.82,11.05,4.58,4.08,9.57,12.68,5,16.42-3.52,0-5.82-1.93-7.5-4.26,1.39,2.61,1.46,5.72-1.56,8.27-1.78.53-4.94-.38-7-3.41-1.75-2.56-1.07-7.89-3.42-9.91-3.7-1.5-7.14-2.63-9.57-5.56-5.24,10.07-.93,13.38,10.73,14.4-1.09,3.88-4.66,6.12-8.63,8.8.7,3.74-.66,6.69-2.58,8.57-2.64-17.11-10.54-9.61-18.4-15.25,5.19-.94,9.2-1.12,11.82-4.69-2.04-5.84,1.68-14.62,2.34-15.22-3.32-2.11-5.68-2.9-7.53-12.59-1.87-4.08-4.23-.83-13.95,2.84h0ZM337.53,280.75c.4.01,6.53-.99,6.8,9.78,1.13,6.73,2.23,10.57,8.66,14.24,1.83,1.8.39,9.38,1.16,10.68h0c-.12-.15-.25-.31-.38-.46-2.41-2.81-6.16-4.41-6.63-6.85,1.58-7.58-1.07-11.93-6.52-16.62-8.45-6.67-3.44-10.38-3.1-10.78h0ZM358.26,311.2c1.2-.19,2.34.76,2.55,2.11.21,1.35-.59,2.6-1.79,2.79-1.2.19-2.34-.76-2.56-2.11-.21-1.35.59-2.6,1.79-2.79h0ZM352.48,294.9c1.42-.22,2.78.9,3.03,2.5.25,1.61-.7,3.09-2.12,3.31-1.42.22-2.78-.9-3.03-2.5-.25-1.6.7-3.09,2.12-3.31h0ZM348.83,315.06c.87-.85,2.35-.74,3.3.24.96.98,1.03,2.46.16,3.31-.87.85-2.35.74-3.3-.24-.96-.98-1.03-2.46-.16-3.31h0ZM339.24,300.67c1.03-1.01,2.79-.88,3.92.28,1.13,1.16,1.22,2.92.19,3.93-1.03,1.01-2.79.88-3.92-.28-1.13-1.16-1.22-2.92-.19-3.93Z"/>
  </g>
</svg>