<?xml version="1.0" encoding="UTF-8"?>
<!DOCTYPE svg PUBLIC "-//W3C//DTD SVG 1.1//EN" "http://www.w3.org/Graphics/SVG/1.1/DTD/svg11.dtd">
<!-- Creator: CorelDRAW -->
<svg xmlns="http://www.w3.org/2000/svg" xml:space="preserve" width="150mm" height="120.844mm" version="1.1" style="shape-rendering:geometricPrecision; text-rendering:geometricPrecision; image-rendering:optimizeQuality; fill-rule:evenodd; clip-rule:evenodd"
viewBox="0 0 14997.06 12082.07"
 xmlns:xlink="http://www.w3.org/1999/xlink"
 xmlns:xodm="http://www.corel.com/coreldraw/odm/2003">
 <defs>
  <style type="text/css">
   <![CDATA[
    .fil0 {fill:#0E559B}
   ]]>
  </style>
 </defs>
 <g id="Слой_x0020_1">
  <metadata id="CorelCorpID_0Corel-Layer"/>
  <path id="Transport_x0020_Vazirligi_x0020__x2013__x0020__x0040_LogotipUz" class="fil0" d="M5215.01 12082.07l544.62 0 0 -5324.21c0,-862.22 -352.61,-1646.19 -920.69,-2214.2 -592.06,-592.12 -1382.68,-920.75 -2220.25,-920.75l-871.76 0 259.66 538.62 612.1 0c713.74,0 1362.83,292.23 1833.46,762.98 470.69,470.63 762.86,1119.66 762.86,1833.34l0 5324.21zm1340.89 0l544.62 0 1.38 -5548.42c0,-768.08 68.01,-1361.46 396.63,-2088.93 328.63,727.47 396.63,1320.85 396.63,2088.93l1.38 5548.42 544.62 0 2.88 -5722.22c44.32,-915.41 436.98,-1743.69 1047.46,-2354.1 648.85,-648.91 1543.82,-1051.72 2527.95,-1051.72l1553.24 0 259.66 -538.69 -1818.95 0c-1132.74,0 -2162.39,463.38 -2908.69,1209.62 -361.07,361 -655.81,788.22 -863.9,1261.48 -105.06,-359.33 -248.75,-702.46 -426.32,-1024.61 179.6,-280.6 388.95,-540.37 623.49,-774.91 827.09,-827.2 1967.85,-1340.65 3222.39,-1340.65l2494.67 0 0 0 259.73 -538.63 -2760.4 0c-1403.13,0 -2678.65,574.02 -3603.12,1498.43 -201.73,201.67 -386.73,420.07 -552.72,652.93 -165.99,-232.86 -350.99,-451.26 -552.72,-652.93 -924.53,-924.41 -2200,-1498.43 -3603.18,-1498.43l-2760.34 0 259.73 538.63 0 0 2494.67 0c1254.53,0 2395.3,513.45 3222.38,1340.65 234.54,234.53 443.89,494.31 623.5,774.91 -177.57,322.15 -321.26,665.28 -426.32,1024.61 -208.09,-473.27 -502.89,-900.48 -863.9,-1261.48 -746.3,-746.24 -1775.95,-1209.62 -2908.69,-1209.62l-1819.01 0 259.72 538.69 1553.24 0c984.14,0 1879.1,402.81 2527.95,1051.72 610.47,610.41 1003.14,1438.69 1047.46,2354.1l2.88 5722.22zm2681.52 0l544.63 0 0 -5324.21c0,-713.68 292.16,-1362.71 762.86,-1833.4 470.63,-470.69 1119.72,-762.92 1833.4,-762.92l612.15 0 259.67 -538.62 -871.82 0c-837.58,0 -1628.19,328.63 -2220.19,920.75 -568.08,568.01 -920.7,1351.98 -920.7,2214.2l0 5324.21zm-1738.89 -10575.55c70.05,-69.03 143.86,-136.13 220.99,-201.37 1055.31,-906.66 2551.82,-1306.04 3933.72,-1305.14l3343.82 0 -259.72 538.69 -3078.29 0c-1478.27,-4.2 -2879.07,441.12 -3940.5,1534.58 -75.09,77.23 -148.42,157.95 -220.03,241.85 -71.67,-83.9 -144.94,-164.62 -220.09,-241.85 -1061.43,-1093.46 -2462.23,-1538.78 -3940.44,-1534.58l-3078.29 0 -259.72 -538.69 3343.82 0c1381.9,-0.9 2878.35,398.48 3933.66,1305.14 77.18,65.24 150.94,132.34 221.05,201.37z"/>
 </g>
</svg>
