<?xml version="1.0" encoding="UTF-8"?>
<!DOCTYPE svg PUBLIC "-//W3C//DTD SVG 1.1//EN" "http://www.w3.org/Graphics/SVG/1.1/DTD/svg11.dtd">
<!-- Creator: CorelDRAW -->
<svg xmlns="http://www.w3.org/2000/svg" xml:space="preserve" width="150mm" height="150mm" version="1.1" style="shape-rendering:geometricPrecision; text-rendering:geometricPrecision; image-rendering:optimizeQuality; fill-rule:evenodd; clip-rule:evenodd"
viewBox="0 0 14997.06 14997.06"
 xmlns:xlink="http://www.w3.org/1999/xlink"
 xmlns:xodm="http://www.corel.com/coreldraw/odm/2003">
 <defs>
  <style type="text/css">
   <![CDATA[
    .fil2 {fill:#FEFEFE}
    .fil0 {fill:#9A8452}
    .fil4 {fill:#E31E24}
    .fil1 {fill:#00B6ED}
    .fil3 {fill:#3FAB3C}
    .fil5 {fill:#9A8452;fill-rule:nonzero}
   ]]>
  </style>
 </defs>
 <g id="Слой_x0020_1">
  <metadata id="CorelCorpID_0Corel-Layer"/>
  <g id="_1580780366736">
   <path class="fil0" d="M12325.23 5951.55l-1413.68 1413.69 -0.05 0 0 3093.78 0.34 0c0,1884.63 -1528.68,3413.33 -3413.31,3413.33 -1870.56,0 -3390.22,-1506.05 -3412.79,-3371.31l-0.23 0 0 -18.54c-0.12,-7.8 -0.29,-15.65 -0.29,-23.49l0.29 0 0 -3093.78 -1413.68 -1413.69 -0.02 -0.02 1413.7 -1413.72 0 -1999.31 1999.31 0 1413.71 -1413.72 1413.71 1413.72 1999.31 0 0 1999.31 1413.71 1413.72 -0.03 0.02zm-4223.21 -2567.14l159.53 299.85c-252.25,61.19 -202.23,492.2 105.45,492.2 152.32,0 270.39,-116.73 270.39,-270.42 0,-34.26 -0.89,-59.06 -2.69,-74.39 -1.81,-15.32 -9.02,-41.01 -22.09,-77.07 -51.38,-146.83 -211.73,-262.63 -322.65,-370.18l-187.94 0zm-3954.62 3856.97l1689.13 0c-265.15,-341.11 -427.6,-765.9 -440.96,-1227.98l-2476.26 0 1228.1 1227.98zm6701.9 0l-1689.13 0c265.15,-341.11 427.6,-765.9 440.96,-1227.98l2476.26 0 -1228.1 1227.98zm-1618.09 3166.82l-0.02 0c-0.6,872.08 -646.04,1593.65 -1485.13,1713.76l0 1244.86c1495.55,-125.72 2670.85,-1379.83 2670.85,-2907.8l0.05 0 0 -3093.78 -1532.23 0c352.77,-345.96 576.76,-822.77 593.01,-1351.81l-247.74 0c-32.62,928.02 -795.49,1670.79 -1731.46,1670.79 -935.97,0 -1698.84,-742.77 -1731.46,-1670.79l-247.79 0c0.39,12.62 0.94,25.25 1.56,37.82l0.07 2.17 0.07 1.29c0.82,15.75 1.84,31.46 3,47.11l0.12 2.05 0.15 1.93c1.17,15.03 2.5,29.97 4.01,44.9l0.47 4.71c1.51,14.85 3.25,29.64 5.08,44.4l0.72 5.89c1.88,14.68 3.93,29.31 6.14,43.86l0.79 5.25c2.23,14.46 4.63,28.86 7.15,43.19l1.04 5.9c2.5,13.93 5.18,27.76 7.98,41.6l1.56 7.75c2.69,13.05 5.52,25.99 8.46,38.93l2.33 10.23c2.87,12.35 5.89,24.66 9.01,36.9l2.9 11.39c3.17,12.21 6.48,24.39 9.88,36.48l2.77 9.83c3.64,12.73 7.4,25.4 11.31,38.02l2.75 8.91c3.89,12.36 7.9,24.69 12.01,36.93l3.32 9.9c3.96,11.62 8.02,23.18 12.2,34.65l4.66 12.68c4.01,10.82 8.09,21.61 12.27,32.32l5.13 13.03c3.99,10 8.05,19.97 12.21,29.89l6.98 16.54c4.06,9.48 8.19,18.92 12.4,28.31l6.63 14.73c4.39,9.58 8.82,19.09 13.35,28.56l7.53 15.65 13.27 26.7 9.48 18.5 0.44 0.86 11.32 21.47 0.91 1.68 9.68 17.83 14.16 25.3 9.56 16.56 13.84 23.42 11.24 18.47 1.04 1.71 12.82 20.5 12.63 19.66 0.45 0.67 13.32 20.17 13.19 19.49 2.25 3.22c8.27,12 16.67,23.91 25.18,35.73l0.72 1 14.24 19.45 13.56 18.05 5.97 7.8c17.85,23.3 36.21,46.14 55.05,68.59l0.4 0.47c30.71,36.59 62.72,72.01 95.98,106.27l1.54 1.53c10.79,11.09 21.69,22.06 32.74,32.9l0.15 0.14 -1531.88 0 0 3116.95c11.84,1517.45 1182.58,2759.54 2670.55,2884.63l0 -1244.86c-839.09,-120.12 -1484.53,-841.69 -1485.13,-1713.76l-0.02 0 0 -1.21 0 -1237.66 495.04 0 0 1237.66c0,683.34 554.29,1237.63 1237.63,1237.63 683.35,0 1237.63,-554.29 1237.63,-1237.63l0 -1237.66 495.04 0 0 1237.66 0 1.21zm-1485.15 -1981.39l0 2722.76 -495.04 0 0 -2722.76 -1361.38 0 0 -495.05 3217.82 0 0 495.05 -1361.39 0zm-3166.06 -3751.18l1342.28 555.99c77.82,-170.07 182.35,-325.37 308.27,-460.54l-1650.55 -1650.56 0 1555.11zm1800 745.6l573.3 237.47c18.91,-35.07 41.06,-68.17 66.11,-98.76l-438.66 -438.67c-80.68,89.14 -148.56,190.13 -200.74,299.96zm525.9 351.78l-573.35 -237.47c-39.85,111.53 -64.08,230.44 -70.2,354.13l620.45 0c3.98,-40.12 11.83,-79.15 23.1,-116.66zm-1031.04 -427.06l-1342.23 -555.99 -1099.68 1099.7 2334.13 0c6.69,-190.69 44.23,-373.52 107.78,-543.71zm462.12 -2360.36l555.94 1342.21c170.2,-63.54 353.05,-101.11 543.74,-107.82l0 -2334.04 -1099.68 1099.65zm745.54 1799.96l237.5 573.35c37.5,-11.29 76.52,-19.12 116.64,-23.1l0 -620.45c-123.7,6.09 -242.6,30.39 -354.14,70.2zm123.18 620.75l-237.48 -573.32c-109.85,52.2 -210.81,120.1 -299.97,200.79l438.66 438.66c30.61,-25.08 63.69,-47.25 98.79,-66.14zm-427.09 -1031.07l-555.96 -1342.27 -1555.18 0 1650.57 1650.61c135.17,-125.92 290.47,-230.47 460.57,-308.34zm781.81 -2489.34l0 2334.06c190.67,6.71 373.52,44.31 543.69,107.85l72.48 -174.98c32.3,28.26 70.94,44.73 111.9,53.24l-70.05 169.14c170.08,77.84 325.4,182.42 460.57,308.34l1650.57 -1650.58 -1555.17 0 -226.67 547.21c-29.08,-33.54 -61.31,-65.33 -94.2,-95.99l206.53 -498.62 -1099.65 -1099.67zm0 2829.44l0 620.48c40.13,3.98 79.11,11.81 116.59,23.1l237.47 -573.33c-111.51,-39.8 -230.39,-64.16 -354.06,-70.25zm230.94 690.97c35.1,18.89 68.17,41.06 98.79,66.11l438.65 -438.66c-89.13,-80.69 -190.12,-148.56 -299.97,-200.76l-237.47 573.32zm186.28 153.61c25.08,30.62 47.25,63.67 66.14,98.76l573.3 -237.44c-52.18,-109.86 -120.08,-210.82 -200.77,-299.98l-438.66 438.66zm113.52 213.12c11.29,37.52 19.14,76.52 23.12,116.64l620.45 0c-6.09,-123.67 -30.42,-242.57 -70.25,-354.11l-573.32 237.47zm1138.84 116.64c-6.74,-190.67 -44.23,-373.52 -107.75,-543.74l1342.21 -555.94 1099.67 1099.68 -2334.13 0zm-155.15 -658.07c-77.84,-170.08 -182.45,-325.35 -308.34,-460.55l1650.54 -1650.53 0 1555.14 -1342.2 555.94zm-340.12 781.84c-32.27,654.65 -573.54,1175.84 -1236.19,1175.84 -662.65,0 -1203.91,-521.19 -1236.19,-1175.84l2472.38 0z"/>
   <path class="fil1" d="M5447.69 6422.72c-30.25,-132.12 -48.07,-269.01 -52.13,-409.31l-2476.26 0 409.36 409.31 2119.03 0z"/>
   <path class="fil2" d="M5587.34 6832.05c-59.95,-129.84 -107.03,-266.83 -139.65,-409.33l-2119.03 0 409.36 409.33 1849.33 0z"/>
   <path class="fil3" d="M4147.4 7241.39l1689.13 0c-97.8,-125.85 -181.65,-263.05 -249.18,-409.34l-1849.33 0 409.38 409.34z"/>
   <polygon class="fil4" points="3303.9,6397.97 5442.17,6397.97 5453.53,6447.48 3353.43,6447.48 "/>
   <polygon class="fil4" points="3713.15,6807.31 5576.26,6807.31 5599.44,6856.81 3763.37,6856.81 "/>
   <path class="fil1" d="M9549 6422.72c30.24,-132.12 48.07,-269.01 52.13,-409.31l2476.26 0 -409.36 409.31 -2119.03 0z"/>
   <path class="fil2" d="M9409.35 6832.05c59.95,-129.84 107.03,-266.83 139.65,-409.33l2119.03 0 -409.36 409.33 -1849.33 0z"/>
   <path class="fil3" d="M10849.29 7241.39l-1689.13 0c97.79,-125.85 181.65,-263.05 249.18,-409.34l1849.33 0 -409.38 409.34z"/>
   <polygon class="fil4" points="11692.79,6397.97 9554.52,6397.97 9543.16,6447.48 11643.26,6447.48 "/>
   <polygon class="fil4" points="11283.54,6807.31 9420.43,6807.31 9397.25,6856.81 11233.32,6856.81 "/>
   <path class="fil5" d="M7498.53 0c2070.48,0 3945.26,839.32 5302.16,2196.37 1357.05,1356.9 2196.37,3231.68 2196.37,5302.16 0,2070.48 -839.32,3945.26 -2196.37,5302.16 -1356.9,1356.9 -3231.68,2196.37 -5302.16,2196.37 -2070.48,0 -3945.26,-839.47 -5302.16,-2196.37 -1356.9,-1356.9 -2196.37,-3231.68 -2196.37,-5302.16 0,-2070.48 839.47,-3945.26 2196.37,-5302.16 1356.9,-1357.05 3231.68,-2196.37 5302.16,-2196.37zm4940.88 2557.65c-1264.33,-1264.48 -3011.35,-2046.58 -4940.88,-2046.58 -1929.53,0 -3676.55,782.1 -4940.88,2046.58 -1264.34,1264.33 -2046.58,3011.35 -2046.58,4940.88 0,1929.53 782.24,3676.55 2046.58,4940.88 1264.33,1264.34 3011.35,2046.58 4940.88,2046.58 1929.53,0 3676.55,-782.24 4940.88,-2046.58 1264.48,-1264.33 2046.58,-3011.35 2046.58,-4940.88 0,-1929.53 -782.1,-3676.55 -2046.58,-4940.88z"/>
  </g>
 </g>
</svg>
