<?xml version="1.0" encoding="UTF-8"?>
<!DOCTYPE svg PUBLIC "-//W3C//DTD SVG 1.1//EN" "http://www.w3.org/Graphics/SVG/1.1/DTD/svg11.dtd">
<!-- Creator: CorelDRAW -->
<svg xmlns="http://www.w3.org/2000/svg" xml:space="preserve" width="21.712mm" height="21.9645mm" version="1.1" style="shape-rendering:geometricPrecision; text-rendering:geometricPrecision; image-rendering:optimizeQuality; fill-rule:evenodd; clip-rule:evenodd"
viewBox="0 0 172.92 174.93"
 xmlns:xlink="http://www.w3.org/1999/xlink"
 xmlns:xodm="http://www.corel.com/coreldraw/odm/2003">
 <defs>
  <style type="text/css">
   <![CDATA[
    .fil7 {fill:#FEFEFE;fill-rule:nonzero}
    .fil3 {fill:#2F8A3D;fill-rule:nonzero}
    .fil4 {fill:#4EA33B;fill-rule:nonzero}
    .fil5 {fill:#76B334;fill-rule:nonzero}
    .fil6 {fill:#A3C426;fill-rule:nonzero}
    .fil0 {fill:#FEFEFE;fill-opacity:0.431373}
    .fil1 {fill:#FEFEFE;fill-opacity:0.701961}
    .fil2 {fill:#FEFEFE;fill-opacity:0.788235}
   ]]>
  </style>
 </defs>
 <g id="Слой_x0020_1">
  <metadata id="CorelCorpID_0Corel-Layer"/>
  <polygon class="fil0" points="151.04,15.71 128.37,21.1 128.37,129.32 151.04,119.85 "/>
  <polygon class="fil1" points="128.37,11.65 105.71,17.05 105.71,125.26 128.37,115.8 "/>
  <polygon class="fil2" points="105.71,7.59 83.04,12.99 83.04,121.21 105.71,111.74 "/>
  <path class="fil3" d="M151.04 154.31c-9.64,6.8 -20.6,11.83 -32.43,14.64l-41.48 -11.51 0 -91.65 73.91 -50.08 0 138.6z"/>
  <path class="fil4" d="M128.38 166.08c-9.89,3.52 -20.53,5.45 -31.62,5.45 -2.45,0 -4.86,-0.12 -7.26,-0.3l-35.07 -9.74c-1.23,-0.62 -2.46,-1.27 -3.66,-1.94l0 -95.31 77.61 -52.58 0 154.43z"/>
  <path class="fil5" d="M24.4 62.68l81.3 -55.09 0 163.5c-2.95,0.28 -5.93,0.43 -8.95,0.43 -29.07,0 -55.05,-13.16 -72.35,-33.84l0 -75z"/>
  <path class="fil6" d="M83.04 170.52c-45.57,-6.64 -80.58,-45.87 -80.58,-93.28 0,-8.63 1.18,-16.98 3.35,-24.91l77.23 -52.32 0 170.52z"/>
  <path class="fil7" d="M15.6 29.2c0,0 -0.62,0.94 -1.79,2.69 -1.1,1.8 -2.76,4.44 -4.5,8 -1.75,3.55 -3.67,8 -5.28,13.33 -1.65,5.31 -3.01,11.49 -3.62,18.36 -0.17,1.72 -0.27,3.47 -0.35,5.27l-0.02 0.34 -0.01 0.39 -0 0.66c-0,0.44 -0.01,0.89 -0.01,1.33 -0.01,0.89 -0.02,1.79 -0.02,2.7 0.09,1.88 0.13,3.82 0.32,5.75 0.21,1.92 0.34,3.87 0.69,5.83 0.15,0.98 0.3,1.97 0.46,2.97 0.2,0.99 0.4,1.98 0.61,2.99 0.37,2.01 0.96,4 1.46,6.03 1.17,4.02 2.57,8.08 4.37,12.06 0.82,2.02 1.88,3.96 2.84,5.95 1.1,1.93 2.11,3.92 3.33,5.81 2.31,3.86 5.01,7.54 7.96,11.06 5.88,7.07 12.93,13.34 20.71,18.51 3.88,2.61 8.02,4.81 12.21,6.83 4.2,2.01 8.58,3.57 12.96,4.94 8.81,2.61 17.84,3.92 26.56,3.94 8.62,0.06 17.16,-1.11 24.81,-3.14 1.93,-0.48 3.79,-1.12 5.64,-1.67 1.84,-0.59 3.6,-1.3 5.35,-1.96 1.74,-0.68 3.38,-1.5 5.03,-2.22 1.64,-0.73 3.17,-1.63 4.7,-2.41 6.06,-3.29 11.17,-7.02 15.42,-10.6 1.04,-0.92 2.05,-1.81 3.02,-2.67 0.98,-0.84 1.82,-1.78 2.67,-2.62 1.72,-1.67 3.14,-3.36 4.45,-4.84 0.33,-0.37 0.64,-0.73 0.95,-1.09 0.29,-0.37 0.57,-0.73 0.84,-1.07 0.54,-0.7 1.04,-1.35 1.51,-1.96 0.96,-1.2 1.67,-2.29 2.27,-3.17 1.17,-1.75 1.8,-2.69 1.8,-2.69 0,0 -0.75,0.84 -2.15,2.41 -0.7,0.79 -1.54,1.77 -2.63,2.83 -0.53,0.54 -1.11,1.12 -1.72,1.74 -0.3,0.31 -0.62,0.63 -0.94,0.96 -0.34,0.31 -0.69,0.63 -1.05,0.96 -1.44,1.31 -3,2.8 -4.85,4.24 -0.92,0.72 -1.82,1.54 -2.84,2.28 -1.01,0.75 -2.06,1.52 -3.15,2.32 -4.43,3.07 -9.64,6.19 -15.61,8.95 -5.98,2.74 -12.73,5.04 -20.04,6.59 -7.35,1.54 -15.1,2.18 -23.31,1.89 -4.05,-0.12 -8.15,-0.62 -12.26,-1.28 -2.04,-0.4 -4.11,-0.76 -6.14,-1.3 -2.06,-0.44 -4.07,-1.09 -6.1,-1.67 -4.03,-1.32 -8.02,-2.85 -11.89,-4.7 -3.85,-1.88 -7.64,-3.93 -11.21,-6.34 -7.19,-4.72 -13.7,-10.48 -19.25,-16.89 -2.75,-3.22 -5.34,-6.55 -7.6,-10.05 -1.19,-1.71 -2.18,-3.53 -3.25,-5.29 -0.94,-1.83 -1.98,-3.59 -2.8,-5.45 -1.81,-3.63 -3.16,-7.39 -4.47,-11.08 -0.56,-1.87 -1.22,-3.7 -1.65,-5.57 -0.24,-0.93 -0.48,-1.85 -0.72,-2.77 -0.19,-0.93 -0.38,-1.85 -0.57,-2.76 -0.42,-1.82 -0.63,-3.66 -0.93,-5.45 -0.27,-1.8 -0.38,-3.54 -0.6,-5.28 -0.06,-0.9 -0.11,-1.8 -0.17,-2.69 -0.03,-0.45 -0.05,-0.89 -0.08,-1.33l-0.04 -0.66 -0.02 -0.27 -0.01 -0.32c-0.04,-1.71 -0.07,-3.38 -0.02,-5.03 0.08,-3.29 0.31,-6.44 0.67,-9.43 0.35,-2.99 0.8,-5.82 1.37,-8.45 1.13,-5.27 2.48,-9.8 3.82,-13.46 1.35,-3.66 2.59,-6.48 3.47,-8.39 0.92,-1.9 1.4,-2.91 1.4,-2.91z"/>
 </g>
</svg>
