<?xml version="1.0" encoding="UTF-8"?>
<!DOCTYPE svg PUBLIC "-//W3C//DTD SVG 1.1//EN" "http://www.w3.org/Graphics/SVG/1.1/DTD/svg11.dtd">
<!-- Creator: CorelDRAW -->
<svg xmlns="http://www.w3.org/2000/svg" xml:space="preserve" width="275.688mm" height="45.193mm" version="1.1" style="shape-rendering:geometricPrecision; text-rendering:geometricPrecision; image-rendering:optimizeQuality; fill-rule:evenodd; clip-rule:evenodd"
viewBox="0 0 27567.74 4519.13"
 xmlns:xlink="http://www.w3.org/1999/xlink"
 xmlns:xodm="http://www.corel.com/coreldraw/odm/2003">
 <defs>
  <style type="text/css">
   <![CDATA[
    .fil1 {fill:#000066}
    .fil0 {fill:#000066;fill-rule:nonzero}
   ]]>
  </style>
 </defs>
 <g id="Слой_x0020_1">
  <metadata id="CorelCorpID_0Corel-Layer"/>
  <g id="_2064019305904">
   <path class="fil0" d="M17265.43 3465.85c-133.5,0 -261.43,-21.39 -383.81,-64.18 -122.37,-42.79 -216.92,-99.27 -283.68,-169.43l74.46 -146.33c65.04,65.04 151.46,117.67 259.29,157.88 107.83,40.22 219.07,60.33 333.74,60.33 160.88,0 281.54,-29.52 361.98,-88.57 80.45,-59.05 120.67,-135.63 120.67,-229.77 0,-71.88 -21.82,-129.22 -65.47,-172 -43.64,-42.79 -97.13,-75.73 -160.45,-98.84 -63.32,-23.11 -151.46,-48.35 -264.42,-75.74 -135.2,-34.23 -243.03,-67.17 -323.48,-98.84 -80.44,-31.66 -149.32,-80.01 -206.66,-145.04 -57.33,-65.04 -86,-153.18 -86,-264.43 0,-90.71 23.96,-173.28 71.88,-247.74 47.93,-74.45 121.52,-133.91 220.78,-178.41 99.27,-44.5 222.5,-66.76 369.69,-66.76 102.69,0 203.24,14.13 301.65,42.37 98.42,28.24 183.56,67.17 255.44,116.81l-64.18 151.46c-75.31,-49.63 -155.74,-86.86 -241.32,-111.68 -85.58,-24.81 -169.44,-37.22 -251.59,-37.22 -157.45,0 -275.98,30.38 -355.56,91.14 -79.59,60.76 -119.39,139.05 -119.39,234.9 0,71.88 21.83,129.65 65.47,173.28 43.65,43.65 98.42,77.02 164.3,100.13 65.9,23.1 154.46,48.35 265.71,75.73 131.79,32.52 238.32,64.62 319.62,96.28 81.3,31.66 150.18,79.59 206.66,143.76 56.48,64.18 84.72,151.03 84.72,260.57 0,90.72 -24.39,173.29 -73.17,247.74 -48.77,74.45 -123.66,133.5 -224.63,177.14 -100.98,43.64 -225.06,65.46 -372.25,65.46z"/>
   <polygon id="_1" class="fil0" points="19619.59,3286.15 19619.59,3450.45 18348.81,3450.45 18348.81,1653.39 19581.08,1653.39 19581.08,1817.69 18538.79,1817.69 18538.79,2456.93 19468.12,2456.93 19468.12,2618.67 18538.79,2618.67 18538.79,3286.15 "/>
   <path id="_2" class="fil0" d="M21293.42 3450.45l-410.75 -577.63c-46.22,5.14 -94.14,7.7 -143.76,7.7l-482.64 0 0 569.93 -189.97 0 0 -1797.06 672.61 0c229.33,0 409.04,54.77 539.12,164.3 130.07,109.54 195.1,260.14 195.1,451.83 0,140.34 -35.51,258.86 -106.54,355.56 -71.03,96.71 -172.43,166.44 -304.22,209.23l438.99 616.14 -207.94 0zm-559.66 -731.66c177.99,0 314.06,-39.36 408.19,-118.1 94.13,-78.73 141.19,-189.11 141.19,-331.17 0,-145.47 -47.07,-257.15 -141.19,-335.03 -94.14,-77.87 -230.2,-116.81 -408.19,-116.81l-477.5 0 0 901.1 477.5 0z"/>
   <polygon id="_3" class="fil0" points="23416.53,1653.39 22620.68,3450.45 22433.27,3450.45 21637.43,1653.39 21842.81,1653.39 22530.83,3214.27 23223.98,1653.39 "/>
   <polygon id="_4" class="fil0" points="23675.83,1653.39 23865.8,1653.39 23865.8,3450.45 23675.83,3450.45 "/>
   <path id="_5" class="fil0" d="M25231.56 3465.85c-177.99,0 -338.45,-39.36 -481.35,-118.09 -142.91,-78.73 -255.01,-187.84 -336.31,-327.33 -81.3,-139.48 -121.95,-295.66 -121.95,-468.52 0,-172.85 40.65,-329.03 121.95,-468.51 81.3,-139.48 193.82,-248.6 337.59,-327.33 143.76,-78.73 304.65,-118.1 482.64,-118.1 133.5,0 256.72,22.26 369.69,66.76 112.96,44.5 208.8,109.53 287.53,195.1l-120.67 120.67c-140.33,-142.05 -317.48,-213.08 -531.41,-213.08 -142.05,0 -271.28,32.52 -387.66,97.56 -116.39,65.04 -207.52,154.03 -273.41,266.99 -65.9,112.96 -98.84,239.61 -98.84,379.95 0,140.34 32.94,267 98.84,379.96 65.89,112.96 157.02,201.95 273.41,266.99 116.38,65.04 245.6,97.56 387.66,97.56 215.64,0 392.79,-71.89 531.41,-215.65l120.67 120.67c-78.73,85.58 -175,151.03 -288.82,196.39 -113.82,45.36 -237.46,68.03 -370.97,68.03z"/>
   <polygon id="_6" class="fil0" points="27567.74,3286.15 27567.74,3450.45 26296.97,3450.45 26296.97,1653.39 27529.23,1653.39 27529.23,1817.69 26486.94,1817.69 26486.94,2456.93 27416.28,2456.93 27416.28,2618.67 26486.94,2618.67 26486.94,3286.15 "/>
   <polygon class="fil0" points="1897.19,1653.39 1114.18,3450.45 785.58,3450.45 -0,1653.39 361.99,1653.39 960.14,3039.7 1563.45,1653.39 "/>
   <polygon id="_1_0" class="fil0" points="3434.96,3170.62 3434.96,3450.45 2087.16,3450.45 2087.16,1653.39 3399.01,1653.39 3399.01,1933.22 2420.9,1933.22 2420.9,2400.45 3288.63,2400.45 3288.63,2675.15 2420.9,2675.15 2420.9,3170.62 "/>
   <polygon id="_2_1" class="fil0" points="5404.03,1653.39 5404.03,3450.45 5070.29,3450.45 5070.29,2680.28 4140.95,2680.28 4140.95,3450.45 3807.21,3450.45 3807.21,1653.39 4140.95,1653.39 4140.95,2395.32 5070.29,2395.32 5070.29,1653.39 "/>
   <polygon id="_3_2" class="fil0" points="5886.67,1653.39 6220.41,1653.39 6220.41,3450.45 5886.67,3450.45 "/>
   <path id="_4_3" class="fil0" d="M7537.4 3476.12c-181.41,0 -345.29,-39.79 -491.62,-119.38 -146.33,-79.58 -261,-189.54 -344.01,-329.89 -83.01,-140.34 -124.52,-298.66 -124.52,-474.94 0,-176.28 41.94,-334.59 125.8,-474.93 83.87,-140.34 198.96,-250.31 345.3,-329.89 146.33,-79.59 310.21,-119.38 491.62,-119.38 147.18,0 281.54,25.67 403.05,77.02 121.52,51.34 224.21,125.79 308.07,223.34l-215.64 202.81c-130.08,-140.34 -290.1,-210.51 -480.07,-210.51 -123.24,0 -233.62,26.96 -331.18,80.87 -97.56,53.92 -173.71,128.8 -228.48,224.63 -54.77,95.85 -82.16,204.52 -82.16,326.04 0,121.52 27.39,230.2 82.16,326.05 54.77,95.84 130.93,170.71 228.48,224.63 97.56,53.91 207.94,80.87 331.18,80.87 189.97,0 350,-71.03 480.07,-213.08l215.64 205.38c-83.86,97.55 -186.98,172 -309.35,223.34 -122.38,51.35 -257.15,77.02 -404.34,77.02z"/>
   <polygon id="_5_4" class="fil0" points="8572,1653.39 8905.74,1653.39 8905.74,3168.05 9845.34,3168.05 9845.34,3450.45 8572,3450.45 "/>
   <polygon id="_6_5" class="fil0" points="11457.57,3170.62 11457.57,3450.45 10109.77,3450.45 10109.77,1653.39 11421.62,1653.39 11421.62,1933.22 10443.51,1933.22 10443.51,2400.45 11311.24,2400.45 11311.24,2675.15 10443.51,2675.15 10443.51,3170.62 "/>
   <path class="fil1" d="M15476.07 2250.9c0,104.3 -9.4,199.99 -29.25,299.24 -19.85,99.24 -50.74,196 -91.2,288.43 -20,45.67 -42.67,90.5 -67.04,134.05 -31.46,56.25 -67.73,109.95 -106.34,161.47 -3.12,4.16 -6.27,8.04 -9.41,12.26 -9.6,12.88 -20.21,24.83 -30.08,37.53 -3.31,4.25 -6.75,7.68 -9.92,11.75 -10.52,13.55 -24.49,28.77 -36.63,41.37l-16.11 17.7c-7,8.77 -17.1,16.66 -24.71,25.56 -5.95,6.95 -33.33,31.77 -42.8,41.28l-47.3 41.98c-31.14,26.17 -66.93,55.42 -100.44,78.11 -9,6.1 -17.02,11.91 -26.18,18.02l-40.4 26.34c-13.79,9.18 -27.61,16.94 -42.1,25.51 -56.48,33.41 -117.61,63.87 -179.28,88.54 -10.75,4.3 -20.93,8.76 -31.6,12.61 -10.79,3.89 -21.74,8.45 -32.92,12.14 -49.18,16.28 -84.97,28.04 -137.4,41.15 -61.68,15.41 -125.24,27.17 -189.39,33.36l-83.26 6.88c-8.02,0.24 -14.31,0.88 -21.69,0.85l-16 0.22c-10.76,1.16 -63.78,1.51 -72.1,0.23 -0.81,-0.13 -1.64,-0.27 -3,-0.36 -8.13,-0.58 -17.83,-0.01 -25.18,-0.84l-63.88 -3.72 -148.22 -20.79c-9.2,-1.53 -19.35,-3.88 -28.07,-5.73 -27.78,-5.93 -54.16,-12.94 -81.61,-19.81 -9.29,-2.32 -17.12,-4.96 -26.22,-7.58l-38.32 -11.95c-38.9,-13.01 -73.76,-26.34 -111.8,-41.62l-58.21 -25.86c-18.9,-9.31 -38.2,-18.03 -56.61,-28.34l-53.96 -30.11c-49.18,-28.91 -97.35,-60.26 -142.52,-94.97l-47.43 -37.5c-3.06,-2.73 -5.88,-4.92 -9.02,-7.46l-31.74 -27.2c-1.72,-1.6 -2.59,-2.8 -4.41,-4.25l-13.37 -11.78c-17.8,-17.14 -55.61,-51.44 -68.11,-67.1 -3.77,-4.73 -8.82,-8.65 -12.92,-13.08l-27.73 -31.2c-1.64,-1.85 -2.55,-2.38 -4.18,-4.49l-31.35 -37.13c-2.7,-3.04 -4.76,-5.95 -7.35,-9.11l-11.06 -14.08c-28.55,-37.36 -47.66,-64.26 -74.03,-103.66 -2.51,-3.75 -4.58,-6.59 -6.87,-10.47 -18.19,-30.8 -32.36,-51.58 -50.57,-85.5 -9.99,-18.61 -26.41,-48.48 -34.34,-67.08 -5.03,-11.76 -11.29,-23.23 -16.1,-35.04 -1.69,-4.16 -3.55,-8.04 -5.3,-12.04 -69.42,-158.56 -119.64,-362.93 -119.64,-557.28l-0.03 -65.91c0.12,-9.39 1.8,-22.59 1.8,-32 -0.04,-38.25 10.13,-115.24 15.94,-153.07 3.05,-19.88 6.56,-38.06 10.39,-57.21 10.92,-54.57 24.54,-108.93 42.22,-161.46l26.66 -74.76c2.94,-8.17 6.46,-16.18 9.64,-24.17l25.42 -58.65c13.19,-28.44 26.35,-52.34 39.58,-79.16 12.51,-25.37 34.95,-61.75 50.11,-85.98l33.44 -50.63c18.06,-27.17 79.43,-107.74 99.98,-128.84l72.56 -77.4c0.12,-0.13 0.29,-0.32 0.41,-0.45l5.92 -5.35c5.88,-5.55 11.18,-11.13 16.89,-16.91 3.1,-3.13 5.53,-4.6 8.68,-7.79l17.61 -16.19c3.5,-2.7 5.51,-5.25 9.17,-8.17 1.66,-1.33 2.41,-2.31 3.97,-3.83l98.43 -79.26c42.44,-31.94 87.4,-59.79 132.85,-87.31l66.21 -36.06c14.19,-8.25 30.22,-15.78 45.36,-22.25l46.58 -21.03c80.03,-35.09 170.56,-63.71 256.74,-82.15 64.52,-13.8 140.38,-26.52 206.93,-29.69l15.48 -0.99c4.54,-0.5 11.36,-0.29 16.36,-0.97 14.03,-1.92 50.04,-0.91 64.66,-1.92 7.99,-0.56 24.27,0.55 49.99,0.41l56.29 2.66c138.19,11.23 245.75,32.87 374.15,75.69 66.98,22.33 138.32,53.27 200.82,86.93 21.91,11.79 43.74,23.45 65.1,36.31 28.01,16.86 55.28,34.62 82.49,52.73 23.05,15.34 47.04,32.63 68.55,50.19 15.57,12.72 31.85,24.74 46.85,38.09l45.08 39.87c1.41,1.43 2.41,2.58 3.94,3.86 16.1,13.46 40.64,39.12 55.87,54.21l28.56 30.38c8.99,10.75 19.42,20.66 27.99,31.81 1.46,1.9 2.06,2.33 3.67,4.13l11.81 14.2c15.13,18.68 30.56,37.18 44.95,56.46l25.22 34.59c19.43,28.69 38.98,57.24 56.88,87 17.12,28.48 33.26,56.4 48.44,86.78 1.98,3.97 3.85,6.77 5.79,10.67 1.91,3.86 3.87,7.44 5.78,11.56l31.78 69.62c7.07,15.88 13.2,31.87 19.64,47.97 6.46,16.11 12.68,33.24 18.32,50.16 11.14,33.45 22.48,67.61 31.43,103.78 14.41,58.21 25.1,109.63 33.85,169.84 3.08,21.24 4.32,42.35 6.91,60.69 2.41,16.98 3.06,37.72 3.97,54.97 0.2,3.81 0.77,3.63 0.9,7.77 0.67,22.47 1.7,43.62 1.7,66.77zm-1900.74 -1733.46c-4.47,0.37 -11.47,2.69 -15.96,3.97l-78.41 23c-30.56,9.33 -61.03,20.08 -90.75,31.46 -19.53,7.49 -39.11,14.85 -58.14,23.34l-42.27 18.41c-3.22,1.33 -4.2,1.84 -7.13,3.26l-20.83 9.52c-2.62,1.31 -4.25,2.21 -6.91,3.49 -18.21,8.74 -36.76,17.23 -54.62,26.85l-72.18 39.63c-2.06,1.18 -4.12,2.54 -6.48,3.92 -2.7,1.59 -4.21,2.25 -6.57,3.84l-365.54 -365.98 -639.22 638.78 365.76 366.2c-7.73,11.89 -14.26,25.58 -21.62,37.75l-61.96 121.79c-1.28,2.55 -1.82,4.26 -2.89,6.65l-15.83 35.31c-29.26,68.29 -47.84,122.7 -70.73,194.48 -2.6,8.17 -16.71,55.3 -17.44,64.04l-517.43 0 0 904 517.43 0c0.1,4.58 2.61,11.28 3.81,16.13 6.57,26.55 15.05,52.64 22.95,78.46 3.17,10.34 6.7,20.08 10.19,30.55 22.41,67.23 50.71,138.59 82.38,201.91l63.27 119.61c2.48,4.67 6.05,8.53 7.22,13.58 -4.86,7.27 -290.48,290.25 -319.61,320.04l-36.7 36.97c-3.28,3.13 -6.42,5.54 -8.58,9.62l139.53 139.54c14.49,14.5 29.73,28.8 43.82,43.73l0.83 0.9c17.97,18.87 36.64,36.67 55.03,55.05 26.78,26.76 53.2,53.2 80.17,80.18l59.82 59.79c3.58,3.58 6.6,6.61 9.96,9.98 1.63,1.62 2.91,2.95 4.77,4.77l95.72 95.83c36.49,34.93 72.98,72.87 108.83,108.73l35.11 35.1c1.72,1.72 3.44,3.52 5.2,5.2l366.41 -365.98c20.39,13.99 56.66,31.91 78.81,43.84 2.58,1.38 3.31,2.09 6.05,3.48l20.82 10.39c64.83,32.42 131.27,60.96 199.52,85.63 30.06,10.86 61.65,20.39 92.09,30.12l47.39 13.29c3.2,0.87 14.91,2.59 14.91,5.88l0 515.71 904.01 0 0 -517.44c40.14,-9.35 85.63,-24.11 124.92,-37.16 39.78,-13.21 79.55,-28.65 118.14,-44.81l56.59 -24.89c32.65,-13.96 63.24,-31.42 95.02,-47.13 2.88,-1.43 4.33,-2.36 6.68,-3.72l19.62 -10.72c4.83,-2.68 8.89,-4.93 13.32,-7.48 4.32,-2.48 8.21,-4.74 12.69,-7.24 4.69,-2.63 8.79,-5.17 13.27,-7.54l365.98 365.55 639.65 -639.22 -366.2 -365.76 29.4 -51.64c1.31,-2.43 1.86,-3.94 3.17,-6.37 1.46,-2.69 2.33,-3.73 3.77,-6.63 2.54,-5.07 4.91,-8.92 7.22,-13.58 23.97,-48.33 44.08,-87.2 65.12,-138.56 3.83,-9.38 8.08,-19.31 11.89,-28.84 3.94,-9.87 7.52,-19.52 11.39,-29.35 19.32,-48.96 46.92,-133.86 58.95,-185.48l517.43 0 0 -904 -515.7 0c-3.91,0 -4.61,-10.99 -5.57,-14.37 -1.64,-5.77 -2.86,-10.53 -4.53,-16.27 -3.2,-10.98 -5.7,-21.07 -9.08,-31.66 -3.23,-10.11 -6.07,-20.9 -9.53,-31.2 -3.36,-9.98 -6.86,-20.58 -10.19,-30.56 -10.08,-30.27 -20.94,-59.8 -32.79,-89.41 -22.8,-56.95 -48.02,-113.31 -77.11,-167.31 -4.97,-9.23 -9.08,-17.91 -14.11,-26.63 -9.88,-17.08 -18.48,-35.49 -29.51,-51.96 4.1,-6.14 313.28,-313.72 354.71,-355.15 2.09,-2.09 3.54,-3.55 5.63,-5.63 2.2,-2.19 4.56,-3.51 5.42,-6.72 -3,-1.09 -0.33,0.28 -2.63,-1.71l-45.05 -45.09c-0.56,-0.57 -0.48,-0.48 -1.29,-1.31l-5.86 -6.27c-1.79,-1.91 -3.29,-3.42 -5.2,-5.2 -0.89,-0.84 -1.57,-1.36 -2.29,-2.05l-7.67 -7.93c-0.95,-0.92 -1.3,-1.15 -2.28,-2.06l-30.79 -30.75c-0.12,-0.13 -0.29,-0.32 -0.41,-0.45 -18.02,-19.49 -37.46,-37.67 -56.23,-56.45l-468.9 -468.9c-2.91,-2.91 -7.11,-8.69 -11.05,-9.75l-365.55 365.12c-3.21,-0.92 -10.34,-5.5 -13.16,-7.2l-38.78 -21.9c-39.72,-22.2 -81.23,-40.87 -122.19,-60.7 -4.99,-2.41 -9.46,-3.94 -14.46,-6.34 -38.81,-18.65 -107.19,-43.78 -146.07,-56.74l-93.35 -28.87c-6.73,-1.92 -25.81,-8.14 -32.44,-8.29l0 -517.44 -904.01 0 0 517.44z"/>
   <path class="fil1" d="M14126.58 1901.61c0,12.3 -1.84,32.86 -3.68,43.06l-2.3 17.64c-3.76,21.27 -9.26,41.87 -16.65,62.28 -5.21,14.38 -10.95,28.16 -17.82,42 -1.7,3.44 -2.73,4.72 -4.45,7.68l-13.04 23.36c-3.49,5.04 -6.6,9.24 -9.67,14.61 -0.46,0.81 -0.28,0.61 -0.98,1.61l-13.37 17.7c-0.05,0.09 -0.15,0.32 -0.2,0.41 -0.89,1.48 -1.23,1.74 -2.43,3.12l-43.97 45.35c-0.13,0.12 -0.34,0.28 -0.47,0.4l-6.48 5.65c-0.31,0.24 -1.47,1.1 -1.49,1.11 -0.15,0.11 -0.36,0.25 -0.51,0.36l-1 0.73c-0.15,0.11 -0.36,0.26 -0.5,0.37 -0.01,0 -1.35,1.13 -1.41,1.19l-1.35 1.25c-0.13,0.12 -0.32,0.3 -0.45,0.42 -1.89,1.65 -4.73,3.88 -6.8,5.34l-45.21 29.33c-9.95,6.05 -21.13,11.2 -31.88,15.78l-4.3 1.78c-19.8,8.5 -41.5,14.94 -62.48,19.52 0,0 -1.07,0.28 -1.43,0.37l-29.94 5.34c-1.56,0.19 -1.81,0.18 -4.22,0.59 -22.92,3.87 -63.35,5.25 -85.6,2.38l-16.95 -1.98c-60.92,-7.59 -120.86,-34.09 -166.39,-74.7l-12.17 -10.37c-2.43,-2.04 -3.26,-2.43 -5.6,-4.79l-27.69 -27.79c-2.07,-2.48 -2.4,-3.22 -4.81,-5.59 -10.21,-10.04 -20.85,-24.68 -29.63,-36.24 -9.66,-12.74 -18.65,-26.49 -25.92,-40.82 -23.51,-46.31 -37.84,-94.06 -37.84,-149.37 0,-38.55 1.9,-66.62 10.06,-102.63 4.1,-18.06 9.2,-35.55 16.52,-51.95 15.34,-34.39 18.9,-41.92 40.34,-74.08 6.14,-9.21 13.09,-17.28 20.03,-25.9 13.51,-16.77 29.06,-31.73 45.79,-45.22 2.24,-1.79 3.66,-3.26 6.07,-5.2 2.13,-1.73 3.89,-3.28 6.14,-5.13 4.59,-3.75 8.65,-6.4 13.43,-9.97 13.37,-10.02 28.32,-17.51 42.67,-25.8 5.16,-2.98 9.99,-5.2 15.66,-7.75 32.25,-14.49 69.5,-25.89 105.88,-31.07 10.46,-1.49 19.95,-2.73 31.09,-2.73 2.05,0 3.58,-0.03 5.55,-0.24 10.64,-1.15 13.23,0.15 22.09,0.24 3.77,0.04 7.6,-0.1 11.36,-0.05 4.73,0.06 5.53,0.78 10.37,0.9 16.49,0.41 35.37,4.08 50.97,7.97 46.29,11.52 89.6,29.61 128.45,57.03 9.14,6.45 17.52,13.27 26.49,20.32 16.69,13.11 43.75,40.8 56.54,59.6 14.5,21.29 23.89,32.9 36.16,57.45 10.9,21.8 18.82,43.35 25.87,66.88 4.98,16.61 14.77,71.58 13.05,87.36 -0.46,4.19 0.51,6.31 0.51,10.9zm-692.52 437.69l0.8 -0.87c1.63,-2.57 4.02,-4.54 6.11,-6.93 0.46,-0.53 0.75,-0.97 1.71,-1.77 1.32,-1.11 0.97,-0.63 2.07,-1.44l3.18 -2.88c36.99,23.32 39.89,26.68 81.22,47.09 14.93,7.37 5.43,2.38 10.44,7.54 11.59,5.33 29.04,10.86 39.35,15.47 4.4,1.97 9.52,2.33 13.74,4.53 3.64,0.51 4.91,1.61 7.35,2.12 3.14,0.66 1.89,-0.59 6.22,0.63 4.59,1.3 9.35,2.92 14,4.25 9.16,2.64 18.93,5.42 28.81,7.65 41.38,9.35 85.9,14.77 129.06,12.92 9.23,-0.4 21.78,-1.35 32.14,-2.34 10.48,-1.01 21.77,-3.67 32.05,-3.99 2.81,-1.03 8.97,-1.72 12.66,-2.57l64.11 -17.37c29.39,-11.38 38.12,-14.18 68.55,-29.39 14.96,-7.48 28.24,-15.17 42.27,-23.6l19.6 -12.48c7.17,-4.27 41.19,-28.99 47.42,-34.92l8.67 -7.8c1.87,-1.64 2.46,-1.7 4.34,-3.46 15.1,-14.13 16.47,-13.38 32.93,-32.07l12.14 -13.01c1.71,-1.82 1.87,-2.47 3.48,-4.31 1.63,-1.88 2.34,-2.85 3.93,-4.74 1.58,-1.88 1.95,-2.13 3.57,-4.23l2.37 -2.84c0.13,-0.14 0.3,-0.33 0.42,-0.46l1.31 -1.41c1.73,-3.9 8.82,-12.2 11.93,-16.51 3.99,-5.54 7.24,-10.35 11.27,-16.45l21.73 -34.91c0.25,-2.63 4.34,-9.27 5.78,-12.16 15.62,-31.24 26.04,-58.09 36.13,-93.02 12.25,-42.41 14.41,-66.35 20.77,-108.37 0.57,-3.76 1.46,-12.87 1.46,-17.34l-0.41 -1.37c-1.11,-5.43 0.47,4.83 -0.27,-1.51l-0.12 -44.2c0.02,-9.05 -4.62,-36.38 -3.26,-39.87 -1.74,-4.57 -2.33,-13.75 -3.23,-19.57 -1.05,-6.73 -1.83,-13.48 -3.03,-19.5 -4.99,-24.89 -7.34,-31.91 -13.26,-55.22 -5.73,-22.6 -15.62,-45.78 -24.95,-66.93 -1.72,-3.88 -0.68,-3.04 -3.42,-7.84l-32.83 -59.05 -23.56 -34.3c-9.73,-0.75 -8.55,-0.4 -13.54,-6.66l-28.38 -31.39c-9.71,-10.11 -20.62,-19.54 -30.75,-29.07 -3.02,-2.85 -8.32,-6.4 -10.57,-9.33 2.03,0.01 4.05,0.06 6.08,-0.08 4.63,-0.3 2.69,1.62 3.4,-0.65 0.06,-0.17 0.3,-0.11 0.44,-0.18l-13.55 -12.13 -17.64 -14.24c-1.82,-1.37 -2.78,-2 -4.51,-3.29 -0.21,-0.15 -0.78,-0.59 -0.98,-0.75l-8.09 -5.78c-10.31,-8.45 -22.64,-15.49 -34.15,-22.19l-30.78 -16.9c-22.03,-11.51 -44.74,-20.04 -68.23,-27.97 -24.57,-8.29 -49.61,-14.1 -75.26,-18.26l-50.87 -8.13c-5.36,-0.88 -8.46,-1.51 -13.36,-2.36 -3.68,-0.64 -7.03,-0.18 -9.49,-0.18 -11.18,0 -23.09,0 -33.8,0.01 -23.45,0 -18.91,0.87 -41.67,4.04 -9.25,1.29 -18.13,2.96 -27.75,4.32l-13.52 2.08c-41.97,7.54 -84.09,18.67 -122.4,37.09l-42.08 21.2c-3.53,2.29 -6.75,3.7 -10.4,6.07l-29.14 18.52c-1.97,1.27 -2.64,2.09 -4.36,3.44l-13.87 10.41c-2,1.49 -2.6,1.28 -4.68,3.12l-22.12 18.61c-0.88,0.79 -1.19,0.97 -1.9,1.57l-4.69 3.98c-0.13,0.12 -0.3,0.31 -0.43,0.43l-13.76 13.12c-1.46,1.52 -2.41,2.39 -3.9,3.89l-23.51 24.16c-0.61,0.66 -1.02,1.25 -1.57,1.91l-40.58 51.29c-10.68,16.12 -21.56,32.09 -30.46,49.28 -5.37,10.37 -11.3,21.05 -15.86,31.82l-9.41 22.65c-4.56,11.75 -9.34,22.91 -12.4,35.27l-7.12 24.95c-1.2,4.9 -1.97,8.34 -3.18,13.37 -0.75,3.15 -0.75,3.01 -1.07,5.18l-3.75 20.26c-1.22,9.14 -3.64,17.95 -4.53,26.81l-4.47 79.17c0.3,3.46 -0.3,11.11 0.11,13.94l3.07 35.9c0.2,2.29 0.26,2.56 0.31,4.48l7.09 42.82c0.51,2.64 0.62,4.72 0.82,5.66l8.42 31.85c0.7,2.48 1.04,3.46 1.75,6.11 3.62,13.48 9.22,26.73 13.67,40.01 4.89,14.6 13.19,30.35 19.84,44.3l11.27 20.8c1.7,3.59 3.64,6.21 5.67,9.93l12.18 19.88c3.05,4.26 4.74,8.44 8.11,12.69 0.12,0.14 0.29,0.33 0.4,0.47l4.39 6.01c2.38,3.59 4.19,6.73 6.42,10.06 -2.07,1.51 -2.07,2.59 -4.7,4.84l-9.44 9.62c-1.83,1.7 -1.05,0.54 -2.78,2.42l-17.11 17.56c-1.78,1.91 -3.3,3.42 -5.2,5.21l-9.52 9.54c-7.3,7.63 -25.57,26.63 -30.13,29.68 -7.7,-4.07 -13.74,-7.96 -23.38,-10.42 -23.87,-6.08 -38.59,-9.73 -62.27,0.18l-5.6 3.07c-2.18,1.47 -3.28,1.8 -5.45,3.22l-14.5 11.5c-2.07,1.73 -2.71,1.9 -4.75,3.92l-132.72 132.5c-24.36,25.45 -53.52,53.96 -78.74,79.02l-2.69 2.51c-15.84,14.36 -38.54,39.8 -55.94,55.87l-2.13 2.2c-8.49,9.36 -18.22,17.73 -26.92,26.82l-13.87 13.87c-0.12,0.13 -0.29,0.32 -0.41,0.45l-10.73 10.95c-14.9,14.9 -28.65,30.29 -35,50.8 -5.18,16.75 -2.47,27.56 2.03,43.28 6.38,22.34 40.44,51.63 55.07,66.27l51.58 51.57c3.09,3.09 5.54,5.63 8.66,8.68l11.19 10.47c19.96,18.03 45.97,24.75 73.04,16.97 9.27,-2.66 17.89,-3.61 26.81,-7.86 3.76,-1.8 7.92,-4.22 10.97,-6.37 1.56,-1.09 3.26,-2.38 4.92,-3.74 15.34,-12.49 129.8,-128.83 143.06,-142.09 19.06,-19.06 68.17,-65.45 77.97,-77.18 3.19,-3.82 4.79,-5.58 8.27,-9.06l86.25 -86.24c15.46,-15.47 39.45,-35.7 47.77,-56.24 10.57,-26.08 6.05,-43.04 -6.52,-67.8 -1.84,-3.62 -4.3,-7.88 -6.37,-10.96l67.61 -67.61z"/>
   <path class="fil1" d="M13673.28 2656.53c0,5.63 -0.89,5.59 -0.88,12.97l0 27.78c-0.03,5.81 0.88,7.93 0.88,12.99l-148.21 0 0 -88.41c5.18,0.43 10.79,4.04 18.09,6.17l13.48 3.11c10.87,2.48 28.27,5.18 40.23,6.06l64.86 7.64c2.98,0.03 5.92,0.37 9.82,1.28 2.41,5.01 1.19,5.4 1.63,9.8 0.01,0.12 0.11,0.4 0.11,0.61zm1339.1 -29.47l-0.27 7.93c-0.15,1.81 -0.05,-0.43 -0.08,1.75l0.08 6.91c-0.15,1.82 -0.05,-0.42 -0.08,1.76l0.08 6.91c-0.15,1.82 -0.05,-0.43 -0.08,1.75l0.08 6.92c-0.15,1.81 -0.05,-0.43 -0.08,1.75l0.08 6.91c-0.15,1.82 -0.05,-0.42 -0.08,1.76l0.08 6.91c-0.15,1.82 -0.05,-0.43 -0.08,1.76l0.08 6.91c-0.15,1.82 -0.05,-0.43 -0.08,1.75l0.08 6.92c-0.15,1.82 -0.05,-0.43 -0.08,1.75l0.35 12.86 -148.21 0 0 -62.41c0,-2.75 0.13,-2.05 3.89,-2.43 0.9,-0.09 1.86,-0.24 2.75,-0.39l15.49 -1.31c28.75,-3.78 89.03,-9.85 114.92,-19.17 1.89,-0.69 2.84,-1.07 4.37,-1.71 7.38,-3.09 6.33,-4.49 6.6,2.32l0.2 1.89zm-1329.57 -173.34c3.04,0.64 2.1,0.06 4.37,0.91 1.48,0.56 2.71,1.22 4.78,2.06l53.01 18.94c28.37,11.31 57.19,19.21 86.62,27.79 4.46,1.3 6.2,1.71 11.2,2.67 13.46,2.6 22.28,4.98 36.62,6.72 27.29,3.31 55.13,3.28 82.5,3.31 9.87,0.01 17.3,-0.87 27.74,-0.87l529.57 0c2.29,0 4.69,-0.06 6.97,0.04l38.07 0.86c3.9,-0.08 6.82,-0.9 12.16,-0.9 35.45,0 47.59,1.08 83.58,-3.96 34.79,-4.88 72.96,-15.81 105.74,-28.61 5.01,-1.95 9.47,-2.87 14.25,-4.82 9.16,-3.73 19.09,-5.91 28.16,-9.97l43.04 -15.04c-1.82,21.77 -14.97,45.52 -29.68,61.33l-11.3 11.24c-7.99,7.68 -16.44,14.01 -25.4,20.54 -14.39,10.49 -42.82,26.4 -60.13,30.87 -6.86,1.78 -13.72,0.95 -21.58,1.83 -3.62,0.4 -5.71,0.67 -10.56,0.71 -4.84,0.03 -5.5,0.89 -10.34,0.92l-22.33 1.07c-11.04,1.52 -79.67,4.47 -95.61,4.94 -10.08,0.3 -22.67,1.87 -32.91,1.76 -7.43,-0.08 -13.28,0.91 -21.68,0.86 -7.63,-0.05 -13.89,0.91 -22.53,0.87l-44.58 1.11c-10.54,1.2 -31.07,-0.73 -43.32,1.13 -20.4,3.09 -46.6,-1.41 -67.68,0.62 -4.9,0.47 -6.88,0.08 -12.62,0.5 -18.12,1.34 -69.13,0.11 -90.95,0.11l-198.5 -4.31c-5.04,0.02 -6.35,-0.67 -10.38,-0.89 -10.88,-0.59 -22.37,0.44 -33.44,-1.23 -7.37,-1.12 -15.43,0.2 -22.78,-0.63 -5.99,-0.67 -15.06,-0.81 -21.05,-1.48 -3.31,-0.37 -7.74,-0.12 -11.16,-0.1 -5.32,0.02 -6.71,-0.79 -11.22,-0.92l-64.17 -3.45c-6.46,-0.3 -14.9,-1.7 -21.67,-1.72 -28.07,-0.08 -44.82,-8.7 -68.98,-22.9 -5.05,-2.98 -9.07,-5.44 -13.89,-8.65 -4.97,-3.3 -8.93,-6.61 -13.34,-10.06l-17.99 -15.81 -15.95 -18.72c-8.4,-11.39 -15.48,-24.51 -18.58,-38.63 -0.68,-3.09 -1.11,-8 -2.09,-10.04zm401.11 -964.67l13.55 12.13c-0.14,0.07 -0.38,0.01 -0.44,0.18 -0.71,2.27 1.23,0.35 -3.4,0.65 -2.03,0.14 -4.05,0.09 -6.08,0.08 2.25,2.93 7.55,6.48 10.57,9.33 10.13,9.53 21.04,18.96 30.75,29.07l28.38 31.39c4.99,6.26 3.81,5.91 13.54,6.66l25.11 -1.1c9.96,0.02 19.09,-0.08 27.81,-0.8 22.3,-1.85 84.56,0.88 111.77,0.82 31.8,-0.08 77.09,3.48 109.21,3.47 10.16,-0.01 17.03,0.91 26.88,0.85l27.22 1.38c7.1,1.07 19.14,0.88 26.5,1.23 3.66,0.18 2.86,0.57 6.12,0.82 15.74,1.23 45.01,2.12 60,4.15l26.64 1.96c14.62,0.7 50.19,2.11 62.4,7.8 20.36,9.5 46.44,53.35 56.05,71.37 10.4,19.52 13.94,26.53 23.39,47.68 2.94,6.59 5.44,13.41 7.97,19.76 2.81,7.03 5.33,13.31 8.18,20.43l30.95 82.59 -531.9 0c-1.36,3.49 3.28,30.82 3.26,39.87l0.12 44.2c0.74,6.34 -0.84,-3.92 0.27,1.51l0.41 1.37c10.72,-1.28 361.95,-0.27 371.83,-0.27 18.69,0 170.18,-1.14 184.71,0.77 7.42,0.98 6.45,2.48 10.55,11.99 9.95,23.06 17.32,37.92 39.49,54.12l39.63 30.57c28.19,22.14 81.75,64.05 86.86,98.64l-5.84 144.57c0,5.21 -0.88,6.28 -0.93,11.2l-8.01 130.68c-2.17,16.16 -3.42,48.33 -5.59,64.61l-3.85 42.09c-3.81,35.95 -30.82,35.42 -54.72,38.89l-41.35 5.46c0.67,-2.5 2.93,-4.78 4.46,-6.81l5.95 -7.92c0.1,-0.15 0.26,-0.35 0.36,-0.5l16.38 -26.09c13.8,-24.79 18.95,-48.14 22.32,-75.62l0.32 -29.93c-0.71,-7.48 -2.08,-21.05 -3.82,-27.33 -0.99,-3.56 -1.52,-5.01 -3.04,-8.27 -2.39,-5.17 -5.35,-9.95 -9.85,-13.56 -4.32,-3.46 -14.12,-8.08 -18.52,-8.74 -21.91,-3.27 -96.04,25.78 -120.4,33.92l-25.15 8.65c-3.42,1.13 -5.41,2.22 -8.91,3.23l-51.54 16.93c-18.86,5.8 -22.21,5.6 -39.8,9.22 -0.14,0.03 -0.38,0.09 -0.52,0.12 -2.36,0.55 -1.45,0.54 -4.78,1.01 -3.79,0.54 -6.35,1.05 -10.14,2.02 -24.74,6.36 -59.42,3.99 -87.02,3.99 -184.03,0 -368.07,0 -552.1,0 -24.8,0 -79.37,0.53 -100.15,-1.17 -16.22,-1.32 -24.05,-2.44 -40.67,-6.23 -5.2,-1.18 -19.46,-4.27 -23,-6.83 -10.28,0.32 -21.57,2.98 -32.05,3.99 -10.36,0.99 -22.91,1.94 -32.14,2.34 -43.16,1.85 -87.68,-3.57 -129.06,-12.92 -9.88,-2.23 -19.65,-5.01 -28.81,-7.65 -4.65,-1.33 -9.41,-2.95 -14,-4.25 -4.33,-1.22 -3.08,0.03 -6.22,-0.63 -2.44,-0.51 -3.71,-1.61 -7.35,-2.12 -1.41,2.81 -0.7,7.49 -1.35,11.61l-0.37 29.84c1.8,13.38 1.25,14.99 4.5,29.38 5.3,23.4 11.18,37.09 22.85,57.76l10.56 16.31c2.22,2.71 3.39,4.72 5.61,7.39 2.26,2.71 3.99,5.18 5.87,8 -4.48,-0.38 -9.99,-1.39 -15.23,-2.11 -27.41,-3.79 -53.86,-2.5 -68.13,-20.28 -9.92,-12.36 -7.86,-39.88 -10.75,-59.45 -0.47,-3.18 -0.21,-5.14 -0.37,-8.31 -0.54,-11.25 -3.17,-29.18 -3.46,-40.73 -0.21,-8.35 -5.06,-44.69 -2.82,-49.41 -5.01,-5.16 4.49,-0.17 -10.44,-7.54 -41.33,-20.41 -44.23,-23.77 -81.22,-47.09l-3.18 2.88c-1.1,0.81 -0.75,0.33 -2.07,1.44 -0.96,0.8 -1.25,1.24 -1.71,1.77 -2.09,2.39 -4.48,4.36 -6.11,6.93l-0.8 0.87c2.05,4.27 0.27,54.03 0.54,60.86l0.04 20.18c0,26.83 -0.04,52.96 0.01,79.74l0.17 158.88c-0.74,18.76 -1.48,49.53 1.95,69.39 1.95,11.29 6.64,22.57 13.46,31.63l6.57 8.15c21.81,23.89 49.09,24.09 79.32,25.04 1.82,0.06 0.54,-0.02 2.4,0.1 1.31,0.08 2.35,0.25 3.83,0.21 4.36,-0.12 8.13,-0.88 13.93,-0.87 6.15,0 9.87,0.61 14.73,0.87 28.88,1.56 59.49,-0.87 88.41,-0.87 10.74,0 17.61,0.36 27.38,-1.22 14.58,-2.36 30.81,-9.27 41.98,-17.83 31.59,-24.24 31.18,-52.15 31.18,-88.43 0,-37.53 -4.75,-30.24 18.34,-29.21 20.27,0.91 61.78,5.71 78.79,4.98 3.27,-0.14 9.61,0.65 13.63,1.07l35.49 2.5c2.59,0.43 7.69,-0.69 12.78,0.39l12.41 0.69c5.81,-0.13 5.09,0.22 11.43,0.56 3.76,0.2 3.07,0.26 5.53,0.13 7.63,-0.43 17.28,0.7 25.82,1.05 1.88,0.07 3.55,0.61 6.28,0.77l23.92 0.58c2.64,-0.03 4.93,0.34 6.11,0.39 2.25,0.08 2.8,0.04 6.08,0.46l82.51 2.23c7.96,0.71 25.17,1.35 32.95,0.66 6.11,-0.54 14.39,1.86 20.05,1.01 8.78,-1.32 14.56,0.39 21.33,0.38 6.48,-0.01 1.58,-0.92 13.05,0.05 2.37,0.2 5.34,0.04 7.77,0.02 5.79,-0.04 8.47,1.33 13.78,0.86 40.02,-3.47 100.5,1.91 146.63,-1.68 4.05,-0.32 6.52,0.81 10.5,0.38 7.37,-0.81 19.42,0.56 26.8,-0.25l60.54 -1.81c4.25,0.32 2.23,0.44 6.23,0.1 10.92,-0.95 28.59,0.03 36.53,-0.77l24.74 -1.26c9.17,-1.46 31.87,-0.57 38.19,-1.69 3.3,-0.59 1.82,-0.47 5.48,-0.45 1.83,0.01 3.6,-0.32 6.69,-0.36 12.67,-0.18 27.7,-2.17 38.21,-1.69 3.88,0.18 2.85,0.5 5.45,0.17 23.96,-3.04 48,-2.71 71.79,-4.79 6.53,-0.57 18.71,-0.64 27.47,-1.6l61.38 -4.67c4.97,-0.21 2.75,6.41 2.65,10.17 -0.2,7.18 -0.01,15.74 0.03,22.67 0.1,16.78 -0.79,35.95 5.29,50.96 3.24,8.02 5.46,12.54 10.16,19.31 8.32,11.99 20.26,19.91 33.3,26.5 24.71,12.49 53.44,7.15 81.48,8.66 4.66,0.25 7.92,0.89 13.86,0.88l44.21 -0.87c19.9,0 39.97,0.27 59.84,0.03 17.93,-0.21 34.71,-7.95 47.44,-19.3 1.86,-1.66 2.48,-1.71 4.34,-3.46 13.82,-13.03 21.47,-31.99 23.48,-51.06 0.88,-8.38 0.11,-21.35 0.11,-30.22 0,-159.48 0,-318.96 0,-478.44 0,-46.63 -0.64,-71.73 -0.44,-87.73l0.25 -6.34c0.11,-5.5 -1.04,-11.41 -1.72,-16.6l-4.91 -20.33c-0.86,-3.04 -0.18,-1.83 -1,-4.28l-6.85 -15.59c-1.85,-3.16 -3.36,-6.22 -5.44,-9.3 -0.31,-0.46 -1.09,-1.63 -1.36,-2.1l-52.71 -54.78 -28.01 -23.13c-0.14,-0.11 -0.33,-0.27 -0.47,-0.39l-44.36 -36.25c-2.49,-2.15 -4.57,-2.16 -5.53,-5.74 18.49,0 37,-0.09 55.48,0.01 29.64,0.15 37.1,-11.35 49.1,-20.25 3.68,-2.73 4.37,-2.93 6.67,-7.19 4.05,-7.48 -0.98,-22.06 -3.15,-31.6l-6.48 -29.55c-2.06,-8.24 -5.13,-12.34 -12.95,-14.82l-21.61 -6.13c-7.34,-2.42 -13.97,-3.96 -21.62,-6.12 -7.72,-2.17 -14.82,-4.31 -22.13,-6.46l-10.75 -3.17c-2.03,-0.6 -3.93,-0.8 -5.23,-0.93l-8.59 -0.14c-4.06,0.3 -8.9,1.49 -12.56,3.32l-14.46 9.8c-5.67,4.87 -15.13,15.32 -20.25,18.75 -0.81,-1.67 -0.46,-1.51 -1.11,-3.22l-4.09 -10.65c-0.88,-2.68 -1.67,-4.57 -2.42,-7.12l-7.12 -19.75c-11.73,-32.04 -25.54,-63.53 -38.27,-95.21l-22.51 -53.76c-7.01,-17.24 -13.24,-29.54 -21.85,-45.75l-10.97 -17.64c-2.73,-3.82 -5.05,-7.3 -7.93,-11.14 -1.59,-2.12 -2.72,-3.35 -4.22,-5.31 -9.38,-12.21 -8.28,-8.5 -13.61,-14.99 -2.43,-2.96 -1.53,-2.51 -4.59,-4.96 -6.03,-4.81 -17.2,-15.99 -26.58,-21.95l-12.12 -6.95c-19.44,-9.73 -42.12,-10.1 -63.65,-12.63 -11.75,-1.38 -23.17,-2.21 -35.2,-3.79l-62.7 -4.05c-4.29,-0.12 -4.32,-0.81 -8.61,-0.93l-87.86 -3.62c-4.3,-0.04 -12.19,-0.51 -17.79,-0.81l-7.51 -0.21c-9.55,-1.24 -16.83,0.5 -26.05,-0.89 -11.91,-1.81 -23.82,0.27 -35.92,-0.57l-39.98 -1.07c-1.22,-0.01 -5.61,0.47 -8.48,0.23 -5.45,-0.46 -11.51,-0.66 -17.98,-1.02 -8.82,-0.48 -24.68,0.81 -36.26,-0.05 -25.65,-1.89 -88.07,1.27 -118.32,1.1 -6.86,-0.04 -10.79,0.89 -18.19,0.88l-45.03 0.91c-3.46,0.28 -4.33,0.82 -8.9,0.82z"/>
   <path class="fil1" d="M13685.41 2042.01c-14.47,0 -33.39,-2.93 -43.48,-11.12 -35.53,-28.85 -36.7,-80.51 -4.85,-112.62 13.95,-14.06 29.33,-19.09 48.43,-21.31 4.16,-0.49 0.9,-0.88 5.65,-0.15 11.01,1.69 8.42,-1.01 24.92,4.46 13.54,4.48 22.55,11.32 29.72,22.29 0.6,0.92 0.43,0.64 1.04,1.56 17.11,25.81 14.81,60.79 -4.17,86.61 -0.11,0.15 -0.25,0.35 -0.36,0.5l-4.92 5.48c-2.99,3.07 -1.49,2.42 -6.42,6.58 -0.14,0.12 -0.34,0.28 -0.48,0.4 -5.08,4.28 -10.96,7.79 -17.02,10.71 -7.72,3.72 -19.55,6.61 -28.06,6.61zm-13 -219.28c-9.83,0 -7.09,-1.05 -10.98,-8.95 -1.84,-3.76 -1.83,-6.21 -5.75,-6.57 -2.57,-0.25 -2.48,-1.6 -3.49,-4.13 -0.87,-2.18 -1.17,-1.24 -1.45,-4.62 -15.98,0 -43.15,12.21 -56.51,20.64 -3.4,2.14 -13.66,8.15 -15.43,10.57l5.3 12.03c8.44,18.52 6.26,12.06 -13,32.27 -0.12,0.13 -0.29,0.33 -0.41,0.46l-5.76 4.64 -11.25 -4.35c-14.4,-5.31 -11.92,-8.67 -22.51,9.59 -3.19,5.49 -5.61,10.77 -7.97,17.16 -3.8,10.26 -10.27,27.73 -10.27,39.14 0,2.89 1.99,2.58 4.37,3.42 2.7,0.96 3,1.53 6.03,1.78 0.11,5.14 1.87,4.88 5.79,6.35 3.27,1.22 6.54,2.42 9.81,3.19 0,9.72 1.31,18.14 0.38,27.64 -0.2,2.06 1.27,0.96 -1.39,3.36 -3.85,3.46 -23.26,8.78 -23.26,13.2 0,8.93 4.66,20.34 8.05,28.35l12.18 25.1c3.01,5.58 6.68,9.91 10.11,15.03 2.94,-0.25 3.17,-0.67 5.2,-1.74 1.66,3.14 3.19,5.88 6.07,7.8 7.3,-1.7 14.96,-7.77 22.53,-9.53 2.98,4.06 16.47,13.61 16.47,16.47 0,6.66 -10.84,21.28 -7.44,26.42 2.18,3.29 18.67,11.42 23.32,14.04 22.1,12.49 33.18,13.15 56.06,18.48 0.55,-2.36 1.93,-5.6 2.97,-8.3 4.71,-12.27 4.52,-17.19 10.71,-17.92l24.46 -0.65c0.37,4.43 6.49,15.82 8.67,19.93l5.17 -1c4.11,7.93 4.41,6.75 17.26,2.64 6.83,-2.19 13.71,-4.46 20.33,-7.41 7.33,-3.26 11.77,-5.42 18.41,-9.33 5.67,-3.33 12.62,-6.76 15.97,-11.77 -1.57,-6.75 -9.54,-18.69 -9.54,-24.27 0,-2.75 7.31,-8.55 9.34,-10.6 11.97,-12.09 8.42,-16.12 24.1,-9.83 4.84,1.94 10.26,4.57 15.1,5.7 0.65,-2.45 3,-5.45 4.39,-7.75 10.1,-16.81 22.48,-44.4 22.48,-63.33 -2.58,-1.36 -2.9,-2.33 -6.07,-2.6 0,-6.66 -3.68,-6.28 -9.03,-8.3 -14.64,-5.53 -10.9,-2.11 -10.9,-30.7 0,-6.45 24.27,-10.22 24.27,-15.6 0,-4.03 -1.82,-7.26 -2.92,-10.96 -1.3,-4.42 -2.08,-7.03 -3.48,-11.25 -3.58,-10.84 -7.33,-20.02 -13.02,-29.45 -4.48,-7.4 -10.39,-13.49 -14.62,-20.91 -3.92,-6.88 -7.42,-2.38 -15.53,1.33 -12.24,5.6 -11.28,8.23 -21.29,-1.79 -1.63,-1.63 -2.65,-2.75 -4.32,-4.35 -2.01,-1.91 -3.2,-2.24 -4.56,-4.1 1.91,-8.22 6.7,-14.98 8.66,-23.4 -2.64,-3.94 -3.7,-3.9 -7.8,-6.07 0.48,-2.04 0.81,-2.56 0.87,-5.2 -2.88,-0.77 -6.04,-3.25 -8.98,-4.89l-14.31 -7.35c-2.81,-1.29 -5.03,-2.53 -8.44,-3.7 -9.37,-3.24 -26.51,-10.06 -37.61,-10.06 -3.64,0 -5.47,5.93 -6.81,8.79 -3.5,7.5 -2.67,17.65 -13.37,16.58 -5.35,-0.54 -9.16,0.63 -15.36,0.63z"/>
   <path class="fil1" d="M14701.22 2170.29l35.37 19.24c7.88,4.79 29.8,16.54 36,18.6 11.37,3.78 18.01,3.77 32.64,3.77 35.44,0 51.11,-1.63 77.11,13.9 15.13,9.05 15.49,16.44 43.37,16.44 13.87,0 27.65,-4.99 38.1,-10.45l12.49 -9.17c0.99,-0.98 0.38,-0.44 1.32,-1.28l4.96 -5.5c0.13,-0.2 0.54,-0.74 0.66,-0.92 0.07,-0.11 0.23,-0.31 0.3,-0.41l0.49 -0.76c4.7,-7.5 5.89,-9.5 9.52,-18.96 2.5,-6.53 5.03,-18.09 5.42,-24.77 0.61,-10.55 0.85,-19.16 -0.75,-29.63 -1.63,-10.59 -1.57,-16.88 -4.65,-27.99l-4.46 -14.17c-0.88,-2.46 -1.34,-3.11 -2.46,-5.26 -0.06,-0.12 -0.17,-0.35 -0.24,-0.47l-1.2 -1.97c-10.52,-13.22 -13.95,-13.36 -28.5,-10.5l-37.87 7.12c-9.03,1.82 -16.1,2.62 -24.02,4.58 -9.66,2.38 -37.94,6.39 -50.42,9.39l-61.59 13.82c-3.67,1.3 -7.1,2.9 -11.29,4.31 -9.89,3.31 -31.38,15.53 -39.23,21.45 -2.78,2.1 -5.78,4.04 -8.31,6.41 -0.78,0.73 -1,1.07 -1.76,1.71l-3.05 2.16c-0.14,0.11 -0.33,0.27 -0.47,0.39 -4.41,3.7 -17.01,13.2 -17.48,18.92z"/>
   <path class="fil1" d="M14214.98 2158.76l-21.73 34.91c-4.03,6.1 -7.28,10.91 -11.27,16.45 -3.11,4.31 -10.2,12.61 -11.93,16.51 4.43,0.4 11.47,1.81 16.13,2.81 14.77,3.16 27.94,10.25 39.84,19.1l36.64 30.96c2.23,1.7 3.61,2.83 5.2,5.21 5.89,-3.95 13.76,-11.1 19.27,-16.26 11.25,-10.52 34.46,-27.52 47.75,-33.73 13.16,-6.15 30.96,-7.68 47.86,-10.21l108 -9.02c9.14,-0.98 19.47,-0.47 27.85,-1.62l56.09 -2.85c14.38,0.08 27.82,-1.2 42.54,-1.73l40.68 -1.73c-0.86,-3.21 -0.88,-1.12 -1.73,-4.33l6.06 0c-0.98,-3.67 -4.12,-4.62 -9.52,-6.08 -4.71,-1.26 -7.71,-3 -12.15,-4.31l-36.77 -10.91c-15.39,-3.07 -48.87,-9.4 -63.64,-10.5 -9.79,-0.73 -18.51,-1.95 -28.59,-3.02 -3.84,-0.4 -9.63,-1.12 -13.39,-1.21 -15.04,-0.34 -44.79,-3.75 -61.06,-4.47l-38.33 -2c-11.33,-0.19 -19.83,-0.66 -31.28,-0.8 -5.38,-0.07 -9.07,-0.92 -15.57,-0.91l-30.14 -0.48c-2.29,0.22 -6.17,-0.41 -12.32,-0.39 -13.53,0.05 -70.88,-0.57 -80.02,0.67 -5.99,0.81 -8.46,-1.88 -14.47,-0.06z"/>
   <path class="fil1" d="M13888.23 1805.4c-43.85,0 -39.25,-39.53 -24.64,-54.11 21.75,-21.69 51.45,-9.26 57.45,3.09 6.7,13.77 -0.2,29.4 -7.64,38.92 -3.58,4.57 -16.76,12.1 -25.17,12.1zm-30.34 -138.68c0,27.03 1.73,20.46 -11.21,27.8 -2.03,1.15 -2.07,1.67 -4.68,3.12 -13.56,7.54 -7.9,7.77 -25.58,-2.45 -1.37,-0.79 -3.84,-2.06 -5.34,-2.46 -1.75,3.32 -0.96,2.28 -3.78,4.88l-4.41 5.12c-6.43,7.67 -17.81,28.21 -17.81,35.94 0,3.85 3.74,5.32 6.93,6.06 0,13.48 11.27,8.42 11.27,14.74 0,27.37 3.28,21.08 -12.32,30.14 -8.65,5.03 -7.34,1.72 -3.78,13.7 1.22,4.11 2.75,7.5 4.54,11.06 5.94,11.82 11.48,18.3 19.09,27.71 2.4,2.98 5.5,5.85 7.21,8.4 21.76,-10.44 15.68,-14.34 29.98,-4.85 3.51,2.33 6.57,3.49 9.89,5.71l0 16.47c1.9,0.91 3.41,1.52 6.07,1.74l0 6.93c19.63,4.58 16.45,3.47 37.27,3.47l13.32 -2.28c3.24,-1.34 3.88,-2.76 4.07,-7.19 0.22,-5.05 -1.07,-13.23 1.13,-16.21l21.63 -12.22c3.77,-1.96 3.94,-2.38 7.48,-0.27 4.75,2.83 10.3,5.7 14.77,8.7 8.6,-5.76 26.87,-34.94 26.87,-48.54 -2.69,-0.63 -2.51,-1.11 -5.2,-1.73 0.62,-7.42 4.3,-5.83 -3.57,-9.43 -3.44,-1.57 -1.87,-1.47 -4.62,-3.18 -5.98,-3.7 -4.81,4 -4.81,-23.8 0,-3.68 17.54,-11.96 18.2,-12.13 0,-6.97 -3,-12.44 -5.18,-17.36 -5.61,-12.69 -10.73,-25.58 -20.59,-35.75 -2.12,-2.19 -3.82,-3.43 -5.43,-5.83 -26.38,13.96 -13.94,13.31 -40.74,-0.87 0,-12.63 1.76,-15.45 -5.2,-15.6 0,-12.32 1.32,-9.85 -12.63,-12.5 -6.05,-1.15 -8.98,-1.4 -16,-1.39 -7.41,0.02 -21.28,1.69 -26.84,4.35z"/>
  </g>
 </g>
</svg>
