<?xml version="1.0" encoding="UTF-8"?>
<!DOCTYPE svg PUBLIC "-//W3C//DTD SVG 1.1//EN" "http://www.w3.org/Graphics/SVG/1.1/DTD/svg11.dtd">
<!-- Creator: CorelDRAW -->
<svg xmlns="http://www.w3.org/2000/svg" xml:space="preserve" width="180mm" height="29.4301mm" version="1.1" style="shape-rendering:geometricPrecision; text-rendering:geometricPrecision; image-rendering:optimizeQuality; fill-rule:evenodd; clip-rule:evenodd"
viewBox="0 0 17999.86 2942.99"
 xmlns:xlink="http://www.w3.org/1999/xlink"
 xmlns:xodm="http://www.corel.com/coreldraw/odm/2003">
 <defs>
  <style type="text/css">
   <![CDATA[
    .fil1 {fill:black;fill-rule:nonzero}
    .fil0 {fill:#1A99FF;fill-rule:nonzero}
   ]]>
  </style>
 </defs>
 <g id="Слой_x0020_1">
  <metadata id="CorelCorpID_0Corel-Layer"/>
  <g id="_1626226083936">
   <path id="Aloqa_x0020_Bank_x0020__x2013__x0020__x0040_LogotipUz" class="fil0" d="M1186.72 344.08l1186.68 664.57 0 -1008.65 -2373.4 0 0 1008.65 1186.72 -664.57zm0 261.17l-1186.72 664.55 0 1103.61 2373.4 0 0 -1103.61 -1186.68 -664.55z"/>
   <path id="Aloqa_x0020_Bank_x0020__x2013__x0020__x0040_LogotipUz_0" class="fil1" d="M4642.43 1604.38l-313.33 -1008.25 -316.14 1008.25 629.47 0zm5550.83 538.32c239.22,0 395.86,-173.75 395.86,-390.21l0 -65.5 -341.78 34.16c-185.16,17.11 -296.2,88.27 -296.2,225.01 0,113.93 76.9,196.51 242.12,196.51l0 0.03zm5.68 -649.37l390.18 -39.92 0 -74c0,-153.82 -88.29,-262.06 -287.7,-262.06 -162.32,0 -287.64,71.19 -299.01,224.98l-347.47 0c11.37,-370.26 310.47,-495.55 646.47,-495.55 421.58,0 669.3,199.35 669.3,612.34l0 914.28 -355.97 0 0 -270.6c-96.8,187.98 -282.02,304.76 -544.01,304.76 -336.09,0 -498.42,-190.83 -498.42,-441.45 0,-299.07 239.25,-435.81 626.61,-472.81l0 0.02zm-1623.36 618.01c233.49,0 375.92,-196.51 375.92,-484.18 0,-287.69 -142.43,-484.21 -375.92,-484.21 -236.43,0 -378.81,196.52 -378.81,484.21 0,287.67 142.38,484.18 378.81,484.18zm-116.82 -1264.55c207.93,0 398.76,102.53 504.13,307.59l0 -273.41 353.22 0 0 2062.03 -381.67 0 0 -806c-108.24,179.4 -284.83,270.54 -478.48,270.54 -364.61,0 -638.05,-287.65 -638.05,-780.37 0,-492.71 273.44,-780.37 640.85,-780.37zm-1586.41 1264.55c242.11,0 390.25,-199.35 390.25,-484.18 0,-284.81 -148.14,-484.21 -390.25,-484.21 -239.22,0 -387.29,199.4 -387.29,484.21 0,284.83 148.07,484.18 387.29,484.18zm0 -1264.55c467.17,0 766.16,296.17 766.16,780.37 0,484.18 -299,780.37 -766.16,780.37 -467.05,0 -766.11,-296.2 -766.11,-780.37 0,-484.21 299.07,-780.37 766.11,-780.37zm-1016.68 1526.62l-381.68 0 0 -2096.22 381.68 0 0 2096.22zm-1116.42 -464.26l-823.11 0 -145.25 464.23 -393.06 0 649.36 -1993.68 612.37 0 652.21 1993.68 -407.26 0 -145.27 -464.23z"/>
   <path id="Aloqa_x0020_Bank_x0020__x2013__x0020__x0040_LogotipUz_1" class="fil0" d="M12571.39 1786.66c0,-168.04 -111.06,-279.15 -353.15,-279.15l-492.74 0 0 555.42 472.84 0c256.3,0 373.05,-105.39 373.05,-276.25l0 -0.02zm4958.5 586.74l-458.53 -603.83 -136.76 0 0 603.83 -381.6 0 0 -2096.24 381.6 0 0 1196.2 139.58 0 432.94 -592.4 449.96 0 -612.35 709.19 655.12 783.24 -469.97 0zm-2677.22 -1492.44l356.04 0 0 262.02c96.85,-193.67 279.12,-296.2 521.24,-296.2 341.78,0 515.5,202.22 515.5,575.34l0 951.28 -378.81 0 0 -834.54c0,-242.03 -76.92,-378.78 -284.88,-378.78 -230.67,0 -347.41,170.88 -347.41,427.21l0 786.11 -381.68 0 0 -1492.44zm-1085.13 1261.74c239.26,0 395.94,-173.75 395.94,-390.21l0 -65.5 -341.78 34.16c-185.13,17.11 -296.19,88.27 -296.19,225.01 0,113.93 76.92,196.51 242.03,196.51l0 0.03zm5.71 -649.37l390.23 -39.92 0 -74c0,-153.82 -88.29,-262.06 -287.69,-262.06 -162.33,0 -287.62,71.19 -299.02,224.98l-347.47 0c11.38,-370.26 310.47,-495.55 646.48,-495.55 421.57,0 669.31,199.35 669.31,612.34l0 914.28 -355.99 0 0 -270.6c-96.85,187.98 -281.99,304.76 -544,304.76 -336.1,0 -498.42,-190.83 -498.42,-441.45 0,-299.07 239.24,-435.81 626.55,-472.81l0 0.02zm-2047.74 -281.98l455.71 0c219.28,0 330.41,-105.38 330.41,-264.86 0,-156.69 -111.13,-256.37 -336.1,-256.37l-450.02 0 0 521.23zm1244.64 629.45c0,361.68 -330.41,532.61 -734.77,532.61l-908.61 0 0 -1993.74 888.66 0c381.6,0 694.92,139.56 694.92,501.29 0,287.67 -196.51,444.31 -589.58,467.1 361.67,19.95 649.37,159.48 649.37,492.76z"/>
  </g>
 </g>
</svg>
