<?xml version="1.0" encoding="UTF-8"?>
<svg id="_Слой_2" data-name="Слой 2" xmlns="http://www.w3.org/2000/svg" viewBox="0 0 100 57.57">
  <defs>
    <style>
      .cls-1 {
        fill: #fa1631;
      }
    </style>
  </defs>
  <g id="_Слой_1-2" data-name="Слой 1">
    <g>
      <g>
        <path class="cls-1" d="M58.86,25.37c2.96-5.35,10.13-6.83,15.53-4.64,4.2,1.7,6.64,5.65,6.38,10.16-.24,4.27-2.86,6.19-2.99,6.83-.03.13.17.33.29.44.69.57,1.3,1.11,1.9,1.76,1.67,1.78,2.48,4.09,2.36,6.55-.38,7.49-6.31,11.06-13.36,11.06H21.2c-.21,0-.42-.06-.5-.14s-.13-.36-.13-.53v-19.28s-12.39-.02-12.39-.02c-.53,0-.88-.48-.86-.94v-3.29c0-.27.33-.75.67-.75l12.42-.02c.42-4.35.25-9.19-3.14-12.31-2.52-2.33-6.22-2.46-8.79-.03-1.88,1.79-3.1,4.42-3.11,7.17l-.07,29.32c0,.49-.28.86-.76.86H.74C.45,57.57,0,57.3,0,56.9v-25.56s.12-3.97.12-3.97c.06-2.32.94-4.43,1.89-6.51,1.23-2.66,3.15-4.81,5.79-6.1,4.83-2.37,10.57-1.13,14.02,3.04,1.9,2.3,3.15,5.17,3.66,8.14.25,1.44.21,2.79.21,4.25l.04,21.99c0,.39.29.71.64.71l1.96-.04,18.95-.05h12.87s11.56,0,11.56,0c1.78,0,3.51-.76,4.65-2.02,1.37-1.52,1.78-3.49,1.38-5.44-1.13-5.46-7.92-5.07-12.14-4.91-.58.02-1.1-.36-1.1-.97v-2.5c-.01-.22.14-.62.3-.74.19-.15.64-.24.94-.22,2.05.17,4.05.26,6.04-.14.93-.19,1.66-.68,2.31-1.3,2.57-2.45,2.97-6.25.19-8.57-2.4-2-5.59-2.31-8.45-1.1-1.58.67-2.79,1.76-3.22,3.49-.2.8-.37,1.63-.36,2.52l.06,19.07c0,.61-.41,1-.97,1h-2.89c-.26,0-.71-.15-.85-.33-.15-.19-.23-.6-.23-.93l.12-18.3c.01-2.13.32-4.14,1.38-6.04Z"/>
        <path class="cls-1" d="M49.41,34.33c3.25,3.04,4.53,7.8,2.36,11.9-2.35,4.43-6.33,5.08-10.97,5.12l-4.42.04-6.35-.09c-.65,0-1.02-.61-1-1.19l.08-2.46c.02-.52.43-.73.9-.73l11.61-.03c1.93,0,3.75-.59,5.17-1.82,1.49-1.29,1.86-3.21.97-4.97-1.01-1.99-3.23-3.44-5.22-4.45l-6.11-3.11c-1.84-.93-3.49-2.09-4.88-3.58-1.7-1.82-2.49-4.16-2.19-6.61s1.26-5.25,3.22-6.85c1.49-1.22,3.34-1.96,5.37-1.97l40.67-.05,20.49-.07c.57,0,.88.3.88.82v2.76c0,.34-.35.7-.72.7h-7.55c-.23,0-.51.17-.51.47v37.74c0,.54-.43.91-.9.91h-2.89c-.46,0-.9-.37-.9-.91V18.29c0-.32-.2-.66-.54-.66h-46.72c-1.52.01-2.89.6-3.85,1.59-.85.87-1.1,2.01-1.29,3.15-.22,1.34.2,2.53,1.18,3.48s1.99,1.65,3.19,2.24l6.01,2.94c1.81.88,3.44,1.94,4.9,3.3Z"/>
      </g>
      <g>
        <path class="cls-1" d="M42.72,1.1h-1.49V0h4.34v1.1h-1.5v8.22h-1.35V1.1Z"/>
        <path class="cls-1" d="M46.55,0h3.72v1.1h-2.37v2.83h2.05l-.52,1.13h-1.53v3.11h2.37v1.14h-3.72V0Z"/>
        <path class="cls-1" d="M51.66,9.09c-.15-.15-.23-.34-.23-.57V.79c0-.23.08-.41.23-.57.15-.15.34-.23.57-.23h3.04c.22,0,.41.08.57.23.15.15.23.34.23.57v1.57l-1.3.52v-1.78h-2.03v7.11h2.03v-1.5l1.3-.52v2.33c0,.23-.08.41-.23.57-.15.15-.34.23-.57.23h-3.04c-.23,0-.41-.08-.57-.23Z"/>
        <path class="cls-1" d="M57.36,0h1.31v3.94h2.01V0h1.3v9.32h-1.3v-4.26h-2.01v4.26h-1.31V0Z"/>
        <path class="cls-1" d="M63.29.01h1.39l1.94,5.82V.01h1.3v9.31h-1.37l-1.96-5.97v5.97h-1.3V.01Z"/>
        <path class="cls-1" d="M69.44,9.09c-.15-.15-.23-.34-.23-.57V.79c0-.23.08-.41.23-.57.15-.15.34-.23.57-.23h3.04c.22,0,.41.08.57.23.15.15.23.34.23.57v7.73c0,.23-.08.41-.23.57-.15.15-.34.23-.57.23h-3.04c-.23,0-.41-.08-.57-.23ZM72.54,8.22V1.1h-2.03v7.11h2.03Z"/>
        <path class="cls-1" d="M75.15,0h1.33v8.22h2.31v1.1h-3.64V0Z"/>
        <path class="cls-1" d="M80.18,9.09c-.15-.15-.23-.34-.23-.57V.79c0-.23.08-.41.23-.57.15-.15.34-.23.57-.23h3.04c.22,0,.41.08.57.23.15.15.23.34.23.57v7.73c0,.23-.08.41-.23.57-.15.15-.34.23-.57.23h-3.04c-.23,0-.41-.08-.57-.23ZM83.28,8.22V1.1h-2.03v7.11h2.03Z"/>
        <path class="cls-1" d="M86.11,9.09c-.15-.15-.23-.34-.23-.57V.79c0-.23.08-.41.23-.57.15-.15.34-.23.57-.23h3.04c.22,0,.41.08.57.23.15.15.23.34.23.57v1.49l-1.3.52v-1.7h-1.99v7.07h1.99v-3.11h-1.17l.52-1.13h1.95v4.59c0,.23-.08.41-.23.57-.15.15-.34.23-.57.23h-3.04c-.23,0-.41-.08-.57-.23Z"/>
        <path class="cls-1" d="M91.94,0h1.35v9.32h-1.35V0Z"/>
        <path class="cls-1" d="M94.95,9.09c-.15-.15-.23-.34-.23-.57V.79c0-.23.08-.41.23-.57.15-.15.34-.23.57-.23h3.04c.22,0,.41.08.57.23.15.15.23.34.23.57v1.57l-1.3.52v-1.78h-2.03v7.11h2.03v-1.5l1.3-.52v2.33c0,.23-.08.41-.23.57-.15.15-.34.23-.57.23h-3.04c-.23,0-.41-.08-.57-.23Z"/>
      </g>
    </g>
  </g>
</svg>