<?xml version="1.0" encoding="UTF-8"?>
<!DOCTYPE svg PUBLIC "-//W3C//DTD SVG 1.1//EN" "http://www.w3.org/Graphics/SVG/1.1/DTD/svg11.dtd">
<!-- Creator: CorelDRAW -->
<svg xmlns="http://www.w3.org/2000/svg" xml:space="preserve" width="190mm" height="77.431mm" version="1.1" style="shape-rendering:geometricPrecision; text-rendering:geometricPrecision; image-rendering:optimizeQuality; fill-rule:evenodd; clip-rule:evenodd"
viewBox="0 0 18983.87 7736.53"
 xmlns:xlink="http://www.w3.org/1999/xlink"
 xmlns:xodm="http://www.corel.com/coreldraw/odm/2003">
 <defs>
  <style type="text/css">
   <![CDATA[
    .fil1 {fill:black}
    .fil0 {fill:#45B4AA}
   ]]>
  </style>
 </defs>
 <g id="Слой_x0020_1">
  <metadata id="CorelCorpID_0Corel-Layer"/>
  <g id="_1626635726416">
   <path class="fil0" d="M7257.38 4073.62c0,128.35 122.61,266.96 177.98,266.96 450.31,0 1056.47,-276.64 1342.34,-585.71l1759.39 -2017.61c180.7,-214.84 336.1,-418.86 574.41,-562.64 120.66,-72.8 235.88,-126.55 387.59,-126.55 315.06,0 599.4,29.66 929.42,29.66 293.5,0 791,-35.07 791,-306.51 0,-132.77 -151.33,-276.91 -232.98,-340.5 -106.72,-83.1 -231.14,-161.99 -357.41,-216.06 -294.03,-125.91 -577.99,-204.78 -981.72,-204.78 -311.43,0 -652.69,85.1 -860.35,187.71 -31.6,15.62 -52.06,25.93 -87.59,40.96 -217.61,92.01 -508.83,333.79 -662.27,524.22 -145.29,180.34 -370.05,418.24 -516.98,600.3 -13.93,17.26 -13.38,20.07 -30.67,38.54 -27.08,28.93 -39.24,44.68 -64.62,73.81l-1956.95 2274.87c-71.11,83.94 -210.6,233.61 -210.6,323.33z"/>
   <path class="fil0" d="M5111.81 2106.02c0,280.59 35.67,519.46 109.98,740.34 15.88,47.18 29.82,97.98 51.52,146.23 23.52,52.32 40.64,91.66 63.02,144.63l70.14 127.6c222.66,371.88 746.36,1013.95 1246.11,777.47 108.86,-51.52 199.83,-157.36 244.87,-269.27 150.95,-375.03 -120.08,-518.75 -290.15,-680.73l-266.65 -267.27c-44.31,-59.4 -67.99,-98.2 -101.71,-165.24 -138.34,-275.07 -123.26,-637.1 -8.58,-918.32 45.27,-111.01 82.49,-167.98 145.05,-260.35 23.49,-34.68 38.28,-47.21 61.32,-77.1 100.51,-130.49 323.81,-275.74 492.26,-318.51 283.23,-71.92 705.38,-44.23 944.96,77.7 270.7,137.78 292.79,392.2 619.59,418.58 130.2,10.52 186.36,12.55 286.84,-39.03 119.88,-61.53 286.43,-229.02 286.43,-405.7 0,-213.49 -46.81,-315.18 -195.15,-477.19l-138.74 -118.33c-34.92,-28.52 -64.08,-51.6 -99.72,-78.25 -60.99,-45.62 -137.82,-102.37 -205.95,-140.11 -187.68,-103.97 -262.65,-147.63 -474,-218.13 -194.63,-64.92 -400.51,-99.84 -606.8,-105.03l-108.44 0c-297.52,7.52 -591.95,76.94 -850.74,207.6 -157.33,79.42 -350.07,191.55 -481.9,309.09 -169.58,151.21 -241.49,217.55 -383.92,407.06 -233.44,310.61 -409.61,745.46 -409.61,1182.27z"/>
   <path class="fil0" d="M12794.34 1750.07c0,178.91 29.66,266.62 29.66,444.94 0,282.17 -102.55,559.08 -284.34,753.84 -17.63,18.87 -16.66,22.26 -30.39,38.82 -21.07,25.42 -46.01,37.84 -73.3,65.13l-162.15 114.69c-236.32,128.34 -380.07,154.68 -665.97,154.68 -605.33,0 -870.27,-573.47 -1146.95,-573.47l-59.32 0c-230.23,0 -484.49,269.99 -484.49,504.26 0,272.24 114.83,321.43 251.28,500.17l381.95 300.28c732.66,420.13 1674.33,370.59 2374.53,-96.48 108.41,-72.31 215.14,-154.26 307.02,-246.67 48.41,-48.7 88.16,-91.15 132.99,-143.86 120.46,-141.59 242.63,-341.97 315.24,-515.3 164.6,-392.96 379.02,-1381.03 -96.47,-1694.83 -366.59,-241.92 -789.29,102.81 -789.29,393.8z"/>
   <path class="fil1" d="M4785.51 7247.48l-346.06 0 0 -543.81c497.55,0 593.25,-54.86 593.25,296.63 0,190.86 -56.32,247.18 -247.19,247.18zm-9.88 -998.63l-336.17 0 0 -514.14 365.83 0c222.23,0 207.64,120 207.64,296.63 0,168.37 -69.6,217.52 -237.3,217.52zm-889.87 1433.68c0,22.78 6.88,29.66 29.66,29.66 253.22,0 1024.86,17.31 1240.17,-25.43 90.99,-18.06 189.46,-60.33 245.44,-110.51 68.9,-61.76 110.15,-121.01 144.6,-211.35 56.22,-147.46 63.8,-367.94 28.6,-530.41 -37.82,-174.53 -120.76,-275.91 -285.73,-337.18 -37.19,-13.82 -67.55,-13.31 -87.71,-40.84 90.04,-7.48 229.48,-92.53 282.81,-181.9 131.17,-219.81 138.57,-637.05 -67.65,-844.02 -103.74,-104.12 -268.58,-160.56 -472.23,-160.56l-1057.96 0 0 2412.53z"/>
   <path class="fil1" d="M8839.37 6397.17l-326.29 0 0 -662.46c123.78,0 438.73,-17.67 527.89,35.7 91.3,54.66 65.35,290.06 65.35,419.12 0,175.18 -109.98,207.63 -266.95,207.63zm-879.99 1285.37c0,22.78 6.88,29.66 29.66,29.66l494.38 0c22.78,0 29.65,-6.88 29.65,-29.66l0 -820.66 355.95 0c3.11,37.29 19.58,73.52 30.99,107.44 11.14,33.12 19.39,67.82 31.92,106.5l213.94 636.39 573.46 0c-3.64,-43.78 -25.84,-82.25 -38.4,-119.81l-297.78 -819.5c272.48,-144.18 286.74,-448.77 286.74,-751.44 0,-513.89 -158.64,-751.44 -682.23,-751.44l-1028.3 0 0 2412.53z"/>
   <path class="fil1" d="M15523.27 5734.71c582.13,0 603.13,-51.27 603.13,375.72 0,345.77 -166.88,286.74 -603.13,286.74 17.05,-41.26 0,4.02 0,-39.55l0 -583.36c0,-43.56 17.05,1.72 0,-39.55zm-543.81 1977.49l524.03 0c41.69,0 19.77,-15.4 19.77,-39.56l0 -771.21c0,-43.57 17.05,1.71 0,-39.56l355.95 0 250.89 757.63c11.48,35.08 19.11,92.7 55.62,92.7l524.03 0c46.13,0 19.18,-25.95 -3.74,-95.12l-262.08 -726.69c-14.37,-39.62 -36.85,-81.19 -40.7,-127.38 58.48,-13.63 136.83,-94.31 168.39,-138.13 38.6,-53.62 65.46,-142.9 82.81,-223.69 62.17,-289.38 70.78,-789.91 -159.72,-995.24 -105.47,-93.95 -291,-135.93 -486.98,-135.93l-1028.29 0 0 2442.2z"/>
   <path class="fil1" d="M17134.92 5299.66l0 2382.88c0,22.78 6.87,29.66 29.66,29.66l494.37 0c22.78,0 29.66,-6.88 29.66,-29.66l0 -978.86c203.8,0 111.7,-45.71 276.41,237.74l138.99 256.5c90.27,173.55 185.61,342.1 276.72,514.28l603.13 0c-14.11,-60.56 -358.01,-655.84 -424.74,-771.64 -29.67,-51.51 -51.83,-99.79 -83.73,-153.57 -31.59,-53.25 -55.65,-100.61 -85.29,-152.01l-89.28 -158.44c-18.47,-34.29 -24.32,-44.34 -2.12,-81.48l135.74 -221.02c52.46,-87.24 526.41,-847.74 539.52,-904.03l-583.35 0c-23.47,35.04 -48.67,80.72 -69.21,118.65l-457.67 798.03c-32.8,61.72 -2.57,52.29 -145.47,52.29 -22.78,0 -29.65,-6.88 -29.65,-29.66l0 -939.3 -524.03 0c-22.79,0 -29.66,6.87 -29.66,29.65z"/>
   <path class="fil1" d="M13595.22 5774.25l19.77 0c77.03,330.65 160.21,657.86 237.3,988.75l-484.48 0c0,-54.46 145.23,-633.56 170.05,-739.59l57.36 -249.16zm-1008.51 1937.94l524.03 0c31.14,0 27.55,-17.27 34.61,-44.48 6.61,-25.46 9.44,-42.62 14.83,-64.29l61.23 -255.16c8.54,-34.04 24.36,-89.67 27.76,-130.45l711.9 0 96.88 377.72c6.89,27.64 8.24,34.51 15.13,63.97 7.55,32.27 2.55,52.7 36.3,52.7l514.15 0c36.78,0 25.86,-16.61 17.67,-45.14l-148.32 -546c-53.05,-206.46 -108.35,-406.25 -161.91,-619.2 -26.45,-105.15 -56.03,-203.24 -81.16,-304.44 -27.01,-108.74 -55.68,-202.65 -83.1,-312.4l-166.09 -615.01 -771.22 0c-85.64,367.62 -228.54,834.73 -324.28,1218.15l-283.02 1061.67c-14.21,50.22 -35.37,105.07 -35.37,162.38z"/>
   <path class="fil1" d="M11597.96 6466.38l-227.41 0 0 -731.67c488.61,0 573.47,-53.24 573.47,365.83 0,96.92 -9.97,248.65 -56.26,299.7 -53.66,59.2 -179.68,66.14 -289.8,66.14zm-781.11 1216.16c0,22.78 6.88,29.66 29.66,29.66l494.37 0c22.78,0 29.66,-6.88 29.66,-29.66l0 -751.44c239.97,0 648.74,22.97 843.76,-85.66 139.3,-77.58 210.28,-192.39 247.82,-355.32 30.67,-133.17 35.58,-271.07 35.58,-419.23 0,-530.94 -137.48,-800.88 -672.34,-800.88l-1008.52 0 0 2412.53z"/>
   <path class="fil1" d="M6041.22 7712.2l1433.68 0c22.78,0 29.66,-6.88 29.66,-29.66l0 -435.05 -909.65 0 0 -543.81 781.11 0 0 -454.82 -781.11 0 0 -484.48c0,-37.81 3.04,-3.6 -9.89,-29.66l919.54 0 0 -464.71 -1463.35 0 0 2442.2z"/>
   <path class="fil1" d="M2363.09 7712.2l504.26 0c35.49,0 20.61,1.57 27.32,-28.19 18.5,-82.14 -12.04,-783.85 3.04,-830.97l65.68 -152.2c30.37,-70.34 62.67,-138.55 90.4,-206.21 72.63,-177.22 520.09,-1160.11 525.45,-1224.62l-553.7 0c-2.3,27.71 -31.63,102.84 -43.68,134.29l-246.75 643.12c-24.42,68.81 -80.38,197.26 -95.17,260.77l-29.66 0 -405.39 -1038.18 -563.58 0c17.17,73.7 553.72,1269.02 658.22,1517.01 31.96,75.84 34.64,58.88 33.97,163.78l-0.93 693.04c-0.28,36.86 -7.62,68.36 30.51,68.36z"/>
   <path class="fil1" d="M-0 6750.66c6.51,254.05 34.27,514.03 135.17,697.84 178.79,325.73 749.83,306.99 1082.83,265.54l215.69 -31.5 0 -435.05c-64.38,0 -136.47,16.68 -197.72,19.81 -163.97,8.39 -501.32,44.47 -603.58,-98.5 -96.68,-135.17 -68.8,-728.83 -68.8,-939.72 0,-561.04 134.31,-539.93 662.28,-513.96 61.48,3.03 133.56,19.59 197.93,19.59 0,-480.85 34.55,-425.86 -101.28,-452.42 -343.59,-67.18 -951.35,-95.98 -1162.56,216.87 -69.45,102.88 -104.03,206.4 -126.22,358.27 -20.76,142.1 -33.72,294.94 -33.72,450.76l0 442.47z"/>
  </g>
 </g>
</svg>
