<?xml version="1.0" encoding="UTF-8"?>
<!DOCTYPE svg PUBLIC "-//W3C//DTD SVG 1.1//EN" "http://www.w3.org/Graphics/SVG/1.1/DTD/svg11.dtd">
<!-- Creator: CorelDRAW -->
<svg xmlns="http://www.w3.org/2000/svg" xml:space="preserve" width="187.242mm" height="55.241mm" version="1.1" style="shape-rendering:geometricPrecision; text-rendering:geometricPrecision; image-rendering:optimizeQuality; fill-rule:evenodd; clip-rule:evenodd"
viewBox="0 0 18720.06 5522.89"
 xmlns:xlink="http://www.w3.org/1999/xlink"
 xmlns:xodm="http://www.corel.com/coreldraw/odm/2003">
 <defs>
  <style type="text/css">
   <![CDATA[
    .fil0 {fill:#FEFEFE}
    .fil9 {fill:#A6A6A6;fill-rule:nonzero}
    .fil7 {fill:url(#id0);fill-rule:nonzero}
    .fil3 {fill:url(#id1);fill-rule:nonzero}
    .fil5 {fill:url(#id2);fill-rule:nonzero}
    .fil8 {fill:url(#id3);fill-rule:nonzero}
    .fil2 {fill:url(#id4);fill-rule:nonzero}
    .fil4 {fill:url(#id5);fill-rule:nonzero}
    .fil1 {fill:url(#id6);fill-rule:nonzero}
    .fil6 {fill:url(#id7);fill-rule:nonzero}
   ]]>
  </style>
  <linearGradient id="id0" gradientUnits="userSpaceOnUse" x1="-33.66" y1="3345.25" x2="18716.25" y2="-139.31">
   <stop offset="0" style="stop-opacity:1; stop-color:#0073FD"/>
   <stop offset="1" style="stop-opacity:1; stop-color:#0023B8"/>
  </linearGradient>
  <linearGradient id="id1" gradientUnits="userSpaceOnUse" xlink:href="#id0" x1="-46.83" y1="3340.61" x2="18769.93" y2="-99.54">
  </linearGradient>
  <linearGradient id="id2" gradientUnits="userSpaceOnUse" xlink:href="#id0" x1="1171.09" y1="3315.74" x2="18576.81" y2="-38.43">
  </linearGradient>
  <linearGradient id="id3" gradientUnits="userSpaceOnUse" xlink:href="#id0" x1="51.37" y1="3346.04" x2="18590.35" y2="-104.55">
  </linearGradient>
  <linearGradient id="id4" gradientUnits="userSpaceOnUse" xlink:href="#id0" x1="52.32" y1="3345.25" x2="18321.99" y2="-139.31">
  </linearGradient>
  <linearGradient id="id5" gradientUnits="userSpaceOnUse" xlink:href="#id0" x1="-46.83" y1="3335.92" x2="18769.93" y2="-85.58">
  </linearGradient>
  <linearGradient id="id6" gradientUnits="userSpaceOnUse" xlink:href="#id0" x1="-26.44" y1="3309.8" x2="17546.27" y2="-113.19">
  </linearGradient>
  <linearGradient id="id7" gradientUnits="userSpaceOnUse" xlink:href="#id0" x1="1677.09" y1="3325.91" x2="18724.63" y2="-73.46">
  </linearGradient>
 </defs>
 <g id="Слой_x0020_1">
  <metadata id="CorelCorpID_0Corel-Layer"/>
  <rect class="fil0" width="18717.1" height="5522.89"/>
  <g id="_1626234871808">
   <path class="fil1" d="M681.16 52.55c-80.86,25.5 -246.86,144.72 -366.02,263.88 -242.6,242.59 -327.73,468.12 -306.44,808.64l12.8 212.77 680.95 0 12.75 -234.06c21.29,-391.57 -8.48,-383.04 1191.69,-383.04l1038.44 0 293.7 -285.16c476.65,-459.64 523.49,-438.35 -1055.51,-434.14 -855.43,4.27 -1408.73,21.29 -1502.35,51.1z"/>
   <path class="fil2" d="M664.14 1465.55c-238.33,85.08 -519.22,378.78 -604.35,629.85 -157.47,476.71 21.29,991.65 425.61,1242.79l208.56 127.69 2093.94 25.5 293.65 -297.91c161.72,-165.99 276.68,-314.97 263.87,-340.48 -21.28,-34.08 -400.05,-46.83 -1212.96,-46.83 -1132.05,0 -1187.42,-4.27 -1298.06,-89.35 -144.71,-114.94 -157.46,-408.59 -21.28,-532.01 85.13,-76.6 178.74,-80.87 1319.33,-93.62 940.61,-8.53 1229.98,-25.54 1229.98,-63.85 0,-29.81 -127.64,-183.01 -289.37,-340.48l-289.44 -285.16 -974.59 0c-723.51,4.27 -1021.48,21.28 -1144.91,63.85z"/>
   <path class="fil3" d="M10197.6 1469.82c-89.35,29.76 -229.85,97.83 -310.71,148.93 -153.2,93.61 -204.2,80.86 -234.01,-68.12 -12.86,-72.33 -51.05,-85.08 -259.66,-97.88 -148.88,-8.49 -242.54,4.26 -242.54,34.08 0,21.29 0,455.37 0,957.57 0,502.21 0,936.34 0,957.63 0,29.76 93.66,42.51 246.86,34.03l242.49 -12.81 12.86 -574.53c8.48,-523.49 21.34,-578.79 106.37,-672.41 251.13,-272.41 719.35,-408.59 1064.04,-314.97l157.52 42.56 0 -225.58c0,-195.76 -12.86,-225.57 -93.67,-251.08 -166.04,-42.56 -515.06,-21.28 -689.53,42.57z"/>
   <path class="fil4" d="M11972.35 1482.57c-519.22,178.74 -778.88,506.47 -778.88,987.39 0,476.66 242.7,787.36 736.37,936.28 246.86,76.65 366.02,89.4 787.36,68.13 272.36,-12.76 570.28,-42.57 659.62,-68.13 148.99,-46.78 157.47,-59.58 157.47,-238.32 0,-102.15 -16.97,-200.04 -42.51,-212.78 -21.29,-12.8 -148.99,8.49 -285.17,46.78 -625.57,187.28 -1417.26,29.82 -1417.26,-276.62 0,-34.03 310.71,-46.84 961.89,-46.84l966.06 0 -25.49 -255.34c-42.51,-497.93 -302.17,-821.39 -766.03,-957.57 -285.21,-85.13 -681.05,-76.65 -953.41,17.02zm910.9 425.61c178.69,80.86 293.54,225.52 246.71,302.17 -17.02,25.49 -302.07,42.57 -685.22,42.57 -553.2,0 -655.4,-8.54 -655.4,-63.86 0,-85.13 149.03,-229.84 310.71,-297.9 195.81,-85.13 570.32,-76.65 783.2,17.02z"/>
   <path class="fil5" d="M14581.36 1461.28c-574.69,157.47 -659.73,774.56 -132.02,1008.68 106.37,46.78 366.03,123.43 583.07,170.21 459.69,97.93 600.19,161.72 621.36,259.66 25.49,127.64 -157.52,182.96 -587.23,178.74 -285.16,-4.27 -476.71,-29.81 -651.19,-89.4 -285.21,-97.88 -340.53,-68.07 -319.19,187.28 12.65,157.47 16.97,161.73 289.33,238.33 387.36,106.42 1221.45,89.4 1464.1,-34.03 234.06,-119.16 344.68,-285.16 344.68,-510.74 0,-336.21 -251.03,-510.74 -995.87,-685.21 -489.4,-114.9 -608.57,-183.02 -515.01,-293.65 72.43,-89.4 719.35,-85.13 1017.21,4.22 123.48,34.08 251.18,55.36 285.17,42.56 72.32,-29.76 80.86,-348.95 8.53,-391.52 -208.56,-131.96 -1051.24,-178.79 -1412.94,-85.13z"/>
   <path class="fil6" d="M17096.54 1461.28c-561.74,157.47 -655.4,740.54 -157.52,991.66 106.47,55.32 374.51,136.18 595.87,187.23 468.18,97.93 608.68,157.52 629.9,259.66 25.49,127.64 -157.41,182.96 -587.23,178.74 -289.53,-4.27 -472.55,-29.81 -647.02,-93.67 -131.86,-46.78 -251.03,-72.32 -263.88,-59.58 -12.7,12.8 -25.49,114.89 -25.49,225.58l0 200.03 293.7 68.12c374.51,85.13 1029.9,89.34 1306.58,4.21 268.14,-76.59 442.51,-255.33 472.33,-476.65 51.21,-378.78 -204.19,-574.53 -1004.35,-761.81 -502.2,-114.9 -634.22,-195.77 -493.72,-297.91 106.36,-80.86 698.02,-76.59 1000.24,4.22 344.69,93.66 349.01,93.66 331.84,-140.45 -12.64,-191.5 -21.18,-204.25 -183.01,-255.34 -246.81,-85.13 -1017.05,-106.42 -1268.23,-34.03z"/>
   <path class="fil7" d="M3719.99 1508.12c-17.02,38.29 114.9,217.04 366.03,489.4l391.57 425.6 -344.74 374.57c-187.28,208.5 -374.56,404.26 -408.59,434.08 -34.08,29.81 -63.85,89.4 -63.85,131.91 0,72.38 34.03,80.86 259.61,80.86l263.87 0 310.71 -331.94 314.92 -327.73 306.44 332 310.66 331.94 251.13 -12.75c144.72,-8.54 259.56,-34.08 268.2,-63.85 8.48,-25.55 -166.05,-246.87 -387.37,-489.46 -225.58,-242.59 -408.59,-446.88 -408.59,-459.64 0,-12.75 174.48,-208.5 387.31,-438.35 208.51,-229.84 374.51,-442.62 365.98,-468.17 -8.49,-29.76 -123.38,-55.32 -263.83,-63.85l-251.13 -12.76 -578.8 621.37 -293.64 -310.71 -293.7 -306.39 -238.33 0c-174.48,0 -246.87,17.02 -263.88,63.86z"/>
   <path class="fil8" d="M6443.84 1499.58c-8.54,29.76 -12.86,472.44 -8.54,987.39l12.7 936.28 510.85 0 42.51 -595.81 617.04 -21.29c668.2,-21.29 817.24,-68.07 953.42,-272.36 93.66,-148.98 131.96,-451.15 72.32,-629.9 -63.85,-195.76 -242.54,-357.49 -451.21,-412.86 -251.02,-68.07 -1719.28,-63.8 -1749.1,8.54zm1591.74 438.35c110.69,76.59 127.7,276.68 25.5,374.56 -51.16,55.32 -170.16,68.07 -574.54,68.07l-506.52 0 0 -225.53c0,-127.69 12.86,-242.65 29.81,-255.39 12.86,-17.02 229.85,-29.76 476.71,-29.76 340.54,0 476.72,17.02 549.04,68.07z"/>
   <path class="fil9" d="M15292.07 4087.26c-366.03,34.02 -395.84,51.04 -395.84,208.5 0,157.47 38.3,178.75 238.33,119.16 225.52,-63.85 698.02,-63.85 817.23,0 187.18,106.42 110.63,165.99 -255.39,195.82 -446.84,34.03 -638.33,85.08 -800.16,221.31 -102.2,89.34 -127.7,144.66 -127.7,276.62 0,204.3 97.99,314.93 344.69,378.78 191.65,51.1 510.84,25.55 770.4,-68.12 131.96,-46.78 157.52,-42.51 178.79,8.53 17.02,46.84 72.38,59.59 183.02,51.05l161.72 -12.75 12.8 -506.47c12.7,-544.77 -12.8,-634.12 -225.68,-774.56 -136.18,-89.4 -519.17,-131.97 -902.2,-97.88zm753.39 859.69c0,76.59 -42.67,119.16 -174.53,183.01 -225.69,97.88 -659.73,110.63 -719.35,17.02 -89.35,-144.71 242.65,-276.63 736.37,-293.7 140.34,-4.21 157.52,8.54 157.52,93.67z"/>
   <path class="fil9" d="M12964.06 4151.05c-12.8,38.35 -25.65,323.46 -25.65,634.16 0,310.66 12.86,595.82 25.65,634.12 17.02,46.83 80.86,68.12 191.55,68.12l161.67 0 12.8 -204.3 12.7 -200.03 425.67 -25.55c234.06,-12.75 463.9,-42.51 510.74,-68.07 170.15,-93.66 246.81,-221.31 246.81,-408.59 0,-412.85 -161.78,-497.93 -966.17,-497.93 -480.91,0 -574.58,8.48 -595.76,68.07zm1140.59 297.95c174.53,174.48 -4.32,314.93 -400,314.93 -161.83,0 -302.23,-21.29 -332.05,-51.11 -55.32,-55.31 -68.18,-255.33 -21.34,-302.11 12.85,-17.08 174.53,-29.82 357.54,-29.82 242.65,0 349,17.02 395.84,68.12z"/>
   <path class="fil9" d="M16832.65 4168.07c-38.19,123.42 12.86,468.17 89.51,583.11 34.03,55.32 123.32,127.65 195.71,165.94 183.01,93.67 642.7,97.94 859.69,4.27 195.87,-85.13 225.69,-68.07 161.83,76.6 -80.97,178.79 -315.03,251.13 -710.86,217.09 -646.87,-55.37 -595.88,-59.58 -608.52,68.07 -17.02,153.25 102.15,204.3 587.33,234.11 442.57,29.76 800.06,-59.63 983.07,-242.59 123.48,-119.16 123.48,-123.43 123.48,-655.46l0 -536.23 -170.31 0c-174.48,0 -187.18,12.75 -170.16,217.04 12.65,225.58 -378.88,455.37 -672.57,395.79 -183.01,-38.3 -263.82,-144.72 -297.85,-387.26 -29.81,-200.09 -33.98,-204.3 -187.33,-217.1 -127.65,-12.75 -161.67,4.27 -183.02,76.6z"/>
  </g>
 </g>
</svg>
