<?xml version="1.0" encoding="UTF-8"?>
<!DOCTYPE svg PUBLIC "-//W3C//DTD SVG 1.1//EN" "http://www.w3.org/Graphics/SVG/1.1/DTD/svg11.dtd">
<!-- Creator: CorelDRAW -->
<svg xmlns="http://www.w3.org/2000/svg" xml:space="preserve" width="180mm" height="52.4511mm" version="1.1" style="shape-rendering:geometricPrecision; text-rendering:geometricPrecision; image-rendering:optimizeQuality; fill-rule:evenodd; clip-rule:evenodd"
viewBox="0 0 17999.86 5245.07"
 xmlns:xlink="http://www.w3.org/1999/xlink"
 xmlns:xodm="http://www.corel.com/coreldraw/odm/2003">
 <defs>
  <style type="text/css">
   <![CDATA[
    .fil1 {fill:#02691A;fill-rule:nonzero}
    .fil0 {fill:#4CEA4C;fill-rule:nonzero}
   ]]>
  </style>
 </defs>
 <g id="Слой_x0020_1">
  <metadata id="CorelCorpID_0Corel-Layer"/>
  <g id="_1626227613600">
   <path id="Ipak_x0020_Yo_x0027_li_x0020_Bank_x0020__x2013__x0020__x0040_LogotipUz" class="fil0" d="M7086.99 4888.29c114.89,0 212.18,-41.56 292.12,-124.64 79.93,-83.08 119.89,-187.21 119.89,-312.09 0,-124.88 -40.48,-226.65 -121.48,-310.53 -80.97,-84.14 -177.73,-126.2 -290.53,-126.2 -118.85,0 -217.2,42.06 -295.28,126.2 -77.81,84.15 -116.71,187.47 -116.71,310.53 0,123.05 38.9,231.64 116.71,313.67 77.84,82.02 176.43,123.06 295.28,123.06zm5715.69 -507.43l621 827.15 -510.25 0 -587.43 -830.3 547.44 -682.56 513.4 0 -584.16 685.71zm-498.15 827.3l-418.37 0 0 -1974.33 328.71 0c30.73,0 60.5,-1.05 89.66,-3.16l0 1977.49zm-1379.71 -1559.02c163.01,0 297.14,48.37 402.05,145.42 105.14,97 157.77,226.88 157.77,389.63l0 1023.85 -423.83 0 0 -903.15c0,-94.93 -27.87,-167.5 -83.63,-217.99 -55.75,-50.47 -124.92,-75.73 -207.25,-75.73 -82.25,0 -155.58,28.41 -219.53,85.2 -63.85,56.79 -95.92,125.15 -95.92,205.61l0 906.31 -420.76 0 0 -1522.09 402.04 0 0 185.64c51.57,-61.8 121.79,-114.39 210.36,-157.75 88.62,-43.4 181.38,-64.95 278.43,-64.95l0.27 0zm-2034.53 9.41c456.74,0 742.03,207.18 742.03,684.64l0 865.3 -418.32 0 0 -178.01c-84.13,143.31 -280.58,214.3 -509.83,214.3 -191.41,0 -396.77,-56.53 -506.68,-225.59 -45.74,-70.75 -68.62,-150.92 -68.62,-240.57 0,-143.31 53.93,-255.84 161.97,-337.87 206.15,-156.73 637.6,-123.08 894.5,-123.08 0,-221.89 -151.51,-303.68 -355.28,-303.68 -151.68,0 -363.32,48.14 -483.5,143.31l-160.36 -312.11c184.83,-130.14 480.63,-186.14 704.06,-186.14l0 -0.52zm169.1 1232.85c59.14,-35.22 101.22,-87.28 125.97,-156.17l0 -157.48 -306.57 0c-183.28,0 -314.48,60.19 -314.48,180.36 0,217.69 354.39,217.17 494.81,133.29l0.27 0zm-2172.22 276.64c-92.28,-51.29 -161.95,-113.85 -209.05,-187.47 4.22,86.24 6.07,145.65 6.07,178.26l0 49.17 -405.96 0 0 -1977.22 418.32 0 0 513.5c0,59.42 -1.04,106.76 -3.16,141.45 47.08,-63.62 115.43,-117.27 204.57,-161.43 89.13,-44.17 187.99,-65.98 296.84,-65.98 213.24,0 387.55,76.22 522.71,229 135.41,152.76 202.99,340.75 202.99,564.25 0,223.49 -67.06,414.11 -201.42,565.83 -134.35,151.7 -309.21,227.68 -524.28,227.68 -112.8,0 -215.32,-25.49 -307.63,-76.76l0 -0.26z"/>
   <path id="Ipak_x0020_Yo_x0027_li_x0020_Bank_x0020__x2013__x0020__x0040_LogotipUz_0" class="fil1" d="M13106.78 2695.61l0 -349.97 99.41 0c51.47,0 93.57,0 126.74,-2.88 33.05,-2.88 60.14,-8.95 81.48,-17.62 20.86,-8.94 36.1,-23.68 51.37,-41.28 12.18,-17.63 24.03,-41.29 36.21,-70.74l15.27 -41.26 -606.38 -1573.63 502.44 0 342.39 991.21 363.51 -991.21 490.23 0 -636.49 1582.56c-39.27,99.91 -78.55,182.47 -117.82,250.04 -39.17,67.59 -84.53,120.69 -135.66,158.82 -51.34,38.1 -114.65,67.57 -187.11,82.3 -72.46,14.7 -159.79,23.66 -265.31,23.66l-160.28 0zm4508.72 -2630.93c43.17,-43.1 96.24,-64.68 159.92,-64.68 63.55,0 116.72,21.05 159.79,63.11 43.17,42.07 64.65,91.77 64.65,149.1 0,57.32 -21.48,110.15 -64.65,152.23 -43.07,42.06 -96.24,63.08 -159.79,63.08 -63.68,0 -116.75,-21.02 -159.92,-63.08 -43.07,-42.08 -64.65,-92.83 -64.65,-152.23 0,-59.43 21.58,-106.51 64.65,-147.53zm368.98 533.55l-418.27 0 0 1513.15 418.27 0 0 -1513.15zm-826.28 -461.11l-418.39 0 0 1974.34 418.39 0 0 -1974.34zm-7245.59 1657.45c59.15,-35.24 101.23,-87.31 125.96,-156.19l0 -157.47 -306.55 0c-183.28,0 -314.48,60.2 -314.48,180.33 0,217.74 354.38,217.21 494.81,133.33l0.26 0zm-169.09 -1233.14c456.74,0 742.02,207.2 742.02,684.66l0 865.3 -418.32 0 0 -178.02c-84.14,143.31 -280.58,214.3 -509.88,214.3 -191.38,0 -396.71,-56.52 -506.64,-225.59 -45.74,-70.73 -68.57,-150.92 -68.57,-240.57 0,-143.3 53.82,-255.86 161.96,-337.88 206.1,-156.69 637.58,-123.05 894.46,-123.05 0,-221.92 -151.49,-303.67 -355.24,-303.67 -151.94,0 -363.38,48.09 -483.49,143.29l-160.39 -312.09c184.77,-130.18 480.61,-186.17 704.06,-186.17l0 -0.53zm-3416.2 -496.75c43.12,-43.1 96.23,-64.68 159.87,-64.68 63.62,0 116.71,21.05 159.85,63.11 43.1,42.07 64.68,91.77 64.68,149.1 0,57.32 -21.58,110.15 -64.68,152.23 -43.14,42.06 -96.23,63.08 -159.85,63.08 -63.64,0 -116.75,-21.02 -159.87,-63.08 -43.12,-42.08 -64.68,-92.83 -64.68,-152.23 0,-59.43 21.56,-106.51 64.68,-147.53zm369.12 533.55l-418.32 0 0 1513.15 418.32 0 0 -1513.15zm4608.62 -461.11l-418.28 0 0 1974.34 418.28 0 0 -1974.34zm498.3 1146.85l621.33 827.16 -510.71 0 -587.31 -830.32 547.44 -682.81 513.5 0 -584.25 685.71 0 0.26zm-3895.74 -365.74c-118.86,0 -217.17,41 -295.28,123.04 -77.83,82.05 -116.73,186.69 -116.73,313.69 0,126.98 38.9,226.64 116.73,310.5 77.83,84.15 176.42,126.2 295.28,126.2 112.8,0 209.54,-42.05 290.55,-126.2 80.96,-84.13 121.44,-187.46 121.44,-310.5 0,-123.05 -39.94,-229.01 -119.86,-312.11 -79.95,-83.08 -177.5,-124.62 -292.13,-124.62zm107.8 -356.81c215.34,0 389.93,75.99 524.28,227.71 134.36,151.69 201.42,340.24 201.42,565.83 0,225.58 -67.59,411.47 -202.99,564.25 -135.39,152.75 -309.49,229.02 -522.71,229.02 -108.6,0 -207.71,-22.12 -296.86,-66.02 -89.12,-44.18 -157.49,-97.8 -204.55,-161.43 2.1,34.97 3.16,82.04 3.16,141.45l0 633.41 -418.31 0 0 -2097.39 405.94 0 0 49.17c0,32.87 -2.1,92.29 -6.04,178.27 47.06,-73.89 116.73,-136.47 209.03,-187.47 92.29,-51.28 194.84,-76.78 307.63,-76.78zm6845.43 36.81l0 913.39c0,202.99 71.85,361.28 215.92,475.11 143.94,113.86 321.78,170.66 533.78,170.66 211.99,0 389.97,-56.8 533.9,-170.66 143.93,-113.83 215.78,-272.12 215.78,-475.11l0 -913.39 -441.44 0 0 901.04c0,96.25 -29.15,171.16 -87.71,224.54 -58.17,53.38 -131.97,79.94 -220.53,79.94 -88.43,0 -162.36,-26.56 -220.67,-79.94 -58.18,-53.38 -87.58,-128.03 -87.58,-224.54l0 -901.04 -441.45 0z"/>
   <path id="Ipak_x0020_Yo_x0027_li_x0020_Bank_x0020__x2013__x0020__x0040_LogotipUz_1" class="fil0" d="M4141.33 137.36l100.17 0 0 2227c0,147.24 57.08,732.26 57.08,871.86l0 1972.24 -214.31 0 0 -2072.41c0,-123.31 57.06,-712.53 57.06,-868.18l0 -2130.51zm-413.82 0l100.15 0 0 1881.52c0,136.72 57.08,729.9 57.08,857.4l0 2332.19 -214.29 0 0 -2430.77c0,-120.97 57.06,-694.66 57.06,-834.29l0 -1806.05zm-414.09 0l100.2 0 0 1610.44c0,132.25 57.05,729.11 57.05,851.64l0 2609.03 -214.3 0 0 -2708.97c0,-120.15 57.05,-684.67 57.05,-818.74l0 -1543.4zm-413.82 0l100.18 0 0 1304.9c0,136.73 57.05,725.15 57.05,850.06l0 2916.15 -214.28 0 0 -3022.37c0,-120.67 57.05,-675.72 57.05,-809.3l0 -1239.44zm-414.17 0l100.16 0 0 807.45c0,137.25 57.08,801.41 57.08,923.92l0 3339.73 -214.31 0 0 -3339.73c0,-122.78 57.07,-800.87 57.07,-923.92l0 -807.45zm-2385.28 0.02l-100.16 0 0 5071.12 157.23 0 0 -685.73c0,-153.53 -57.07,-727.25 -57.07,-834.01l0 -3551.62 0 0.25zm415.74 -0.02l-100.18 0 0 2706.84c0,175.13 -57.05,836.12 -57.05,1013.59l0 1350.92 214.29 0 0 -1432.18c0,-126.73 -57.06,-784.01 -57.06,-985.15l0 -2654.02zm414.05 0l-100.17 0 0 2127.36c0,146.96 -57.05,831.9 -57.05,971.78l0 1972.2 214.29 0 0 -2010.87c0,-123.31 -57.07,-774.04 -57.07,-929.69l0 -2130.78zm413.83 0l-100.17 0 0 1881.52c0,136.72 -57.06,780.1 -57.06,907.87l0 2281.72 214.29 0 0 -2313.26c0,-120.93 -57.06,-812.17 -57.06,-951.8l0 -1806.05zm413.95 0l-100.17 0 0 1610.44c0,132.25 -57.06,751.44 -57.06,873.96l0 2586.71 214.3 0 0 -2602.73c0,-120.15 -57.07,-790.91 -57.07,-924.98l0 -1543.4zm414.05 0l-100.16 0 0 1304.9c0,136.73 -57.05,725.15 -57.05,850.06l0 2916.15 214.28 0 0 -2955.34c0,-120.4 -57.07,-742.75 -57.07,-876.33l0 -1239.44zm2799.48 0l100.16 0 0 5071.11 -157.23 0 0 -765.39c0,-153.55 57.07,-647.6 57.07,-754.08l0 -3551.63zm-415.99 0l100.19 0 0 2806.5c0,175.1 57.04,736.46 57.04,913.93l0 1350.92 -214.27 0 0 -1481.83c0,-126.74 57.04,-734.36 57.04,-935.26l0 -2654.26z"/>
  </g>
 </g>
</svg>
