<svg width="134" height="44" viewBox="0 0 134 44" fill="none" xmlns="http://www.w3.org/2000/svg">
<path fill-rule="evenodd" clip-rule="evenodd" d="M56.4437 18.556L56.7385 18.1333C56.9834 17.7838 57.2775 17.4755 57.6245 17.2298C57.9586 16.9925 58.3238 16.8101 58.7146 16.6903C59.0949 16.5736 59.4887 16.5064 59.8871 16.5064C60.5856 16.5064 61.2645 16.6522 61.8617 17.0322C62.378 17.3618 62.7704 17.7991 62.9843 18.3828L63.0969 18.6911L63.2723 18.4141C63.6821 17.7678 64.2241 17.2664 64.9249 16.9597C65.6045 16.6613 66.3166 16.5064 67.0575 16.5064C67.8437 16.5064 68.7077 16.6277 69.3768 17.0734C69.9173 17.4336 70.3232 17.9059 70.5666 18.5148C70.8101 19.123 70.9325 19.7602 70.9325 20.4156V26.9471C70.9325 27.0919 70.8151 27.2093 70.6703 27.2093H68.4491C68.3043 27.2093 68.1869 27.0919 68.1869 26.9471V21.3062C68.1869 20.6942 68.0357 20.1104 67.632 19.6396C67.217 19.1566 66.6318 18.9895 66.0157 18.9895C65.5962 18.9895 65.1917 19.0803 64.8236 19.2863C64.4773 19.4794 64.1923 19.7441 63.9852 20.0868C63.7766 20.4324 63.6881 20.8185 63.6881 21.2214V26.9471C63.6881 27.0919 63.5707 27.2093 63.4259 27.2093H61.2047C61.0599 27.2093 60.9424 27.0919 60.9424 26.9471V21.3062C60.9424 20.6942 60.7928 20.1074 60.3868 19.6396C59.9695 19.1589 59.3874 18.9895 58.7713 18.9895C58.3487 18.9895 57.9382 19.0772 57.5671 19.2863C57.2238 19.4801 56.9449 19.7472 56.74 20.0868C56.5321 20.4324 56.4429 20.8201 56.4429 21.2214V26.9471C56.4429 27.0919 56.3255 27.2093 56.1807 27.2093H53.9595C53.8147 27.2093 53.6973 27.0919 53.6973 26.9471V17.0869C53.6973 16.942 53.8147 16.8246 53.9595 16.8246H56.1807C56.3255 16.8246 56.4429 16.942 56.4429 17.0869V18.5568L56.4437 18.556ZM126.638 20.4472C126.638 20.6065 126.834 20.6828 126.942 20.5656L130.305 16.9086C130.354 16.8546 130.424 16.8239 130.498 16.8239H132.95C133.175 16.8239 133.296 17.0892 133.147 17.2588L130.049 20.7999C129.997 20.8584 129.991 20.9437 130.033 21.0092L133.742 26.8057C133.853 26.9803 133.728 27.2093 133.521 27.2093H130.886C130.795 27.2093 130.71 27.1618 130.663 27.0839L128.083 22.8681C128.023 22.7702 127.886 22.7556 127.807 22.8385L126.687 24.0109C126.656 24.0435 126.638 24.0867 126.638 24.1317V26.9471C126.638 27.0919 126.521 27.2093 126.376 27.2093H124.155C124.01 27.2093 123.892 27.0919 123.892 26.9471V12.526C123.892 12.3811 124.01 12.2637 124.155 12.2637H126.376C126.521 12.2637 126.638 12.3811 126.638 12.526V20.4472ZM114.007 18.3538L114.299 17.9692C114.664 17.4854 115.116 17.094 115.674 16.8536C116.213 16.6209 116.78 16.5064 117.365 16.5064C118.178 16.5064 119.017 16.6461 119.721 17.0764C120.307 17.4351 120.779 17.9067 121.091 18.527C121.388 19.1199 121.546 19.7495 121.546 20.4149V26.9463C121.546 27.0911 121.429 27.2085 121.284 27.2085H119.063C118.918 27.2085 118.8 27.0911 118.8 26.9463V21.3802C118.8 20.7346 118.634 20.1241 118.189 19.6457C117.731 19.1543 117.101 18.9887 116.452 18.9887C116.002 18.9887 115.572 19.0894 115.182 19.3191C114.81 19.5373 114.515 19.8372 114.311 20.2203C114.092 20.6301 114.008 21.0871 114.008 21.5496V26.9455C114.008 27.0904 113.891 27.2078 113.746 27.2078H111.525C111.38 27.2078 111.263 27.0904 111.263 26.9455V17.0853C111.263 16.9405 111.38 16.8231 111.525 16.8231H113.746C113.891 16.8231 114.008 16.9405 114.008 17.0853V18.352C114.008 18.3527 114.008 18.3533 114.007 18.3538ZM106.569 25.5549L106.278 25.938C105.985 26.3218 105.623 26.6377 105.216 26.8941C104.474 27.3611 103.612 27.5267 102.747 27.5267C101.812 27.5267 100.916 27.3222 100.107 26.8384C99.3168 26.3669 98.7113 25.7098 98.2751 24.8972C97.7973 24.0082 97.6106 23.0208 97.6106 22.0158C97.6106 21.2527 97.7179 20.4889 97.9886 19.7731C98.235 19.1245 98.5948 18.5392 99.0696 18.0356C99.5322 17.545 100.077 17.1672 100.696 16.907C101.35 16.6331 102.04 16.5064 102.747 16.5064C103.611 16.5064 104.474 16.6728 105.216 17.139C105.622 17.3946 105.984 17.7098 106.277 18.0951L106.568 18.4782V17.0861C106.568 16.9413 106.685 16.8239 106.83 16.8239H108.652C108.796 16.8239 108.914 16.9413 108.914 17.0861V26.9463C108.914 27.0911 108.796 27.2085 108.652 27.2085H106.83C106.685 27.2085 106.568 27.0911 106.568 26.9463V25.5549H106.569ZM87.5789 17.9906L87.8503 17.7365C88.1534 17.4534 88.4906 17.2115 88.8572 17.0177C89.5482 16.6529 90.3087 16.5064 91.0843 16.5064C92.0421 16.5064 92.9561 16.7224 93.7748 17.2344C94.564 17.7281 95.1726 18.3943 95.6103 19.2199C96.0714 20.089 96.2748 21.0337 96.2748 22.0166C96.2748 22.7842 96.1561 23.542 95.8855 24.26C95.6413 24.9063 95.2913 25.4969 94.8158 25.9968C94.3516 26.4859 93.8035 26.8613 93.1874 27.1261C92.5365 27.4062 91.8433 27.5267 91.138 27.5267C90.5294 27.5267 89.9254 27.4367 89.3532 27.2291C88.8452 27.0437 88.3704 26.785 87.9652 26.4226C87.7883 26.2638 87.625 26.0891 87.4814 25.8991L87.1903 25.5145V26.9471C87.1903 27.0919 87.0729 27.2093 86.9281 27.2093H85.1068C84.962 27.2093 84.8446 27.0919 84.8446 26.9471V12.526C84.8446 12.3811 84.962 12.2637 85.1068 12.2637H87.3174C87.4623 12.2637 87.5797 12.3811 87.5797 12.526V17.9914L87.5789 17.9906ZM76.2772 27.4527L72.3362 17.18C72.2703 17.0083 72.3971 16.8239 72.581 16.8239H74.9903C75.1033 16.8239 75.2036 16.8962 75.2392 17.0034L77.6745 24.3333C77.7278 24.4936 77.9549 24.4927 78.0068 24.3319L80.3711 17.0056C80.406 16.8973 80.5069 16.8239 80.6207 16.8239H82.9487C83.1316 16.8239 83.2584 17.0065 83.1943 17.1779L78.9518 28.534C78.6668 29.2581 78.2919 30.0006 77.7733 30.5836C77.3703 31.0361 76.8956 31.4092 76.3316 31.6328C75.7873 31.8472 75.2181 31.9503 74.6345 31.9503C74.2006 31.9503 73.7674 31.906 73.3426 31.8152C72.9903 31.7412 72.6501 31.6244 72.3273 31.4649C72.2925 31.4481 72.2744 31.4091 72.2839 31.3716L72.8239 29.2448C72.8362 29.1962 72.8891 29.1702 72.9351 29.1902C73.0969 29.2627 73.2654 29.3207 73.4371 29.3657C73.6971 29.4336 73.9655 29.4771 74.2346 29.4771C74.6315 29.4771 75.0306 29.3985 75.3648 29.1742C75.7087 28.9422 75.9128 28.5752 76.0391 28.1868L76.2772 27.4519V27.4527ZM103.242 25.1711C103.773 25.1711 104.29 25.0574 104.753 24.7888C105.206 24.5263 105.553 24.1471 105.802 23.6862C106.08 23.1726 106.19 22.598 106.19 22.0166C106.19 21.4351 106.08 20.8613 105.802 20.347C105.554 19.8876 105.204 19.516 104.753 19.2558C104.288 18.9864 103.776 18.8628 103.242 18.8628C102.707 18.8628 102.203 18.9879 101.742 19.2558C101.289 19.5175 100.932 19.8853 100.681 20.347C100.405 20.8575 100.304 21.4397 100.304 22.0166C100.304 22.5935 100.405 23.1757 100.681 23.6862C100.932 24.1494 101.288 24.5256 101.742 24.7888C102.202 25.0551 102.713 25.1711 103.242 25.1711ZM90.5688 25.1711C91.1093 25.1711 91.5874 25.0424 92.1102 24.7896C92.569 24.5278 92.9259 24.1509 93.1814 23.6877C93.4626 23.1749 93.5699 22.5973 93.5699 22.0166C93.5699 21.4359 93.4603 20.8613 93.1821 20.347C92.9296 19.8807 92.5728 19.5106 92.1094 19.255C91.6362 18.9811 91.1115 18.8628 90.5688 18.8628C90.026 18.8628 89.5028 18.9849 89.0273 19.255C88.57 19.516 88.2071 19.8823 87.9554 20.347C87.6787 20.8575 87.5782 21.4389 87.5782 22.0166C87.5782 22.5942 87.6855 23.1764 87.9667 23.6877C88.2215 24.1509 88.5783 24.5278 89.0379 24.7896C89.5081 25.0574 90.0313 25.1711 90.5688 25.1711Z" fill="#262626"/>
<g clip-path="url(#clip0_56_1500)">
<path d="M12.4641 33.028C11.8458 32.4783 11.2719 31.87 10.7506 31.2114C10.6563 31.0942 10.4706 31.1472 10.4539 31.2951L9.88828 36.6976L9.85778 37.0018C9.85501 37.0324 9.84392 37.0604 9.82729 37.0827L8.41042 39.0472C8.35774 39.1198 8.3716 39.223 8.44092 39.2788C8.94556 39.6835 9.46683 40.063 10.002 40.4201C10.0768 40.4704 10.1766 40.4508 10.2293 40.3783L11.6462 38.411C11.6628 38.3859 11.6878 38.3663 11.7155 38.3552L11.9928 38.2352L16.9061 36.0307C17.0419 35.9693 17.0364 35.7739 16.895 35.7209C16.1214 35.4223 15.3755 35.0595 14.6629 34.6354C14.6158 34.6075 14.5603 34.6047 14.5132 34.627L12.3505 35.5953C12.3116 35.6121 12.2673 35.5814 12.2728 35.5395L12.5196 33.1676C12.5251 33.1146 12.5057 33.0615 12.4641 33.028Z" fill="#FF553D"/>
<path d="M4.34362 34.9477C3.96653 34.4231 3.61439 33.8789 3.28444 33.318C3.24285 33.2455 3.25948 33.1506 3.32603 33.0976L6.68934 30.4522C6.73371 30.4187 6.71152 30.3461 6.65607 30.3461L1.8343 30.1787C1.76498 30.1787 1.70398 30.1312 1.6818 30.0643L0.927622 27.7314C0.90544 27.6644 0.927622 27.5919 0.983076 27.5472L4.78448 24.5558C4.82885 24.5223 4.80666 24.4497 4.75121 24.4497L0.495077 24.3018C0.411895 24.299 0.342577 24.2321 0.334258 24.1484C0.267713 23.501 0.237213 22.8508 0.237213 22.2034C0.237213 22.1085 0.317622 22.0303 0.411895 22.0359L7.42689 22.2815C7.51562 22.2843 7.58216 22.354 7.58493 22.4433C7.60434 23.2582 7.6903 24.0814 7.85111 24.9046C7.86221 24.966 7.84002 25.0274 7.79011 25.0664L4.19389 27.8932C4.14953 27.9267 4.17171 27.9993 4.22716 27.9993L8.78552 28.1583C8.84652 28.1583 8.90198 28.1974 8.9297 28.256C9.27907 29.0178 9.68666 29.7378 10.1497 30.4103C10.1996 30.4829 10.1857 30.5805 10.1164 30.6363L4.58485 34.984C4.50998 35.0426 4.40185 35.0286 4.34639 34.9505L4.34362 34.9477Z" fill="#FF553D"/>
<path d="M8.7382 16.4084C9.06815 15.6466 9.46188 14.9099 9.92492 14.2067C10.0081 14.0811 9.89997 13.9193 9.75302 13.95L4.47375 15.0773L4.17707 15.1415C4.14934 15.1471 4.11884 15.1471 4.09111 15.1359L1.79807 14.3881C1.71212 14.3602 1.62062 14.4048 1.59012 14.4885C1.36553 15.0969 1.16589 15.7108 0.99398 16.3359C0.969025 16.4224 1.01893 16.5145 1.10489 16.5424L3.4007 17.2902C3.42843 17.2986 3.45339 17.3153 3.4728 17.3377L3.67243 17.5665L7.2742 21.5876C7.37402 21.6993 7.55425 21.6323 7.56256 21.4816C7.60415 20.65 7.71784 19.8212 7.89806 19.0092C7.90915 18.9562 7.89806 18.9031 7.85925 18.8613L6.27602 17.0893C6.24829 17.0586 6.26493 17.0056 6.30652 16.9972L8.62452 16.5005C8.6772 16.4893 8.71879 16.4531 8.74097 16.4056L8.7382 16.4084Z" fill="#FF553D"/>
<path d="M4.41559 9.22837C4.79545 8.70654 5.20027 8.20145 5.62727 7.71032C5.68273 7.64614 5.777 7.63498 5.84632 7.68241L9.38709 10.0851C9.43422 10.1158 9.49245 10.0739 9.47859 10.0181L8.14768 5.35232C8.12827 5.28535 8.15322 5.2128 8.20868 5.17094L10.1801 3.72824C10.2355 3.68638 10.3132 3.68638 10.3714 3.72545L14.3724 6.44063C14.4196 6.47133 14.4778 6.42947 14.4639 6.37366L13.2883 2.25205C13.2661 2.17112 13.3049 2.08462 13.3826 2.05113C13.9787 1.79161 14.5832 1.56 15.1932 1.35908C15.2819 1.32838 15.3789 1.3814 15.4067 1.47349L17.342 8.26563C17.367 8.34935 17.3198 8.43865 17.2367 8.46655C16.4714 8.73723 15.7228 9.07489 14.9935 9.4823C14.9381 9.513 14.8743 9.51021 14.8216 9.47393L11.0396 6.90386C10.9925 6.87316 10.9343 6.91502 10.9481 6.97083L12.2042 11.3827C12.2208 11.444 12.2042 11.5082 12.157 11.5501C11.547 12.1194 10.9925 12.7305 10.4989 13.3835C10.4463 13.4532 10.3492 13.47 10.2771 13.4197L4.45718 9.46835C4.37955 9.41533 4.36014 9.3065 4.41559 9.22837Z" fill="#FF553D"/>
<path d="M23.2964 7.70028C24.1171 7.77841 24.9379 7.93189 25.7447 8.15514C25.8889 8.1942 26.0109 8.04351 25.9361 7.91236L23.2382 3.20753L23.0857 2.94243C23.0718 2.91732 23.0635 2.88662 23.0635 2.85872V0.430958C23.0635 0.341661 22.9914 0.266317 22.9027 0.260736C22.2594 0.232831 21.6161 0.232831 20.9729 0.260736C20.8841 0.263527 20.8121 0.338871 20.8121 0.430958V2.86151C20.8121 2.8922 20.8065 2.92011 20.7899 2.94801L20.6374 3.21032L17.9506 7.89841C17.8757 8.02956 17.995 8.18025 18.1392 8.14118C18.9377 7.92352 19.7557 7.77562 20.5792 7.69749C20.6318 7.69191 20.679 7.66121 20.7067 7.61656L21.8906 5.55436C21.9128 5.51809 21.9655 5.51809 21.9877 5.55436L23.1716 7.61935C23.1994 7.66679 23.2465 7.6947 23.2992 7.70028H23.2964Z" fill="#FF553D"/>
<path d="M28.7467 1.3435C29.3567 1.54442 29.9612 1.77603 30.5573 2.03555C30.635 2.06904 30.6738 2.15554 30.6516 2.23647L29.476 6.36645C29.4593 6.41947 29.5203 6.46411 29.5675 6.43342L33.5657 3.71545C33.624 3.67638 33.6988 3.67638 33.757 3.71824L35.7285 5.16094C35.7839 5.2028 35.8089 5.27535 35.7895 5.34232L34.4613 10.0109C34.4447 10.0639 34.5057 10.1085 34.5528 10.0778L38.0825 7.67799C38.1518 7.63055 38.2461 7.64172 38.3015 7.7059C38.7313 8.19424 39.1361 8.70212 39.5132 9.22394C39.5687 9.30208 39.5493 9.41091 39.4716 9.46393L33.6517 13.4153C33.5796 13.4655 33.4825 13.4488 33.4299 13.379C32.9391 12.7288 32.3873 12.1177 31.7773 11.5457C31.733 11.5038 31.7136 11.4396 31.7302 11.3782L32.989 6.96362C33.0056 6.9106 32.9446 6.86595 32.8975 6.89665L29.1183 9.46393C29.0656 9.50021 28.9991 9.50021 28.9464 9.46951C28.2199 9.0593 27.4685 8.71886 26.7032 8.44818C26.6201 8.42027 26.5757 8.33098 26.5979 8.24726L28.5332 1.45512C28.5582 1.36303 28.6552 1.31001 28.7467 1.34071V1.3435Z" fill="#FF553D"/>
<path d="M36.0139 18.9419C36.1941 19.7539 36.3023 20.5827 36.3411 21.4255C36.3466 21.5761 36.5296 21.6431 36.6294 21.5315L40.2423 17.4964L40.4447 17.2676C40.4641 17.2452 40.4891 17.2285 40.5168 17.2201L42.8098 16.4695C42.8958 16.4416 42.9429 16.3495 42.9208 16.263C42.7488 15.6379 42.5492 15.0212 42.3246 14.4184C42.2941 14.3347 42.1998 14.2901 42.1167 14.318L39.8208 15.0714C39.7931 15.0798 39.7626 15.0826 39.7321 15.077L39.4354 15.01L34.1728 13.8854C34.0259 13.8548 33.9205 14.0166 34.0009 14.1422C34.4529 14.8398 34.8438 15.5765 35.1738 16.3411C35.1959 16.3913 35.2375 16.4276 35.2902 16.4388L37.6054 16.9355C37.647 16.9439 37.6637 16.9969 37.6359 17.0276L36.0499 18.7996C36.0139 18.8386 36 18.8944 36.0111 18.9447L36.0139 18.9419Z" fill="#FF553D"/>
<path d="M43.7079 22.193C43.7079 22.8404 43.6747 23.4878 43.6137 24.138C43.6054 24.2217 43.536 24.2886 43.4529 24.2914L39.1856 24.4421C39.1302 24.4421 39.108 24.5147 39.1524 24.5482L42.9565 27.5368C43.012 27.5815 43.0342 27.654 43.012 27.721L42.2578 30.0539C42.2356 30.1208 42.1746 30.1683 42.1053 30.1683L37.2835 30.3385C37.2281 30.3385 37.2059 30.4111 37.2503 30.4445L40.608 33.0816C40.6746 33.1346 40.6912 33.2267 40.6496 33.302C40.3197 33.8657 39.9648 34.4071 39.5905 34.9317C39.535 35.0098 39.4269 35.0238 39.352 34.9652L33.8204 30.6176C33.7511 30.5645 33.7372 30.4641 33.7871 30.3915C34.2474 29.7218 34.6578 29.0046 35.0099 28.2428C35.0349 28.187 35.0903 28.1479 35.1541 28.1479L39.7152 27.9889C39.7707 27.9889 39.7929 27.9163 39.7485 27.8828L36.155 25.0588C36.1051 25.0198 36.083 24.9584 36.094 24.897C36.2549 24.0738 36.3464 23.2506 36.3658 22.4329C36.3658 22.3436 36.4379 22.2739 36.5238 22.2711L43.5388 22.0255C43.6331 22.0227 43.7135 22.0981 43.7135 22.193H43.7079Z" fill="#FF553D"/>
<path d="M29.3289 34.5931C28.6191 35.0145 27.8677 35.3773 27.083 35.6731C26.9416 35.7261 26.9361 35.9214 27.0719 35.9828L32.0018 38.1929L32.2791 38.3157C32.3068 38.3269 32.329 38.3464 32.3456 38.3715L33.7653 40.3332C33.818 40.4058 33.9178 40.4253 33.9926 40.3751C34.5305 40.0179 35.049 39.6356 35.5537 39.2338C35.623 39.178 35.6369 39.0747 35.5842 39.0022L34.1645 37.0376C34.1479 37.0125 34.1368 36.9846 34.134 36.9539L34.1063 36.6498L33.5407 31.2668C33.524 31.1161 33.3383 31.0631 33.244 31.1803C32.7227 31.8277 32.1488 32.4305 31.5277 32.983C31.4889 33.0193 31.4667 33.0695 31.4722 33.1253L31.719 35.4945C31.7245 35.5363 31.6802 35.5698 31.6414 35.5503L29.4786 34.582C29.4287 34.5596 29.3733 34.5624 29.3289 34.5903V34.5931Z" fill="#FF553D"/>
<path d="M28.6347 42.9595C28.0247 43.1576 27.4009 43.3278 26.7659 43.4702C26.6827 43.4897 26.5995 43.4423 26.5718 43.3641L25.1106 39.3262C25.0912 39.2732 25.0191 39.2732 24.9997 39.3262L23.3499 43.8887C23.325 43.9557 23.264 43.9976 23.1946 43.9976H20.7574C20.6881 43.9976 20.6243 43.9529 20.6021 43.8887L18.9496 39.3262C18.9302 39.2732 18.8581 39.2732 18.8387 39.3262L17.383 43.3558C17.3553 43.4339 17.2721 43.4813 17.1889 43.4646C16.5567 43.3223 15.9329 43.152 15.3201 42.9539C15.2286 42.926 15.1815 42.8256 15.2147 42.7363L17.6131 36.0976C17.6436 36.0139 17.7324 35.9692 17.8156 35.9971C18.5919 36.2315 19.396 36.4018 20.2223 36.5022C20.2833 36.5106 20.336 36.5497 20.3581 36.6083L21.9164 40.9252C21.9358 40.9782 22.0079 40.9782 22.0273 40.9252L23.5856 36.6138C23.6078 36.5552 23.6605 36.5134 23.7215 36.5078C24.5477 36.4101 25.3546 36.2399 26.1337 36.0083C26.2169 35.9832 26.3056 36.0278 26.3361 36.1088L28.7345 42.7474C28.7678 42.8367 28.7179 42.9372 28.6292 42.9651L28.6347 42.9595Z" fill="#FF553D"/>
</g>
<defs>
<clipPath id="clip0_56_1500">
<rect width="43.7054" height="44" fill="white"/>
</clipPath>
</defs>
</svg>
