<?xml version="1.0" encoding="UTF-8"?>
<!DOCTYPE svg PUBLIC "-//W3C//DTD SVG 1.1//EN" "http://www.w3.org/Graphics/SVG/1.1/DTD/svg11.dtd">
<!-- Creator: CorelDRAW -->
<svg xmlns="http://www.w3.org/2000/svg" xml:space="preserve" width="187.212mm" height="37.9541mm" version="1.1" style="shape-rendering:geometricPrecision; text-rendering:geometricPrecision; image-rendering:optimizeQuality; fill-rule:evenodd; clip-rule:evenodd"
viewBox="0 0 18714.14 3793.98"
 xmlns:xlink="http://www.w3.org/1999/xlink"
 xmlns:xodm="http://www.corel.com/coreldraw/odm/2003">
 <defs>
  <style type="text/css">
   <![CDATA[
    .fil0 {fill:#FEFEFE}
    .fil1 {fill:#003399;fill-rule:nonzero}
   ]]>
  </style>
 </defs>
 <g id="Слой_x0020_1">
  <metadata id="CorelCorpID_0Corel-Layer"/>
  <rect class="fil0" y="1.41" width="18714.14" height="3792.57"/>
  <path class="fil1" d="M0.02 42.34l561.5 0 -84.8 1091.2 -397.22 0 -79.48 -1091.2zm736.32 0l561.41 0 -84.7 1091.2 -397.32 0 -79.39 -1091.2zm1520.24 2855c0,134.24 27.38,228.69 82.14,283.45 54.66,54.67 127.94,82.05 219.74,82.05 91.9,0 165.17,-27.38 219.84,-82.05 54.76,-54.76 82.14,-149.21 82.14,-283.45l0 -2002.15c0,-134.25 -27.38,-228.7 -82.14,-283.46 -54.67,-54.66 -127.94,-82.04 -219.84,-82.04 -91.8,0 -165.08,27.38 -219.74,82.04 -54.76,54.76 -82.14,149.21 -82.14,283.46l0 2002.15zm-582.68 -1965.12c0,-300.11 75.93,-530.58 227.8,-691.22 151.78,-160.74 370.73,-241.01 656.75,-241.01 286.12,0 504.97,80.27 656.84,241.01 151.87,160.64 227.81,391.11 227.81,691.22l0 1928.08c0,300.11 -75.94,530.58 -227.81,691.22 -151.87,160.74 -370.72,241.01 -656.84,241.01 -286.02,0 -504.97,-80.27 -656.75,-241.01 -151.87,-160.64 -227.8,-391.11 -227.8,-691.22l0 -1928.08zm3363.6 2817.96c-7.09,-24.72 -14.18,-47.67 -21.27,-68.84 -6.99,-21.17 -13.2,-47.67 -18.51,-79.48 -5.32,-31.82 -8.77,-72.39 -10.55,-121.83 -1.77,-49.45 -2.66,-111.2 -2.66,-185.37l0 -582.68c0,-173.04 -30.04,-294.88 -90.02,-365.5 -60.08,-70.61 -157.19,-105.88 -291.34,-105.88l-201.32 0 0 1509.59 -582.68 0 0 -3707.84 879.34 0c303.66,0 523.49,70.62 659.41,211.86 136.02,141.24 203.97,354.87 203.97,640.99l0 291.24c0,381.47 -127.15,632.12 -381.36,752.19 148.32,60.08 249.78,158.08 304.54,294 54.76,135.92 82.14,301.1 82.14,495.22l0 572.13c0,91.8 3.45,172.17 10.55,241.02 7.09,68.84 24.72,138.58 52.99,209.19l-593.23 0zm-635.67 -3178.15l0 1138.87 227.81 0c109.43,0 195.02,-28.27 256.87,-84.8 61.76,-56.44 92.68,-158.87 92.68,-307.2l0 -365.5c0,-134.15 -23.83,-231.26 -71.5,-291.34 -47.67,-59.98 -122.72,-90.03 -225.16,-90.03l-280.7 0zm1546.73 -529.69l582.68 0 0 3707.84 -582.68 0 0 -3707.84zm1589.07 1562.58l799.86 0 0 529.69 -799.86 0 0 1085.88 1006.4 0 0 529.69 -1589.08 0 0 -3707.84 1589.08 0 0 529.69 -1006.4 0 0 1032.89zm1885.74 -540.23l0 2685.49 -524.47 0 0 -3707.84 731 0 598.54 2219.43 0 -2219.43 519.15 0 0 3707.84 -598.54 0 -725.69 -2685.49zm1583.75 -1022.35l1800.93 0 0 529.69 -609.17 0 0 3178.15 -582.58 0 0 -3178.15 -609.18 0 0 -529.69zm2039.28 1589.08l1059.38 0 0 529.69 -1059.38 0 0 -529.69zm1456.7 -1589.08l582.68 0 0 3707.84 -582.68 0 0 -3707.84zm847.53 0l1800.93 0 0 529.69 -609.18 0 0 3178.15 -582.58 0 0 -3178.15 -609.17 0 0 -529.69zm2065.77 0l561.51 0 -84.8 1091.2 -397.22 0 -79.49 -1091.2zm736.33 0l561.41 0 -84.71 1091.2 -397.32 0 -79.38 -1091.2z"/>
 </g>
</svg>
