<?xml version="1.0" encoding="UTF-8"?>
<svg id="_Слой_2" data-name="Слой 2" xmlns="http://www.w3.org/2000/svg" viewBox="0 0 510.24 119.83">
  <defs>
    <style>
      .cls-1 {
        fill: #20cc6d;
      }
    </style>
  </defs>
  <g id="_Слой_1-2" data-name="Слой 1">
    <g>
      <path class="cls-1" d="M42.52,108.23c25.06,0,42.52-19.31,42.52-44.45s-17.46-44.45-42.52-44.45S0,38.64,0,63.78s17.46,44.45,42.52,44.45h0Z"/>
      <path d="M170.08,54.57c0-19.86-12.75-35.24-31.3-35.24-8.89,0-16.27,3.23-21.49,8.85v-2.74c0-3.01-1.7-4.56-4.7-4.56h-11.24c-3.01,0-4.7,1.55-4.7,4.56v89.68c0,3.01,1.7,4.71,4.7,4.71h11.24c3.01,0,4.7-1.71,4.7-4.71v-34.15c5.23,5.62,12.61,9.49,21.49,9.49,18.55,0,31.3-16.02,31.3-35.88h0ZM411.83,60.38h46.74c2.81,0,4.78-1.37,5.04-4.18.13-.91.23-1.89.23-2.74,0-19.01-15.24-34.13-35.95-34.13s-37.49,15.38-37.49,35.24,16,35.88,39.39,35.88c12.02,0,21.29-4.85,28.22-11.32,2.22-2.09,2.09-4.44.13-6.66l-2.81-3.14c-1.96-2.22-4.12-2.29-6.6-.59-5.23,3.66-11.43,5.42-18.68,5.42-10.06,0-16.73-5.23-18.23-13.78h0ZM427.64,34.97c7.78,0,13.45,4.7,15.09,12.15h-30.57c2.03-7.58,7.84-12.15,15.48-12.15h0ZM495.41,63.91v-25.02h9.99c3,0,4.83-1.7,4.83-4.7v-8.75c0-3.01-1.83-4.56-4.83-4.56h-9.99V4.35C495.41,1.7,493.87.02,491.33,0c-.32,0-.66.02-1.02.07l-11.69,1.66c-2.87.46-4.31,2.16-4.31,5.03v14.11h-5.43c-3.01,0-5.02,1.55-5.02,4.56v8.75c0,3.01,2.02,4.7,5.02,4.7h5.43v27.18c0,15.16,8.88,24.38,23.32,24.38,3.53,0,6.92-.57,9.8-1.55,2.48-.85,2.81-3.24,2.81-5.85v-6.73c0-3.14-1.04-4.64-4.18-4.51h-2.03c-6.21,0-8.62-2.48-8.62-7.91h0ZM360.94,19.33c-7.71,0-14.56,2.97-19.14,8.52v-2.42c0-3.01-1.7-4.56-4.7-4.56h-11.56c-3.01,0-4.7,1.55-4.7,4.56v58.28c0,3.01,1.7,5.2,4.7,5.2h11.56c3.01,0,4.7-2.19,4.7-5.2v-31.88c0-9.28,6.07-14.24,12.86-14.24,6.08,0,10.91,5.62,10.91,11.69v34.43c0,3.01,1.7,5.2,4.7,5.2h11.56c3.01,0,4.7-2.19,4.7-5.2v-37.76c0-16.01-10.77-26.62-25.6-26.62h0ZM267.53,119.83h12.15c2.68,0,4.44,0,5.36-3.8l31.53-89.88c.27-.76.4-1.33.4-2.08,0-2.09-1.36-3.19-4.03-3.19h-12.02c-2.74,0-4.51,1.16-5.29,3.77l-11.5,37.11-11.3-37.11c-.79-2.61-2.55-3.77-5.29-3.77h-12.02c-2.7,0-4.26,1.13-4.26,3.27,0,.68.14,1.28.4,2.01l22.28,62.76-10.06,25.43c-1.31,3.33.13,5.5,3.66,5.5h0ZM173.94,54.57c0,19.86,13.07,35.88,31.69,35.88,8.89,0,16.2-3.87,21.49-9.49v2.74c0,3.01,1.7,5.2,4.7,5.2h10.85c3.01,0,4.7-2.19,4.7-5.2V25.43c0-3.01-1.7-4.56-4.7-4.56h-10.85c-3.01,0-4.7,1.55-4.7,4.56v2.74c-5.29-5.62-12.61-8.85-21.49-8.85-18.62,0-31.69,15.38-31.69,35.24h0ZM194.66,54.57c0-9.6,7.06-16.99,16.14-16.99s16.33,7.38,16.33,16.99-7.19,16.99-16.33,16.99-16.14-7.32-16.14-16.99h0ZM149.75,54.57c0,9.67-7.12,16.99-16.2,16.99s-16.27-7.32-16.27-16.99,7.19-16.99,16.27-16.99,16.2,7.38,16.2,16.99h0Z"/>
    </g>
  </g>
</svg>