<?xml version="1.0" encoding="UTF-8"?>
<!DOCTYPE svg PUBLIC "-//W3C//DTD SVG 1.1//EN" "http://www.w3.org/Graphics/SVG/1.1/DTD/svg11.dtd">
<!-- Creator: CorelDRAW -->
<svg xmlns="http://www.w3.org/2000/svg" xml:space="preserve" width="180mm" height="23.4145mm" version="1.1" style="shape-rendering:geometricPrecision; text-rendering:geometricPrecision; image-rendering:optimizeQuality; fill-rule:evenodd; clip-rule:evenodd"
viewBox="0 0 17999.86 2341.43"
 xmlns:xlink="http://www.w3.org/1999/xlink"
 xmlns:xodm="http://www.corel.com/coreldraw/odm/2003">
 <defs>
  <style type="text/css">
   <![CDATA[
    .fil2 {fill:black;fill-rule:nonzero}
    .fil3 {fill:url(#id0)}
    .fil1 {fill:url(#id1)}
    .fil0 {fill:url(#id2)}
   ]]>
  </style>
  <linearGradient id="id0" gradientUnits="userSpaceOnUse" x1="298.28" y1="1224.27" x2="1227.8" y2="119.19">
   <stop offset="0" style="stop-opacity:0.498039; stop-color:#E82CFF"/>
   <stop offset="1" style="stop-opacity:1; stop-color:#FF8398"/>
  </linearGradient>
  <linearGradient id="id1" gradientUnits="userSpaceOnUse" x1="1140.48" y1="2049.02" x2="2182.23" y2="1076.19">
   <stop offset="0" style="stop-opacity:1; stop-color:#20D2E6"/>
   <stop offset="1" style="stop-opacity:0.498039; stop-color:#2482ED"/>
  </linearGradient>
  <linearGradient id="id2" gradientUnits="userSpaceOnUse" x1="322.21" y1="292.76" x2="1661.87" y2="1819.64">
   <stop offset="0" style="stop-opacity:1; stop-color:#7878FF"/>
   <stop offset="0.290196" style="stop-opacity:1; stop-color:#C3C2FF"/>
   <stop offset="0.501961" style="stop-opacity:1; stop-color:#6C4FFF"/>
   <stop offset="1" style="stop-opacity:1; stop-color:#4A26FF"/>
  </linearGradient>
 </defs>
 <g id="Слой_x0020_1">
  <metadata id="CorelCorpID_0Corel-Layer"/>
  <g id="_1626309963472">
   <path id="Smart_x0020_Bank_x0020__x2013__x0020__x0040_LogotipUz" class="fil0" d="M202.04 1655.96l1937.81 0c266.74,-268.11 267.95,-700.93 2.73,-970.51l-1943.26 0c-265.21,269.58 -263.99,702.4 2.72,970.51z"/>
   <path id="Smart_x0020_Bank_x0020__x2013__x0020__x0040_LogotipUz_0" class="fil1" d="M685.44 2139.83c268.83,268.79 704.6,268.79 973.41,0l481 -481c268.79,-268.81 268.79,-704.6 0,-973.4l-1454.41 1454.4z"/>
   <path id="Smart_x0020_Bank_x0020__x2013__x0020__x0040_LogotipUz_1" class="fil2" d="M17999.86 1787.23l-371.43 0 -545.02 -588.51 -297.45 220.48 0 368.03 -282.96 0 0 -1227.78 282.96 0 0 571.47 766.97 -571.47 389.05 0 -644.73 481.61 702.6 746.17zm-1838.32 0l-331.18 0 -789.42 -876.79 -4.84 0 0 876.79 -282.94 0 0 -1227.78 329.56 0 789.45 878.41 6.43 0 0 -878.48 282.94 0 0 1227.85zm-2089.29 -500.33l-255.66 -503.64 -255.58 503.64 511.24 0zm538.61 500.33l-286.18 0 -133.45 -264.57 -746 0 -133.44 264.57 -286.18 0 618.96 -1227.78 348.86 0 617.42 1227.78zm-2092.3 -235.68c114.21,0 175.32,-49.17 175.32,-132.28 0,-86.49 -64.33,-145.84 -170.49,-145.84l-713.86 0 0 278.12 709.03 0zm0 -513.86c62.71,0 115.8,-52.53 115.8,-123.81 0,-69.5 -51.5,-118.69 -127.01,-118.69l-697.82 0 0 242.5 709.03 0zm283.03 111.87c115.74,67.84 180.07,157.75 180.07,284.92 0,203.49 -167.29,352.68 -440.56,352.68l-1014.51 0 0 -1227.71 982.38 0c131.76,0 255.58,55.97 332.78,145.9 50.72,57.63 78.73,131.77 78.79,208.54 0,101.78 -37.03,174.73 -118.95,235.75l0 -0.07zm-2035.02 -353.85l-277.16 0 0 994.53 277.16 0 0 -994.53zm-803.46 0l1333.45 0 0 -244.24 -1333.45 0 0 244.24zm-718.69 339.5c145.46,0 252.81,-35.33 252.81,-173.54 0,-138.22 -107.35,-173.57 -252.81,-173.57l-547.37 0 0 346.82 547.37 0 0 0.29zm240.73 655.03l-348.05 -421.24 -438.3 0 0 421.24 -275.36 0 0 -1239.08 836.56 0c296.13,0 519.44,139.76 519.44,408.95 0,210.74 -136.78,341.64 -337.52,389.5l373.88 440.64 -330.66 0zm-1771.96 -491.92l-251.05 -504.45 -250.96 504.45 502.31 0 -0.3 0zm116.04 230.18l-732.57 0 -129.87 261.96 -296.06 0 642.44 -1238.99 302.91 0 642.44 1239.04 -299.7 0 -129.87 -262.08 0.27 0.07zm-1325.04 -977.03l0 1238.99 -277.09 0 0 -862.03 -531.74 663.65 -13.88 0 -531.74 -663.65 0 862.03 -268.39 0 0 -1238.99 301.17 0 512.55 654.94 512.57 -654.94 296.55 0zm-1887.12 863.61c0,244.23 -226.98,414.15 -656.32,414.15 -306.61,0 -555.82,-88.53 -741.23,-249.53l159.3 -192.93c148.84,139.84 341.19,205.31 588.87,205.31 247.71,0 370.69,-47.93 370.69,-150.57 0,-102.67 -124.76,-130.92 -403.47,-155.79 -346.3,-30.08 -668.47,-107.86 -668.47,-373.54 0,-265.68 270.23,-400.01 644.19,-400.01 264.87,0 493.54,67.3 647.77,189.27l-152.42 196.34c-133.44,-104.42 -297.94,-146.86 -495.36,-148.71 -164.49,-1.81 -365.56,28.26 -365.56,141.66 0,106.25 173.19,116.71 413.94,136.4 386.32,31.91 658,114.88 658,387.65l0.07 0.3z"/>
   <path id="Smart_x0020_Bank_x0020__x2013__x0020__x0040_LogotipUz_2" class="fil3" d="M682.67 201.57l-481.07 481.03c-268.81,268.78 -268.81,704.58 0,973.38l1454.46 -1454.41c-134.4,-134.39 -310.54,-201.57 -486.7,-201.57 -176.15,0 -352.3,67.18 -486.7,201.57z"/>
  </g>
 </g>
</svg>
