<?xml version="1.0" encoding="UTF-8"?>
<!DOCTYPE svg PUBLIC "-//W3C//DTD SVG 1.1//EN" "http://www.w3.org/Graphics/SVG/1.1/DTD/svg11.dtd">
<!-- Creator: CorelDRAW -->
<svg xmlns="http://www.w3.org/2000/svg" xml:space="preserve" width="190mm" height="27.33mm" version="1.1" style="shape-rendering:geometricPrecision; text-rendering:geometricPrecision; image-rendering:optimizeQuality; fill-rule:evenodd; clip-rule:evenodd"
viewBox="0 0 19000 2733"
 xmlns:xlink="http://www.w3.org/1999/xlink"
 xmlns:xodm="http://www.corel.com/coreldraw/odm/2003">
 <defs>
  <style type="text/css">
   <![CDATA[
    .fil2 {fill:#C21D21}
    .fil0 {fill:black;fill-rule:nonzero}
    .fil1 {fill:#091C3D;fill-rule:nonzero}
   ]]>
  </style>
 </defs>
<symbol id="Fm10-14-0" viewBox="34953.76 -19362.57 5564.65 5726.11">
 <path class="fil0" d="M37744.27 -19362.22l-2790.15 0 -0.36 0 0 153.42c228.71,-2.86 385.1,18.17 469.55,66.01 85.48,46.35 145.35,108.44 179.53,187.29 35.28,78.81 51.65,278.58 51.65,599.68l0 2738.37c0,466.27 71.96,834.78 214.84,1110.9 144.28,274.32 390.8,499.78 737.8,675.67 255.76,129.51 618.06,194.42 1084.75,194.42 560.74,0 1004.64,-122.34 1328.49,-367.45 323.82,-245.08 527.97,-512.63 612.39,-804.09 83.01,-291.47 125.03,-765.95 125.03,-1423.42l0 -2124.78c0,-227.93 17.46,-385.63 51.68,-474.46 44.87,-126.64 118.25,-220.83 219.07,-284.33 100.83,-63.15 227.3,-94.16 378.36,-94.16l111.51 0 0 -153.42 -1869.97 0 0 153.42c219.08,0 387.95,30.66 507.65,94.16 76.23,40.67 140.37,115.25 190.6,222.25 50.24,107.03 76.24,286.13 76.24,536.54l0 2281.02c0,594.36 -51.65,1011.03 -153.92,1250.42 -102.23,239.36 -255.76,426.65 -462.74,563.28 -205.21,136.63 -454.59,204.05 -747.07,204.05 -255.8,0 -466.69,-53.48 -634.12,-160.52 -167.08,-108.44 -287.16,-242.25 -360.54,-404.21 -73.38,-163.02 -110.07,-494.06 -110.07,-995.29l0 -2738.37c0,-318.24 17.82,-518.02 50.59,-598.27 32.77,-78.85 88.34,-142.35 167.43,-187.29 79.09,-44.95 223.38,-67.42 432.86,-67.42l138.92 0 0 -153.42z"/>
</symbol>
<symbol id="Fm13-17-0" viewBox="46874.72 -19442.55 5742.13 5802.17">
 <path class="fil0" d="M50982.43 -15000.3c-130.53,387.07 -312.91,668.9 -545.75,844.8 -183.79,136.63 -412.39,205.45 -686.15,205.45 -407.11,0 -724.25,-159.1 -950.03,-478.75 -323.85,-456.25 -485.78,-1161.56 -485.78,-2116.21 0,-802.67 105.13,-1419.12 314.33,-1847.21 258.59,-522.26 634.33,-784.12 1129.95,-784.12l0 0.35c267.75,0 504.47,75.99 710.14,226.52 207.08,151.98 376.06,410.98 509.06,778.44 133.7,366.01 200.41,919.34 200.41,1659.92 0,621.1 -65.3,1125.19 -196.18,1510.81zm827.26 -3660.56c-539.04,-552.24 -1238.6,-812.66 -2100.08,-778.76l0 0.35c-797.6,-33.9 -1468.26,226.52 -2015.77,781.26 -545.72,553.34 -819.12,1245.77 -819.12,2076.63 0,739.18 210.93,1378.09 630.03,1917.49 532.34,682.84 1284.81,1023.51 2256.72,1023.51 970.13,0 1721.23,-357.47 2253.58,-1072.72 401.42,-539.4 601.8,-1163.01 601.8,-1872.55 0,-830.51 -269.52,-1521.88 -807.16,-2075.21z"/>
</symbol>
<symbol id="Fm2-19-0" viewBox="32574.34 -8086.04 1917.35 2880.13">
 <path class="fil0" d="M32579.35 -5977.18l0 -2108.66c492.69,-3.6 864.59,42.75 1112.56,140.51 249.37,97.75 444.6,268.25 586.74,511.56 141.78,243.31 213.04,519.79 213.04,827.65 0,267.97 -58.03,511.21 -175.26,728.17 -115.78,218.27 -282.51,385.59 -500.91,499.75 -218.02,115.99 -456,172.29 -713.92,172.29 -175.29,0 -305.68,-44.55 -395.07,-132.32 -89.08,-89.54 -132.19,-221.9 -132.19,-395.64l5.01 -243.31z"/>
</symbol>
<symbol id="Fm3-20-0" viewBox="32578.97 -11054.55 1689.35 2589.45">
 <path class="fil0" d="M33592.54 -8619.19c-218.06,102.73 -555.42,154.09 -1013.18,154.09l-0.39 -0.7 0 -2588.55c470.99,-3.56 812.98,42.83 1026.37,140.55 213.4,97.75 376.91,238.3 490.93,423.83 114.33,187.29 172.05,425.59 172.05,715.25 0,291.47 -57.72,531.57 -173.5,718.51 -117.19,187.29 -284.27,332.84 -502.28,437.02z"/>
</symbol>
<symbol id="Fm4-21-0" viewBox="30137.97 -11423.21 6058.04 6576.23">
 <path class="fil0" d="M35653.79 -7804.77c-251.15,-206.91 -689.33,-383.86 -1312.44,-527.97l0.39 -0.35c578.16,-145.91 981.81,-342.83 1209.81,-589.35 229.77,-247.94 343.78,-529.42 343.78,-847.27 0,-299.68 -89.42,-584.34 -271.11,-850.83 -180.26,-266.49 -426.79,-466.62 -740.65,-600.78 -312.42,-134.13 -846.46,-201.89 -1598.47,-201.89l-3147.13 0 0 180.51c301.02,0 505.88,26.39 614.89,82.76 109.01,54.58 186.65,127.36 229.76,220.1 44.91,92.75 66.29,316.09 66.29,672.11l0 4267.03c0,356.02 -21.73,577.92 -66.29,668.9 -43.11,90.95 -118.99,163.72 -226.55,220.1 -109.05,57.78 -313.87,85.97 -618.1,85.97l0 178.75 3337.34 0c929.11,0 1638.06,-195.16 2125.77,-587.55 396.49,-322.86 594.93,-731.7 594.93,-1226.5 0,-468.42 -180.27,-849.07 -542.22,-1143.74z"/>
</symbol>
<symbol id="Fm14-18-0" viewBox="53024.3 -19362.23 5589.09 5722.55">
 <path class="fil0" d="M57609 -15892.87l-2667.32 -3469.36 0.32 0.74 -1917.7 0 0 153.39c164.39,5.71 291.39,31.04 378.21,77.4 88.87,47.8 189.06,145.2 303.71,292.91l115.71 149.12 0 3947.72c0,297.18 -58.56,506.94 -175.68,630.73 -117.09,123.79 -323.85,187.29 -621.95,190.15l0 151.98 1917.7 0 0 -151.98 -128.02 0c-182.39,0 -345.72,-56.37 -487.22,-170.53 -142.88,-112.36 -213.79,-329.29 -213.79,-650.35l0 -3556.39 3655.52 4657.66 136.14 0 0 -4657.66c0,-263.27 21.52,-450.56 64.94,-559.01 44.1,-108.44 104.74,-187.29 184.12,-235.09 78.67,-48.15 231.07,-87.42 459.7,-117.02l0 -153.42 -1785.44 0 0 153.42c300.57,-5.71 514.35,71.69 642.41,230.83 92.43,118.07 138.64,344.94 138.64,679.94l0 2404.82z"/>
</symbol>
<symbol id="Fm5-22-0" viewBox="38306.41 -9342.32 1985.05 2264.24">
 <polygon class="fil0" points="39314.62,-9342.32 40291.46,-7078.08 38306.41,-7078.08 "/>
</symbol>
<symbol id="Fm11-15-0" viewBox="42828.33 -16318.11 0.35 0.35">
 <polygon class="fil0" points="42828.68,-16317.76 42828.68,-16318.11 42828.33,-16317.76 "/>
</symbol>
<symbol id="Fm12-16-0" viewBox="40810.51 -19361.13 5817.59 5593.4">
 <path class="fil0" d="M44317.76 -17095.45c-104.78,183.02 -249.07,310.02 -432.86,380.29 -183.76,70.28 -460.2,104.18 -828.92,104.18l-227.3 0 0 -2449.8 426.09 0c428.55,0 738.78,101.32 931.05,305.4 193.32,204.05 289.98,517.99 289.98,944.64 0,294.32 -53.27,532.27 -158.04,715.29zm1930.75 3034.8c-70.56,-60.64 -191.91,-212.61 -361.95,-457.69l-1299.63 -1893.6c329.49,-84.18 585.25,-212.27 769.05,-382.77 287.16,-270.05 431.45,-611.12 431.45,-1023.51 0,-337.82 -96.66,-633.59 -287.13,-884.03 -191.59,-251.85 -439.59,-424.88 -741.92,-517.98 -303.39,-93.1 -780.7,-140.9 -1435.56,-140.9l-2512.31 0 0 153.39c247.61,0 416.45,22.47 506.24,70.27 91.19,46.39 153.91,108.44 190.6,187.29 35.28,78.85 53.09,268.64 53.09,571.5l0 3629.52c0,302.54 -17.81,491.24 -53.09,568.68 -36.69,77.4 -99.34,139.48 -187.75,187.29 -89.78,49.21 -258.62,73.13 -509.09,73.13l0 151.97 2768.07 0 0 -151.97c-247.58,0 -416.45,-24.27 -507.65,-70.66 -89.78,-46.36 -152.47,-109.86 -189.16,-188.71 -35.27,-77.39 -53.09,-267.54 -53.09,-570.08l0 -1568.24 354.82 0 1742.09 2550.02 1702.51 0 0 -151.98c-144.29,-8.57 -269.17,-54.93 -379.59,-140.94z"/>
</symbol>
<symbol id="Fm6-23-0" viewBox="36408.32 -11558.78 6973.6 6712.13">
 <path class="fil0" d="M38137.6 -6718.81l2318.81 0 348.75 819.44c90.84,213.67 136.81,334.96 145.35,364.24 18.2,61.7 29.95,120.9 29.95,178.72 0,97.4 -36.02,172.65 -107.6,223.3 -101.88,72.08 -282.51,107.74 -537.21,107.74l-130.74 0 0 178.72 3177.01 0 0 -178.72c-200.2,-16.79 -355.49,-74.54 -466.34,-175.54 -145.66,-132.36 -332.35,-453.04 -557.14,-964.95l-2366.93 -5392.92 -92.63 0 -2348.76 5247.01c-223.77,500.52 -410.43,831.53 -561.84,991.37 -151.02,159.85 -345.16,258.31 -579.96,294.68l0 178.75 2183.48 0 0 -178.75c-341.98,-26.39 -556.12,-66.01 -643.05,-117.37 -147.81,-87.42 -223.02,-221.54 -223.02,-407.03 0,-139.14 43.81,-315 135.75,-528.01l276.12 -640.68z"/>
</symbol>
<symbol id="Fm0-12-0" viewBox="14134.8 -19349.38 14417.11 14560.9">
 <path class="fil0" d="M26430.8 -14388.83l-4993.57 -4960.55 -0.35 0.74 -7302.08 7253.32 7302.08 7306.84 4091.55 -4107.57 -23.53 -9.31c-465.03,-53.83 -987.14,-287.97 -1543.9,-537.56 -467.67,-209.69 -959.83,-430.32 -1463.21,-564.38 -569.46,-129.54 -1366.59,-150.14 -1983.57,-166.05 -465.7,-12.06 -828.78,-21.41 -913.8,-72.95 3054.21,-1129.07 4065.87,-711.66 5110.17,-280.78 549.09,226.59 1107.19,456.88 1976.01,468.03l1865.31 -1872.58c-2525.57,1278.72 -3324.51,914.54 -4474.28,390.42 -924.1,-421.25 -2074.83,-945.8 -4530.65,-803.84 2608.01,-1212.88 3920.28,-769.23 5228.69,-326.88 1014.52,342.97 2026.68,685.16 3638.73,253.75l-1121.45 -1114.11 -11.43 0.36c-1533.38,588.47 -2230.05,266.24 -3160.71,-164.19 -928.4,-429.4 -2089.68,-966.5 -4546.77,-814.7 2798.26,-1285.31 4195.51,-745.31 5396.97,-280.99 490.57,189.62 948.51,366.61 1455.87,401.57l3.92 1.41z"/>
</symbol>
<symbol id="Fm1-13-0" viewBox="30276.88 -13047.47 28978.19 347.8">
 <polygon class="fil0" points="59255.07,-13047.47 30276.88,-13047.47 30276.88,-12699.67 59255.07,-12699.67 "/>
</symbol>
<symbol id="Fm8-25-0" viewBox="51313.31 -11423.24 7280.31 6576.59">
 <path class="fil0" d="M57267.18 -6010.32l-2211.56 -2895 -0.71 -0.36 1841.11 -1542.55c451.24,-380.65 739.11,-605.76 866.11,-672.15 124.85,-66 295.98,-105.94 516.11,-122.31l0 -180.55 -2453.6 0 0 180.55c269.17,9.99 438.53,31.4 506.62,67.77 132.96,71.33 199.67,167.32 199.67,291.47 0,164.11 -162.98,384.21 -487.54,658.91l-2333.27 1973.13 0 -2045.9c0,-332.85 18.7,-539.75 56.8,-620.75 46.21,-105.94 109.36,-181.93 190.15,-228.32 110.77,-64.56 273.75,-95.99 485.74,-95.99l0 -180.48 -3129.5 0 0 180.48 208.53 0c175.68,0 315,31.43 419.45,94.16 103.02,62.83 172.87,135.96 206.03,220.16 34.89,84.53 50.44,294.68 50.44,630.74l0 4325.16c0,331.04 -15.55,534.74 -50.44,610.73 -43.08,110.94 -104.43,188.73 -185.6,233.32 -110.74,68.09 -257.85,102.73 -439.88,102.73l-208.53 0 0 178.72 3172.18 0 0 -178.72c-232.44,0 -400.37,-29.6 -506.55,-90.94 -104.42,-59.62 -175.68,-130.6 -212.02,-215.13 -38.1,-84.56 -56.8,-298.24 -56.8,-640.71l0 -1794.44 232.48 -203.73 1442.16 1896.85c285.04,373.87 427.56,630.73 427.56,766.3 0,70.95 -30.37,130.57 -92.11,178.72 -59.93,48.15 -192.93,82.76 -400.36,102.73l0 178.75 3273.77 0 0 -178.75c-181.68,0 -354.54,-52.78 -519.28,-155.54 -224.72,-145.56 -493.54,-422.03 -807.16,-829.06z"/>
</symbol>
<symbol id="Fm7-24-0" viewBox="44058.83 -11423.21 6382.45 6726.76">
 <path class="fil0" d="M49294.4 -7344.57l-3046.27 -4078.29 0.74 -0.35 -2190.04 0 0 180.51c188.03,6.42 332.67,36.37 432.15,90.95 101.25,56.37 216.25,170.53 346.78,344.27l131.94 175.51 0 4641.25c0,349.25 -67.03,596.12 -200.41,741.68 -133.71,145.56 -370.42,220.1 -710.46,223.31l0 178.75 2190.04 0 0 -178.75 -146.05 0c-208.49,0 -394.76,-66.01 -556.68,-200.13 -162.98,-132.36 -244.12,-387.42 -244.12,-764.86l0 -4181.05 4174.77 5475.32 155.19 0 0 -5475.32c0,-309.63 25.08,-529.77 74.47,-657.12 49.39,-127.71 119.55,-220.1 209.9,-276.47 89.96,-56.38 263.84,-102.38 524.93,-137.34l0 -180.51 -2039.05 0 0 180.51c343.6,-6.42 587.34,84.53 733.42,271.46 105.84,139.14 158.75,405.63 158.75,799.47l0 2827.2z"/>
</symbol>
<symbol id="Fm9-26-0" viewBox="29610.33 -19362.23 4856.41 5593.78">
 <path class="fil0" d="M34466.74 -17847.12l0 -1515.11 -0.35 0 -4856.06 0 0 1515.11 151.06 0c61.28,-412.4 206.98,-730.96 438.19,-953.24 164.57,-160.52 430,-239.36 793.36,-239.36l391.87 0 0 4313.76c0,281.45 -14.96,454.49 -44.88,519.4 -39.19,94.54 -93.7,160.9 -163.16,198.72 -95.11,57.78 -221.93,87.42 -378.35,87.42l-179.53 0 0 151.97 2830.76 0 0 -151.97 -179.56 0c-153.89,0 -275.03,-26.78 -364.78,-81.71 -88.37,-53.51 -148.2,-115.6 -179.56,-187.29 -29.92,-72.07 -44.87,-250.79 -44.87,-536.54l0 -4313.76 402.9 0c251.89,0 428.56,23.92 529.38,74.57 181.33,90.25 324.2,211.18 427.5,364.57 103.68,152.32 197.38,402.76 283.24,753.46l142.84 0z"/>
</symbol>
 <g id="Слой_x0020_1">
  <metadata id="CorelCorpID_0Corel-Layer"/>
  <g id="_1580700192768">
   <path class="fil1" d="M13202.12 996.22l291.81 -98.89 0 1802.75 -291.81 0 0 -1703.86zm990.16 484.7c31.33,-42.84 73.77,-77.06 127.34,-102.6 53.6,-25.58 117.47,-38.36 191.66,-38.36 69.25,0 133.96,14.84 194.13,44.51 60.17,29.68 112.52,73.8 157.01,132.31 44.52,58.52 79.55,131.47 105.12,218.86 25.54,87.39 38.33,188.78 38.33,304.16 0,112.12 -13.19,211.02 -39.57,296.76 -26.39,85.74 -62.66,158.25 -108.83,217.61 -46.13,59.36 -100.54,104.28 -163.2,134.77 -62.65,30.52 -131.06,45.76 -205.26,45.76 -70.87,0 -136.82,-14.43 -197.83,-43.27 -61,-28.87 -104.68,-67.2 -131.06,-115.02l0 123.67 -257.19 0 0 -1703.86 289.35 -98.89 0 583.59zm232.46 138.5c-105.53,0 -188.78,69.25 -249.78,207.72l0 403.09c11.54,29.67 25.57,57.7 42.06,84.09 16.45,26.35 35.43,49.86 56.86,70.46 21.44,20.59 45.33,37.08 71.71,49.46 26.38,12.35 56.06,18.54 89.04,18.54 85.71,0 154.96,-34.62 207.72,-103.87 52.76,-69.22 79.11,-173.9 79.11,-314.05 0,-140.12 -26.78,-244.4 -80.36,-312.81 -53.57,-68.44 -125.71,-102.63 -216.36,-102.63zm1555.14 971.83c-42.87,46.17 -92.73,81.64 -149.6,106.37 -56.9,24.7 -122.42,37.08 -196.62,37.08 -57.71,0 -114.57,-9.08 -170.63,-27.22 -56.03,-18.11 -105.9,-45.73 -149.61,-82.81 -43.68,-37.12 -79.11,-84.93 -106.33,-143.45 -27.19,-58.52 -40.79,-128.17 -40.79,-208.97 0,-74.16 14.4,-138.06 43.27,-191.63 28.84,-53.6 67.17,-98.09 114.99,-133.56 47.81,-35.43 103.03,-61.41 165.69,-77.89 62.62,-16.49 128.57,-24.74 197.82,-24.74 62.66,0 116.63,9.09 161.99,27.22 45.33,18.14 83.66,40.38 114.98,66.77 0,-108.8 -16.48,-190.43 -49.46,-244.81 -32.98,-54.41 -96.44,-81.63 -190.42,-81.63 -70.87,0 -134.77,10.73 -191.64,32.17 -56.87,21.43 -102.63,44.52 -137.26,69.22l-121.17 -234.91c42.87,-37.93 103.04,-70.5 180.53,-97.69 77.5,-27.19 170.64,-40.81 279.43,-40.81 168.18,0 294.3,46.16 378.36,138.5 84.09,92.33 126.12,242.34 126.12,450.06l0 771.56 -259.65 0 0 -108.83zm57.18 -435.22c-26.38,-24.73 -64.3,-45.33 -113.76,-61.82 -49.47,-16.48 -102.2,-24.73 -158.26,-24.73 -80.79,0 -143.42,16.08 -187.93,48.22 -44.52,32.14 -66.8,83.69 -66.8,154.55 0,69.25 21.87,119.93 65.55,152.1 43.68,32.14 105.09,48.22 184.23,48.22 29.68,0 58.93,-4.14 87.8,-12.38 28.83,-8.21 55.62,-18.54 80.35,-30.89 24.73,-12.38 46.57,-26.79 65.55,-43.28 18.95,-16.49 33.38,-32.16 43.27,-47l0 -182.99zm1278.52 -254.7c0,-93.98 -18.54,-162.79 -55.65,-206.5 -37.08,-43.68 -90.25,-65.52 -159.5,-65.52 -98.9,0 -178.04,67.6 -237.4,202.77l0 868 -291.81 0 0 -1325.5 274.51 0 0 108.82c47.79,-49.46 101.79,-85.73 161.96,-108.82 60.2,-23.08 121.61,-34.62 184.23,-34.62 57.71,0 111.72,10.73 161.99,32.16 50.27,21.44 94.39,53.17 132.31,95.2 37.89,42.06 67.57,94.39 89.01,157.04 21.43,62.66 32.16,134.37 32.16,215.13l0 860.59 -291.81 0 0 -798.75zm1340.62 798.75l-274.48 -647.9 -148.4 187.94 0 459.96 -291.81 0 0 -1703.86 291.81 -98.89 0 912.51 306.65 -435.26 373.41 0 -351.16 447.61 437.71 877.89 -343.73 0zm-14847.78 -625.65c0,47.81 8.25,93.14 24.74,136.01 16.48,42.87 39.57,80.36 69.25,112.52 29.67,32.14 64.27,57.71 103.84,76.66 39.57,18.94 83.25,28.43 131.07,28.43 44.51,0 86.98,-9.49 127.36,-28.43 40.38,-18.95 75.84,-44.52 106.33,-76.66 30.49,-32.16 54.41,-69.65 71.71,-112.52 17.33,-42.87 25.98,-88.2 25.98,-136.01l0 -1085.61 291.81 0 0 1085.61c0,92.33 -16.49,177.63 -49.47,255.94 -32.97,78.3 -77.9,146.31 -134.77,204.02 -56.89,57.7 -122.82,102.63 -197.82,134.76 -75.04,32.17 -155.4,48.22 -241.13,48.22 -84.06,0 -164.05,-16.05 -239.86,-48.22 -75.85,-32.13 -141.8,-77.06 -197.83,-134.76 -56.06,-57.71 -100.58,-125.72 -133.55,-204.02 -32.98,-78.31 -49.47,-163.61 -49.47,-255.94l0 -1085.61 291.81 0 0 1085.61zm2042.64 -173.1c0,-93.98 -18.54,-162.79 -55.65,-206.5 -37.09,-43.68 -90.25,-65.52 -159.5,-65.52 -98.9,0 -178.05,67.6 -237.4,202.77l0 868 -291.81 0 0 -1325.5 274.51 0 0 108.82c47.78,-49.46 101.79,-85.73 161.96,-108.82 60.2,-23.08 121.61,-34.62 184.23,-34.62 57.71,0 111.72,10.73 161.99,32.16 50.27,21.44 94.39,53.17 132.31,95.2 37.89,42.06 67.57,94.39 89,157.04 21.44,62.66 32.17,134.37 32.17,215.13l0 860.59 -291.81 0 0 -798.75zm919.92 -526.75l0 1325.5 -291.81 0 0 -1325.5 291.81 0zm-294.27 -311.56c0,-41.22 13.6,-77.09 40.79,-107.58 27.22,-30.52 62.25,-45.76 105.12,-45.76 41.22,0 77.05,15.24 107.57,45.76 30.49,30.49 45.73,66.36 45.73,107.58 0,41.19 -15.24,76.25 -45.73,105.09 -30.52,28.84 -66.35,43.27 -107.57,43.27 -42.87,0 -77.9,-14.43 -105.12,-43.27 -27.19,-28.84 -40.79,-63.9 -40.79,-105.09zm1034.4 1637.06l-479.77 -1325.5 321.48 0 279.46 850.7 279.43 -850.7 311.6 0 -472.34 1325.5 -239.86 0zm1378.04 -1360.12c82.44,0 158.29,15.27 227.51,45.76 69.25,30.49 128.61,75.44 178.07,134.77 49.43,59.35 87.76,131.47 114.98,216.4 27.19,84.9 40.79,181.74 40.79,290.56 0,32.98 -4.95,65.11 -14.81,96.44l-823.51 0c9.89,103.85 41.63,185.88 95.23,246.05 53.57,60.17 124.87,90.25 213.91,90.25 51.08,0 98.49,-10.3 142.17,-30.89 43.71,-20.63 81.2,-49.06 112.52,-85.34l180.53 163.24c-41.22,64.3 -103.47,118.28 -186.72,161.95 -83.25,43.71 -172.69,65.55 -268.29,65.55 -82.44,0 -158.69,-14.84 -228.75,-44.52 -70.06,-29.68 -131.06,-73.76 -182.99,-132.31 -51.95,-58.51 -92.33,-131.06 -121.17,-217.61 -28.87,-86.55 -43.27,-186.69 -43.27,-300.46 0,-115.38 13.59,-216.77 40.78,-304.16 27.19,-87.39 65.55,-160.34 114.99,-218.86 49.46,-58.51 108.82,-102.63 178.07,-132.31 69.22,-29.67 145.9,-44.51 229.96,-44.51zm0 269.56c-74.16,0 -134.36,24.74 -180.53,74.2 -46.13,49.43 -75,123.63 -86.55,222.56l534.16 0c-11.54,-98.93 -40.38,-173.13 -86.55,-222.56 -46.17,-49.46 -106.33,-74.2 -180.53,-74.2zm1138.71 -234.94l0 108.82c24.74,-44.51 63.87,-79.54 117.44,-105.08 53.61,-25.58 109.23,-38.36 166.94,-38.36 80.79,0 144.25,23.08 190.42,69.25l-106.33 262.13c-44.52,-34.63 -90.69,-51.92 -138.5,-51.92 -44.52,0 -85.31,16.89 -122.39,50.67 -37.11,33.82 -67.2,87.8 -90.28,161.99l0 868 -291.81 0 0 -1325.5 274.51 0zm1090.25 -39.54c115.41,0 209.37,13.6 281.91,40.79 72.55,27.19 128.58,61.41 168.15,102.63l-108.79 239.85c-18.14,-23.05 -42.87,-42.43 -73.79,-58.11 -31.33,-15.65 -63.87,-28 -98.5,-37.08 -34.62,-9.05 -67.6,-15.65 -99.73,-19.79 -32.17,-4.1 -57.71,-6.19 -77.5,-6.19 -55.62,0 -98.9,9.49 -129.41,28.47 -30.09,18.94 -45.33,44.92 -45.33,77.9 0,23.05 15.65,44.48 46.97,64.27 30.93,19.78 63.9,37.11 98.53,51.95 58.92,26.35 121.17,51.08 185.88,74.17 65.11,23.08 125.28,51.52 181.34,85.33 55.62,33.79 101.79,77.06 137.66,129.82 36.27,52.76 54.41,121.98 54.41,207.72 0,72.55 -15.27,135.21 -45.76,187.94 -30.49,52.76 -70.06,95.63 -118.72,128.6 -48.62,32.98 -103.44,57.28 -164.44,72.96 -60.98,15.65 -121.98,23.48 -182.99,23.48 -118.68,0 -222.96,-14.83 -312.81,-44.51 -89.88,-29.68 -165.29,-68.41 -226.29,-116.23l111.28 -239.89c51.11,37.93 114.17,69.25 189.18,93.99 75,24.73 152.09,37.08 231.24,37.08 26.35,0 53.16,-1.65 80.35,-4.95 27.19,-3.26 51.92,-9.46 74.2,-18.54 22.24,-9.05 40.78,-21.43 55.62,-37.08 14.84,-15.65 22.28,-35.87 22.28,-60.6 0,-36.25 -17.33,-66.36 -51.96,-90.25 -34.59,-23.9 -73.35,-46.57 -116.22,-68.01 -52.73,-24.73 -110.44,-47.38 -173.1,-68.01 -62.65,-20.59 -121.17,-46.57 -175.58,-77.89 -54.41,-31.33 -100.14,-72.12 -137.23,-122.42 -37.11,-50.27 -55.65,-116.63 -55.65,-199.07 0,-70.87 15.24,-130.63 45.76,-179.29 30.49,-48.62 69.22,-87.76 116.23,-117.44 46.97,-29.68 98.09,-50.71 153.31,-63.06 55.22,-12.38 108.38,-18.54 159.5,-18.54zm1491.03 1256.21c-42.87,46.17 -92.74,81.64 -149.61,106.37 -56.9,24.7 -122.42,37.08 -196.61,37.08 -57.71,0 -114.58,-9.08 -170.64,-27.22 -56.03,-18.11 -105.9,-45.73 -149.61,-82.81 -43.68,-37.12 -79.11,-84.93 -106.33,-143.45 -27.19,-58.52 -40.79,-128.17 -40.79,-208.97 0,-74.16 14.41,-138.06 43.28,-191.63 28.84,-53.6 67.16,-98.09 114.98,-133.56 47.81,-35.43 103.03,-61.41 165.69,-77.89 62.62,-16.49 128.58,-24.74 197.83,-24.74 62.65,0 116.63,9.09 161.99,27.22 45.32,18.14 83.65,40.38 114.98,66.77 0,-108.8 -16.49,-190.43 -49.47,-244.81 -32.97,-54.41 -96.44,-81.63 -190.42,-81.63 -70.87,0 -134.77,10.73 -191.64,32.17 -56.87,21.43 -102.63,44.52 -137.25,69.22l-121.18 -234.91c42.87,-37.93 103.04,-70.5 180.53,-97.69 77.5,-27.19 170.64,-40.81 279.43,-40.81 168.18,0 294.3,46.16 378.36,138.5 84.09,92.33 126.12,242.34 126.12,450.06l0 771.56 -259.64 0 0 -108.83zm-105.93 -435.22c-26.38,-24.73 -64.31,-45.33 -113.77,-61.82 -49.47,-16.48 -102.2,-24.73 -158.26,-24.73 -80.79,0 -143.41,16.08 -187.93,48.22 -44.52,32.14 -66.79,83.69 -66.79,154.55 0,69.25 21.87,119.93 65.55,152.1 43.67,32.14 105.08,48.22 184.23,48.22 29.68,0 58.92,-4.14 87.79,-12.38 28.84,-8.21 55.62,-18.54 80.36,-30.89 24.73,-12.38 46.57,-26.79 65.54,-43.28 18.95,-16.49 33.39,-32.16 43.28,-47l0 -182.99z"/>
   <path class="fil2" d="M-0.07 1.7l2675.79 0 0 2675.76 -2675.79 0 0 -2675.76zm751.02 1132.9l-291.52 284.69 797.93 0 0 760.51 291.53 -284.69 0 -760.51 -797.94 0zm473.93 -462.78l-291.53 284.68 797.94 0 0 760.51 291.52 -284.68 0 -760.51 -797.93 0zm-853.25 -298.44l1932.41 0 0 1932.42 -1932.41 0 0 -1932.42z"/>
  </g>
 </g>
</svg>
