<?xml version="1.0" encoding="UTF-8"?>
<!DOCTYPE svg PUBLIC "-//W3C//DTD SVG 1.1//EN" "http://www.w3.org/Graphics/SVG/1.1/DTD/svg11.dtd">
<!-- Creator: CorelDRAW -->
<svg xmlns="http://www.w3.org/2000/svg" xml:space="preserve" width="190mm" height="28.148mm" version="1.1" style="shape-rendering:geometricPrecision; text-rendering:geometricPrecision; image-rendering:optimizeQuality; fill-rule:evenodd; clip-rule:evenodd"
viewBox="0 0 18999.86 2814.78"
 xmlns:xlink="http://www.w3.org/1999/xlink"
 xmlns:xodm="http://www.corel.com/coreldraw/odm/2003">
 <defs>
  <style type="text/css">
   <![CDATA[
    .fil0 {fill:#01B4FF;fill-rule:nonzero}
   ]]>
  </style>
 </defs>
 <g id="Слой_x0020_1">
  <metadata id="CorelCorpID_0Corel-Layer"/>
  <g>
   <path class="fil0" d="M875.68 2665.1c694.73,-0.07 1257.86,-563.36 1257.79,-1258.07 -0.09,-694.62 -563.17,-1257.7 -1257.79,-1257.79 -51.54,0.07 -103.05,3.26 -154.19,9.57 689.46,86.32 1178.42,715.23 1092.1,1404.7 -71.47,570.94 -521.16,1020.62 -1092.1,1092.12 51.14,6.28 102.65,9.45 154.19,9.47zm-344.19 -228.84c568.37,0.26 1029.31,-460.29 1029.54,-1028.64 0.26,-568.34 -460.29,-1029.28 -1028.64,-1029.53 -42.46,0 -84.87,2.59 -127,7.81 564.05,70.53 964.12,584.94 893.58,1148.97 -58.4,467.19 -426.4,835.17 -893.58,893.57 41.83,5.22 83.96,7.8 126.1,7.82zm840.72 378.52c777.27,-2.21 1405.59,-634.1 1403.38,-1411.41 -2.23,-777.25 -634.13,-1405.59 -1411.41,-1403.36 -55.01,0.14 -109.92,3.54 -164.53,10.11 771.58,96.62 1318.74,800.4 1222.14,1571.97 -79.99,638.92 -583.23,1142.15 -1222.14,1222.16 57.27,6.97 114.87,10.5 172.56,10.53zm-1085.74 -642.2c422.71,-0.19 765.25,-343.01 765.08,-765.74 -0.19,-422.45 -342.61,-764.89 -765.08,-765.08 -31.34,-0.02 -62.65,1.97 -93.74,5.92 419.49,52.58 716.91,435.28 664.33,854.77 -43.54,347.26 -317.07,620.76 -664.33,664.3 31.09,3.87 62.4,5.79 93.74,5.77l0 0.07zm-169.74 -280.64c267.74,0.05 484.81,-216.97 484.83,-484.71 0.05,-267.74 -216.97,-484.8 -484.71,-484.85 -19.89,0 -39.76,1.22 -59.51,3.66 265.72,33.14 454.27,275.43 421.1,541.15 -27.47,220.18 -200.91,393.63 -421.1,421.09 19.7,2.42 39.52,3.66 59.39,3.66zm-116.74 -167.9c174.9,-51.37 275.03,-234.76 223.68,-409.65 -31.66,-107.76 -115.92,-192.04 -223.68,-223.69 174.9,132.67 209.12,381.98 76.47,556.87 -21.88,28.87 -47.62,54.58 -76.47,76.47zm5638.25 -745.15l0 -266.41 1427.87 0 0 286.75 -23.29 19.57 -899.53 756.54 922.82 0 0 331.3 -1468.97 0 0 -286.97 23.5 -19.63 910.38 -756.26 -892.5 0 0 -64.95 -0.28 0.06zm-1376.72 669.44c-1.29,27.21 2.84,54.42 12.18,80.01 3.63,9.64 10.78,17.55 20.05,22.02 38.98,10.94 79.17,16.92 119.63,17.84 66.43,4.66 156.17,7.01 269.23,7.01l2.89 0c110.76,0 200.61,-2.54 269.52,-7.6 10.13,-0.7 20.26,-1.55 30.4,-2.37 29.86,-1.5 59.46,-6.62 88.11,-15.22 8.86,-4.72 15.64,-12.58 18.99,-22.03 9.36,-25.71 13.51,-53.03 12.25,-80.36l0 -953.16 348.9 0 0 954.51c2.08,77.58 -7.39,155.08 -28.15,229.89 -3.73,11.63 -7.04,21.46 -10.63,29.55 -17.03,46.45 -49.47,85.64 -91.9,111.07 -74.62,38.19 -156.16,60.99 -239.76,67.04 -133.02,14.78 -266.84,21.39 -400.68,19.86l-1.9 0c-131.57,1.37 -263.1,-4.15 -394.08,-16.53 -31.11,-3.31 -62.06,-7.74 -92.89,-13.33 -47.38,-6.97 -93.31,-21.62 -135.95,-43.39 -55.05,-34.3 -95.49,-87.76 -113.51,-150.05 -23.13,-76.05 -33.83,-155.36 -31.67,-234.83l0 -953.79 349.11 0 0 953.72 -0.14 0.14zm3029.07 -935.92l1382.84 0 0 331.24 -548.4 0 0 1062.58 -349.17 0 0 -1062.58 -549.95 0 0 -331.24 64.39 0 0.28 0zm1608.17 0l1275.31 0 0 331.24 -991.3 0 0 191.33 957.03 0 0 331.24 -956.53 0 0 209 990.8 0 0 331.26 -1339.84 0 0 -1393.98 64.53 0 0 -0.08zm1525.9 0l282.47 0 0 1062.59 940.98 0 0 330.74 -1287.77 0 0 -1393.33 64.53 0 -0.21 0zm1444.06 0l1275.29 0 0 331.24 -991.14 0 0 191.33 957.03 0 0 331.24 -957.03 0 0 209 990.95 0 0 331.26 -1339.84 0 0 -1393.98 64.53 0 0.21 -0.08zm1798.8 680.9c0,199.71 14.68,312.77 44.05,339.18 2.72,2.21 5.72,3.99 8.93,5.35 8.43,3.78 17.13,6.9 26.04,9.29 114.61,23.36 231.61,32.84 348.48,28.15 111.96,0 200.2,-2.32 264.24,-7.02 35.89,-0.75 71.59,-5.72 106.32,-14.8 2.87,-1.75 5.57,-3.79 8.03,-6.12 3.68,-3.43 6.97,-7.3 9.78,-11.47 27.3,-54.4 39.01,-115.26 33.78,-175.92l0 -64.89 349.03 0 0 65.52c2.4,94.6 -9.47,189.01 -35.18,280.09 -4.15,13.07 -8.52,25.18 -13.02,36.11 -20.83,56.88 -59.27,105.69 -109.71,139.3l-0.42 0c-16.65,10.28 -34.2,19.03 -52.43,26.12 -20.28,7.99 -41.02,14.77 -62.13,20.28 -163.78,34.32 -331.04,49.03 -498.29,43.75 -130.35,2.16 -260.66,-7.7 -389.22,-29.41 -87.49,-11.59 -170.4,-46.07 -240.32,-99.93 -59.88,-61.27 -99.71,-139.31 -114.21,-223.78 -24.46,-118.43 -35.56,-239.24 -33.14,-360.15 -2.39,-121.28 8.63,-242.43 32.93,-361.28 14.19,-84.71 53.58,-163.17 113.01,-225.19 69.77,-54.49 152.85,-89.3 240.6,-100.84 128.92,-21.82 259.6,-31.67 390.35,-29.42l1.4 0c126.67,-1.57 253.32,5.26 379.09,20.41 19,2.68 35.18,5.07 47.55,7.04 65.37,8.84 128.49,29.79 186.15,61.78l1.48 0.78c28.99,18.92 53.81,43.61 72.9,72.48 20.76,31.53 36.85,65.86 47.85,101.97 25.73,91.55 37.58,186.43 35.19,281.48l0 64.95 -349.04 0 0 -63.83c0,-109.64 -12.74,-170.86 -38.21,-183.66 -37.58,-12.84 -76.89,-19.94 -116.63,-21.11 -65.04,-5.87 -154.18,-8.78 -267.38,-8.73 -225.19,0 -353.24,14.07 -384.08,42.22 -16.73,26.93 -26.42,57.63 -28.15,89.3 -11.66,83.62 -16.75,168.02 -15.3,252.42l-0.32 -0.42zm2211.13 382.04c107.57,1.34 215.12,-3.36 322.18,-14.07 42.29,-1.13 83.88,-10.94 122.23,-28.79 17.74,-26.06 28.13,-56.41 30.12,-87.89 12.29,-83.15 17.69,-167.18 16.05,-251.22 1.55,-84.49 -3.85,-168.99 -16.12,-252.63 -1.92,-31.53 -12.08,-62 -29.42,-88.39 -38.41,-17.47 -79.96,-27.04 -122.15,-28.15 -107.32,-10.71 -215.18,-15.41 -323.01,-14.07 -107.92,-1.36 -215.82,3.33 -323.21,14.07 -42.13,1.08 -83.57,10.82 -121.81,28.58 -1.69,1.71 -3.17,3.61 -4.36,5.69 -3.87,6.71 -7.02,13.8 -9.5,21.12 -26.25,102.48 -36.85,208.34 -31.45,313.99 -1.6,83.81 3.77,167.6 16.11,250.54 2.02,31.58 12.43,62.07 30.18,88.29 3.03,2.21 6.34,3.99 9.86,5.28 9.99,3.99 20.22,7.2 30.68,9.64 133.14,23.55 268.39,32.98 403.5,28.15l0.12 -0.14zm0 331.23l-1.87 0c-130.19,0 -241.24,-4.38 -333.14,-13.16 -29.08,-2.6 -58.08,-6.02 -86.98,-10.2 -47.69,-6.43 -94.76,-16.77 -140.74,-30.96l-0.77 0c-16.77,-5.4 -33.21,-11.78 -49.26,-19.05 -15.39,-6.97 -30.33,-14.92 -44.69,-23.81 -73.37,-44.78 -127.06,-115.69 -150.31,-198.44l0 -0.92c-3.66,-12.31 -6.68,-24.84 -9.15,-37.51 -2.74,-14.05 -5.09,-28.76 -7.03,-43.13 -12.24,-111.45 -17.5,-223.5 -15.77,-335.6 0,-102.69 2.35,-188.43 7.04,-257.2 2.25,-53.86 10.02,-107.36 23.16,-159.67l0 -0.5c5.02,-16.23 11.07,-32.11 18.15,-47.56 6.78,-15.2 14.61,-29.91 23.43,-44.06 48.04,-73.63 120.95,-127.53 205.41,-151.93 74.9,-22.19 152,-36.36 229.9,-42.22 93.83,-9.1 204.83,-13.65 332.99,-13.65 130.43,0 241.61,4.36 333.56,13.08 77.32,5.68 153.78,19.64 228.14,41.59 16.59,5.42 32.84,11.81 48.7,19.07 15.48,7.02 30.47,15.04 44.89,24 73.52,45.37 127.49,116.53 151.37,199.57 13.91,53.35 22.28,108 24.98,163.05 5.07,68.87 7.58,154.06 7.58,255.59 0,101.54 -2.32,186.69 -7.01,255.44 -2.28,53.95 -10.12,107.53 -23.37,159.91 -16.21,57.46 -46.89,109.82 -89.08,152.04 -43.94,42.39 -97.33,73.75 -155.73,91.48l-0.78 0c-16.94,5.45 -35.02,10.37 -54.25,14.78 -19.24,4.41 -39.86,8.47 -61.86,12.1 -148.25,20.79 -297.9,29.94 -447.55,27.45l0.04 0.42zm1507.98 -1363.2l569.65 920.08 569.3 -920.08 19.14 -30.97 455.15 0 0 1394.17 -347 0 0 -920.15 -575.41 890.53 -19.24 29.62 -204.05 0 -19.14 -29.62 -573.31 -887.72 0 917.34 -349.03 0 0 -1394.17 454.59 0 19.35 30.97z"/>
  </g>
 </g>
</svg>
