<?xml version="1.0" encoding="UTF-8"?>
<!DOCTYPE svg PUBLIC "-//W3C//DTD SVG 1.1//EN" "http://www.w3.org/Graphics/SVG/1.1/DTD/svg11.dtd">
<!-- Creator: CorelDRAW -->
<svg xmlns="http://www.w3.org/2000/svg" xml:space="preserve" width="297mm" height="55.241mm" version="1.1" style="shape-rendering:geometricPrecision; text-rendering:geometricPrecision; image-rendering:optimizeQuality; fill-rule:evenodd; clip-rule:evenodd"
viewBox="0 0 29700 5524.1"
 xmlns:xlink="http://www.w3.org/1999/xlink"
 xmlns:xodm="http://www.corel.com/coreldraw/odm/2003">
 <defs>
  <style type="text/css">
   <![CDATA[
    .fil1 {fill:#5B5B5B}
    .fil0 {fill:#EF7F1A}
   ]]>
  </style>
 </defs>
 <g id="Слой_x0020_1">
  <metadata id="CorelCorpID_0Corel-Layer"/>
  <g id="_1625112234848">
   <path class="fil0" d="M-0.57 2758.53l0 93.29c94.23,130.87 252.06,119.84 407.92,106.2 516.21,-44.98 1146.31,-357.01 1270.83,-352.43 454.25,16.97 912.56,128.27 1298.52,322.55 169.5,85.37 204.17,169.6 329.73,17.28 -300.06,-308.6 -1364.42,-466.23 -1408.78,-496.84 224.79,-116.6 554.93,-331.08 709.13,-533.58 585.33,84.43 1078.94,471.12 1209.71,509.43l65.38 -142.43c-259.35,-277.67 -1027.2,-457.9 -1136.62,-517.03 83.19,-175.64 176.06,-242.59 167.94,-513.91 113.17,6.35 454.04,155.86 555.03,203.54 163.46,77.15 407.72,244.57 487.47,278.61 -18.01,-88.49 -45.29,-150.55 -92.66,-223.22 -120.36,-184.39 -630.42,-337.23 -856.97,-408.65 -329.53,-104.01 -96.31,-95.06 -379.08,-251.75l-239.36 -103.7c536.08,-44.04 1202.63,268.2 1498.21,657.59 497.87,655.92 -202.51,1379 -649.47,1703.21 -322.86,234.26 -682.68,423.02 -1063.74,565.24 -318.9,119 -1491.13,465.71 -1777.03,187.93 31.03,-195.22 587.21,-310.47 837.19,-323.28 186.67,-9.68 371.37,-3.54 546.81,26.14 86,14.47 155.75,36.64 229.57,54.13 89.64,21.24 140.55,-25.71 228.74,-47.37 -89.33,-113.07 -543.58,-170.33 -661.23,-180.64 -1273.22,-110.67 -1813.58,619.17 -1001.48,761.91 581.79,102.35 1232.4,-94.84 1746.42,-295.58 146.49,-57.16 154.71,-25.3 264.45,78.71 259.35,245.92 88.7,496.01 59.97,618.34 99.01,-39.04 133.99,-27.49 168.77,-136.6 103.7,-324.31 -76.63,-473.3 -229.78,-672.06 229.15,-116.19 435.3,-217.6 642.8,-362.52 60.91,-42.59 152.01,-122.76 218.64,-139.1 126.61,158.25 314.95,345.03 315.37,668 61.84,-18.74 101.82,-63.1 136.28,-116.61 36.55,-124.31 -154.19,-429.99 -229.15,-526.72 -40.5,-52.26 -90.79,-84.95 -110.26,-141.38 74.34,-61.12 163.67,-134.83 247.17,-230.72l155.86 -193.45c10.41,-14.26 16.03,-24.26 27.9,-38.73 2.19,-2.6 5.41,-6.66 7.6,-9.16 2.29,-2.6 6.25,-6.66 8.22,-8.95l17.7 -16.87c152.95,132.02 234.68,287.46 334.52,514.33 38.32,-45.81 58.31,-128.69 70.8,-193.35 31.86,-164.7 -221.87,-393.03 -309.63,-485.07 17.17,-100.88 82.77,-211.04 104.63,-318.38l32.48 -114.84c104.12,92.87 234.78,366.49 262.27,553.37 38.73,264.66 -30.4,502.15 -125.15,698.4 -334.31,692.47 -1183.26,1185.97 -1903.84,1405.66 -252.48,76.94 -1244.58,300.16 -1382.54,20.4 86.11,-159.4 418.65,-181.37 635.94,-162.31 114.21,10.1 227.07,38.31 330.87,68.19 109.74,31.55 211.46,88.92 316.72,11.04 -265.08,-192.51 -1160.46,-343.37 -1405.03,-28.53 -97.97,126.19 -20.3,248.73 60.6,313.18 85.16,67.88 219.47,103.18 350.65,117.34 335.25,35.91 522.24,-20.2 828.45,-49.35 -158.47,462.89 618.02,303.7 880.91,210.72 168.77,-59.76 330.36,-131.08 468.72,-213.43 1154.12,-686.64 949.32,-1442.2 1052.4,-1692.39 142.01,-344.72 138.26,-784.19 -43.52,-1112.67 -98.71,-178.35 -178.14,-264.24 -299.44,-383.04 -129.62,-126.81 -83.29,-468.62 -590.43,-789.81 -281.74,-178.35 -618.44,-328.59 -1012.31,-368.67 -369.5,-37.69 -344.2,41.13 -574.3,84.44 -208.02,39.04 -393.45,-43.84 -616.77,79.96l-2.29 99.32c87.97,38.32 95.57,73.4 194.48,12.6 80.07,-49.25 97.14,-94.74 223.12,-80.38 -243.52,137.85 -486.53,306.2 -746.61,436.66 -136.28,68.3 -267.47,129.31 -406.36,191.47 -85.06,38 -398.44,123.58 -346.18,249.66 77.36,114.63 362.84,50.81 507.67,45.61 372.94,-13.23 744.73,6.24 1110.69,54.66 206.67,27.27 282.26,92.76 417.71,-87.15 -167.62,-115.46 -1286.23,-134.31 -1562.66,-132.22 35.09,-34.78 666.65,-368.57 801.17,-464.46 214.16,-152.63 159.4,-122.02 459.35,-65.07 171.48,32.69 364.71,91.41 528.8,114.11 -97.45,-266.53 -439.37,-205.83 -637.08,-295.48 104.95,-63.4 93.7,-62.05 235.82,-28.73 857.07,200.42 428.12,842.91 -79.65,1198.25 -442.28,309.33 -1013.87,569.61 -1565.47,679.97 -47.89,9.69 -90.47,17.08 -139.93,25.51l-136.28 -0.73c206.67,-56.53 889.24,-208.33 999.08,-313.59 -224.68,-10.41 -549.52,26.65 -755.35,67.15 -120.88,23.74 -222.6,48.63 -332.44,89.44 -148.67,55.28 -172.52,67.99 -258.31,169.39zm2330.3 2344.14c-16.76,-139.3 101.51,-177.2 214.79,-209.47 299.54,-85.48 66.53,-53.52 364.71,-40.19 350.24,15.62 677.79,-176.58 850.31,-441.76 87.24,-134 58.61,-148.05 181.47,-250.81 221.45,-185.12 245.71,-224.16 429.78,-432.08 -74.75,788.98 -1559.74,1613.57 -2041.06,1374.31zm651.86 -368.35c191.36,-50.71 403.34,-216.87 567.22,-286.21 -77.98,77.67 -112.55,118.69 -230.93,186.47 -84.02,48.3 -226.34,106.82 -336.29,99.74z"/>
   <g>
    <path class="fil0" d="M24557.54 2157.39c14.49,-20.45 8.22,-8.42 19.28,-40.32 3.72,-11.06 7.05,-27.89 9.01,-39.64 3.52,-20.16 3.72,-39.54 8.32,-64.39 7.43,-39.74 20.25,-83.09 39.44,-116.86 35.42,-61.75 97.57,-114.01 174.3,-139.85 142,-47.85 439.81,-48.93 594.53,-17.71 185.36,37.48 288.71,123.9 329.71,313.47 25.74,118.71 36.31,461.73 18.3,586.31 -652.47,86.32 -1949.88,-62.14 -1794.18,1114.4 57.35,433.94 342.05,634.57 820.12,630.26 621.55,-5.58 917.6,-396.85 1023.1,-436.97l58.13 370.32 800.05 -7.04 -2.93 -304.46c-56.08,-14 -129.48,-19.68 -189.76,-27.7 -47.76,-6.36 -145.73,-8.03 -175.58,-47.47 -41.1,-74.08 -15.95,-1202.57 -15.95,-1390.77 0,-465.94 -6.16,-867.58 -320.71,-1067.23 -376,-238.79 -1952.72,-318.07 -1864.64,636.32l469.46 49.33zm1197.79 850.65c-0.88,103.74 22.21,482.29 -16.93,541.1 -34.65,51.97 -246.53,200.14 -318.17,243.69 -524.17,318.16 -1031.5,232.33 -921.31,-375.12 28.38,-156.49 131.34,-241.24 271.09,-288.9 183.4,-62.73 776.08,-124.78 985.32,-120.77zm3944.1 -1313.95l0 -311.6 -1141.21 -4.51 -55.69 315.72 376 48.35c-21.92,105.69 -576.63,1413.97 -677.13,1658.43 -26.43,64.5 -71.06,198.97 -112.84,235.67l-746.53 -1895.28 373.17 -42.37 1.86 -318.46 -1174.69 -2.06c-36.21,61.27 -71.93,240.27 -67.92,317.09 418.08,174.4 186.43,-184.18 618.61,808.86l641.02 1516.24c129.09,304.17 130.07,204.45 0.69,508.03 -70.95,166.47 -142.89,341.06 -218.05,500.87 -62.14,132.03 -64.78,120.48 -221.86,138.29 -70.17,7.93 -257.88,23.88 -313.46,44.23l-7.54 312c1008.22,9.89 798.39,84.46 1078.48,-553.04 167.85,-382.17 318.27,-774.12 481.31,-1159.61l843.7 -2016.34c62.84,-88.47 206.4,-70.27 322.08,-100.51zm-8994.88 -14.68c86.13,55.2 289.69,76.04 356.53,136.13 61.26,54.91 34.06,353.3 34.06,457.72 0,400.18 23.88,2822.07 -14.1,2870.02 -87.39,51.68 -213.93,31.91 -312.87,68.22l-1.18 312.78 1473.87 -5.19 -0.49 -302.7c-141.32,-24.66 -510.47,-26.23 -605.4,-67.82 -42.67,-76.73 -27.01,-915.73 -19.87,-1063.51 188.98,90.43 275.4,250.34 698.47,291.54 941.67,91.7 1350.65,-615.97 1353.78,-1587.48 2.06,-637.7 -136.32,-1150.91 -599.23,-1371.79 -376.88,-179.78 -842.34,-92.29 -1210.61,109.12 -81.62,44.72 -242.9,169.3 -299.76,185.06l-48.44 -333.04 -749.66 2.65c-39.34,68.11 -55,212.07 -55.1,298.29zm910.75 431.59c83.48,-43.16 182.52,-124.68 287.43,-179.68 1331.76,-697.98 1374.53,934.82 1131.63,1569.18 -197.69,516.35 -745.84,578.39 -1208.06,253.67 -155.61,-109.41 -213.74,-134.86 -214.82,-260.91 -3.33,-373.26 -12.33,-1060.38 3.82,-1382.26z"/>
    <path class="fil1" d="M7069.87 1696.4l2.98 -318.85 -1145.11 2.16c-38.56,65.77 -78.21,239.12 -69.02,321.91 412.91,65.05 324.17,54.69 467.42,485.62 117.75,354.43 613.54,1932.81 699.04,2129.39l626.71 -2.7 620.21 -2225.8c25.05,32.98 67.21,232.36 78.02,278.31 22.44,95.32 43.16,182.71 66.31,275.96 118.3,476.69 287.77,1282.32 408.32,1673.6l603.9 -1.8c47.12,-70.36 192.9,-585.71 228.66,-703.73l445.71 -1429.36c174.33,-531.56 55.49,-398.31 451.19,-484.35l2.89 -319.21 -1081.6 6.31c-24.41,65.41 -66.58,257.85 -53.78,316.32l358.66 41.18 -617.87 2006.86c-40.36,-44.95 -36.58,-75.22 -51.17,-138.38l-377.86 -1580.18c-38.38,-156.95 -88.29,-437.59 -138.75,-565.17l-600.03 3.52 -656.7 2300.76 -627.25 -2026.42 359.12 -45.95zm12447.01 362.81c6.3,66.67 17.39,1322.42 0.36,1397.65 -13.25,58.47 -462.55,514.08 -898.88,488.49 -865.91,-50.81 -671.21,-1592.7 -404.89,-1936.59 342,-441.56 926.27,-236.32 1303.41,50.45zm-2049.85 901.85c2.26,638.51 182.9,1147 649.23,1347.29 247.31,106.22 601.74,95.32 856.08,7.92 333.99,-114.87 523.28,-353.8 597.87,-378.4l52.8 378.4 799.5 -4.59c8.11,-82.44 22.35,-240.01 -8.28,-301.55 -47.57,-50.18 -300.47,-3.51 -356.15,-88.47 -36.85,-64.42 -11.62,-3512.36 -14.33,-3914.54l-878.06 0.9 -44.06 306.77c482.91,125.05 411.38,130.46 411.38,426.87 0.09,279.57 -3.79,561.92 0.45,841.13 -65.86,-17.03 -305.52,-221 -735.45,-253.98 -971.59,-74.51 -1334.67,646.88 -1330.98,1632.25zm-5582.47 -1193.94c673.55,-60.54 922.12,358.94 933.38,990.15 11.35,630.48 -141.99,1144.03 -748.87,1201.42 -669.13,63.24 -919.87,-380.38 -953.29,-997.54 -35.14,-647.87 161.72,-1139.43 768.78,-1194.03zm1468.01 1240.7c78.38,-905.9 -282.54,-1636.75 -1221.6,-1681.44 -954.29,-45.41 -1505.94,456.06 -1555.41,1352.96 -53.24,964.01 309.84,1634.32 1228.09,1700.09 998.26,71.36 1470.99,-472.01 1548.92,-1371.61zm249.11 -1328.45c52.71,34.6 207.58,77.03 287.13,102.98 141,45.86 110.82,113.43 110.73,272.09l0 1562.97c0,449.66 31.17,305.87 -377.95,383.17l4.33 315.6 1511.7 -7.02c3.79,-72.53 4.87,-167.4 3.07,-240.11 -2.8,-107.75 -112.08,-74.69 -394.26,-100.54 -38.02,-3.52 -75.95,-3.97 -113.79,-8.02 -47.39,-5.14 -67.93,-7.21 -91.27,-35.14 -45.86,-62.79 -20.54,-1249.44 -20.54,-1433.23 0,-387.77 -51.53,-340.02 199.38,-522.64 129.29,-94.15 312.9,-213.17 522.55,-193.44 53.16,100.37 62.26,318.04 93.7,446.42l404.71 14.33 -3.96 -863.02c-643.01,-179.02 -972.49,101.99 -1255.66,398.67 -24.96,-23.61 -11.89,-2.79 -26.94,-41.9 -1.71,-4.32 -9.37,-46.12 -10.18,-51.98 -4.77,-33.7 -7.48,-62.53 -12.16,-95.23 -8.92,-63.34 -13.07,-142.8 -33.61,-205.42l-748.87 2.71 -48.11 298.75zm2727.63 -1226.91c55.86,66.58 26.94,371.46 26.94,476.78l0 2547.44c0,146.67 24.6,393.08 -34.6,478.85l-414.16 47.03 2.88 313.35 1399.27 -6.75c21.44,-346.87 38.11,-304.25 -223.35,-332.18 -78.29,-8.38 -125.86,-9.46 -194.15,-38.11 -33.61,-111.54 -16.58,-3752.74 -12.62,-3931.57l-893.56 7.74 -41.63 301.64c71.99,16.49 353.63,98.3 384.98,135.78z"/>
   </g>
  </g>
 </g>
</svg>
